<svg width="21" height="20" viewBox="0 0 21 20" fill="none" xmlns="http://www.w3.org/2000/svg">
<path d="M7.32715 1.23389V3.23389V1.23389ZM13.5771 1.23389V3.23389V1.23389ZM7.32715 17.2339V19.2339V17.2339ZM13.5771 17.2339V19.2339V17.2339ZM3.16048 7.23389H1.07715H3.16048ZM3.16048 13.2339H1.07715H3.16048ZM19.8271 7.23389H17.7438H19.8271ZM19.8271 13.2339H17.7438H19.8271ZM5.24381 17.2339H15.6605C16.213 17.2339 16.7429 17.0232 17.1336 16.6481C17.5243 16.273 17.7438 15.7643 17.7438 15.2339V5.23389C17.7438 4.70345 17.5243 4.19475 17.1336 3.81967C16.7429 3.4446 16.213 3.23389 15.6605 3.23389H5.24381C4.69128 3.23389 4.16138 3.4446 3.77068 3.81967C3.37998 4.19475 3.16048 4.70345 3.16048 5.23389V15.2339C3.16048 15.7643 3.37998 16.273 3.77068 16.6481C4.16138 17.0232 4.69128 17.2339 5.24381 17.2339ZM7.32715 7.23389H13.5771V13.2339H7.32715V7.23389Z" stroke="#202020" stroke-width="1.5" stroke-linecap="round" stroke-linejoin="round"/>
</svg>
