<svg width="19" height="21" viewBox="0 0 19 21" fill="none" xmlns="http://www.w3.org/2000/svg">
<path d="M15.6768 16.6431L17.6768 15.6431V13.1431M11.6768 8.64307L9.67676 9.64307L11.6768 8.64307ZM9.67676 9.64307L7.67676 8.64307L9.67676 9.64307ZM9.67676 9.64307V12.1431V9.64307ZM17.6768 5.64307L15.6768 6.64307L17.6768 5.64307ZM17.6768 5.64307L15.6768 4.64307L17.6768 5.64307ZM17.6768 5.64307V8.14307V5.64307ZM11.6768 2.64307L9.67676 1.64307L7.67676 2.64307H11.6768ZM1.67676 5.64307L3.67676 4.64307L1.67676 5.64307ZM1.67676 5.64307L3.67676 6.64307L1.67676 5.64307ZM1.67676 5.64307V8.14307V5.64307ZM9.67676 19.6431L7.67676 18.6431L9.67676 19.6431ZM9.67676 19.6431L11.6768 18.6431L9.67676 19.6431ZM9.67676 19.6431V17.1431V19.6431ZM3.67676 16.6431L1.67676 15.6431V13.1431L3.67676 16.6431Z" stroke="black" stroke-width="1.5" stroke-linecap="round" stroke-linejoin="round"/>
</svg>
