<svg width="116" height="20" viewBox="0 0 116 20" fill="none" xmlns="http://www.w3.org/2000/svg">
<path d="M0 0.363281H0.89641V7.63975C1.07453 7.41458 1.27181 7.20425 1.48615 7.01099C1.98099 6.51449 2.57511 6.12104 3.23219 5.85469C3.88927 5.58835 4.5955 5.45471 5.30769 5.46196C6.02487 5.45046 6.73683 5.58204 7.39932 5.84852C8.06181 6.115 8.66068 6.51069 9.15872 7.01099C9.67552 7.49565 10.0841 8.07807 10.359 8.72211C10.6339 9.36616 10.7694 10.0581 10.7569 10.755C10.7681 11.45 10.632 12.1398 10.3571 12.7819C10.0822 13.4239 9.67434 14.0044 9.15872 14.4875C8.66098 14.9886 8.06229 15.3852 7.39983 15.6526C6.73736 15.9201 6.02525 16.0527 5.30769 16.0423C4.59059 16.0519 3.87914 15.9183 3.21762 15.6498C2.5561 15.3813 1.95868 14.9838 1.46256 14.4818C1.24822 14.2886 1.05095 14.0782 0.872821 13.8531V15.7965H0V0.363281ZM0.89641 9.85185V11.6638C1.0674 12.4904 1.49549 13.2465 2.12308 13.8302C2.53565 14.2433 3.0309 14.5705 3.57849 14.7917C4.12609 15.0128 4.71451 15.1233 5.30769 15.1163C5.90022 15.1261 6.48854 15.0181 7.03628 14.7988C7.58403 14.5796 8.07958 14.2538 8.49231 13.8416C8.91836 13.4419 9.25538 12.9618 9.48258 12.4309C9.70978 11.9 9.82235 11.3296 9.81333 10.755C9.82107 10.1796 9.70795 9.60878 9.48085 9.07716C9.25374 8.54553 8.91741 8.06426 8.49231 7.66262C8.08102 7.24782 7.58601 6.91956 7.03811 6.6983C6.49022 6.47703 5.90117 6.3675 5.30769 6.37652C4.71451 6.36953 4.12609 6.47999 3.57849 6.70114C3.0309 6.92228 2.53565 7.24946 2.12308 7.66262C1.49493 8.25516 1.06718 9.01856 0.89641 9.85185V9.85185Z" fill="#666666"/>
<path d="M23.2123 15.7964H22.3159V13.8416C22.1359 14.0688 21.9388 14.2828 21.7262 14.4818C21.2212 14.9753 20.6204 15.3671 19.9584 15.6345C19.2964 15.9018 18.5864 16.0395 17.8692 16.0395C17.1521 16.0395 16.442 15.9018 15.78 15.6345C15.1181 15.3671 14.5173 14.9753 14.0123 14.4818C13.4959 13.9989 13.0871 13.4186 12.8112 12.7766C12.5353 12.1346 12.3982 11.4446 12.4082 10.7492C12.3969 10.052 12.5334 9.35987 12.8093 8.71585C13.0853 8.07184 13.4947 7.4896 14.0123 7.00523C15.0353 6.01392 16.4227 5.45703 17.8692 5.45703C19.3158 5.45703 20.7032 6.01392 21.7262 7.00523C21.9388 7.20422 22.1359 7.4182 22.3159 7.64542V6.31359H23.2123V15.7964ZM22.3159 11.6352V9.92039C22.1083 8.92921 21.5544 8.03775 20.7476 7.39633C19.9408 6.75491 18.9304 6.40278 17.8869 6.39933C17.2926 6.39088 16.7029 6.50066 16.1541 6.72187C15.6054 6.94308 15.1092 7.27102 14.6964 7.68543C14.2713 8.08707 13.935 8.56835 13.7079 9.09997C13.4808 9.63159 13.3676 10.2024 13.3754 10.7778C13.3754 11.3515 13.4922 11.9195 13.719 12.4494C13.9459 12.9793 14.2784 13.4606 14.6975 13.8658C15.1166 14.2709 15.614 14.5919 16.1613 14.8104C16.7086 15.0289 17.295 15.1406 17.8869 15.1391C18.9285 15.1351 19.937 14.7842 20.7433 14.1453C21.5497 13.5063 22.1049 12.6181 22.3159 11.6295V11.6352Z" fill="#666666"/>
<path d="M29.0921 13.996L26.5385 19.3634H25.5359L28.1131 14.0132L24.3859 6.31372H25.359L28.5849 12.9386L31.8049 6.33658H32.8015L29.1038 13.996H29.0921Z" fill="#666666"/>
<path d="M44.5846 15.7966H43.6823V13.8417C43.5102 14.0667 43.323 14.2806 43.1221 14.4819C42.6171 14.9755 42.0163 15.3673 41.3543 15.6346C40.6923 15.902 39.9823 16.0396 39.2651 16.0396C38.548 16.0396 37.8379 15.902 37.1759 15.6346C36.514 15.3673 35.9132 14.9755 35.4082 14.4819C34.8907 13.9999 34.4811 13.4197 34.2052 12.7775C33.9292 12.1353 33.7926 11.4449 33.8041 10.7494C33.7891 10.0545 33.9217 9.36413 34.1936 8.72105C34.4655 8.07797 34.8709 7.49593 35.3846 7.01108C36.4076 6.01978 37.795 5.46289 39.2415 5.46289C40.6881 5.46289 42.0755 6.01978 43.0985 7.01108C43.2994 7.21242 43.4866 7.42627 43.6587 7.65128V6.31373H44.5846V15.7966ZM43.6823 11.6353V9.92053C43.524 9.14334 43.1505 8.42253 42.6019 7.83529C42.0533 7.24805 41.3503 6.81651 40.568 6.58688C39.7858 6.35725 38.9538 6.33819 38.1612 6.53173C37.3687 6.72527 36.6453 7.12412 36.0687 7.68557C35.6436 8.08721 35.3073 8.56849 35.0802 9.10011C34.8531 9.63174 34.74 10.2026 34.7477 10.7779C34.7502 11.8618 35.168 12.9062 35.92 13.7085C36.6721 14.5107 37.7047 15.0137 38.8176 15.1197C39.9306 15.2258 41.0445 14.9275 41.9434 14.2826C42.8422 13.6377 43.462 12.6923 43.6823 11.6296V11.6353Z" fill="#666666"/>
<path d="M47.5982 8.42866V15.7966H46.6959V6.31374H47.5982V6.92535C47.9613 6.5511 48.4 6.25339 48.887 6.0508C49.3741 5.8482 49.899 5.74508 50.429 5.74785C50.948 5.72763 51.4658 5.8105 51.9506 5.99137C52.4354 6.17224 52.8769 6.44728 53.2479 6.7996C53.6055 7.14532 53.8874 7.55737 54.0769 8.01111C54.2664 8.46485 54.3595 8.95097 54.3508 9.44039V15.7966H53.4662V9.50898C53.4721 9.12397 53.3949 8.74199 53.2395 8.38761C53.0841 8.03322 52.854 7.71426 52.5638 7.45122C51.9966 6.90876 51.2317 6.60462 50.4349 6.60462C49.638 6.60462 48.8732 6.90876 48.3059 7.45122C48.0068 7.72947 47.7665 8.06145 47.5982 8.42866V8.42866Z" fill="#666666"/>
<path d="M67.0774 15.7964H66.181V13.8416C65.9992 14.0673 65.8022 14.2812 65.5913 14.4818C65.0863 14.9753 64.4855 15.3671 63.8235 15.6345C63.1616 15.9018 62.4515 16.0395 61.7344 16.0395C61.0172 16.0395 60.3071 15.9018 59.6452 15.6345C58.9832 15.3671 58.3824 14.9753 57.8774 14.4818C57.361 13.9989 56.9522 13.4186 56.6763 12.7766C56.4004 12.1346 56.2633 11.4446 56.2733 10.7492C56.262 10.052 56.3985 9.35987 56.6745 8.71585C56.9504 8.07184 57.3598 7.4896 57.8774 7.00523C58.9004 6.01392 60.2878 5.45703 61.7344 5.45703C63.1809 5.45703 64.5683 6.01392 65.5913 7.00523C65.8022 7.20577 65.9992 7.41964 66.181 7.64542V6.31359H67.0774V15.7964ZM66.181 11.6352V9.92039C65.967 8.85081 65.3488 7.89717 64.4474 7.24624C63.546 6.59531 62.4264 6.29398 61.3077 6.40126C60.1891 6.50853 59.1521 7.01669 58.3998 7.82621C57.6475 8.63574 57.2341 9.6883 57.2405 10.7778C57.2501 11.8583 57.6717 12.8973 58.424 13.6947C59.1763 14.4922 60.2064 14.9918 61.3159 15.0975C62.4254 15.2032 63.5361 14.9075 64.4343 14.2673C65.3324 13.627 65.9545 12.6875 66.181 11.6295V11.6352Z" fill="#666666"/>
<path d="M70.4272 6.3137V2.3125H71.3177V6.3137H73.3051V7.18254H71.3177V15.7966H70.4272V7.22255H68.4397V6.3137H70.4272Z" fill="#666666"/>
<path d="M82.6113 16.6424C85.8911 16.6424 88.55 14.0653 88.55 10.8864C88.55 7.70743 85.8911 5.13037 82.6113 5.13037C79.3314 5.13037 76.6726 7.70743 76.6726 10.8864C76.6726 14.0653 79.3314 16.6424 82.6113 16.6424Z" fill="url(#paint0_linear_2_13)"/>
<path d="M98.7821 6.33656H98.7349C98.3381 5.82632 97.8182 5.41826 97.2208 5.14818C96.6234 4.8781 95.9668 4.75426 95.3085 4.78752C94.5478 4.78272 93.7942 4.92825 93.0935 5.21522C92.3929 5.50219 91.7599 5.92458 91.2333 6.45659C91.7061 7.3183 92.0383 8.24575 92.2182 9.20599C92.4806 8.45688 93.0047 7.8201 93.7 7.40562C94.3952 6.99114 95.218 6.82498 96.0262 6.93584C96.8343 7.0467 97.5772 7.42761 98.1265 8.01279C98.6758 8.59798 98.997 9.35071 99.0346 10.141C99.0723 10.9313 98.8241 11.7095 98.3328 12.3413C97.8415 12.973 97.138 13.4187 96.3438 13.6013C95.5496 13.7839 94.7146 13.6919 93.9828 13.3413C93.2511 12.9907 92.6687 12.4035 92.3362 11.681C92.2518 12.6815 92.0008 13.6621 91.5931 14.5848C92.6 15.3919 93.8723 15.8219 95.1787 15.7965C95.8513 15.8166 96.5197 15.6875 97.133 15.4191C97.7462 15.1506 98.2881 14.7499 98.7172 14.2475H98.7644V15.5222H101.076V5.05617H98.7821V6.33656Z" fill="#666666"/>
<path d="M115 10.652C115.034 9.90832 114.915 9.16547 114.651 8.46645C114.387 7.76744 113.982 7.12614 113.461 6.57967C112.939 6.03321 112.311 5.59242 111.613 5.28282C110.914 4.97322 110.159 4.80095 109.392 4.77598C108.623 4.74205 107.856 4.85944 107.135 5.12105C106.415 5.38266 105.757 5.78306 105.201 6.29807C104.645 6.81309 104.202 7.43202 103.9 8.11748C103.597 8.80294 103.441 9.54071 103.441 10.2862C103.441 11.0317 103.597 11.7695 103.9 12.4549C104.202 13.1404 104.645 13.7593 105.201 14.2743C105.757 14.7894 106.415 15.1898 107.135 15.4514C107.856 15.713 108.623 15.8304 109.392 15.7964C110.371 15.7736 111.333 15.5341 112.203 15.0963C113.072 14.6584 113.828 14.0338 114.41 13.27L112.458 12.1896C112.113 12.6848 111.648 13.0912 111.105 13.3739C110.561 13.6567 109.955 13.8074 109.338 13.813C108.537 13.8351 107.755 13.5678 107.145 13.063C106.534 12.5582 106.139 11.8518 106.036 11.0807H115V10.652ZM106.042 9.20017C106.17 8.50866 106.548 7.88428 107.11 7.43981C107.671 6.99535 108.378 6.76011 109.103 6.77658C109.842 6.76961 110.561 7.00706 111.142 7.44974C111.723 7.89243 112.131 8.51389 112.299 9.2116L106.042 9.20017Z" fill="#666666"/>
<defs>
<linearGradient id="paint0_linear_2_13" x1="77.8285" y1="10.8864" x2="87.4767" y2="10.8864" gradientUnits="userSpaceOnUse">
<stop stop-color="#5EC7F7"/>
<stop offset="1" stop-color="#1F356C"/>
</linearGradient>
</defs>
</svg>
