<svg width="22" height="17" viewBox="0 0 22 17" fill="none" xmlns="http://www.w3.org/2000/svg">
<path d="M11.1523 1.85685C11.456 1.4847 11.8348 1.18092 12.2641 0.965435C12.6933 0.749946 13.1632 0.627609 13.6431 0.606445H19.1589V5.07865L17.5657 5.41646L17.2531 5.78452L17.3338 8.18449L17.5254 8.56263L19.1539 8.7996L20.7421 7.99793L20.9388 5.09378L20.5304 4.27194L19.1741 4.12068" stroke="#4D4D4D" stroke-miterlimit="10"/>
<path d="M11.1523 1.85669V11.6986" stroke="#4D4D4D" stroke-miterlimit="10"/>
<path d="M11.1525 1.85685C10.8488 1.4847 10.47 1.18092 10.0408 0.965435C9.61151 0.749946 9.14157 0.627609 8.66175 0.606445H3.1509V5.07865L4.74416 5.41646L5.05676 5.78452L4.97608 8.18449L4.78449 8.56263L3.15594 8.7996L1.56773 7.99793L1.37109 5.09378L1.77445 4.27194L3.13073 4.12068" stroke="#4D4D4D" stroke-miterlimit="10"/>
<path d="M17.0469 10.4531H19.1544V8.7439" stroke="#4D4D4D" stroke-miterlimit="10"/>
<path d="M3.15137 8.73877V10.453H8.66221C9.14191 10.4723 9.61203 10.5933 10.0414 10.808C10.4708 11.0227 10.8497 11.3262 11.1529 11.6984C11.6109 11.1519 12.222 10.755 12.9075 10.5589" stroke="#4D4D4D" stroke-miterlimit="10"/>
<path fill-rule="evenodd" clip-rule="evenodd" d="M13.6641 9.27318L13.9968 15.1571L14.0019 15.1622L15.3834 13.7202L16.7044 16.0092L18.0102 15.258L16.6842 12.9689L18.6253 12.4899V12.4849L13.6943 9.25806L13.6641 9.27318Z" stroke="url(#paint0_linear_128_1105)" stroke-miterlimit="10"/>
<defs>
<linearGradient id="paint0_linear_128_1105" x1="10.7822" y1="16.0093" x2="26.9198" y2="14.4834" gradientUnits="userSpaceOnUse">
<stop stop-color="#5EC7F7"/>
<stop offset="1" stop-color="#1F356C"/>
</linearGradient>
</defs>
</svg>
