<svg width="21" height="21" viewBox="0 0 21 21" fill="none" xmlns="http://www.w3.org/2000/svg">
<path d="M6.87828 18.6921V19.5128C6.87828 19.7292 6.79232 19.9367 6.6393 20.0897C6.48629 20.2427 6.27875 20.3287 6.06235 20.3287H4.83139C4.72384 20.3293 4.61723 20.3087 4.5177 20.268C4.41816 20.2272 4.32765 20.1672 4.25139 20.0914C4.17512 20.0156 4.1146 19.9254 4.0733 19.8261C4.032 19.7268 4.01074 19.6203 4.01074 19.5128V18.6921" stroke="#4D4D4D" stroke-miterlimit="10"/>
<path d="M17.1181 18.6921V19.5128C17.1181 19.6203 17.0969 19.7268 17.0556 19.8261C17.0143 19.9254 16.9538 20.0156 16.8775 20.0914C16.8012 20.1672 16.7107 20.2272 16.6112 20.268C16.5117 20.3087 16.405 20.3293 16.2975 20.3287H15.0712C14.9613 20.3313 14.852 20.3116 14.7499 20.2708C14.6478 20.2301 14.5549 20.1691 14.4769 20.0916C14.399 20.0141 14.3375 19.9216 14.2962 19.8197C14.2548 19.7178 14.2345 19.6086 14.2365 19.4986V18.6921" stroke="#4D4D4D" stroke-miterlimit="10"/>
<path d="M17.537 18.6923C17.7547 18.6923 17.9634 18.6058 18.1173 18.4519C18.2712 18.298 18.3577 18.0893 18.3577 17.8716V3.52448C18.3577 3.25449 18.3043 2.98716 18.2005 2.73789C18.0968 2.48862 17.9447 2.26234 17.7532 2.07208C17.5616 1.88183 17.3343 1.73135 17.0843 1.62932C16.8343 1.52729 16.5666 1.47572 16.2966 1.47759H4.8312C4.5624 1.47759 4.29623 1.53053 4.04788 1.6334C3.79954 1.73626 3.5739 1.88704 3.38382 2.07711C3.19375 2.26718 3.04298 2.49283 2.94011 2.74117C2.83725 2.98951 2.7843 3.25568 2.7843 3.52448V17.8575C2.78242 17.9664 2.80226 18.0747 2.84266 18.1759C2.88306 18.2771 2.94321 18.3692 3.0196 18.4469C3.09599 18.5246 3.1871 18.5863 3.2876 18.6285C3.3881 18.6706 3.49598 18.6923 3.60495 18.6923H17.537Z" stroke="#4D4D4D" stroke-miterlimit="10"/>
<path d="M2.7842 6.80225H1.97299C1.75534 6.80225 1.54661 6.88871 1.3927 7.04261C1.2388 7.19651 1.15234 7.40524 1.15234 7.62289V10.4857C1.15234 10.7034 1.2388 10.9121 1.3927 11.066C1.54661 11.2199 1.75534 11.3064 1.97299 11.3064H2.79363" stroke="#4D4D4D" stroke-miterlimit="10"/>
<path d="M18.3477 6.80225H19.1636C19.3812 6.80225 19.59 6.88871 19.7439 7.04261C19.8978 7.19651 19.9842 7.40524 19.9842 7.62289V10.4857C19.9842 10.7034 19.8978 10.9121 19.7439 11.066C19.59 11.2199 19.3812 11.3064 19.1636 11.3064H18.3477" stroke="#4D4D4D" stroke-miterlimit="10"/>
<path d="M15.8863 4.75513H5.24154C4.78831 4.75513 4.4209 5.12254 4.4209 5.57577V12.5371C4.4209 12.9903 4.78831 13.3577 5.24154 13.3577H15.8863C16.3396 13.3577 16.707 12.9903 16.707 12.5371V5.57577C16.707 5.12254 16.3396 4.75513 15.8863 4.75513Z" stroke="url(#paint0_linear_128_1121)" stroke-miterlimit="10"/>
<path d="M8.92578 3.11401H12.2036" stroke="#4D4D4D" stroke-miterlimit="10"/>
<path d="M4.01074 15.4001H6.46796" stroke="#4D4D4D" stroke-miterlimit="10"/>
<path d="M4.01074 17.0415H5.24171" stroke="#4D4D4D" stroke-miterlimit="10"/>
<path d="M7.69824 17.0415H13.4333" stroke="#4D4D4D" stroke-miterlimit="10"/>
<path d="M17.1174 15.4001H14.6602" stroke="#4D4D4D" stroke-miterlimit="10"/>
<path d="M17.1169 17.0415H15.8906" stroke="#4D4D4D" stroke-miterlimit="10"/>
<path d="M10.5664 4.75513V13.353" stroke="url(#paint1_linear_128_1121)" stroke-miterlimit="10"/>
<defs>
<linearGradient id="paint0_linear_128_1121" x1="-2.71578" y1="13.3578" x2="36.2877" y2="6.19055" gradientUnits="userSpaceOnUse">
<stop stop-color="#5EC7F7"/>
<stop offset="1" stop-color="#1F356C"/>
</linearGradient>
<linearGradient id="paint1_linear_128_1121" x1="9.98553" y1="13.3531" x2="13.2666" y2="13.304" gradientUnits="userSpaceOnUse">
<stop stop-color="#5EC7F7"/>
<stop offset="1" stop-color="#1F356C"/>
</linearGradient>
</defs>
</svg>
