<svg width="18" height="18" viewBox="0 0 18 18" fill="none" xmlns="http://www.w3.org/2000/svg">
<path d="M5.7717 4.88875V1.45947M12.6302 4.88875V1.45947M4.91438 8.31802H13.4876M3.19974 16.8912H15.2022C15.657 16.8912 16.0931 16.7106 16.4146 16.389C16.7362 16.0674 16.9168 15.6313 16.9168 15.1766V4.88875C16.9168 4.434 16.7362 3.99787 16.4146 3.67632C16.0931 3.35476 15.657 3.17411 15.2022 3.17411H3.19974C2.74499 3.17411 2.30887 3.35476 1.98731 3.67632C1.66576 3.99787 1.48511 4.434 1.48511 4.88875V15.1766C1.48511 15.6313 1.66576 16.0674 1.98731 16.389C2.30887 16.7106 2.74499 16.8912 3.19974 16.8912Z" stroke="white" stroke-width="1.5" stroke-linecap="round" stroke-linejoin="round"/>
</svg>
