<svg width="27" height="27" viewBox="0 0 27 27" fill="none" xmlns="http://www.w3.org/2000/svg">
<path d="M26.2227 13.2764C26.2227 14.9507 25.8929 16.6087 25.2521 18.1556C24.6114 19.7025 23.6722 21.108 22.4883 22.292C21.3043 23.4759 19.8988 24.4151 18.3519 25.0558C16.805 25.6966 15.147 26.0264 13.4727 26.0264C11.7983 26.0264 10.1403 25.6966 8.59344 25.0558C7.04654 24.4151 5.64099 23.4759 4.45704 22.292C3.2731 21.108 2.33394 19.7025 1.69319 18.1556C1.05244 16.6087 0.722656 14.9507 0.722656 13.2764C0.722656 9.89486 2.06596 6.65184 4.45704 4.26076C6.84813 1.86967 10.0911 0.526367 13.4727 0.526367C16.8542 0.526367 20.0972 1.86967 22.4883 4.26076C24.8794 6.65184 26.2227 9.89486 26.2227 13.2764Z" fill="url(#paint0_linear_128_966)"/>
<path d="M9.22266 13.2764L12.056 16.1097L17.7227 10.443M26.2227 13.2764C26.2227 14.9507 25.8929 16.6087 25.2521 18.1556C24.6114 19.7025 23.6722 21.108 22.4883 22.292C21.3043 23.4759 19.8988 24.4151 18.3519 25.0558C16.805 25.6966 15.147 26.0264 13.4727 26.0264C11.7983 26.0264 10.1403 25.6966 8.59344 25.0558C7.04654 24.4151 5.64099 23.4759 4.45704 22.292C3.2731 21.108 2.33394 19.7025 1.69319 18.1556C1.05244 16.6087 0.722656 14.9507 0.722656 13.2764C0.722656 9.89486 2.06596 6.65184 4.45704 4.26076C6.84813 1.86967 10.0911 0.526367 13.4727 0.526367C16.8542 0.526367 20.0972 1.86967 22.4883 4.26076C24.8794 6.65184 26.2227 9.89486 26.2227 13.2764Z" stroke="white" stroke-linecap="round" stroke-linejoin="round"/>
<defs>
<linearGradient id="paint0_linear_128_966" x1="-14.0896" y1="26.0267" x2="68.2334" y2="15.4343" gradientUnits="userSpaceOnUse">
<stop stop-color="#5EC7F7"/>
<stop offset="1" stop-color="#1F356C"/>
</linearGradient>
</defs>
</svg>
