<svg width="19" height="19" viewBox="0 0 19 19" fill="none" xmlns="http://www.w3.org/2000/svg">
<path d="M9.28588 0.965576C4.44879 0.965576 0.513672 4.9009 0.513672 9.73799C0.513672 14.5753 4.44879 18.5106 9.28588 18.5106C14.123 18.5106 18.0583 14.5753 18.0583 9.73799C18.0583 4.9009 14.1228 0.965576 9.28588 0.965576ZM9.28588 17.2423C5.14826 17.2423 1.78176 13.8758 1.78176 9.73799C1.78176 5.60016 5.14804 2.23388 9.28588 2.23388C13.4237 2.23388 16.79 5.60016 16.79 9.73799C16.79 13.8758 13.4237 17.2423 9.28588 17.2423Z" fill="#4D4D4D"/>
<path d="M11.8248 10.5458C11.8214 10.5458 11.8184 10.5458 11.8151 10.5458L9.92064 10.5741V5.61633C9.92064 5.26607 9.63676 4.98218 9.28649 4.98218C8.93623 4.98218 8.65234 5.26607 8.65234 5.61633V11.218C8.65234 11.2193 8.65277 11.2205 8.65277 11.2218C8.65277 11.2239 8.65234 11.2258 8.65234 11.2275C8.65277 11.2533 8.65763 11.2776 8.66101 11.3023C8.66312 11.3178 8.66334 11.3336 8.6663 11.3488C8.672 11.3761 8.68151 11.4015 8.6906 11.427C8.69525 11.4404 8.69821 11.4543 8.70371 11.467C8.7147 11.493 8.7295 11.5167 8.74366 11.541C8.75021 11.5518 8.75508 11.5636 8.76205 11.5742C8.77812 11.5976 8.79735 11.6186 8.81638 11.6399C8.82441 11.6488 8.83096 11.6589 8.83942 11.6676C8.85992 11.6879 8.88296 11.705 8.906 11.7226C8.9153 11.7295 8.92355 11.738 8.93306 11.7445C8.958 11.7615 8.98527 11.7748 9.01254 11.7879C9.02205 11.7923 9.03051 11.7987 9.04023 11.8027C9.07194 11.816 9.10576 11.8253 9.14 11.8335C9.14635 11.835 9.15227 11.838 9.15882 11.8392C9.19983 11.8475 9.24231 11.8521 9.28586 11.8521C9.28903 11.8521 9.29241 11.8521 9.29558 11.8521L11.8339 11.8141C12.1839 11.8088 12.4636 11.5205 12.4585 11.1704C12.4537 10.8235 12.1706 10.5458 11.8248 10.5458Z" fill="url(#paint0_linear_364_29)"/>
<defs>
<linearGradient id="paint0_linear_364_29" x1="6.4414" y1="11.8522" x2="18.8696" y2="10.9663" gradientUnits="userSpaceOnUse">
<stop stop-color="#5EC7F7"/>
<stop offset="1" stop-color="#1F356C"/>
</linearGradient>
</defs>
</svg>
