<svg width="34" height="39" viewBox="0 0 34 39" fill="none" xmlns="http://www.w3.org/2000/svg">
<g clip-path="url(#clip0_2_1166)">
<path d="M16.5045 38.8623H3.78815C2.9669 38.8623 2.77788 38.6757 2.77788 37.8653C2.77788 36.5339 2.77788 35.2089 2.77788 33.8775C2.77788 33.4851 2.66056 33.408 2.29556 33.4273C1.8002 33.4273 1.2918 33.4273 0.796444 33.4273C0.693021 33.4395 0.588125 33.4286 0.489603 33.3952C0.391081 33.3618 0.301484 33.3069 0.227513 33.2345C0.153543 33.1621 0.0971142 33.0742 0.0624493 32.9772C0.0277843 32.8803 0.0157802 32.7769 0.027335 32.6747C0.027335 29.1157 0.027335 25.5545 0.027335 21.9912C0.027335 21.4767 0.294568 21.2323 0.835552 21.2258C1.37654 21.2194 1.86538 21.2258 2.38029 21.2258C2.70618 21.2258 2.7844 21.1487 2.7844 20.8271C2.7844 17.7461 2.7844 14.6652 2.7844 11.5843V1.83992C2.77788 1.06165 2.97993 0.862259 3.7686 0.862259H22.501C22.6697 0.85835 22.8373 0.890202 22.9924 0.955668C23.1476 1.02113 23.2867 1.11869 23.4004 1.24174C25.5731 3.38573 27.7457 5.52972 29.9183 7.6737C30.045 7.78757 30.1437 7.92842 30.2069 8.08557C30.2702 8.24271 30.2963 8.41201 30.2833 8.58061C30.2833 12.6456 30.2833 16.717 30.2833 20.8013C30.2833 21.2001 30.4006 21.2966 30.7787 21.2773C31.2805 21.2451 31.7824 21.2773 32.2843 21.2773C32.3864 21.2597 32.4913 21.2664 32.5902 21.2968C32.6892 21.3272 32.7794 21.3805 32.8533 21.4521C32.9272 21.5238 32.9828 21.6119 33.0153 21.709C33.0478 21.8061 33.0564 21.9095 33.0404 22.0105C33.0404 25.5867 33.0404 29.1629 33.0404 32.739C33.0513 32.8419 33.0383 32.9459 33.0024 33.0431C32.9666 33.1403 32.9088 33.2281 32.8334 33.3C32.758 33.3719 32.6671 33.4259 32.5674 33.458C32.4678 33.4901 32.362 33.4994 32.2582 33.4851C31.7107 33.4851 31.1697 33.4851 30.6222 33.4851C30.3615 33.4851 30.2833 33.5559 30.2898 33.8196C30.2898 35.2153 30.2898 36.6175 30.2898 38.0132C30.2898 38.7015 30.0682 38.9201 29.3643 38.9201L16.5045 38.8623ZM16.5045 21.2258C20.4804 21.2258 24.4628 21.2258 28.4453 21.2258C28.7581 21.2258 28.882 21.1744 28.882 20.8206C28.882 17.0086 28.882 13.1923 28.882 9.37174C28.882 9.07587 28.8103 8.99225 28.5039 8.99868C26.6463 8.99868 24.7822 8.99868 22.9246 8.99868C22.2272 8.99868 22.0056 8.78 22.0056 8.08535C22.0056 6.29083 22.0056 4.49632 22.0056 2.7018C22.0056 2.33518 21.947 2.20011 21.5298 2.20011C15.881 2.20011 10.2322 2.20011 4.58333 2.20011C4.23136 2.20011 4.1336 2.27729 4.1336 2.63748C4.1336 8.68352 4.1336 14.7296 4.1336 20.7756C4.1336 21.1358 4.23136 21.213 4.58333 21.213C8.57227 21.2194 12.5547 21.2258 16.5371 21.2258H16.5045ZM16.4524 32.0765C21.3625 32.0765 26.2748 32.0765 31.1893 32.0765C31.5478 32.0765 31.6325 31.9801 31.6325 31.6327C31.6325 28.7512 31.6325 25.844 31.6325 22.9818C31.6325 22.6666 31.5673 22.5573 31.2219 22.5573C21.4147 22.5573 11.6053 22.5573 1.79368 22.5573C1.44823 22.5573 1.37002 22.6537 1.37002 22.9818C1.37002 25.8504 1.37002 28.7191 1.37002 31.5877C1.37002 31.9608 1.44823 32.0765 1.85234 32.0765C6.74726 32.0701 11.6161 32.0765 16.485 32.0765H16.4524ZM16.4524 37.5051H28.4909C28.8363 37.5051 28.9211 37.4151 28.9146 37.087C28.9146 35.9872 28.9146 34.8809 28.9146 33.781C28.9146 33.5109 28.8494 33.4208 28.5626 33.4208C20.5456 33.4208 12.5264 33.4208 4.50512 33.4208C4.22485 33.4208 4.15315 33.5044 4.15315 33.781C4.15315 34.868 4.15315 35.955 4.15315 37.042C4.15315 37.4086 4.22485 37.5116 4.61592 37.5116C8.57227 37.5244 12.5417 37.5244 16.5045 37.5244L16.4524 37.5051ZM23.407 3.31283C23.407 4.68499 23.407 6.06142 23.407 7.44215C23.407 7.693 23.5764 7.65441 23.7263 7.65441H27.8196L23.407 3.31283Z" fill="#29A9E0"/>
<path d="M16.5306 11.7259H25.1211C25.2642 11.713 25.4082 11.713 25.5513 11.7259C25.7302 11.7259 25.9018 11.7961 26.0283 11.9209C26.1549 12.0457 26.2259 12.2151 26.2259 12.3916C26.2259 12.5682 26.1549 12.7375 26.0283 12.8624C25.9018 12.9872 25.7302 13.0573 25.5513 13.0573C25.4082 13.0703 25.2642 13.0703 25.1211 13.0573H7.80315C7.22306 13.0573 6.90369 12.8129 6.90369 12.3756C6.90369 11.9382 7.22306 11.7002 7.80315 11.7002L16.5306 11.7259Z" fill="#29A9E0"/>
<path d="M16.4849 17.1544H7.93348C7.79038 17.1673 7.6464 17.1673 7.5033 17.1544C7.32352 17.1544 7.1511 17.0839 7.02398 16.9585C6.89686 16.833 6.82544 16.6629 6.82544 16.4855C6.82544 16.3081 6.89686 16.1379 7.02398 16.0125C7.1511 15.887 7.32352 15.8166 7.5033 15.8166C7.64653 15.8069 7.79025 15.8069 7.93348 15.8166H25.2515C25.8316 15.8166 26.1509 16.061 26.1509 16.4919C26.1509 16.9229 25.8316 17.1737 25.2515 17.1737L16.4849 17.1544Z" fill="#29A9E0"/>
<path d="M16.2438 30.7195H14.5687C14.4736 30.7311 14.3772 30.7234 14.2852 30.6969C14.1933 30.6705 14.1078 30.6258 14.0339 30.5655C13.9601 30.5053 13.8995 30.4309 13.8559 30.3468C13.8122 30.2626 13.7864 30.1706 13.78 30.0763C13.78 29.6647 14.0798 29.3881 14.5817 29.3881C15.5659 29.3881 16.5371 29.3881 17.5408 29.3881C17.8015 29.3881 17.9123 29.3431 17.9123 29.0472C17.9123 28.0245 17.9123 28.0245 16.9086 28.0245C16.335 28.0245 15.7614 28.0245 15.1879 28.0245C14.9975 28.0303 14.808 27.9967 14.6315 27.9261C14.455 27.8554 14.2954 27.7492 14.1629 27.6142C14.0304 27.4792 13.9279 27.3184 13.862 27.1421C13.7961 26.9657 13.7681 26.7778 13.78 26.5902C13.78 26.1614 13.78 25.7326 13.78 25.3038C13.7792 25.1264 13.8137 24.9506 13.8817 24.7864C13.9497 24.6222 14.0498 24.4728 14.1763 24.3468C14.3028 24.2208 14.4532 24.1206 14.6189 24.0519C14.7847 23.9833 14.9625 23.9475 15.1422 23.9467C16.2698 23.9467 17.4039 23.9467 18.5315 23.9467C18.713 23.9467 18.8871 24.0178 19.0155 24.1445C19.1438 24.2711 19.2159 24.4429 19.2159 24.622C19.2159 24.8011 19.1438 24.9729 19.0155 25.0996C18.8871 25.2262 18.713 25.2974 18.5315 25.2974C17.5343 25.2974 16.5306 25.2974 15.5268 25.2974C15.2661 25.2974 15.1618 25.3424 15.1618 25.6383C15.1618 26.6545 15.1618 26.6545 16.1656 26.6545C16.7391 26.6545 17.3127 26.6545 17.8798 26.6545C18.0667 26.6491 18.2527 26.6816 18.4264 26.7499C18.6001 26.8183 18.7578 26.921 18.8897 27.0518C19.0216 27.1825 19.125 27.3386 19.1934 27.5103C19.2619 27.6821 19.2939 27.8658 19.2876 28.0502C19.2876 28.4748 19.2876 28.8993 19.2876 29.3366C19.2938 29.5208 19.262 29.7043 19.194 29.8759C19.1261 30.0475 19.0234 30.2037 18.8923 30.3349C18.7612 30.4661 18.6044 30.5696 18.4314 30.639C18.2584 30.7084 18.073 30.7424 17.8863 30.7388H16.2568L16.2438 30.7195Z" fill="#29A9E0"/>
<path d="M8.27903 27.3427C8.27903 27.7543 8.27903 28.1595 8.27903 28.5712C8.27903 29.105 8.53323 29.3559 9.06118 29.3623H10.267C10.3602 29.3711 10.4542 29.3613 10.5435 29.3335C10.6327 29.3057 10.7154 29.2604 10.7866 29.2004C10.8577 29.1404 10.9159 29.0668 10.9577 28.9842C10.9994 28.9015 11.0239 28.8113 11.0296 28.7191C11.1143 28.2174 11.4076 27.9537 11.8117 28.018C12.2158 28.0824 12.4635 28.449 12.3918 28.9507C12.3242 29.4314 12.086 29.8729 11.7197 30.1968C11.3533 30.5206 10.8825 30.7058 10.3908 30.7195C9.9085 30.7195 9.41966 30.7195 8.93082 30.7195C8.39533 30.7111 7.88435 30.4966 7.50687 30.1217C7.1294 29.7468 6.91531 29.2412 6.91028 28.7127C6.91028 27.7929 6.91028 26.8796 6.91028 25.9598C6.91028 25.4242 7.1259 24.9105 7.50972 24.5317C7.89353 24.153 8.4141 23.9402 8.95689 23.9402C9.4327 23.9402 9.90198 23.9402 10.3778 23.9402C10.8672 23.9415 11.3402 24.1142 11.7126 24.4275C12.085 24.7408 12.3326 25.1744 12.4114 25.6511C12.5026 26.1785 12.2875 26.5644 11.8573 26.6416C11.4272 26.7188 11.1078 26.4486 11.0231 25.947C11.0233 25.8586 11.005 25.7711 10.9695 25.69C10.9339 25.6088 10.8818 25.5358 10.8163 25.4755C10.7509 25.4151 10.6735 25.3687 10.5891 25.3392C10.5047 25.3096 10.415 25.2976 10.3256 25.3038C9.89112 25.3038 9.45659 25.3038 9.02207 25.3038C8.92294 25.2929 8.82259 25.3046 8.72876 25.338C8.63493 25.3713 8.55011 25.4256 8.48085 25.4964C8.41159 25.5672 8.35973 25.6528 8.32926 25.7465C8.29879 25.8402 8.29052 25.9396 8.3051 26.037C8.27251 26.4679 8.27903 26.9053 8.27903 27.3427Z" fill="#29A9E0"/>
<path d="M23.4135 28.0888L24.717 24.6991C24.9647 24.0559 25.2906 23.8179 25.7208 23.9852C26.151 24.1524 26.2553 24.519 26.0076 25.1622C25.3884 26.8024 24.7627 28.4361 24.15 30.0762C24.0131 30.4364 23.8371 30.7194 23.4004 30.7194C22.9637 30.7194 22.8269 30.4236 22.703 30.0762C22.0512 28.3975 21.3994 26.7252 20.7868 25.0464C20.7868 24.995 20.7542 24.9371 20.7346 24.8856C20.6926 24.8022 20.6695 24.7107 20.6669 24.6176C20.6642 24.5245 20.6821 24.4319 20.7193 24.3462C20.7565 24.2606 20.8121 24.184 20.8823 24.1216C20.9525 24.0593 21.0355 24.0127 21.1257 23.9852C21.2128 23.9478 21.3071 23.9297 21.402 23.9321C21.4969 23.9345 21.5902 23.9573 21.6752 23.999C21.7603 24.0406 21.8351 24.1001 21.8944 24.1733C21.9537 24.2464 21.9961 24.3315 22.0186 24.4225C22.4358 25.4838 22.8334 26.558 23.244 27.6385C23.2701 27.7414 23.3157 27.8765 23.4135 28.0888Z" fill="#29A9E0"/>
</g>
<defs>
<clipPath id="clip0_2_1166">
<rect width="33" height="38" fill="white" transform="translate(0.0273438 0.862305)"/>
</clipPath>
</defs>
</svg>
