<svg width="10" height="10" viewBox="0 0 10 10" fill="none" xmlns="http://www.w3.org/2000/svg">
<g clip-path="url(#clip0_1_199)">
<path d="M8.44206 6.37302V8.65736H1.49696V6.37302H0.162109V9.32885C0.162109 9.69946 0.46051 10 0.830527 10H9.10849C9.47818 10 9.77691 9.69979 9.77691 9.32885V6.37302H8.44206Z" fill="#1F2633"/>
<path d="M4.84737 6.14651L2.93628 3.82314C2.93628 3.82314 2.64551 3.54693 2.96082 3.54693C3.27613 3.54693 4.03771 3.54693 4.03771 3.54693C4.03771 3.54693 4.03771 3.36113 4.03771 3.07459C4.03771 2.25766 4.03771 0.770899 4.03771 0.164788C4.03771 0.164788 3.99494 0 4.24162 0C4.49029 0 5.57945 0 5.7575 0C5.93521 0 5.93123 0.138768 5.93123 0.138768C5.93123 0.726533 5.93123 2.26466 5.93123 3.05491C5.93123 3.31109 5.93123 3.47722 5.93123 3.47722C5.93123 3.47722 6.54196 3.47722 6.92524 3.47722C7.30785 3.47722 7.01973 3.76643 7.01973 3.76643C7.01973 3.76643 5.39378 5.93802 5.16699 6.16585C5.00387 6.33098 4.84737 6.14651 4.84737 6.14651Z" fill="#1F2633"/>
</g>
<defs>
<clipPath id="clip0_1_199">
<rect width="9.93939" height="10" fill="white"/>
</clipPath>
</defs>
</svg>
