<svg width="19" height="19" viewBox="0 0 19 19" fill="none" xmlns="http://www.w3.org/2000/svg">
<path d="M13.4375 9.49994C13.4375 10.9498 14.3186 12.1249 15.4063 12.1249C16.4939 12.1249 17.375 10.9498 17.375 9.49994C17.375 7.67802 16.7432 5.91247 15.5874 4.50411C14.4316 3.09576 12.8232 2.13174 11.0363 1.77632C9.24936 1.42089 7.39448 1.69605 5.7877 2.55491C4.18091 3.41377 2.92164 4.80319 2.22443 6.48643C1.52722 8.16968 1.43522 10.0426 1.96411 11.7861C2.493 13.5295 3.61005 15.0357 5.12493 16.0479C6.63981 17.0601 8.45879 17.5157 10.2719 17.3371C12.0851 17.1585 13.7802 16.3567 15.0685 15.0684M13.4375 9.49994V6.21869M13.4375 9.49994C13.4375 10.5442 13.0227 11.5458 12.2842 12.2842C11.5458 13.0226 10.5443 13.4374 9.5 13.4374C8.45571 13.4374 7.45419 13.0226 6.71577 12.2842C5.97735 11.5458 5.5625 10.5442 5.5625 9.49994C5.5625 8.45565 5.97735 7.45414 6.71577 6.71571C7.45419 5.97729 8.45571 5.56244 9.5 5.56244C10.5443 5.56244 11.5458 5.97729 12.2842 6.71571C13.0227 7.45414 13.4375 8.45565 13.4375 9.49994V9.49994Z" stroke="#858585" stroke-width="1.5" stroke-linecap="round"/>
</svg>
