<svg width="1920" height="913" viewBox="0 0 1920 913" fill="none" xmlns="http://www.w3.org/2000/svg">
<rect x="-0.195312" width="1920.46" height="912.076" rx="15" fill="#F7FAFC"/>
<g clip-path="url(#clip0_71_1589)">
<g clip-path="url(#clip1_71_1589)">
<path d="M1919.84 275.807C1900.2 365.792 1871.29 453.857 1832.8 539.261C1767.12 685.247 1676.93 818.231 1563.8 935.404H1572.29C1684 818.674 1773.4 686.577 1838.61 541.626C1873.33 464.347 1900.36 385.001 1919.84 304.029V275.807V275.807Z" fill="white"/>
<path d="M1919.84 -112.061C1915.29 -179.291 1906.17 -245.635 1892.5 -310.354H1884.49C1903.19 -221.846 1913.56 -130.678 1914.97 -37.7377C1916.23 38.0628 1912.77 105.736 1904.76 168.977C1893.92 251.87 1874.43 334.025 1846.47 413.371C1818.81 491.979 1782.83 568.075 1739.62 639.443C1686.2 727.655 1621.94 812.617 1543.22 899.499C1532.07 911.763 1520.91 923.584 1509.6 935.257H1520.28C1530.02 925.061 1539.61 914.718 1549.19 904.227C1628.22 817.049 1692.64 731.645 1746.38 643.137C1789.9 571.326 1826.04 494.787 1853.85 415.735C1881.98 335.945 1901.62 253.2 1912.46 169.864C1915.6 145.779 1917.96 121.251 1919.69 95.6889V-112.061H1919.84Z" fill="white"/>
<path d="M1469.69 935.257C1491.69 912.502 1513.37 888.565 1534.58 863.298C1590.99 796.363 1663.74 706.378 1726.74 603.833C1813.79 461.984 1868.31 299.892 1884.65 135.141C1891.72 62.7385 1890.62 -8.33366 1888.58 -68.3239C1885.75 -151.365 1876.79 -232.337 1862.02 -310.354H1854.01C1868.94 -232.337 1877.89 -151.217 1880.72 -68.0284C1882.76 -8.33364 1883.86 62.443 1876.79 134.55C1860.61 298.267 1806.4 459.177 1719.99 600.139C1657.14 702.24 1584.55 791.93 1528.45 858.718C1505.67 885.758 1482.58 911.172 1459.01 935.257H1469.69Z" fill="white"/>
<path d="M1423.02 935.256C1456.33 901.419 1488.54 864.331 1520.91 822.811L1532.22 808.183C1591.77 731.643 1653.52 652.444 1708.04 565.119C1795.24 425.043 1846.94 264.429 1857.78 100.711C1862.02 33.6287 1858.56 -33.6017 1855.26 -98.6158C1851.49 -171.904 1843.64 -242.533 1832.01 -310.207H1822.42C1834.21 -242.386 1842.06 -171.609 1845.84 -98.1725C1849.13 -33.3062 1852.59 33.6287 1848.35 100.268C1837.66 262.36 1786.29 421.644 1699.87 560.538C1645.51 647.421 1584.07 726.472 1524.52 802.863L1513.21 817.491C1479.27 861.228 1445.17 900.089 1410.14 935.256H1423.02Z" fill="white"/>
<path d="M1377.14 935.257C1421.45 891.963 1463.25 842.168 1506.3 781.735C1525.15 755.286 1545.11 728.394 1564.27 702.388C1605.75 646.388 1648.65 588.318 1688.4 525.668C1731.77 456.96 1766.02 382.046 1790.06 303.291C1813.94 225.421 1827.3 145.484 1829.81 65.9892C1831.38 12.7959 1827.45 -39.3631 1823.37 -94.4773C1822.58 -106.002 1821.64 -117.528 1820.85 -129.201C1816.3 -193.18 1809.7 -253.318 1800.59 -310.354H1791C1800.11 -253.171 1806.87 -192.737 1811.43 -128.61C1812.21 -116.937 1813.16 -105.411 1813.94 -93.8862C1818.03 -38.9198 1821.95 13.0915 1820.38 65.6937C1817.87 144.449 1804.51 223.648 1780.95 300.779C1757.06 378.943 1723.12 452.971 1680.23 521.088C1640.64 583.442 1597.9 641.364 1556.42 697.217C1537.09 723.222 1517.3 750.114 1498.28 776.711C1453.35 839.509 1410.14 890.781 1363.79 935.109H1377.14V935.257Z" fill="white"/>
<path d="M1332.99 935.257C1403.85 870.538 1453.03 801.682 1492.47 741.101C1518.4 701.206 1546.05 663.084 1575.12 622.746C1606.38 579.453 1638.75 534.829 1669.55 486.955C1756.12 351.756 1803.41 189.959 1802.94 31.4136C1802.63 -13.3575 1798.07 -56.7987 1793.2 -102.9C1791.32 -121.369 1789.27 -140.43 1787.55 -159.639C1782.67 -213.719 1776.86 -263.514 1769.95 -310.354H1758.79C1765.71 -263.366 1771.68 -213.128 1776.55 -158.753C1778.28 -139.396 1780.32 -120.335 1782.2 -101.865C1787.07 -56.0599 1791.63 -12.7664 1791.94 31.4136C1792.42 188.038 1745.59 347.914 1660.12 481.636C1629.48 529.214 1597.27 573.838 1566 616.983C1536.78 657.469 1509.13 695.739 1483.04 735.782C1442.51 797.989 1391.44 869.356 1316.97 935.257H1332.99Z" fill="white"/>
<path d="M1286.48 935.256C1289.94 932.3 1293.55 929.493 1297.01 926.538C1375.73 859.898 1426.16 787.792 1477.86 700.171C1506.77 651.115 1539.76 605.014 1574.64 556.253C1599.47 521.677 1625.08 485.772 1649.9 447.798C1693.43 380.715 1726.42 306.983 1747.95 228.671C1769.16 151.541 1778.27 73.5237 1774.97 -3.16331C1773.25 -42.3195 1767.9 -80.1459 1762.25 -120.041C1759.1 -142.648 1755.65 -165.994 1753.13 -189.931C1748.58 -231.304 1743.71 -271.346 1738.05 -310.207H1726.89C1732.55 -271.051 1737.42 -230.565 1742.13 -188.897C1744.81 -164.96 1748.11 -141.466 1751.41 -118.711C1757.06 -78.9638 1762.4 -41.433 1763.97 -2.72005C1767.12 72.9327 1758.16 149.915 1737.26 226.159C1716.05 303.437 1683.37 376.282 1640.48 442.479C1615.65 480.305 1590.2 516.063 1565.53 550.638C1530.49 599.547 1497.5 645.795 1468.27 695.295C1417.05 782.029 1367.09 853.397 1289.62 919.002C1283.03 924.617 1276.27 930.084 1269.51 935.403H1286.48V935.256Z" fill="white"/>
<path d="M1236.36 935.256C1257.26 920.332 1277.37 904.374 1296.54 887.234C1377.14 815.423 1423.18 735.19 1463.4 659.094C1492.94 603.241 1529.55 551.968 1568.2 497.74C1588.63 469.223 1609.68 439.671 1630.27 408.494C1716.84 276.988 1759.58 114.305 1747.16 -37.8868C1744.34 -73.0535 1738.21 -106.743 1731.61 -142.5C1727.05 -167.619 1722.34 -193.625 1718.73 -220.369C1714.64 -251.103 1710.71 -280.951 1706.47 -310.207H1695.31C1699.56 -280.507 1703.64 -250.217 1707.73 -219.04C1711.34 -192 1716.05 -165.846 1720.61 -140.579C1727.05 -105.117 1733.18 -71.5758 1736.01 -36.8524C1748.11 113.271 1706.16 273.737 1620.68 403.322C1600.1 434.352 1579.04 463.756 1558.78 492.273C1519.81 546.796 1483.04 598.364 1453.19 654.808C1413.44 730.018 1367.87 809.513 1288.68 880.141C1266.06 900.237 1242.33 918.707 1217.51 935.699H1236.36V935.256Z" fill="white"/>
<path d="M1177.76 935.257C1220.02 910.581 1259.46 881.325 1295.6 847.488C1369.76 778.041 1408.57 702.24 1448.16 617.722C1476.76 556.698 1515.88 502.027 1557.36 444.105C1574.65 420.02 1592.4 395.049 1610.16 368.896C1653.84 303.586 1685.57 231.036 1704.27 153.315C1722.5 78.1055 1727.53 0.088629 1718.73 -72.6089C1714.8 -104.82 1707.89 -135.407 1700.66 -167.766C1694.69 -194.51 1688.4 -222.141 1684 -250.807C1681.02 -269.72 1678.19 -288.781 1675.36 -307.398C1675.2 -308.433 1675.05 -309.319 1674.89 -310.354H1665.31C1665.46 -309.024 1665.78 -307.546 1665.93 -306.216C1668.76 -287.746 1671.59 -268.538 1674.58 -249.624C1679.13 -220.516 1685.26 -192.737 1691.39 -165.993C1698.62 -133.781 1705.53 -103.343 1709.3 -71.5746C1717.94 -0.0591111 1713.07 77.0712 1695 151.246C1676.46 227.933 1645.19 299.597 1601.99 364.02C1584.39 390.173 1566.63 414.997 1549.35 439.081C1507.71 497.298 1468.28 552.265 1439.36 614.176C1400.08 697.955 1361.75 772.869 1288.84 841.282C1249.4 878.222 1206.04 909.694 1159.37 935.405H1177.76V935.257Z" fill="white"/>
<path d="M252.31 935.257C241.626 933.927 230.942 932.449 220.415 930.972C143.582 920.038 62.6644 906.739 -14.3252 883.541V892.85C52.1373 912.65 121.271 925.209 188.048 935.257H252.31Z" fill="white"/>
<path d="M1104.07 935.256C1119 929.05 1133.77 922.106 1148.38 914.57C1202.59 886.643 1251.92 850.738 1295.13 808.035C1368.66 735.486 1400.09 658.208 1433.55 576.497C1459.95 511.926 1500.49 455.63 1543.38 395.935C1558.78 374.658 1574.65 352.641 1590.36 329.443C1677.09 202.223 1714.64 38.9486 1690.76 -107.333C1685.89 -137.18 1678.35 -165.255 1670.18 -195.102C1662.64 -222.733 1654.94 -251.25 1649.6 -281.393C1647.87 -290.998 1646.14 -300.75 1644.57 -310.502H1634.98C1636.71 -300.307 1638.44 -290.111 1640.33 -279.916C1645.83 -249.477 1653.52 -220.664 1661.07 -192.886C1669.08 -163.334 1676.62 -135.26 1681.49 -106.003C1705.06 38.2098 1667.98 199.267 1582.51 324.715C1566.79 347.765 1550.92 369.782 1535.68 391.059C1492.47 451.049 1451.62 507.789 1424.76 573.394C1391.76 654.366 1360.49 730.757 1288.22 801.977C1245.64 843.941 1196.93 879.255 1143.66 906.739C1122.92 917.525 1101.56 926.982 1079.72 935.108H1104.07V935.256Z" fill="white"/>
<path d="M289.862 893.884C312.017 896.248 334.799 898.76 357.582 901.863C413.989 909.398 475.737 920.48 545.657 935.404H586.508C579.438 933.779 572.21 932.006 564.983 930.528C487.679 913.536 420.273 901.272 358.839 893.145C336.056 890.042 313.116 887.53 290.962 885.166C274.307 883.393 257.024 881.472 240.212 879.403C151.281 868.321 64.5499 855.466 -14.3252 831.086V840.395C68.0066 865.514 155.838 877.778 238.955 888.121C255.767 890.19 273.208 891.963 289.862 893.884Z" fill="white"/>
<path d="M259.066 835.519C272.736 836.996 286.877 838.326 300.389 839.508C324.743 841.725 349.882 844.089 374.865 847.339C435.828 855.318 501.191 868.026 574.566 886.496C594.835 891.519 614.79 897.282 633.958 902.749C664.911 911.615 694.136 919.889 725.089 926.095C744.101 929.937 762.955 932.892 781.967 935.256H958.886C963.6 934.665 968.313 934.074 973.027 933.335C1035.4 924.174 1095.27 904.818 1150.89 875.709C1204.31 847.783 1252.39 811.729 1294.03 768.436C1361.27 698.25 1387.2 623.927 1414.7 545.32L1418.15 535.42C1442.04 467.303 1483.83 409.677 1528.3 348.652C1541.96 329.887 1556.11 310.382 1570.25 289.992C1657.61 163.657 1692.02 2.30437 1662.16 -141.761C1656.35 -169.54 1648.02 -195.693 1639.22 -223.472C1630.27 -251.251 1621.15 -279.916 1614.87 -310.502H1606.86V-310.354C1613.3 -279.029 1622.57 -249.773 1631.68 -221.403C1640.48 -193.92 1648.81 -167.914 1654.46 -140.431C1668.6 -71.8708 1668.13 3.1909 1652.89 76.6272C1637.34 151.689 1606.38 224.091 1563.65 285.854C1549.51 306.245 1535.52 325.602 1521.85 344.367C1477.23 405.835 1434.96 463.904 1410.77 533.056L1407.31 542.955C1380.13 620.824 1354.36 694.556 1288.21 763.412C1247.2 806.115 1199.75 841.725 1147.12 869.208C1092.28 897.873 1033.36 916.934 971.927 925.947C891.795 937.62 809.463 935.256 726.817 918.707C696.179 912.649 667.111 904.374 636.315 895.509C616.989 890.042 597.035 884.279 576.609 879.255C502.919 860.785 437.399 847.93 375.965 839.951C350.825 836.701 325.529 834.337 301.175 831.972C287.662 830.643 273.521 829.461 259.852 827.983C180.819 819.561 82.4612 809.218 -4.42712 782.473C-7.72668 781.439 -11.1834 780.404 -14.4829 779.222V787.054C-11.969 787.792 -9.45502 788.679 -6.94107 789.418C80.89 816.753 179.72 827.096 259.066 835.519Z" fill="white"/>
<path d="M1634.35 -176.336C1627.75 -202.489 1618.64 -227.017 1609.05 -252.875C1602.14 -271.493 1595.07 -290.554 1588.94 -310.354H1580.77C1587.06 -289.667 1594.44 -269.867 1601.51 -250.511C1611.1 -224.801 1620.05 -200.421 1626.65 -174.711C1643.62 -107.776 1645.19 -33.7483 1631.21 39.3926C1616.91 114.011 1586.9 185.674 1544 246.699C1531.28 264.873 1518.39 282.309 1506.14 299.153C1458.37 364.167 1417.21 420.316 1396 492.422C1394.11 498.776 1392.23 505.278 1390.5 511.631C1368.97 586.545 1348.55 657.322 1287.58 724.404C1206.66 813.208 1096.21 870.686 976.481 886.201C897.135 896.396 815.903 891.816 734.985 872.311C706.389 865.367 679.207 856.501 650.611 847.192C630.656 840.691 609.916 833.894 588.705 827.836C518 807.741 454.051 794.295 393.402 786.611C366.377 783.213 339.352 781.144 313.113 779.075C302.115 778.189 290.802 777.302 279.803 776.416L270.219 775.529C185.059 768.289 97.0708 760.605 16.1531 737.112C5.78307 734.009 -4.42984 730.758 -14.1714 727.36V735.191C75.2309 766.22 175.789 774.938 269.59 782.917L279.175 783.804C290.173 784.69 301.643 785.577 312.642 786.463C338.724 788.532 365.749 790.601 392.46 793.999C452.637 801.535 516.114 814.981 586.505 834.928C607.559 840.986 628.299 847.636 648.097 854.137C677.007 863.594 704.189 872.459 733.1 879.404C786.835 892.259 840.571 898.76 893.992 898.76C922.117 898.76 949.927 896.987 977.581 893.441C1099.19 877.779 1211.38 819.414 1293.55 729.133C1355.77 660.72 1376.2 589.205 1398.04 513.552C1399.92 507.198 1401.65 500.697 1403.54 494.343C1424.28 423.419 1465.13 367.714 1512.42 303.291C1524.84 286.446 1537.56 269.01 1550.45 250.836C1593.81 189.073 1624.45 116.375 1638.91 40.7224C1653.2 -33.4527 1651.48 -108.367 1634.35 -176.336Z" fill="white"/>
<path d="M1605.76 -210.765C1598.37 -235.589 1588 -259.673 1578.1 -282.872C1574.33 -291.885 1570.4 -301.046 1566.63 -310.207H1559.88C1563.96 -300.159 1568.2 -290.407 1572.29 -280.655C1582.66 -256.423 1592.4 -233.52 1599.79 -209.14C1619.43 -143.682 1623.2 -70.6893 1610.63 2.15603C1597.74 76.4789 1568.2 147.699 1525.31 207.837C1513.53 224.386 1501.74 240.344 1490.27 255.563C1441.72 320.873 1399.77 377.169 1382.33 451.935C1380.29 460.801 1378.24 469.962 1376.2 478.68C1359.86 551.377 1344.31 619.937 1287.74 685.838C1209.81 776.414 1100.92 833.745 981.355 847.043C903.737 855.761 821.405 848.669 743.002 826.505C715.977 818.821 690.523 809.365 663.655 799.317C643.229 791.781 622.175 783.802 600.335 776.858C532.301 755.137 470.238 740.952 410.532 733.712C382.093 730.166 353.654 728.54 326.158 726.915C317.202 726.324 308.246 725.881 299.447 725.29C291.748 724.846 283.892 724.255 276.036 723.812C179.249 717.606 74.6057 710.957 -14.3252 675.347V681.848C74.9199 716.867 179.092 723.517 275.564 729.723C283.42 730.166 291.277 730.757 298.976 731.2C307.774 731.791 316.73 732.382 325.686 732.825C353.183 734.451 381.464 736.076 409.589 739.622C468.824 746.863 530.416 760.9 598.135 782.473C619.818 789.417 640.872 797.248 661.141 804.784C688.166 814.832 713.777 824.436 740.959 832.12C798.151 848.226 857.543 856.5 915.678 856.5C937.99 856.5 960.144 855.318 981.827 852.806C1102.97 839.212 1213.27 781.29 1292.3 689.532C1349.81 622.597 1365.52 553.298 1382.02 479.862C1384.06 471.144 1386.1 462.131 1388.14 453.117C1405.43 379.533 1446.91 323.68 1495.14 258.962C1506.61 243.595 1518.4 227.784 1530.18 211.088C1573.7 150.211 1603.56 78.2521 1616.44 3.04259C1629.48 -70.6893 1625.71 -144.569 1605.76 -210.765Z" fill="white"/>
<path d="M1577.79 -245.487C1569.93 -267.799 1559.56 -289.519 1549.51 -310.354H1542.59C1553.59 -287.894 1563.81 -266.469 1571.82 -243.566C1594.29 -179.734 1600.1 -107.776 1588.94 -35.3735C1577.48 38.5061 1548.72 108.987 1505.51 168.534C1494.36 183.901 1483.36 198.529 1472.67 212.714C1423.5 277.876 1381.07 334.172 1367.4 411.303C1365.52 422.237 1363.63 433.467 1361.9 444.253C1350.43 515.03 1339.59 581.965 1286.96 646.831C1212.01 739.033 1105.01 796.068 985.755 807.15C908.765 814.39 827.533 804.933 751.015 779.962C725.404 771.54 701.364 761.492 676.068 750.853C655.485 742.136 634.273 733.27 612.119 725.291C547.385 702.241 485.322 687.021 427.815 680.225C398.276 676.678 368.738 675.496 340.141 674.462C333.071 674.166 326.158 673.871 319.244 673.575C307.931 673.132 296.619 672.689 285.149 672.245C184.12 668.256 74.2915 663.971 -14.3252 621.86V628.509C74.7628 669.734 184.277 674.019 284.835 678.008C296.304 678.451 307.774 678.895 318.93 679.338C325.843 679.634 332.914 679.929 339.827 680.225C368.266 681.407 397.648 682.441 426.873 685.987C484.065 692.784 545.5 707.708 609.762 730.61C631.759 738.442 652.814 747.307 673.397 756.025C697.751 766.368 723.047 776.859 748.972 785.429C809.464 805.081 872.784 815.276 934.69 815.276C952.131 815.276 969.257 814.538 986.383 812.912C1107.37 801.535 1215.94 743.761 1291.98 650.229C1345.56 584.181 1357.03 513.404 1368.19 444.992C1369.92 434.205 1371.8 423.123 1373.69 412.189C1387.2 336.389 1429.15 280.683 1477.86 216.113C1488.54 201.928 1499.54 187.3 1510.7 171.933C1554.38 111.795 1583.45 40.4269 1595.07 -34.3393C1606.54 -107.776 1600.57 -180.769 1577.79 -245.487Z" fill="white"/>
<path d="M1549.98 -280.063C1545.89 -290.406 1541.02 -300.454 1536.15 -310.354H1529.24C1534.58 -299.715 1539.77 -289.076 1544.17 -277.994C1569.3 -215.935 1577.32 -144.863 1567.42 -72.7567C1557.36 0.679682 1529.24 70.5698 1486.03 129.23C1475.5 143.563 1464.98 157.304 1454.76 170.603C1405.11 235.469 1362.38 291.322 1352.79 370.521C1351.22 383.228 1349.96 396.083 1348.71 408.495C1342.11 474.839 1335.35 543.547 1286.33 607.527C1251.6 652.741 1208.87 689.681 1159.37 717.017C1107.52 745.682 1050.65 762.526 990.311 767.107C913.95 772.869 833.975 761.197 759.028 733.418C734.674 724.257 711.891 713.618 687.852 702.241C667.269 692.489 646.057 682.589 623.903 673.723C561.526 648.9 501.348 633.089 444.942 626.736C414.617 623.189 384.136 622.746 354.754 622.155C349.412 622.007 344.227 622.007 339.042 621.86C325.058 621.564 311.231 621.416 296.619 621.269C190.09 619.643 73.0345 618.166 -14.3252 566.007V573.099C73.9772 624.076 190.404 625.554 296.462 626.883C311.074 627.031 325.058 627.179 338.884 627.474C344.069 627.622 349.412 627.622 354.754 627.77C383.978 628.361 414.303 628.804 444.313 632.35C500.091 638.704 559.798 654.367 621.546 678.895C643.544 687.612 664.755 697.66 685.181 707.264C708.278 718.199 732.16 729.428 756.828 738.589C819.991 762.083 886.768 774.199 951.973 774.199C965.015 774.199 978.056 773.756 990.94 772.722C1052.22 768.141 1109.88 751.001 1162.67 721.893C1212.95 694.114 1256.32 656.731 1291.51 610.778C1341.48 545.468 1348.39 476.021 1354.99 408.791C1356.25 396.379 1357.5 383.524 1359.08 370.964C1368.5 293.391 1410.93 237.981 1459.95 173.854C1470.16 160.555 1480.53 146.814 1491.22 132.481C1534.9 73.0817 1563.49 2.30503 1573.7 -72.1656C1583.6 -145.011 1575.43 -216.97 1549.98 -280.063Z" fill="white"/>
<path d="M1523.26 -310.354H1518.08C1545.1 -250.363 1555 -181.064 1546.68 -110.14C1538.03 -36.9989 1510.54 32.3002 1467.17 90.3695C1456.96 103.963 1446.9 116.966 1437.16 129.526C1387.35 193.653 1344.3 249.063 1338.96 329.887C1338.02 343.924 1337.55 358.257 1337.08 372.146C1334.72 437.604 1332.36 505.13 1286.48 568.814C1253.33 614.767 1211.85 652.003 1162.83 679.338C1111.61 708.003 1055.2 724.257 995.179 727.803C919.289 732.236 840.414 718.199 767.038 687.317C743.627 677.417 721.001 665.596 699.161 654.071C678.893 643.432 657.838 632.351 635.684 622.598C575.664 596.15 517.371 579.748 462.379 573.838C437.239 571.03 412.1 570.587 387.589 570.587C381.775 570.587 375.962 570.587 370.305 570.587C366.535 570.587 362.764 570.587 358.993 570.587C343.123 570.587 327.097 570.883 310.128 571.178C196.215 572.951 70.203 575.02 -14.1714 506.903V512.813C71.3028 579.305 196.843 577.384 310.285 575.611C327.254 575.315 343.281 575.02 359.15 575.02C362.921 575.02 366.692 575.02 370.463 575.02C400.316 574.872 431.269 574.724 462.065 578.123C516.586 584.033 574.407 600.287 633.956 626.588C655.953 636.192 676.85 647.274 697.119 657.913C719.116 669.438 741.741 681.407 765.467 691.306C830.672 718.642 900.12 732.974 968.154 732.974C977.424 732.974 986.694 732.679 995.807 732.236C1056.61 728.689 1113.81 712.288 1165.66 683.18C1215.15 655.401 1257.26 617.722 1290.72 571.326C1337.23 506.607 1339.75 438.343 1342.1 372.294C1342.57 358.405 1343.05 344.072 1343.99 330.183C1349.17 250.688 1389.87 198.382 1441.25 132.185C1450.99 119.626 1461.04 106.623 1471.26 93.0292C1515.09 34.3688 1542.9 -35.5213 1551.55 -109.401C1559.72 -180.621 1549.98 -249.92 1523.26 -310.354Z" fill="white"/>
<path d="M1510.38 -310.354H1505.36C1523.9 -260.263 1530.65 -204.706 1524.84 -147.523C1517.61 -74.9731 1490.74 -6.265 1447.38 51.0656C1437.64 63.7729 1428.05 75.8892 1418.78 87.5621C1366.3 153.906 1324.82 206.213 1324.04 288.958C1323.88 304.177 1324.35 319.692 1324.67 334.763C1326.39 399.334 1328.28 466.121 1285.54 529.51C1220.65 625.406 1116.32 683.18 999.424 687.76C924.005 690.715 846.387 674.462 774.897 640.625C752.428 629.986 730.903 617.427 710.005 605.163C690.051 593.49 669.311 581.374 647.314 570.735C589.493 542.661 532.929 525.52 479.351 520.053C462.382 518.28 445.255 517.689 428.443 517.689C413.988 517.689 399.69 518.133 385.549 518.576L378.479 518.724C361.038 519.167 343.44 520.053 324.743 520.94C200.931 526.703 62.3496 533.056 -14.4829 437.899V445.139C64.2351 537.341 202.031 530.988 325.057 525.225C343.755 524.338 361.352 523.6 378.793 523.009L385.863 522.861C416.345 521.974 447.769 521.088 479.036 524.338C532.144 529.806 588.079 546.798 645.428 574.577C667.268 585.215 687.851 597.184 707.806 608.857C728.703 621.121 750.543 633.828 773.168 644.467C839.788 675.939 911.75 692.341 982.454 692.341C988.268 692.341 994.238 692.193 1000.05 692.045C1118.68 687.465 1224.26 628.952 1290.1 531.874C1333.62 467.451 1331.74 399.925 1329.85 334.615C1329.38 319.544 1329.06 304.029 1329.22 288.958C1330.01 207.543 1371.02 155.679 1423.02 90.074C1432.29 78.401 1441.88 66.2847 1451.62 53.4297C1495.46 -4.49193 1522.48 -73.9388 1529.87 -147.375C1535.37 -204.41 1528.77 -260.115 1510.38 -310.354Z" fill="white"/>
<path d="M1496.4 -310.354H1491.53C1521.7 -204.262 1499.23 -80.5879 1428.05 11.7616C1418.47 24.0256 1409.2 35.6986 1400.08 47.0761C1347.45 112.386 1305.97 163.954 1309.74 248.324C1310.53 264.43 1311.94 281.127 1313.51 297.232C1319.32 361.212 1325.45 427.408 1285.54 490.502C1223.79 588.17 1121.35 645.501 1004.61 647.865C929.662 649.49 853.301 630.873 783.539 594.081C761.856 582.703 741.273 569.405 721.162 556.402C701.521 543.695 681.253 530.692 659.727 519.167C604.106 489.319 549.428 471.588 497.106 466.565C484.065 465.235 471.181 464.791 458.14 464.791C439.128 464.791 420.273 465.826 401.89 466.86L398.591 467.008C380.207 468.042 361.196 469.52 341.241 471.145C208.473 481.636 57.9508 493.457 -5.52638 364.315C-8.51169 358.257 -11.3399 352.199 -14.3252 345.993V356.927C-12.9111 360.03 -11.3399 363.133 -9.92579 366.088C18.9846 425.044 68.3208 460.359 140.754 474.248C203.76 486.364 273.836 480.75 341.555 475.43C361.51 473.805 380.365 472.327 398.905 471.293L402.204 471.145C433 469.52 464.896 467.747 496.635 470.849C548.171 475.873 602.22 493.457 657.37 523.009C678.739 534.534 699.007 547.537 718.49 560.096C738.602 573.099 759.342 586.397 781.182 597.922C848.902 633.532 923.063 652.298 995.967 652.298C998.796 652.298 1001.78 652.298 1004.61 652.15C1123.08 649.786 1226.94 591.569 1289.63 492.57C1330.32 428.147 1324.19 361.36 1318.22 296.641C1316.81 280.536 1315.24 263.987 1314.45 247.881C1310.84 165.136 1351.85 114.159 1403.86 49.4402C1412.97 38.2105 1422.4 26.3898 1431.98 14.1258C1503.47 -78.8148 1526.41 -203.376 1496.4 -310.354Z" fill="white"/>
<path d="M1477.39 -310.354H1474.25C1481.94 -278.29 1484.93 -244.601 1482.89 -210.468C1478.49 -139.692 1452.41 -70.2448 1409.35 -15.1306C1399.93 -3.16208 1390.66 8.21539 1381.7 19.1496C1329.22 83.2771 1287.74 134.106 1296.07 219.363C1297.8 236.356 1300.47 253.939 1303.14 270.931C1313.04 334.616 1323.09 400.368 1285.86 463.609C1257.89 510.892 1218.77 550.196 1172.73 577.088C1123.71 605.754 1068.87 620.382 1009.48 620.53H1008.85C934.533 620.53 859.429 599.696 791.552 560.096C770.655 547.832 750.7 533.795 731.532 520.201C712.363 506.607 692.723 492.57 671.511 480.158C618.09 448.686 565.454 430.364 514.704 425.635C504.491 424.601 494.278 424.305 484.065 424.305C462.068 424.305 440.228 426.079 419.016 427.852C399.848 429.477 380.05 431.693 359.153 434.058C293.633 441.445 226.071 449.129 165.736 438.934C97.0741 427.408 51.1946 393.867 25.4266 336.389C21.4986 327.523 17.5705 318.362 13.7996 309.496C4.84365 289.844 -3.64092 269.749 -14.3252 250.541V257.042C-5.05501 274.477 2.64395 292.652 10.1858 310.531C13.9567 319.396 17.7276 328.557 21.8128 337.423C48.0521 395.788 94.7173 429.92 164.479 441.741C225.285 451.936 293.162 444.253 358.839 436.865C379.736 434.501 399.533 432.284 418.702 430.659C449.812 428.147 481.865 425.34 513.918 428.443C564.197 433.171 616.361 451.345 669.311 482.523C690.366 494.934 710.006 508.824 729.175 522.417C748.501 536.159 768.455 550.196 789.51 562.46C857.857 602.355 933.59 623.337 1008.54 623.337H1009.17C1069.19 623.189 1124.65 608.561 1174.14 579.453C1220.81 552.117 1260.25 512.518 1288.37 464.791C1326.24 400.664 1316.02 334.32 1306.13 270.193C1303.45 253.2 1300.78 235.765 1299.06 218.772C1290.73 134.55 1331.89 84.3114 1384.06 20.6272C1393.01 9.69299 1402.28 -1.68449 1411.71 -13.653C1455.23 -69.2105 1481.47 -139.248 1485.87 -210.468C1487.92 -244.453 1484.93 -278.29 1477.39 -310.354Z" fill="white"/>
<path d="M1456.65 -310.354H1453.51C1474.56 -216.526 1452.72 -111.765 1389.56 -32.2706C1380.13 -20.5977 1371.02 -9.51571 1362.06 1.12296C1309.43 64.2162 1267.95 114.159 1281.14 200.746C1283.81 218.477 1287.9 236.799 1291.67 254.53C1305.34 317.771 1319.64 383.228 1284.91 446.617C1258.52 494.491 1220.65 534.091 1175.24 561.131C1127.01 589.796 1072.64 603.833 1013.57 602.799C920.235 601.321 845.445 565.416 799.094 535.716C778.825 522.713 759.656 507.789 741.116 493.309C722.576 478.829 703.407 463.905 682.824 450.607C631.602 417.509 580.695 398.595 531.516 394.163C523.345 393.424 515.175 393.128 507.005 393.128C482.494 393.128 458.454 395.788 438.185 398.152C418.702 400.368 398.276 403.471 376.594 406.574C315.945 415.588 247.125 425.931 188.833 417.509C122.371 407.904 78.6909 375.545 55.594 318.362C52.1373 309.644 48.6806 300.779 45.3811 292.061C33.5969 261.031 21.4986 228.82 0.130002 201.189C-4.26941 195.574 -9.14018 190.107 -14.3252 184.788V189.221C-10.0829 193.653 -6.15487 198.234 -2.38394 202.962C18.8275 230.298 30.7687 262.214 42.5529 293.095C45.8524 301.813 49.152 310.679 52.7658 319.396C76.334 377.614 120.799 410.712 188.519 420.464C247.44 428.886 316.416 418.691 377.379 409.53C399.062 406.279 419.331 403.324 438.814 401.107C465.682 398.004 499.149 394.31 531.359 397.118C580.066 401.403 630.502 420.168 681.253 452.971C701.678 466.269 720.847 481.045 739.388 495.525C757.928 510.006 777.097 524.929 797.523 538.08C864.457 581.078 939.246 604.572 1013.72 605.754C1015.92 605.754 1018.12 605.754 1020.32 605.754C1077.51 605.754 1130.15 591.569 1177.13 563.642C1223.01 536.307 1261.35 496.264 1287.9 447.947C1323.25 383.672 1308.8 317.771 1294.97 253.939C1291.2 236.208 1287.11 217.886 1284.44 200.302C1271.4 115.045 1312.57 65.546 1364.73 3.04386C1373.69 -7.59481 1382.8 -18.6768 1392.23 -30.4975C1455.55 -110.435 1477.7 -215.935 1456.65 -310.354Z" fill="white"/>
<path d="M1435.59 -310.354H1434.02C1438.74 -287.894 1440.78 -264.548 1440.31 -240.907C1438.89 -170.869 1414.07 -102.752 1370.7 -48.9674C1361.43 -37.4422 1352.16 -26.6558 1343.36 -16.1649C1290.88 45.7463 1249.4 94.6545 1267.47 181.98C1271.24 200.302 1276.27 218.477 1281.77 237.685C1299.37 300.779 1317.75 366.088 1285.23 429.92C1233.38 531.726 1133.45 589.944 1018.28 585.659C925.577 582.408 852.044 543.695 806.793 511.779C787.153 497.89 768.769 482.227 751.015 467.008C732.946 451.641 714.405 435.831 694.294 421.646C645.429 386.922 596.407 367.418 548.799 363.429C542.2 362.838 535.758 362.69 529.159 362.69C505.748 362.69 482.179 365.793 458.297 369.191C438.657 371.999 417.917 375.988 395.92 380.125C336.842 391.207 269.751 403.767 213.03 397.118C148.296 389.582 106.659 358.109 85.9185 300.779C82.776 292.209 79.9478 283.343 76.9625 274.921C66.7496 244.039 56.0653 212.271 35.4824 185.231C22.5984 168.534 6.10063 153.906 -14.3252 141.199V142.972C5.47214 155.531 21.6557 169.864 34.0683 186.117C54.4941 212.862 65.1784 244.63 75.3913 275.364C78.2195 283.934 81.2048 292.8 84.3472 301.37C105.402 359.291 147.353 391.06 212.873 398.743C269.751 405.392 336.999 392.833 396.234 381.751C418.231 377.613 438.971 373.772 458.611 370.964C489.093 366.532 518.946 362.69 548.799 365.202C596.093 369.043 644.8 388.548 693.508 423.123C713.463 437.308 732.003 453.118 750.072 468.338C767.984 483.557 786.367 499.219 806.007 513.109C851.415 545.173 925.106 584.033 1018.28 587.284C1022.36 587.432 1026.29 587.579 1030.38 587.579C1141.15 587.579 1236.36 529.658 1286.64 430.807C1319.32 366.532 1300.94 301.074 1283.34 237.538C1278 218.329 1272.82 200.155 1269.04 181.833C1260.87 141.938 1264.33 107.805 1280.2 74.4115C1294.66 43.8254 1317.91 16.4899 1344.62 -15.1306C1353.42 -25.6215 1362.69 -36.4079 1371.96 -47.9331C1415.64 -102.013 1440.46 -170.426 1442.04 -240.759C1442.35 -264.548 1440.15 -287.894 1435.59 -310.354Z" fill="white"/>
<path d="M1415.01 -310.354H1413.28C1416.89 -291.736 1418.78 -272.675 1418.78 -253.318C1418.78 -183.724 1394.74 -116.198 1351.06 -63.1523C1341.79 -51.7749 1332.52 -41.2839 1323.72 -30.9408C1269.2 32.3002 1229.92 77.9578 1252.7 166.318C1257.57 185.083 1264.01 203.996 1270.77 223.796C1292.3 286.742 1314.61 351.903 1284.44 415.883C1261.34 465.087 1225.68 505.425 1181.68 532.465C1135.49 560.835 1080.5 574.133 1022.67 570.735C950.556 566.745 876.709 538.08 814.646 490.206C795.477 475.282 777.565 458.733 760.282 442.628C742.998 426.522 725.086 409.973 705.917 395.049C659.252 358.7 612.116 338.457 565.922 334.911C560.58 334.468 555.395 334.32 550.053 334.32C525.385 334.32 501.031 338.31 477.934 342.447C458.451 345.993 437.554 350.721 415.399 355.745C357.736 368.896 292.373 383.672 237.38 378.943C174.375 373.476 134.937 343.038 116.711 285.707C114.04 277.285 111.526 268.419 109.012 259.997C100.213 229.411 91.1002 197.79 71.3028 171.637C52.4482 146.666 23.695 126.718 -14.1714 112.09V113.715C23.2236 128.196 51.5055 147.996 70.0459 172.524C89.6861 198.529 98.7991 230.002 107.598 260.44C110.112 268.863 112.626 277.728 115.297 286.15C133.837 343.924 173.746 374.806 237.38 380.421C292.687 385.297 358.207 370.373 416.028 357.223C438.182 352.199 459.079 347.471 478.562 343.924C506.53 338.901 536.383 334.172 566.079 336.389C611.959 339.787 658.781 359.882 705.289 396.083C724.458 411.007 742.37 427.556 759.496 443.662C776.779 459.768 794.691 476.317 813.86 491.24C876.08 539.41 950.242 568.075 1022.67 572.212C1028.49 572.508 1034.3 572.656 1039.96 572.656C1091.81 572.656 1140.83 559.357 1182.62 533.647C1226.93 506.459 1262.76 465.826 1286.01 416.326C1316.34 351.756 1294.02 286.446 1272.34 223.205C1265.59 203.258 1259.14 184.492 1254.27 165.727C1231.65 78.1055 1270.77 32.7434 1324.98 -30.202C1333.78 -40.3974 1343.05 -51.0361 1352.32 -62.4135C1410.61 -133.19 1431.51 -225.54 1415.01 -310.354Z" fill="white"/>
<path d="M1398.83 -267.06C1398.51 -281.688 1397.1 -296.169 1394.59 -310.354H1393.01C1395.53 -296.169 1396.94 -281.688 1397.26 -267.06C1398.67 -198.057 1375.26 -131.122 1331.58 -78.667C1322.31 -67.5851 1313.04 -57.0942 1304.24 -47.0466C1249.72 15.0123 1210.44 59.9311 1238.09 149.178C1244.06 168.534 1251.92 187.891 1260.25 208.281C1285.7 271.079 1311.94 336.093 1284.13 400.368C1262.6 450.163 1228.19 490.797 1184.83 517.985C1139.42 546.355 1085.06 558.914 1027.39 554.629C955.43 549.162 882.84 518.133 822.819 467.303C804.122 451.345 786.681 433.762 769.869 416.77C753.372 400.073 736.245 382.785 718.019 367.123C673.397 329.148 628.146 308.167 583.366 305.212C579.124 304.916 575.038 304.768 570.796 304.768C545.185 304.768 520.046 309.792 497.892 314.52C478.723 318.658 457.826 324.272 435.829 330.183C354.754 352.051 262.838 376.727 202.66 344.368C175.478 329.74 157.566 305.359 147.667 269.454C145.31 261.031 143.268 252.166 141.068 243.744C133.683 213.453 126.142 182.276 107.13 156.713C83.2474 124.65 42.3957 102.338 -14.3252 90.6651V92.1427C41.7673 103.816 82.1475 125.832 105.873 157.452C124.728 182.867 132.269 213.896 139.654 244.039C141.697 252.461 143.896 261.327 146.253 269.749C156.152 305.507 174.849 331.069 202.031 345.55C262.68 378.205 355.068 353.381 436.457 331.513C458.454 325.602 479.351 319.987 498.52 315.85C524.131 310.235 553.984 304.473 583.523 306.541C627.988 309.644 672.925 330.331 717.234 368.157C735.46 383.819 752.586 400.959 769.084 417.656C785.896 434.796 803.336 452.38 822.191 468.338C882.369 519.315 955.273 550.492 1027.55 555.959C1035.09 556.55 1042.48 556.846 1049.86 556.846C1099.51 556.846 1146.18 543.99 1186.08 519.167C1229.76 491.979 1264.17 451.05 1285.86 400.959C1313.82 336.093 1287.59 270.931 1262.13 207.69C1253.8 187.3 1246.11 167.943 1240.13 148.734C1212.64 60.2266 1251.76 15.6034 1305.97 -46.16C1314.77 -56.2076 1323.88 -66.6985 1333.31 -77.7805C1376.67 -130.383 1400.24 -197.613 1398.83 -267.06Z" fill="white"/>
<path d="M1919.84 417.508C1904.76 463.313 1887.32 508.528 1867.36 553.003C1804.52 692.931 1719.51 821.186 1613.93 935.404H1622.25C1726.58 821.629 1810.64 694.113 1873.18 555.219C1890.62 516.359 1906.17 476.907 1920 437.16V417.508H1919.84Z" fill="white"/>
<path d="M1919.84 528.918C1914.5 541.773 1909 554.48 1903.34 567.188C1843.17 700.91 1763.35 824.289 1665.15 935.256H1671.27C1768.53 824.584 1847.88 701.796 1907.59 568.813C1911.83 559.504 1915.76 550.195 1919.68 540.887V528.918H1919.84Z" fill="white"/>
<path d="M1919.84 623.631C1865.32 735.337 1797.13 839.655 1715.9 935.403H1721.87C1800.12 842.61 1866.42 741.986 1919.84 634.27V623.631Z" fill="white"/>
<path d="M1919.84 711.4C1876.16 790.156 1825.41 864.922 1768.06 935.403H1771.99C1827.61 866.843 1877.11 794.146 1919.84 717.754V711.4Z" fill="white"/>
<path d="M1919.84 711.4C1876.16 790.156 1825.41 864.922 1768.06 935.403H1771.99C1827.61 866.843 1877.11 794.146 1919.84 717.754V711.4Z" fill="white"/>
<path d="M1919.84 791.488C1900.83 822.222 1880.72 852.513 1859.51 882.065C1846.62 900.091 1833.27 917.822 1819.44 935.406H1823.37C1836.72 918.413 1849.61 901.126 1862.18 883.69C1882.45 855.468 1901.61 826.803 1919.84 797.399V791.488Z" fill="white"/>
<path d="M1919.84 868.025C1911.51 880.142 1903.19 892.258 1894.55 904.226C1887 914.717 1879.46 925.06 1871.61 935.256H1875.38C1882.76 925.504 1889.99 915.752 1897.06 905.852C1904.76 895.213 1912.3 884.279 1919.68 873.493V868.025H1919.84Z" fill="white"/>
</g>
</g>
<defs>
<clipPath id="clip0_71_1589">
<rect width="1920" height="911" fill="white" transform="translate(0 1)"/>
</clipPath>
<clipPath id="clip1_71_1589">
<rect width="1957" height="1026" fill="white" transform="translate(-37 1)"/>
</clipPath>
</defs>
</svg>
