<svg width="1920" height="911" viewBox="0 0 1920 911" fill="none" xmlns="http://www.w3.org/2000/svg">
<g clip-path="url(#clip0_69_207)">
<g clip-path="url(#clip1_69_207)">
<path d="M1919.84 274.807C1900.2 364.792 1871.29 452.857 1832.8 538.262C1767.12 684.248 1676.93 817.231 1563.8 934.404H1572.29C1684 817.674 1773.4 685.578 1838.61 540.626C1873.33 463.348 1900.36 384.001 1919.84 303.029V274.807V274.807Z" fill="white"/>
<path d="M1919.84 -113.06C1915.29 -180.291 1906.17 -246.635 1892.5 -311.353H1884.49C1903.19 -222.845 1913.56 -131.678 1914.97 -38.7375C1916.23 37.063 1912.77 104.737 1904.76 167.978C1893.92 250.871 1874.43 333.025 1846.47 412.371C1818.81 490.979 1782.83 567.075 1739.62 638.443C1686.2 726.655 1621.94 811.617 1543.22 898.499C1532.07 910.763 1520.91 922.584 1509.6 934.257H1520.28C1530.02 924.062 1539.61 913.719 1549.19 903.228C1628.22 816.05 1692.64 730.645 1746.38 642.137C1789.9 570.326 1826.04 493.787 1853.85 414.736C1881.98 334.946 1901.62 252.2 1912.46 168.864C1915.6 144.779 1917.96 120.251 1919.68 94.6891V-113.06H1919.84Z" fill="white"/>
<path d="M1469.69 934.257C1491.69 911.502 1513.37 887.565 1534.58 862.298C1590.99 795.363 1663.74 705.378 1726.74 602.833C1813.79 460.984 1868.31 298.892 1884.65 134.141C1891.72 61.7388 1890.62 -9.33342 1888.58 -69.3237C1885.75 -152.364 1876.79 -233.336 1862.02 -311.353H1854.01C1868.94 -233.336 1877.89 -152.217 1880.72 -69.0281C1882.76 -9.33339 1883.86 61.4433 1876.79 133.55C1860.61 297.267 1806.4 458.177 1719.99 599.139C1657.14 701.241 1584.55 790.931 1528.45 857.718C1505.67 884.758 1482.58 910.172 1459.01 934.257H1469.69Z" fill="white"/>
<path d="M1423.02 934.256C1456.33 900.419 1488.54 863.331 1520.91 821.811L1532.22 807.183C1591.77 730.644 1653.52 651.445 1708.04 564.119C1795.24 424.043 1846.93 263.429 1857.78 99.7116C1862.02 32.6289 1858.56 -34.6015 1855.26 -99.6156C1851.49 -172.904 1843.64 -243.533 1832.01 -311.207H1822.42C1834.21 -243.385 1842.06 -172.609 1845.83 -99.1723C1849.13 -34.306 1852.59 32.6289 1848.35 99.2683C1837.66 261.36 1786.29 420.645 1699.87 559.538C1645.5 646.421 1584.07 725.472 1524.52 801.864L1513.21 816.492C1479.27 860.228 1445.17 899.089 1410.14 934.256H1423.02Z" fill="white"/>
<path d="M1377.14 934.257C1421.45 890.964 1463.25 841.169 1506.3 780.735C1525.15 754.286 1545.11 727.394 1564.27 701.389C1605.75 645.388 1648.65 587.318 1688.4 524.669C1731.77 455.961 1766.02 381.047 1790.06 302.291C1813.94 224.422 1827.3 144.484 1829.81 64.9895C1831.38 11.7961 1827.45 -40.3628 1823.37 -95.477C1822.58 -107.002 1821.64 -118.527 1820.85 -130.2C1816.3 -194.18 1809.7 -254.318 1800.59 -311.353H1791C1800.11 -254.17 1806.87 -193.737 1811.43 -129.609C1812.21 -117.936 1813.16 -106.411 1813.94 -94.886C1818.03 -39.9196 1821.95 12.0917 1820.38 64.694C1817.87 143.45 1804.51 222.649 1780.95 299.779C1757.06 377.944 1723.12 451.971 1680.23 520.088C1640.64 582.442 1597.9 640.364 1556.42 696.217C1537.09 722.223 1517.3 749.115 1498.28 775.711C1453.35 838.509 1410.14 889.782 1363.79 934.109H1377.14V934.257Z" fill="white"/>
<path d="M1332.99 934.257C1403.85 869.539 1453.03 800.683 1492.47 740.101C1518.4 700.206 1546.05 662.085 1575.12 621.746C1606.38 578.453 1638.75 533.83 1669.55 485.956C1756.12 350.756 1803.41 188.959 1802.94 30.4138C1802.63 -14.3572 1798.07 -57.7984 1793.2 -103.899C1791.32 -122.369 1789.27 -141.43 1787.55 -160.639C1782.67 -214.719 1776.86 -264.514 1769.95 -311.353H1758.79C1765.71 -264.366 1771.68 -214.128 1776.55 -159.752C1778.28 -140.396 1780.32 -121.335 1782.2 -102.865C1787.07 -57.0596 1791.63 -13.7662 1791.94 30.4138C1792.42 187.039 1745.59 346.914 1660.12 480.636C1629.48 528.215 1597.27 572.838 1566 615.984C1536.78 656.47 1509.13 694.739 1483.04 734.782C1442.51 796.989 1391.44 868.356 1316.97 934.257H1332.99Z" fill="white"/>
<path d="M1286.48 934.256C1289.94 931.301 1293.55 928.493 1297.01 925.538C1375.73 858.899 1426.16 786.792 1477.86 699.171C1506.77 650.115 1539.76 604.014 1574.64 555.253C1599.47 520.678 1625.08 484.772 1649.9 446.798C1693.43 379.715 1726.42 305.984 1747.95 227.671C1769.16 150.541 1778.27 72.524 1774.97 -4.16307C1773.25 -43.3193 1767.9 -81.1456 1762.25 -121.041C1759.1 -143.648 1755.65 -166.994 1753.13 -190.931C1748.58 -232.303 1743.71 -272.346 1738.05 -311.207H1726.89C1732.55 -272.051 1737.42 -231.565 1742.13 -189.896C1744.81 -165.959 1748.11 -142.466 1751.41 -119.711C1757.06 -79.9636 1762.4 -42.4327 1763.97 -3.71981C1767.12 71.9329 1758.16 148.916 1737.26 225.159C1716.05 302.437 1683.37 375.283 1640.48 441.479C1615.65 479.305 1590.2 515.063 1565.53 549.639C1530.49 598.547 1497.5 644.796 1468.27 694.295C1417.05 781.03 1367.09 852.397 1289.62 918.002C1283.03 923.617 1276.27 929.084 1269.51 934.404H1286.48V934.256Z" fill="white"/>
<path d="M1236.36 934.256C1257.26 919.332 1277.37 903.374 1296.54 886.234C1377.14 814.423 1423.18 734.19 1463.4 658.094C1492.94 602.241 1529.55 550.968 1568.2 496.741C1588.63 468.223 1609.68 438.671 1630.27 407.494C1716.84 275.988 1759.58 113.305 1747.16 -38.8865C1744.34 -74.0532 1738.21 -107.742 1731.61 -143.5C1727.05 -168.619 1722.34 -194.625 1718.73 -221.369C1714.64 -252.103 1710.71 -281.95 1706.47 -311.207H1695.31C1699.56 -281.507 1703.64 -251.217 1707.73 -220.039C1711.34 -192.999 1716.05 -166.846 1720.61 -141.579C1727.05 -106.117 1733.18 -72.5756 1736.01 -37.8522C1748.11 112.271 1706.16 272.738 1620.68 402.323C1600.1 433.352 1579.04 462.756 1558.78 491.274C1519.81 545.797 1483.04 597.365 1453.19 653.809C1413.44 729.018 1367.87 808.513 1288.68 879.142C1266.06 899.237 1242.33 917.707 1217.51 934.699H1236.36V934.256Z" fill="white"/>
<path d="M1177.76 934.257C1220.02 909.581 1259.46 880.325 1295.6 846.488C1369.76 777.041 1408.57 701.241 1448.16 616.722C1476.76 555.698 1515.88 501.027 1557.36 443.105C1574.65 419.021 1592.4 394.049 1610.16 367.896C1653.84 302.586 1685.58 230.037 1704.27 152.315C1722.5 77.1058 1727.53 -0.911127 1718.73 -73.6087C1714.8 -105.82 1707.89 -136.406 1700.66 -168.766C1694.69 -195.51 1688.4 -223.141 1684 -251.806C1681.02 -270.72 1678.19 -289.78 1675.36 -308.398C1675.21 -309.432 1675.05 -310.319 1674.89 -311.353H1665.31C1665.46 -310.023 1665.78 -308.546 1665.93 -307.216C1668.76 -288.746 1671.59 -269.537 1674.58 -250.624C1679.13 -221.516 1685.26 -193.737 1691.39 -166.993C1698.62 -134.781 1705.53 -104.343 1709.3 -72.5743C1717.94 -1.05887 1713.07 76.0714 1695 150.247C1676.46 226.934 1645.19 298.597 1601.99 363.02C1584.39 389.173 1566.63 413.997 1549.35 438.082C1507.71 496.299 1468.28 551.265 1439.37 613.176C1400.09 696.956 1361.75 771.87 1288.84 840.282C1249.41 877.222 1206.04 908.695 1159.37 934.405H1177.76V934.257Z" fill="white"/>
<path d="M252.31 934.257C241.626 932.927 230.942 931.45 220.415 929.972C143.582 919.038 62.6644 905.739 -14.3252 882.541V891.85C52.1373 911.65 121.271 924.209 188.048 934.257H252.31Z" fill="white"/>
<path d="M1104.07 934.256C1119 928.05 1133.77 921.106 1148.38 913.57C1202.59 885.644 1251.92 849.738 1295.13 807.036C1368.66 734.486 1400.09 657.208 1433.55 575.497C1459.95 510.926 1500.49 454.63 1543.38 394.935C1558.78 373.658 1574.65 351.642 1590.36 328.444C1677.09 201.223 1714.64 37.9489 1690.76 -108.333C1685.89 -138.18 1678.35 -166.254 1670.18 -196.102C1662.64 -223.733 1654.94 -252.25 1649.6 -282.393C1647.87 -291.997 1646.14 -301.75 1644.57 -311.502H1634.98C1636.71 -301.306 1638.44 -291.111 1640.33 -280.916C1645.83 -250.477 1653.52 -221.664 1661.07 -193.885C1669.08 -164.334 1676.62 -136.259 1681.49 -107.003C1705.06 37.2101 1667.98 198.268 1582.51 323.715C1566.79 346.766 1550.92 368.782 1535.68 390.059C1492.47 450.049 1451.62 506.789 1424.76 572.394C1391.76 653.366 1360.49 729.758 1288.22 800.978C1245.64 842.941 1196.93 878.256 1143.66 905.739C1122.92 916.525 1101.56 925.982 1079.72 934.109H1104.07V934.256Z" fill="white"/>
<path d="M289.862 892.884C312.017 895.248 334.799 897.76 357.582 900.863C413.989 908.399 475.737 919.48 545.657 934.404H586.508C579.438 932.779 572.21 931.006 564.983 929.528C487.679 912.536 420.273 900.272 358.839 892.145C336.056 889.042 313.116 886.53 290.962 884.166C274.307 882.393 257.024 880.472 240.212 878.404C151.281 867.322 64.5499 854.466 -14.3252 830.086V839.395C68.0066 864.514 155.838 876.778 238.955 887.121C255.767 889.19 273.208 890.963 289.862 892.884Z" fill="white"/>
<path d="M259.066 834.519C272.735 835.996 286.876 837.326 300.389 838.508C324.743 840.725 349.882 843.089 374.865 846.34C435.828 854.319 501.19 867.026 574.566 885.496C594.835 890.52 614.789 896.282 633.958 901.749C664.911 910.615 694.136 918.889 725.089 925.095C744.101 928.937 762.955 931.892 781.967 934.256H958.886C963.6 933.665 968.313 933.074 973.027 932.336C1035.4 923.175 1095.27 903.818 1150.89 874.71C1204.31 846.783 1252.39 810.73 1294.03 767.436C1361.27 697.251 1387.2 622.928 1414.7 544.32L1418.15 534.42C1442.04 466.303 1483.83 408.677 1528.3 347.652C1541.96 328.887 1556.11 309.383 1570.25 288.992C1657.61 162.658 1692.02 1.30461 1662.16 -142.761C1656.35 -170.539 1648.02 -196.693 1639.22 -224.472C1630.27 -252.25 1621.15 -280.916 1614.87 -311.502H1606.86V-311.354C1613.3 -280.029 1622.57 -250.773 1631.68 -222.403C1640.48 -194.92 1648.81 -168.914 1654.46 -141.431C1668.6 -72.8705 1668.13 2.19115 1652.89 75.6275C1637.34 150.689 1606.38 223.091 1563.65 284.855C1549.51 305.245 1535.52 324.602 1521.85 343.367C1477.23 404.835 1434.96 462.904 1410.77 532.056L1407.31 541.956C1380.13 619.825 1354.36 693.557 1288.21 762.412C1247.2 805.115 1199.75 840.725 1147.12 868.208C1092.28 896.873 1033.36 915.934 971.927 924.948C891.795 936.621 809.463 934.256 726.817 917.707C696.179 911.649 667.111 903.375 636.315 894.509C616.989 889.042 597.035 883.279 576.609 878.256C502.919 859.786 437.399 846.931 375.964 838.952C350.825 835.701 325.528 833.337 301.175 830.973C287.662 829.643 273.521 828.461 259.851 826.983C180.819 818.561 82.4611 808.218 -4.42724 781.473C-7.7268 780.439 -11.1835 779.405 -14.483 778.223V786.054C-11.9691 786.793 -9.45514 787.679 -6.94119 788.418C80.8899 815.754 179.719 826.097 259.066 834.519Z" fill="white"/>
<path d="M1634.35 -177.336C1627.75 -203.489 1618.64 -228.017 1609.05 -253.875C1602.14 -272.493 1595.07 -291.554 1588.94 -311.353H1580.77C1587.06 -290.667 1594.44 -270.867 1601.51 -251.511C1611.1 -225.801 1620.05 -201.42 1626.65 -175.71C1643.62 -108.775 1645.19 -34.748 1631.21 38.3928C1616.91 113.011 1586.9 184.674 1544 245.699C1531.28 263.873 1518.39 281.309 1506.14 298.154C1458.37 363.168 1417.21 419.316 1396 491.423C1394.11 497.776 1392.22 504.278 1390.5 510.631C1368.97 585.545 1348.55 656.322 1287.58 723.405C1206.66 812.208 1096.21 869.686 976.481 885.201C897.134 895.396 815.903 890.816 734.985 871.312C706.389 864.367 679.207 855.501 650.61 846.193C630.656 839.691 609.916 832.894 588.704 826.836C518 806.741 454.051 793.295 393.402 785.611C366.377 782.213 339.352 780.144 313.113 778.076C302.114 777.189 290.802 776.302 279.803 775.416L270.219 774.529C185.059 767.289 97.0707 759.606 16.153 736.112C5.78295 733.009 -4.42996 729.758 -14.1715 726.36V734.191C75.2308 765.22 175.789 773.938 269.59 781.917L279.175 782.804C290.173 783.69 301.643 784.577 312.642 785.464C338.724 787.532 365.749 789.601 392.459 792.999C452.637 800.535 516.114 813.981 586.505 833.929C607.559 839.987 628.299 846.636 648.097 853.137C677.007 862.594 704.189 871.46 733.099 878.404C786.835 891.259 840.571 897.761 893.992 897.761C922.117 897.761 949.927 895.988 977.581 892.441C1099.19 876.779 1211.38 818.414 1293.55 728.133C1355.77 659.72 1376.2 588.205 1398.04 512.552C1399.92 506.199 1401.65 499.697 1403.54 493.343C1424.28 422.419 1465.13 366.714 1512.42 302.291C1524.84 285.446 1537.56 268.011 1550.45 249.836C1593.81 188.073 1624.45 115.375 1638.91 39.7227C1653.2 -34.4525 1651.48 -109.366 1634.35 -177.336Z" fill="white"/>
<path d="M1605.76 -211.765C1598.37 -236.588 1588 -260.673 1578.1 -283.871C1574.33 -292.885 1570.4 -302.046 1566.63 -311.207H1559.88C1563.96 -301.159 1568.2 -291.407 1572.29 -281.655C1582.66 -257.422 1592.4 -234.52 1599.79 -210.139C1619.43 -144.682 1623.2 -71.689 1610.63 1.15627C1597.74 75.4792 1568.2 146.699 1525.31 206.837C1513.53 223.386 1501.74 239.344 1490.27 254.563C1441.72 319.873 1399.77 376.169 1382.33 450.935C1380.29 459.801 1378.24 468.962 1376.2 477.68C1359.86 550.377 1344.31 618.938 1287.74 684.838C1209.81 775.415 1100.92 832.745 981.355 846.044C903.737 854.761 821.405 847.669 743.002 825.505C715.977 817.822 690.523 808.365 663.655 798.317C643.229 790.782 622.175 782.803 600.335 775.858C532.301 754.137 470.238 739.952 410.532 732.712C382.093 729.166 353.654 727.541 326.158 725.915C317.202 725.324 308.246 724.881 299.447 724.29C291.748 723.847 283.892 723.256 276.036 722.812C179.249 716.607 74.6057 709.957 -14.3252 674.347V680.849C74.9199 715.868 179.092 722.517 275.564 728.723C283.42 729.166 291.277 729.757 298.976 730.2C307.774 730.791 316.73 731.382 325.686 731.826C353.183 733.451 381.464 735.076 409.589 738.623C468.824 745.863 530.416 759.9 598.135 781.473C619.818 788.418 640.872 796.249 661.141 803.784C688.166 813.832 713.777 823.437 740.959 831.12C798.151 847.226 857.543 855.5 915.678 855.5C937.99 855.5 960.144 854.318 981.827 851.806C1102.97 838.212 1213.27 780.291 1292.3 688.532C1349.81 621.597 1365.52 552.298 1382.02 478.862C1384.06 470.144 1386.1 461.131 1388.14 452.117C1405.43 378.533 1446.91 322.68 1495.14 257.962C1506.61 242.595 1518.4 226.785 1530.18 210.088C1573.7 149.211 1603.56 77.2523 1616.44 2.04284C1629.48 -71.689 1625.71 -145.569 1605.76 -211.765Z" fill="white"/>
<path d="M1577.79 -246.487C1569.93 -268.799 1559.56 -290.519 1549.51 -311.353H1542.59C1553.59 -288.894 1563.81 -267.469 1571.82 -244.566C1594.29 -180.734 1600.1 -108.775 1588.94 -36.3733C1577.48 37.5063 1548.72 107.987 1505.51 167.534C1494.36 182.901 1483.36 197.53 1472.67 211.714C1423.5 276.876 1381.07 333.173 1367.4 410.303C1365.52 421.237 1363.63 432.467 1361.9 443.253C1350.43 514.03 1339.59 580.965 1286.96 645.831C1212.01 738.033 1105.01 795.068 985.755 806.15C908.765 813.39 827.533 803.934 751.015 778.962C725.404 770.54 701.364 760.492 676.068 749.854C655.485 741.136 634.273 732.27 612.119 724.291C547.385 701.241 485.322 686.022 427.815 679.225C398.276 675.679 368.738 674.496 340.141 673.462C333.071 673.167 326.158 672.871 319.244 672.576C307.931 672.132 296.619 671.689 285.149 671.246C184.12 667.256 74.2915 662.971 -14.3252 620.86V627.509C74.7628 668.734 184.277 673.019 284.835 677.008C296.304 677.452 307.774 677.895 318.93 678.338C325.843 678.634 332.914 678.929 339.827 679.225C368.266 680.407 397.648 681.441 426.873 684.987C484.065 691.784 545.5 706.708 609.762 729.611C631.759 737.442 652.814 746.307 673.397 755.025C697.751 765.368 723.047 775.859 748.972 784.429C809.464 804.081 872.784 814.277 934.69 814.277C952.131 814.277 969.257 813.538 986.383 811.912C1107.37 800.535 1215.94 742.761 1291.98 649.23C1345.56 583.181 1357.03 512.405 1368.19 443.992C1369.92 433.206 1371.8 422.124 1373.69 411.189C1387.2 335.389 1429.15 279.684 1477.86 215.113C1488.54 200.928 1499.54 186.3 1510.7 170.933C1554.38 110.795 1583.45 39.4272 1595.07 -35.339C1606.54 -108.775 1600.57 -181.768 1577.79 -246.487Z" fill="white"/>
<path d="M1549.98 -281.063C1545.89 -291.406 1541.02 -301.453 1536.15 -311.353H1529.24C1534.58 -300.715 1539.77 -290.076 1544.17 -278.994C1569.3 -216.935 1577.32 -145.863 1567.42 -73.7564C1557.36 -0.320074 1529.24 69.57 1486.03 128.23C1475.5 142.563 1464.98 156.305 1454.76 169.603C1405.11 234.469 1362.38 290.322 1352.79 369.521C1351.22 382.229 1349.96 395.084 1348.71 407.495C1342.11 473.839 1335.35 542.547 1286.33 606.527C1251.6 651.741 1208.87 688.681 1159.37 716.017C1107.52 744.682 1050.65 761.527 990.311 766.107C913.95 771.87 833.975 760.197 759.028 732.418C734.674 723.257 711.891 712.618 687.852 701.241C667.269 691.489 646.057 681.589 623.903 672.723C561.526 647.9 501.348 632.089 444.942 625.736C414.617 622.19 384.136 621.746 354.754 621.155C349.412 621.008 344.227 621.008 339.042 620.86C325.058 620.564 311.231 620.417 296.619 620.269C190.09 618.643 73.0345 617.166 -14.3252 565.007V572.099C73.9772 623.076 190.404 624.554 296.462 625.884C311.074 626.031 325.058 626.179 338.884 626.475C344.069 626.622 349.412 626.622 354.754 626.77C383.978 627.361 414.303 627.805 444.313 631.351C500.091 637.704 559.798 653.367 621.546 677.895C643.544 686.613 664.755 696.66 685.181 706.265C708.278 717.199 732.16 728.429 756.828 737.59C819.991 761.083 886.768 773.2 951.973 773.2C965.015 773.2 978.056 772.756 990.94 771.722C1052.22 767.141 1109.88 750.001 1162.67 720.893C1212.95 693.114 1256.32 655.731 1291.51 609.778C1341.48 544.468 1348.39 475.021 1354.99 407.791C1356.25 395.379 1357.5 382.524 1359.08 369.965C1368.5 292.391 1410.93 236.981 1459.95 172.854C1470.16 159.555 1480.53 145.814 1491.22 131.481C1534.9 72.0819 1563.49 1.30527 1573.7 -73.1654C1583.6 -146.011 1575.43 -217.969 1549.98 -281.063Z" fill="white"/>
<path d="M1523.26 -311.353H1518.08C1545.1 -251.363 1555 -182.064 1546.68 -111.139C1538.03 -37.9987 1510.54 31.3004 1467.17 89.3698C1456.96 102.964 1446.9 115.966 1437.16 128.526C1387.35 192.653 1344.3 248.063 1338.96 328.888C1338.02 342.925 1337.55 357.257 1337.08 371.147C1334.72 436.604 1332.36 504.13 1286.48 567.814C1253.33 613.767 1211.85 651.003 1162.83 678.338C1111.61 707.004 1055.2 723.257 995.178 726.803C919.289 731.236 840.413 717.199 767.038 686.317C743.627 676.417 721.001 664.596 699.161 653.071C678.892 642.433 657.838 631.351 635.684 621.599C575.663 595.15 517.371 578.748 462.379 572.838C437.239 570.031 412.1 569.587 387.589 569.587C381.775 569.587 375.962 569.587 370.305 569.587C366.534 569.587 362.763 569.587 358.993 569.587C343.123 569.587 327.097 569.883 310.128 570.178C196.214 571.951 70.2029 574.02 -14.1715 505.903V511.813C71.3027 578.305 196.843 576.384 310.285 574.611C327.254 574.316 343.28 574.02 359.15 574.02C362.921 574.02 366.692 574.02 370.462 574.02C400.316 573.872 431.269 573.725 462.064 577.123C516.586 583.034 574.406 599.287 633.956 625.588C655.953 635.192 676.85 646.274 697.118 656.913C719.116 668.438 741.741 680.407 765.466 690.307C830.672 717.642 900.12 731.975 968.153 731.975C977.424 731.975 986.694 731.679 995.807 731.236C1056.61 727.69 1113.81 711.289 1165.66 682.18C1215.15 654.401 1257.26 616.722 1290.72 570.326C1337.23 505.608 1339.75 437.343 1342.1 371.294C1342.57 357.405 1343.05 343.072 1343.99 329.183C1349.17 249.689 1389.87 197.382 1441.25 131.186C1450.99 118.626 1461.04 105.623 1471.26 92.0294C1515.09 33.369 1542.9 -36.5211 1551.55 -110.401C1559.72 -181.621 1549.98 -250.92 1523.26 -311.353Z" fill="white"/>
<path d="M1510.38 -311.353H1505.36C1523.9 -261.263 1530.65 -205.705 1524.84 -148.523C1517.61 -75.9728 1490.74 -7.26476 1447.38 50.0658C1437.64 62.7731 1428.05 74.8894 1418.78 86.5624C1366.3 152.906 1324.82 205.213 1324.04 287.958C1323.88 303.177 1324.35 318.692 1324.67 333.764C1326.39 398.334 1328.28 465.122 1285.54 528.51C1220.65 624.406 1116.32 682.18 999.423 686.76C924.005 689.716 846.387 673.462 774.896 639.625C752.428 628.986 730.902 616.427 710.005 604.163C690.051 592.49 669.311 580.374 647.314 569.735C589.493 541.661 532.929 524.521 479.351 519.054C462.381 517.281 445.255 516.69 428.443 516.69C413.988 516.69 399.69 517.133 385.549 517.576L378.478 517.724C361.038 518.167 343.44 519.054 324.743 519.94C200.931 525.703 62.3495 532.056 -14.483 436.899V444.14C64.2349 536.341 202.031 529.988 325.057 524.225C343.754 523.339 361.352 522.6 378.793 522.009L385.863 521.861C416.345 520.975 447.769 520.088 479.036 523.339C532.143 528.806 588.079 545.798 645.428 573.577C667.268 584.215 687.851 596.184 707.806 607.857C728.703 620.121 750.543 632.828 773.168 643.467C839.788 674.94 911.749 691.341 982.454 691.341C988.268 691.341 994.238 691.193 1000.05 691.045C1118.68 686.465 1224.26 627.952 1290.1 530.874C1333.62 466.451 1331.74 398.925 1329.85 333.616C1329.38 318.544 1329.06 303.03 1329.22 287.958C1330.01 206.543 1371.02 154.679 1423.02 89.0742C1432.29 77.4012 1441.88 65.285 1451.62 52.4299C1495.46 -5.49168 1522.48 -74.9385 1529.87 -148.375C1535.37 -205.41 1528.77 -261.115 1510.38 -311.353Z" fill="white"/>
<path d="M1496.4 -311.353H1491.53C1521.7 -205.262 1499.23 -81.5877 1428.05 10.7619C1418.47 23.0259 1409.2 34.6988 1400.08 46.0763C1347.45 111.386 1305.97 162.954 1309.74 247.324C1310.53 263.43 1311.94 280.127 1313.51 296.233C1319.32 360.212 1325.45 426.409 1285.54 489.502C1223.79 587.171 1121.35 644.501 1004.61 646.865C929.662 648.491 853.301 629.873 783.539 593.081C761.856 581.704 741.273 568.405 721.162 555.402C701.521 542.695 681.253 529.692 659.727 518.167C604.106 488.32 549.428 470.589 497.106 465.565C484.065 464.235 471.181 463.792 458.14 463.792C439.128 463.792 420.273 464.826 401.89 465.86L398.591 466.008C380.207 467.042 361.196 468.52 341.241 470.145C208.473 480.636 57.9508 492.457 -5.52638 363.315C-8.51169 357.257 -11.3399 351.199 -14.3252 344.993V355.927C-12.9111 359.03 -11.3399 362.133 -9.92579 365.089C18.9846 424.044 68.3208 459.359 140.754 473.248C203.76 485.365 273.836 479.75 341.555 474.43C361.51 472.805 380.365 471.327 398.905 470.293L402.204 470.145C433 468.52 464.896 466.747 496.635 469.85C548.171 474.874 602.22 492.457 657.37 522.009C678.739 533.534 699.007 546.537 718.49 559.096C738.602 572.099 759.342 585.397 781.182 596.923C848.902 632.533 923.063 651.298 995.967 651.298C998.796 651.298 1001.78 651.298 1004.61 651.15C1123.08 648.786 1226.94 590.569 1289.63 491.57C1330.32 427.147 1324.19 360.36 1318.22 295.642C1316.81 279.536 1315.24 262.987 1314.45 246.881C1310.84 164.136 1351.85 113.159 1403.86 48.4405C1412.97 37.2108 1422.4 25.39 1431.98 13.126C1503.47 -79.8145 1526.41 -204.376 1496.4 -311.353Z" fill="white"/>
<path d="M1477.39 -311.353H1474.25C1481.94 -279.29 1484.93 -245.6 1482.89 -211.468C1478.49 -140.691 1452.41 -71.2445 1409.35 -16.1303C1399.93 -4.16184 1390.66 7.21564 1381.7 18.1498C1329.22 82.2773 1287.74 133.106 1296.07 218.364C1297.8 235.356 1300.47 252.939 1303.14 269.932C1313.04 333.616 1323.09 399.369 1285.86 462.61C1257.89 509.893 1218.77 549.196 1172.73 576.089C1123.71 604.754 1068.87 619.382 1009.48 619.53H1008.85C934.533 619.53 859.429 598.696 791.552 559.096C770.655 546.832 750.7 532.795 731.532 519.201C712.363 505.608 692.723 491.57 671.511 479.159C618.09 447.686 565.454 429.364 514.704 424.635C504.491 423.601 494.278 423.306 484.065 423.306C462.068 423.306 440.228 425.079 419.016 426.852C399.848 428.477 380.05 430.694 359.153 433.058C293.633 440.446 226.071 448.129 165.736 437.934C97.0741 426.409 51.1946 392.867 25.4266 335.389C21.4986 326.523 17.5705 317.362 13.7996 308.497C4.84365 288.845 -3.64092 268.749 -14.3252 249.541V256.042C-5.05501 273.478 2.64395 291.652 10.1858 309.531C13.9567 318.397 17.7276 327.558 21.8128 336.423C48.0521 394.788 94.7173 428.92 164.479 440.741C225.285 450.937 293.162 443.253 358.839 435.865C379.736 433.501 399.533 431.285 418.702 429.659C449.812 427.147 481.865 424.34 513.918 427.443C564.197 432.171 616.361 450.346 669.311 481.523C690.366 493.935 710.006 507.824 729.175 521.418C748.501 535.159 768.455 549.196 789.51 561.46C857.857 601.355 933.59 622.337 1008.54 622.337H1009.17C1069.19 622.19 1124.65 607.561 1174.14 578.453C1220.81 551.117 1260.25 511.518 1288.37 463.792C1326.24 399.664 1316.02 333.32 1306.13 269.193C1303.45 252.2 1300.78 234.765 1299.06 217.773C1290.73 133.55 1331.89 83.3116 1384.06 19.6274C1393.01 8.69323 1402.28 -2.68425 1411.71 -14.6527C1455.23 -70.2102 1481.47 -140.248 1485.87 -211.468C1487.92 -245.453 1484.93 -279.29 1477.39 -311.353Z" fill="white"/>
<path d="M1456.65 -311.353H1453.51C1474.56 -217.526 1452.72 -112.765 1389.56 -33.2704C1380.13 -21.5974 1371.02 -10.5155 1362.06 0.123203C1309.43 63.2164 1267.95 113.159 1281.14 199.746C1283.81 217.477 1287.9 235.799 1291.67 253.53C1305.34 316.771 1319.64 382.229 1284.91 445.617C1258.52 493.491 1220.65 533.091 1175.24 560.131C1127.01 588.796 1072.64 602.833 1013.57 601.799C920.235 600.321 845.445 564.416 799.094 534.716C778.825 521.713 759.656 506.79 741.116 492.309C722.576 477.829 703.407 462.905 682.824 449.607C631.602 416.509 580.695 397.596 531.516 393.163C523.345 392.424 515.175 392.129 507.005 392.129C482.494 392.129 458.454 394.788 438.185 397.152C418.702 399.369 398.276 402.472 376.594 405.575C315.945 414.588 247.125 424.931 188.833 416.509C122.371 406.904 78.6909 374.545 55.594 317.362C52.1373 308.644 48.6806 299.779 45.3811 291.061C33.5969 260.032 21.4986 227.82 0.130002 200.189C-4.26941 194.574 -9.14018 189.107 -14.3252 183.788V188.221C-10.0829 192.654 -6.15487 197.234 -2.38394 201.962C18.8275 229.298 30.7687 261.214 42.5529 292.095C45.8524 300.813 49.152 309.679 52.7658 318.397C76.334 376.614 120.799 409.712 188.519 419.464C247.44 427.886 316.416 417.691 377.379 408.53C399.062 405.279 419.331 402.324 438.814 400.107C465.682 397.005 499.149 393.311 531.359 396.118C580.066 400.403 630.502 419.168 681.253 451.971C701.678 465.269 720.847 480.045 739.388 494.526C757.928 509.006 777.097 523.93 797.523 537.08C864.457 580.078 939.246 603.572 1013.72 604.754C1015.92 604.754 1018.12 604.754 1020.32 604.754C1077.51 604.754 1130.15 590.569 1177.13 562.643C1223.01 535.307 1261.35 495.264 1287.9 446.947C1323.25 382.672 1308.8 316.771 1294.97 252.939C1291.2 235.208 1287.11 216.886 1284.44 199.303C1271.4 114.046 1312.57 64.5463 1364.73 2.0441C1373.69 -8.59457 1382.8 -19.6765 1392.23 -31.4973C1455.55 -111.435 1477.7 -216.935 1456.65 -311.353Z" fill="white"/>
<path d="M1435.59 -311.353H1434.02C1438.74 -288.894 1440.78 -265.548 1440.31 -241.906C1438.89 -171.869 1414.07 -103.752 1370.7 -49.9672C1361.43 -38.442 1352.16 -27.6555 1343.36 -17.1646C1290.88 44.7465 1249.4 93.6548 1267.47 180.98C1271.24 199.303 1276.27 217.477 1281.77 236.686C1299.37 299.779 1317.75 365.088 1285.23 428.92C1233.38 530.727 1133.45 588.944 1018.28 584.659C925.577 581.408 852.044 542.695 806.793 510.779C787.153 496.89 768.769 481.227 751.015 466.008C732.946 450.641 714.405 434.831 694.294 420.646C645.429 385.923 596.407 366.418 548.799 362.429C542.2 361.838 535.758 361.69 529.159 361.69C505.748 361.69 482.179 364.793 458.297 368.191C438.657 370.999 417.917 374.988 395.92 379.126C336.842 390.208 269.751 402.767 213.03 396.118C148.296 388.582 106.659 357.11 85.9185 299.779C82.776 291.209 79.9478 282.343 76.9625 273.921C66.7496 243.039 56.0653 211.271 35.4824 184.231C22.5984 167.534 6.10063 152.906 -14.3252 140.199V141.972C5.47214 154.532 21.6557 168.864 34.0683 185.118C54.4941 211.862 65.1784 243.63 75.3913 274.364C78.2195 282.934 81.2048 291.8 84.3472 300.37C105.402 358.292 147.353 390.06 212.873 397.743C269.751 404.392 336.999 391.833 396.234 380.751C418.231 376.614 438.971 372.772 458.611 369.965C489.093 365.532 518.946 361.69 548.799 364.202C596.093 368.044 644.8 387.548 693.508 422.124C713.463 436.308 732.003 452.119 750.072 467.338C767.984 482.557 786.367 498.22 806.007 512.109C851.415 544.173 925.106 583.033 1018.28 586.284C1022.36 586.432 1026.29 586.58 1030.38 586.58C1141.15 586.58 1236.36 528.658 1286.64 429.807C1319.32 365.532 1300.94 300.074 1283.34 236.538C1278 217.329 1272.82 199.155 1269.04 180.833C1260.87 140.938 1264.33 106.805 1280.2 73.4118C1294.66 42.8256 1317.91 15.4901 1344.62 -16.1303C1353.42 -26.6212 1362.69 -37.4076 1371.96 -48.9329C1415.64 -103.013 1440.46 -171.425 1442.04 -241.759C1442.35 -265.548 1440.15 -288.894 1435.59 -311.353Z" fill="white"/>
<path d="M1415.01 -311.353H1413.28C1416.89 -292.736 1418.78 -273.675 1418.78 -254.318C1418.78 -184.724 1394.74 -117.198 1351.06 -64.1521C1341.79 -52.7746 1332.52 -42.2837 1323.72 -31.9405C1269.2 31.3004 1229.92 76.958 1252.7 165.318C1257.57 184.083 1264.01 202.997 1270.77 222.796C1292.3 285.742 1314.61 350.904 1284.44 414.883C1261.34 464.087 1225.68 504.426 1181.68 531.465C1135.49 559.835 1080.5 573.134 1022.67 569.735C950.556 565.746 876.709 537.08 814.646 489.206C795.477 474.283 777.565 457.734 760.281 441.628C742.998 425.522 725.086 408.973 705.917 394.049C659.252 357.701 612.116 337.458 565.922 333.911C560.58 333.468 555.395 333.32 550.053 333.32C525.385 333.32 501.031 337.31 477.934 341.447C458.451 344.993 437.553 349.722 415.399 354.745C357.736 367.896 292.373 382.672 237.38 377.944C174.375 372.476 134.937 342.038 116.711 284.707C114.04 276.285 111.526 267.42 109.012 258.997C100.213 228.411 91.1001 196.791 71.3027 170.637C52.4481 145.666 23.6948 125.719 -14.1715 111.09V112.716C23.2235 127.196 51.5054 146.996 70.0457 171.524C89.686 197.53 98.799 229.002 107.598 259.441C110.112 267.863 112.626 276.728 115.297 285.151C133.837 342.925 173.746 373.806 237.38 379.421C292.687 384.297 358.207 369.374 416.028 356.223C438.182 351.199 459.079 346.471 478.562 342.925C506.53 337.901 536.383 333.172 566.079 335.389C611.959 338.787 658.781 358.883 705.289 395.084C724.458 410.007 742.37 426.556 759.496 442.662C776.779 458.768 794.691 475.317 813.86 490.241C876.08 538.41 950.242 567.075 1022.67 571.213C1028.49 571.508 1034.3 571.656 1039.96 571.656C1091.81 571.656 1140.83 558.358 1182.62 532.647C1226.93 505.46 1262.76 464.826 1286.01 415.327C1316.34 350.756 1294.02 285.446 1272.34 222.205C1265.59 202.258 1259.14 183.492 1254.27 164.727C1231.65 77.1057 1270.77 31.7437 1324.98 -31.2018C1333.78 -41.3971 1343.05 -52.0358 1352.32 -63.4133C1410.61 -134.19 1431.51 -226.539 1415.01 -311.353Z" fill="white"/>
<path d="M1398.83 -268.06C1398.51 -282.688 1397.1 -297.168 1394.59 -311.353H1393.01C1395.53 -297.168 1396.94 -282.688 1397.26 -268.06C1398.67 -199.056 1375.26 -132.121 1331.58 -79.6668C1322.31 -68.5848 1313.04 -58.0939 1304.24 -48.0463C1249.72 14.0126 1210.44 58.9314 1238.09 148.178C1244.06 167.534 1251.92 186.891 1260.25 207.282C1285.7 270.079 1311.94 335.093 1284.13 399.369C1262.6 449.164 1228.19 489.797 1184.83 516.985C1139.42 545.355 1085.06 557.914 1027.39 553.629C955.43 548.162 882.84 517.133 822.819 466.304C804.122 450.346 786.681 432.762 769.869 415.77C753.372 399.073 736.245 381.785 718.019 366.123C673.397 328.149 628.146 307.167 583.366 304.212C579.124 303.916 575.038 303.769 570.796 303.769C545.185 303.769 520.046 308.792 497.892 313.521C478.723 317.658 457.826 323.273 435.829 329.183C354.754 351.051 262.838 375.727 202.66 343.368C175.478 328.74 157.566 304.359 147.667 268.454C145.31 260.032 143.268 251.166 141.068 242.744C133.683 212.453 126.142 181.276 107.13 155.714C83.2474 123.65 42.3957 101.338 -14.3252 89.6653V91.1429C41.7673 102.816 82.1475 124.832 105.873 156.453C124.728 181.867 132.269 212.897 139.654 243.039C141.697 251.462 143.896 260.327 146.253 268.75C156.152 304.507 174.849 330.07 202.031 344.55C262.68 377.205 355.068 352.381 436.457 330.513C458.454 324.603 479.351 318.988 498.52 314.85C524.131 309.236 553.984 303.473 583.523 305.542C627.988 308.644 672.925 329.331 717.234 367.157C735.46 382.82 752.586 399.96 769.084 416.657C785.896 433.797 803.336 451.38 822.191 467.338C882.369 518.315 955.273 549.492 1027.55 554.959C1035.09 555.55 1042.48 555.846 1049.86 555.846C1099.51 555.846 1146.18 542.991 1186.08 518.167C1229.76 490.979 1264.17 450.05 1285.86 399.96C1313.82 335.093 1287.59 269.932 1262.13 206.691C1253.8 186.3 1246.11 166.943 1240.13 147.735C1212.64 59.2269 1251.76 14.6036 1305.97 -47.1598C1314.77 -57.2074 1323.88 -67.6983 1333.31 -78.7802C1376.67 -131.383 1400.24 -198.613 1398.83 -268.06Z" fill="white"/>
<path d="M1919.84 416.508C1904.76 462.313 1887.32 507.528 1867.36 552.003C1804.52 691.931 1719.51 820.186 1613.93 934.404H1622.25C1726.58 820.63 1810.64 693.113 1873.18 554.22C1890.62 515.359 1906.17 475.907 1920 436.16V416.508H1919.84Z" fill="white"/>
<path d="M1919.84 527.918C1914.5 540.773 1909 553.481 1903.34 566.188C1843.17 699.91 1763.35 823.289 1665.15 934.256H1671.27C1768.53 823.584 1847.88 700.797 1907.59 567.813C1911.83 558.504 1915.76 549.196 1919.68 539.887V527.918H1919.84Z" fill="white"/>
<path d="M1919.84 622.631C1865.32 734.337 1797.13 838.655 1715.9 934.403H1721.87C1800.12 841.61 1866.42 740.986 1919.84 633.27V622.631Z" fill="white"/>
<path d="M1919.84 710.401C1876.16 789.156 1825.41 863.922 1768.06 934.404H1771.99C1827.61 865.843 1877.11 793.146 1919.84 716.754V710.401Z" fill="white"/>
<path d="M1919.84 710.401C1876.16 789.156 1825.41 863.922 1768.06 934.404H1771.99C1827.61 865.843 1877.11 793.146 1919.84 716.754V710.401Z" fill="white"/>
<path d="M1919.84 790.489C1900.83 821.222 1880.72 851.513 1859.51 881.065C1846.62 899.092 1833.27 916.823 1819.44 934.406H1823.37C1836.72 917.414 1849.61 900.126 1862.18 882.69C1882.45 854.468 1901.61 825.803 1919.84 796.399V790.489Z" fill="white"/>
<path d="M1919.84 867.026C1911.51 879.142 1903.19 891.258 1894.55 903.227C1887 913.718 1879.46 924.061 1871.61 934.256H1875.38C1882.76 924.504 1889.99 914.752 1897.06 904.852C1904.76 894.213 1912.3 883.279 1919.68 872.493V867.026H1919.84Z" fill="white"/>
</g>
</g>
<defs>
<clipPath id="clip0_69_207">
<rect width="1920" height="911" fill="white" transform="translate(0 0.000244141)"/>
</clipPath>
<clipPath id="clip1_69_207">
<rect width="1957" height="1026" fill="white" transform="translate(-37 0.000244141)"/>
</clipPath>
</defs>
</svg>
