<svg width="1577" height="994" viewBox="0 0 1577 994" fill="none" xmlns="http://www.w3.org/2000/svg">
<g clip-path="url(#clip0)">
<rect width="1577" height="994" fill="white"/>
<rect width="1577" height="993.68" fill="black"/>
<g clip-path="url(#clip1)">
<path d="M1348 2028.64C1898.08 2028.64 2344 1582.99 2344 1033.24C2344 483.495 1898.08 37.8379 1348 37.8379C797.924 37.8379 352 483.495 352 1033.24C352 1582.99 797.924 2028.64 1348 2028.64Z" fill="url(#paint0_radial)"/>
<path d="M1352.78 424.977C1691.11 424.977 1965.22 699.091 1965.22 1037.42C1965.22 1375.75 1691.11 1649.87 1352.78 1649.87C1014.45 1649.87 740.333 1375.75 740.333 1037.42C740.333 699.091 1014.45 424.977 1352.78 424.977ZM1352.78 419.031C1011.47 419.031 734.387 696.712 734.387 1037.42C734.387 1378.73 1012.07 1655.82 1352.78 1655.82C1694.08 1655.82 1971.17 1378.13 1971.17 1037.42C1971.77 696.712 1694.08 419.031 1352.78 419.031Z" fill="#C9C9C9"/>
<path d="M1084.84 492.72C1085.43 492.72 1085.43 492.72 1084.84 492.72C1085.43 492.72 1086.03 493.315 1083.05 495.693C1079.48 498.072 1077.7 498.667 1077.1 498.667C1076.51 498.667 1076.51 498.667 1076.51 498.667C1076.51 498.667 1076.51 498.667 1077.1 498.072L1080.67 495.099C1081.27 495.099 1083.05 493.909 1084.24 493.315C1084.84 492.72 1084.84 492.72 1084.84 492.72ZM1084.84 489.746C1084.24 489.746 1083.65 489.746 1083.05 490.341C1081.27 490.936 1079.48 492.125 1078.89 492.72C1078.89 492.72 1076.51 494.504 1074.72 496.288C1074.13 496.288 1073.53 497.478 1073.53 498.667V499.856L1074.72 501.046C1075.32 501.641 1075.91 501.641 1077.1 501.641C1078.89 501.641 1081.86 500.451 1084.84 498.072C1086.03 496.883 1089 495.099 1088.41 492.72C1088.41 491.53 1087.22 490.341 1085.43 490.341L1084.84 489.746Z" fill="#D1D1D1"/>
<path d="M1077.1 489.747C1077.1 489.747 1075.31 490.936 1074.72 491.531C1074.12 492.125 1073.53 492.125 1072.93 492.125C1072.93 492.125 1072.93 491.531 1073.53 491.531C1074.12 490.936 1075.91 490.341 1077.1 489.747ZM1077.1 486.773H1076.5L1075.91 487.368C1075.31 487.368 1072.93 488.557 1072.34 489.152C1071.74 489.152 1070.55 490.341 1070.55 492.125V493.909L1071.74 495.099L1072.34 495.694H1073.53C1074.72 495.694 1075.91 495.099 1076.5 494.504C1077.69 493.909 1079.48 492.72 1080.07 491.531L1080.67 489.152L1078.88 487.962L1078.29 487.368L1077.1 486.773Z" fill="#D1D1D1"/>
<path d="M1100.9 479.042C1100.9 479.637 1098.52 480.826 1098.52 480.826C1096.14 482.015 1094.95 482.61 1094.95 482.61C1093.76 483.205 1093.76 483.205 1091.98 483.799C1090.79 484.394 1089.6 484.989 1087.81 485.584L1083.05 487.368C1091.38 482.015 1100.31 479.042 1100.9 479.042ZM1100.9 476.068C1100.31 476.068 1099.71 476.068 1099.71 476.068C1099.71 476.068 1090.79 479.637 1081.86 483.799L1084.24 489.152L1089 487.368C1089.6 487.368 1090.19 486.773 1090.79 486.773C1091.38 486.178 1091.98 486.178 1092.57 486.178C1094.36 485.584 1094.36 485.584 1096.14 484.989C1096.14 484.989 1097.93 484.394 1099.71 483.205H1100.31C1102.09 482.015 1102.69 482.015 1103.28 481.421L1108.04 477.852L1102.69 476.068H1102.09H1100.9Z" fill="#D1D1D1"/>
<path d="M1089.59 484.989C1088.4 485.583 1086.62 486.178 1085.43 486.773C1081.86 487.962 1081.86 487.962 1081.86 488.557V489.152C1081.26 489.746 1071.15 494.504 1069.96 494.504C1071.15 493.314 1078.88 488.557 1088.4 484.989C1089.59 484.989 1089.59 484.989 1089.59 484.989ZM1099.11 480.826L1089 482.015C1088.4 482.015 1088.4 482.015 1087.81 482.015C1077.69 484.989 1069.96 490.341 1068.17 492.125L1063.41 496.288L1069.36 497.477H1069.96C1072.34 497.477 1083.05 492.125 1083.64 491.53L1084.83 490.341C1085.43 490.341 1085.43 489.746 1086.62 489.746C1087.81 489.152 1089.59 488.557 1090.19 487.962C1090.78 487.962 1090.78 487.367 1091.38 487.367L1099.11 480.826Z" fill="#D1D1D1"/>
<path d="M1095.54 484.394C1096.14 484.394 1096.14 484.394 1095.54 484.394C1096.14 484.394 1096.14 484.394 1095.54 484.394C1094.95 485.583 1094.35 485.584 1093.76 486.178C1093.16 486.773 1093.16 486.773 1092.57 487.368C1092.57 487.368 1091.97 487.368 1091.97 487.962C1091.97 487.962 1089.59 489.746 1089 489.746C1089.59 488.557 1089.59 488.557 1089.59 488.557C1090.19 487.368 1093.76 484.989 1095.54 484.394ZM1095.54 481.421H1094.35C1091.97 482.015 1087.81 484.989 1087.21 486.178L1086.62 486.773V487.368L1082.45 492.72L1089 492.125C1090.19 492.125 1091.97 490.936 1093.16 490.341C1093.76 490.341 1093.76 489.746 1094.35 489.746L1094.95 489.152L1095.54 488.557C1096.14 488.557 1096.14 487.962 1096.73 487.962C1097.33 487.368 1097.92 486.773 1097.92 486.178L1098.52 484.394L1097.33 483.205L1096.73 482.61L1095.54 481.421Z" fill="#D1D1D1"/>
<path d="M1067.58 505.803C1068.18 505.803 1067.58 506.398 1066.99 506.993C1065.2 508.182 1061.04 509.966 1060.44 509.966C1060.44 509.966 1063.42 507.587 1065.8 506.398C1065.8 506.398 1066.39 505.803 1067.58 505.803ZM1067.58 502.83C1066.99 502.83 1066.39 502.83 1066.39 502.83C1065.2 503.425 1064.01 503.424 1064.01 503.424C1062.23 504.019 1058.66 506.993 1057.47 507.588L1056.87 508.182V509.372V509.966L1057.47 510.561L1058.06 512.345H1060.44C1061.63 512.345 1066.99 509.966 1068.77 508.777C1069.37 508.182 1071.75 506.993 1071.15 504.614L1070.56 502.83H1067.58Z" fill="#D1D1D1"/>
<path d="M1071.15 515.319C1071.75 515.319 1071.75 515.319 1071.75 515.319L1067.58 518.887C1064.01 521.266 1060.44 522.455 1057.47 524.834C1059.25 524.24 1060.44 523.645 1062.23 523.645C1064.01 523.645 1061.63 528.402 1060.44 529.592C1056.87 533.16 1044.97 540.297 1041.4 540.297C1040.81 540.297 1040.81 540.297 1040.81 540.297V539.702C1040.81 538.512 1041.4 537.918 1041.4 536.728C1041.4 536.134 1041.4 535.539 1040.81 535.539C1040.81 534.349 1039.62 533.16 1039.62 531.971V531.376C1040.21 530.187 1045.57 527.213 1046.76 527.213C1046.76 528.402 1044.97 528.997 1044.97 530.781C1044.97 530.781 1045.57 530.781 1045.57 530.187C1047.35 529.592 1052.71 525.429 1053.3 524.834C1053.3 524.24 1053.9 524.239 1052.71 523.05C1052.11 523.05 1052.11 523.05 1051.52 523.05H1050.92H1050.33C1051.52 521.266 1059.85 517.698 1062.23 517.103C1064.61 516.508 1066.39 516.508 1068.77 515.914H1069.37C1071.15 515.319 1071.15 515.319 1071.15 515.319ZM1071.15 512.345C1070.56 512.345 1070.56 512.345 1069.96 512.345H1069.37L1066.99 512.94L1062.82 513.535C1060.44 514.13 1050.92 518.292 1048.54 520.671L1047.95 521.861V523.05H1046.16C1044.97 523.05 1038.43 526.618 1037.24 528.997C1036.64 530.187 1036.64 530.781 1037.24 531.971C1037.24 532.565 1037.83 533.16 1037.83 533.755C1037.83 534.349 1038.43 534.944 1038.43 534.944C1038.43 535.539 1038.43 535.539 1039.02 536.134C1039.02 536.728 1038.43 537.918 1039.02 539.107C1039.02 540.296 1039.62 540.891 1040.21 541.486C1040.81 542.081 1041.4 542.675 1043.19 542.675C1047.95 542.675 1060.44 534.349 1064.01 530.781C1064.61 530.187 1067.58 526.024 1066.99 523.05C1068.18 522.455 1069.37 521.861 1070.56 520.671C1075.91 516.508 1075.91 515.914 1075.91 514.724V512.94L1074.13 511.751C1073.53 512.94 1072.94 512.345 1071.15 512.345Z" fill="#D1D1D1"/>
<path d="M1064.61 495.694C1064.01 496.288 1063.42 496.883 1062.82 496.883L1042 508.777C1042 508.182 1042 508.182 1048.54 504.614C1042.59 507.588 1037.24 511.751 1031.29 514.724C1031.29 514.724 1031.29 514.724 1031.88 514.129C1029.5 515.319 1027.12 517.698 1024.15 518.292C1030.1 512.94 1059.85 497.478 1064.01 495.694C1064.61 496.288 1064.61 495.694 1064.61 495.694ZM1064.61 492.72C1064.01 492.72 1063.42 492.72 1062.82 493.315C1058.06 495.693 1028.91 511.156 1022.36 516.508L1014.63 523.05L1017.6 522.455L1012.25 526.618L1023.55 521.266H1024.74C1025.93 521.266 1027.12 520.671 1028.31 520.076L1044.38 511.156L1065.2 499.262C1065.8 499.262 1066.99 498.667 1067.58 496.883L1070.56 493.315L1066.39 492.125L1064.61 492.72Z" fill="#D1D1D1"/>
<path d="M1031.88 558.732C1031.88 558.732 1034.26 559.922 1035.45 561.706C1035.45 561.706 1037.83 565.869 1036.64 567.058C1036.64 567.058 1033.07 570.626 1024.74 571.816C1023.55 571.816 1022.96 572.411 1022.36 572.411C1022.36 572.411 1022.36 572.411 1021.77 572.411C1021.17 572.411 1021.17 571.221 1020.58 570.626C1020.58 570.626 1020.58 570.626 1019.98 570.626C1019.39 570.626 1019.39 570.627 1018.2 571.221C1017.01 571.221 1017.01 571.221 1016.41 571.221C1016.41 570.627 1018.2 569.437 1022.96 566.464C1025.93 564.679 1027.72 561.706 1030.69 559.922C1030.69 558.732 1031.29 558.732 1031.88 558.732C1031.88 558.732 1031.29 558.732 1031.88 558.732ZM1031.88 555.759H1030.69C1029.5 556.353 1028.91 556.353 1028.31 556.948C1027.12 558.138 1025.93 558.732 1024.74 559.922C1023.55 561.111 1022.36 562.301 1020.58 563.49C1014.63 567.058 1013.44 567.653 1012.85 569.437L1012.25 571.816L1014.03 573.005L1014.63 573.6H1015.22H1015.82C1016.41 573.6 1017.01 573.6 1018.2 573.005C1018.79 573.6 1019.39 574.195 1019.98 574.789C1020.58 574.789 1021.17 574.789 1021.17 574.789C1022.36 574.789 1024.15 574.789 1024.15 574.195C1031.88 573.005 1036.64 569.437 1037.83 568.248C1039.02 566.464 1039.02 564.085 1036.64 559.922V559.327C1036.05 557.543 1033.07 555.759 1031.88 555.759Z" fill="#D1D1D1"/>
<path d="M1043.19 523.05C1044.38 523.05 1043.78 524.239 1041.4 526.023C1040.81 526.618 1036.64 530.186 1034.86 530.781C1034.26 530.781 1034.86 529.592 1034.86 528.997C1035.45 527.807 1035.45 527.808 1035.45 527.808C1035.45 527.808 1035.45 527.808 1034.86 527.808C1034.26 527.808 1034.26 527.808 1033.67 527.808C1033.67 527.213 1037.24 524.834 1041.4 523.645C1042.59 523.05 1043.19 523.05 1043.19 523.05ZM1043.19 520.076C1042.59 520.076 1042 520.076 1041.4 520.671C1036.64 521.861 1032.48 524.834 1031.29 526.618L1030.69 528.402L1031.88 529.592C1031.88 530.186 1031.88 531.376 1032.48 531.97L1033.07 533.16H1034.86C1035.45 533.16 1035.45 533.16 1036.05 533.16C1037.83 532.565 1041.4 530.186 1043.78 527.808C1045.57 526.023 1047.35 524.239 1046.76 521.861C1046.16 521.266 1045.57 520.076 1043.19 520.076Z" fill="#D1D1D1"/>
<path d="M1334.73 424.923C1340.08 424.923 1345.44 424.923 1348.41 424.923C1352.58 424.923 1356.15 427.302 1360.31 427.302C1360.91 427.302 1361.5 427.302 1362.1 427.302C1363.29 427.302 1369.24 426.113 1374.59 426.113C1375.19 426.113 1375.78 426.113 1376.38 426.113C1376.38 426.113 1384.71 426.708 1387.68 427.302C1387.68 427.302 1387.09 427.302 1386.49 427.302C1386.49 427.897 1385.9 428.492 1385.9 429.086C1386.49 429.681 1387.68 429.681 1388.28 430.276C1391.25 442.17 1404.94 437.412 1411.48 443.954C1410.88 443.954 1410.88 444.549 1410.29 444.549C1410.29 444.549 1410.29 445.143 1409.69 445.738C1411.48 448.712 1412.07 449.306 1434.09 462.39C1441.23 466.553 1443.01 467.742 1440.04 471.311C1437.66 473.689 1436.47 474.879 1438.85 479.042C1440.63 482.61 1440.63 486.773 1443.01 490.341C1447.18 495.693 1453.13 498.667 1457.29 504.019C1460.27 507.588 1457.89 509.372 1457.89 509.372C1453.72 512.345 1448.37 514.129 1443.61 516.508C1431.71 522.455 1418.02 523.645 1406.72 529.592C1401.96 531.971 1401.37 534.944 1400.77 540.296C1400.18 545.649 1400.18 545.649 1372.81 553.38C1364.48 555.759 1363.88 555.759 1362.69 558.138C1360.31 562.895 1362.69 567.653 1361.5 571.816C1361.5 572.41 1355.55 603.335 1351.39 607.498C1350.2 608.688 1349.6 609.282 1346.63 609.282C1342.46 609.282 1333.54 608.093 1313.9 603.93C1306.17 492.125 1301.41 454.659 1294.86 435.628C1302 457.632 1306.76 503.425 1313.9 603.93C1300.22 599.172 1271.66 551.001 1271.06 548.622C1269.28 543.865 1271.66 535.539 1273.44 532.565C1277.01 527.213 1284.15 527.213 1288.32 522.455C1288.32 522.455 1293.08 514.724 1282.96 509.966C1281.77 509.372 1280.58 509.372 1279.99 509.372C1275.82 509.372 1272.85 512.94 1268.68 513.535C1266.9 510.561 1268.09 507.588 1266.9 504.614C1266.3 502.83 1263.33 502.83 1263.33 500.451C1263.33 499.856 1263.33 499.856 1265.71 495.694C1271.06 485.584 1254.4 466.553 1253.81 466.553C1252.62 465.363 1251.43 464.769 1246.07 464.769C1240.72 464.769 1231.8 465.363 1213.95 466.553C1213.35 466.553 1199.07 464.174 1205.02 455.848C1206.21 454.659 1227.04 448.712 1227.63 448.117C1231.8 446.928 1239.53 445.144 1242.5 440.981C1241.91 440.981 1241.91 440.981 1241.31 440.981C1238.34 440.981 1238.34 440.981 1237.15 440.386C1237.15 440.386 1256.78 431.465 1284.15 428.492C1287.13 428.492 1288.32 427.897 1290.1 427.897C1290.7 427.897 1291.29 427.897 1292.48 427.897C1297.24 427.897 1299.03 427.897 1299.62 427.897C1300.22 427.897 1300.22 427.897 1300.81 427.897C1299.03 427.302 1299.03 427.302 1291.89 426.708C1291.89 426.708 1291.89 426.708 1291.29 426.708C1296.65 425.518 1296.65 425.518 1308.55 424.923C1309.74 424.329 1309.74 424.329 1320.45 423.734C1324.61 424.923 1329.97 424.923 1334.73 424.923ZM1334.73 421.95C1328.78 421.95 1324.02 421.95 1321.64 421.95C1311.52 422.545 1310.33 422.545 1309.14 423.139C1298.43 423.734 1297.84 423.734 1292.48 424.923C1291.29 424.923 1290.7 425.518 1290.1 426.113C1288.91 426.113 1287.13 426.113 1285.34 426.708C1257.97 429.681 1238.34 438.602 1237.15 438.602L1231.8 440.981L1235.96 443.359C1232.99 444.549 1230.01 445.738 1227.63 445.738C1227.63 445.738 1205.62 451.685 1203.83 454.064C1201.45 457.632 1201.45 460.606 1202.64 462.39C1205.62 467.742 1215.14 468.932 1215.14 468.932C1231.2 467.742 1241.91 467.148 1247.26 467.148C1251.43 467.148 1252.02 467.742 1253.21 468.337C1257.38 472.5 1268.09 487.368 1264.52 493.909C1262.14 498.072 1261.54 499.262 1262.14 501.046C1262.73 503.425 1264.52 504.614 1265.11 505.209L1265.71 505.803C1265.71 506.398 1266.3 507.588 1266.3 508.777C1266.3 510.561 1266.3 512.94 1267.49 514.724L1268.68 516.508L1271.06 515.913C1272.85 515.319 1274.63 514.724 1276.42 513.535C1278.2 512.345 1279.99 511.751 1281.77 511.751C1282.37 511.751 1282.96 511.75 1283.56 512.345C1285.94 513.535 1287.13 514.724 1287.72 516.508C1288.32 518.292 1287.72 520.076 1287.13 520.671C1285.34 522.455 1283.56 523.05 1281.18 524.239C1278.2 525.429 1274.63 527.213 1272.25 530.781C1269.87 534.349 1267.49 543.27 1269.28 549.217C1269.87 551.001 1296.65 597.388 1312.12 605.714V606.309L1313.9 606.903L1318.07 608.093V607.498C1335.32 610.472 1343.06 611.661 1347.22 611.661C1351.39 611.661 1352.58 610.472 1354.36 608.688C1358.53 603.93 1365.07 571.816 1365.07 571.221C1365.67 568.842 1365.07 567.058 1365.07 564.679C1365.07 562.301 1364.48 559.922 1365.67 558.138C1366.26 556.948 1366.26 556.948 1374 554.569C1402.56 546.243 1402.56 545.649 1403.74 539.107C1404.34 533.755 1404.94 532.565 1407.91 530.781C1413.26 527.808 1419.21 526.618 1425.76 524.834C1432.3 523.05 1438.85 521.266 1444.8 518.292C1446.58 517.698 1448.37 516.508 1450.15 515.913C1453.13 514.724 1456.7 512.94 1459.67 511.156C1460.27 510.561 1461.46 509.372 1462.05 507.588C1462.65 505.804 1461.46 503.425 1460.27 501.641C1457.89 498.667 1455.51 496.883 1453.13 494.504C1450.75 492.72 1448.37 490.341 1446.58 487.962C1445.39 486.178 1444.8 484.394 1444.2 482.61C1443.61 480.826 1443.61 479.042 1442.42 477.258C1441.23 474.879 1441.23 474.879 1443.01 472.5C1444.2 471.311 1445.39 469.526 1445.39 467.148C1444.8 464.174 1441.82 462.39 1436.47 458.822C1422.19 450.496 1416.83 447.522 1415.05 445.738L1417.43 444.549L1414.45 441.575C1411.48 438.602 1406.72 437.412 1403.15 436.818C1397.2 435.628 1393.63 435.033 1392.44 429.681V429.086L1404.34 426.113L1389.47 424.329C1386.49 423.734 1377.57 423.139 1377.57 423.139C1376.97 423.139 1376.38 423.139 1375.19 423.139C1369.83 423.139 1363.88 424.329 1362.69 424.329C1362.1 424.329 1362.1 424.329 1361.5 424.329C1359.72 424.329 1357.93 423.734 1356.15 423.139C1354.36 422.545 1351.98 421.95 1349.6 421.95C1345.44 421.95 1340.68 421.95 1334.73 421.95Z" fill="#D1D1D1"/>
<path d="M1138.38 552.785C1140.17 552.785 1140.76 554.569 1139.57 557.543C1139.57 557.543 1136 566.464 1133.03 566.464H1132.43C1131.24 565.869 1127.67 560.516 1128.86 558.732C1130.05 555.164 1138.38 553.38 1138.38 553.38C1137.79 552.785 1138.38 552.785 1138.38 552.785ZM1138.38 549.812C1137.79 549.812 1137.79 549.812 1137.19 549.812C1137.19 549.812 1127.67 552.191 1125.29 556.948C1123.51 561.111 1128.27 567.653 1130.05 568.842C1130.65 569.437 1131.84 569.437 1132.43 569.437C1137.79 569.437 1141.36 559.922 1141.95 558.732C1142.55 556.948 1143.74 553.975 1141.95 551.596C1141.95 551.001 1140.76 549.812 1138.38 549.812Z" fill="#D1D1D1"/>
<path d="M1261.54 432.06C1255 433.844 1248.45 434.439 1241.91 436.223C1244.29 436.223 1244.88 436.223 1251.43 435.033C1250.24 435.628 1224.06 443.359 1223.47 443.359C1224.66 443.359 1225.25 442.765 1225.85 442.765H1226.44C1222.87 445.143 1217.52 446.333 1205.62 449.306H1206.21C1206.21 450.496 1201.45 455.253 1188.96 458.227C1186.58 458.822 1177.65 464.769 1176.46 465.958C1177.06 465.958 1177.65 465.958 1178.25 466.553C1179.44 469.526 1166.94 476.068 1162.18 476.068C1161.59 476.068 1161.59 476.068 1161.59 476.068C1162.78 474.879 1162.78 474.879 1163.37 473.689C1162.18 473.689 1161.59 473.095 1160.4 473.095C1155.04 473.095 1150.28 476.663 1144.93 477.258C1138.38 478.447 1136.6 479.042 1135.41 479.042H1134.81C1134.81 479.042 1134.81 478.447 1134.22 478.447C1138.38 474.284 1143.74 474.284 1148.5 471.311C1148.5 470.121 1149.09 467.148 1156.83 466.553C1157.42 467.148 1157.42 467.148 1158.61 467.148C1160.4 467.148 1162.78 465.958 1169.32 462.985C1163.37 465.363 1162.78 465.363 1160.99 465.363V464.769C1159.8 464.174 1158.61 464.174 1156.83 463.579C1157.42 462.985 1168.73 456.443 1175.27 456.443C1175.87 456.443 1176.46 456.443 1177.06 456.443C1178.84 454.659 1180.03 451.091 1180.03 450.496C1181.22 449.901 1181.82 449.306 1184.2 448.712C1194.31 446.333 1203.83 443.359 1216.33 439.196C1213.35 439.791 1195.5 445.143 1189.55 446.333C1191.34 445.738 1193.12 445.143 1194.91 444.549C1188.96 446.333 1186.58 446.928 1185.39 446.928C1184.79 446.928 1184.79 446.928 1184.2 446.333C1186.58 443.954 1207.4 438.602 1209.78 438.602C1210.38 438.602 1211.57 438.602 1211.57 438.602C1212.76 438.602 1213.35 438.602 1213.95 438.007C1213.35 438.007 1213.35 437.412 1212.76 437.412C1218.11 435.033 1243.69 430.871 1243.69 430.871C1244.88 433.844 1255.59 432.06 1261.54 432.06ZM1285.94 429.086H1262.14C1256.19 429.086 1246.67 430.276 1244.88 430.276C1244.88 430.276 1218.71 434.439 1213.35 436.818L1210.97 438.007H1210.38C1208 438.007 1185.39 442.765 1182.41 446.928L1180.03 449.901C1179.44 449.901 1179.44 450.496 1178.84 450.496L1177.65 451.685V453.469C1177.65 454.064 1177.06 455.253 1176.46 455.848C1176.46 455.848 1176.46 455.848 1175.87 455.848C1168.73 455.848 1156.23 462.985 1155.64 463.579L1152.66 465.958C1149.09 466.553 1146.71 468.337 1146.12 471.311C1144.93 471.905 1143.14 472.5 1141.36 473.095C1138.38 474.284 1134.81 475.473 1132.43 477.852L1130.65 479.636L1131.84 481.42L1132.43 482.015L1133.03 483.205H1134.22H1134.81C1136 483.205 1138.38 483.205 1144.93 481.42C1147.31 480.826 1149.69 480.231 1151.47 479.042C1152.07 479.042 1153.26 478.447 1153.85 478.447L1159.8 479.636C1160.4 479.636 1160.99 479.636 1160.99 479.636C1165.75 479.636 1176.46 474.879 1179.44 470.716C1180.63 468.932 1180.63 467.742 1180.63 466.553C1183.6 464.769 1187.77 461.795 1188.96 461.201C1199.07 458.822 1205.62 454.659 1207.4 451.685C1218.11 448.712 1222.87 447.522 1226.44 445.143L1227.63 443.954C1235.37 441.575 1249.05 437.412 1250.24 436.818V435.628H1250.83C1253.81 435.033 1257.38 434.439 1260.35 433.249L1285.94 429.086Z" fill="#D1D1D1"/>
<path d="M1103.28 487.962C1103.28 488.557 1103.28 488.557 1102.09 489.746C1095.54 495.099 1095.54 495.099 1093.16 497.478C1093.16 496.883 1093.16 496.883 1093.16 496.883C1087.81 501.641 1087.81 501.641 1087.21 502.235C1086.02 502.83 1076.5 506.398 1076.5 506.398C1077.1 504.614 1084.24 500.451 1086.62 499.262C1080.07 501.641 1078.29 501.641 1078.29 501.641C1078.29 501.641 1078.29 501.641 1077.69 501.641C1077.69 501.641 1077.69 501.641 1078.29 500.451C1078.29 500.451 1078.29 500.451 1077.69 500.451H1077.1C1080.07 498.667 1083.64 498.667 1086.02 496.288H1085.43C1087.21 494.504 1089.59 493.909 1090.19 493.909C1090.19 494.504 1090.19 494.504 1089.59 495.099C1089.59 495.694 1089 496.883 1088.4 497.478C1091.38 495.099 1091.38 495.099 1091.97 494.504C1092.57 493.909 1092.57 493.315 1093.16 492.125C1094.35 490.341 1102.68 487.962 1103.28 487.962ZM1103.28 484.989C1102.68 484.989 1102.68 484.989 1102.09 484.989C1102.09 484.989 1093.16 487.368 1091.97 488.557C1091.38 488.557 1090.78 489.152 1090.78 489.746C1090.78 489.746 1090.78 490.341 1090.19 490.341H1089.59C1087.81 490.341 1085.43 491.531 1083.05 493.909L1081.86 495.099C1081.26 495.099 1080.67 495.694 1079.48 495.694C1078.29 496.288 1076.5 496.883 1075.31 497.478L1070.55 499.857L1074.72 502.235C1074.12 502.83 1073.53 503.425 1073.53 504.614L1072.93 506.398L1073.53 507.588L1074.12 509.372H1075.91C1077.1 509.372 1087.81 504.614 1087.81 504.614C1089 504.019 1089 504.019 1093.76 499.262L1094.35 499.857C1096.73 497.478 1096.73 497.478 1103.28 492.125C1105.06 490.936 1105.06 490.341 1105.66 489.746L1107.44 486.178L1103.87 484.989C1103.87 484.989 1103.87 484.989 1103.28 484.989Z" fill="#D1D1D1"/>
<mask id="path-18-inside-1" fill="white">
<path d="M1130.06 502.235C1131.25 502.235 1132.44 502.235 1133.03 502.83C1133.63 511.751 1133.63 512.94 1134.22 513.535C1134.22 513.535 1134.22 513.535 1134.82 513.535C1135.41 513.535 1136.6 513.535 1141.36 511.156C1147.31 508.777 1155.04 505.804 1159.21 505.804H1159.8C1163.97 506.398 1163.37 511.156 1166.94 512.345C1168.73 512.94 1169.92 512.94 1171.7 512.94C1172.3 512.94 1172.89 512.94 1173.49 512.94C1174.08 512.94 1175.27 512.94 1175.87 512.94C1182.41 514.129 1196.69 527.213 1196.69 530.186C1196.69 531.376 1194.91 531.971 1190.74 533.755C1181.22 537.918 1180.03 538.512 1178.84 539.702L1218.11 548.622C1218.11 549.217 1218.11 550.406 1217.52 551.001C1217.52 551.001 1209.19 571.816 1203.83 573.005C1203.83 573.005 1203.83 573.005 1203.24 573.005C1201.45 573.005 1199.67 570.626 1197.29 567.653C1197.29 567.653 1188.96 556.948 1184.79 556.948C1184.79 556.948 1172.3 561.111 1174.68 568.248C1177.65 577.168 1188.36 576.573 1193.72 582.521C1196.1 584.899 1190.74 597.388 1187.77 597.983C1187.17 597.983 1186.58 597.388 1185.39 596.794C1180.03 593.225 1176.46 591.441 1166.94 590.846C1179.44 602.741 1179.44 602.741 1180.63 602.741C1181.82 603.335 1181.82 603.335 1182.41 604.525C1181.22 605.119 1178.84 605.714 1176.46 605.714C1165.75 605.714 1147.31 601.551 1144.34 598.578C1150.88 596.199 1150.88 596.199 1152.66 594.415C1142.55 590.252 1138.39 588.468 1134.82 588.468C1132.44 588.468 1130.06 589.062 1126.49 590.252C1119.35 592.631 1114.59 593.82 1112.21 593.82C1110.42 593.82 1109.23 593.225 1109.23 593.225C1108.64 592.631 1108.64 587.278 1111.61 586.089C1118.16 582.521 1125.89 583.115 1133.03 580.736C1156.23 573.6 1158.02 556.948 1158.02 556.948C1158.02 549.217 1150.29 549.812 1146.72 545.649C1143.74 542.675 1142.55 538.512 1140.17 534.944C1140.17 534.944 1134.82 530.186 1132.44 528.997C1131.84 530.186 1130.06 532.565 1121.73 533.16C1111.61 534.349 1112.21 535.539 1112.8 537.323C1110.42 538.512 1099.12 540.891 1090.19 540.891C1086.03 540.891 1082.46 540.296 1080.67 539.107C1074.13 534.349 1109.23 505.209 1121.13 502.235C1121.73 503.425 1126.49 502.235 1130.06 502.235ZM1130.06 499.262C1126.49 499.262 1121.73 499.856 1119.94 500.451C1108.04 503.425 1078.29 527.808 1075.91 537.323C1075.32 539.702 1076.51 541.486 1077.7 542.675C1080.08 544.459 1083.65 545.054 1089 545.054C1097.93 545.054 1110.42 542.675 1112.8 541.486L1115.18 540.296L1114.59 538.512C1115.18 538.512 1117.56 537.918 1121.13 537.323C1127.08 536.728 1130.06 535.539 1131.84 533.755C1133.63 534.944 1136.01 537.323 1136.6 537.918C1137.79 539.107 1138.98 540.891 1139.58 542.675C1140.77 544.459 1141.36 546.243 1143.15 548.028C1144.93 549.812 1147.31 551.001 1149.1 552.191C1152.66 553.975 1153.85 554.569 1153.85 557.543C1153.85 557.543 1152.07 572.411 1130.65 578.358C1128.27 578.952 1125.3 579.547 1122.92 580.142C1118.16 580.736 1113.4 581.331 1109.23 583.71C1106.85 584.899 1105.66 587.278 1105.07 590.252C1105.07 591.441 1105.07 594.415 1106.26 595.604C1107.45 596.793 1109.23 597.388 1111.61 597.388C1115.18 597.388 1119.94 596.199 1127.08 593.82C1130.65 592.631 1132.44 592.036 1134.22 592.036C1136.6 592.036 1139.58 593.225 1144.93 595.604C1144.34 595.604 1143.74 596.199 1142.55 596.199L1137.79 597.983L1141.36 601.551C1145.53 605.119 1165.16 609.282 1175.27 609.282C1178.84 609.282 1181.22 608.688 1182.41 608.093L1184.2 606.904L1183.6 604.525C1183.01 602.146 1181.82 602.146 1180.03 600.956C1179.44 600.956 1178.25 599.172 1174.68 596.199C1177.65 596.794 1179.44 597.983 1182.41 600.362C1183.6 600.956 1184.79 602.146 1186.58 602.146H1187.17H1187.77C1191.93 600.956 1194.91 593.225 1196.1 589.657C1197.29 586.089 1196.69 583.115 1194.91 581.331C1192.53 578.358 1188.96 577.168 1185.98 575.979C1181.22 574.195 1178.25 572.411 1177.06 568.842C1177.06 568.248 1177.06 567.058 1177.06 566.464C1178.25 564.085 1182.41 562.301 1184.79 561.111C1186.58 561.706 1191.34 565.869 1194.91 570.626C1197.29 573.6 1199.67 576.573 1203.24 576.573C1203.83 576.573 1203.83 576.573 1204.43 576.573C1212.16 575.384 1219.9 552.785 1220.49 552.785C1220.49 552.191 1221.09 550.406 1221.09 549.217V546.838L1218.71 546.244L1187.17 539.107C1188.36 538.512 1190.15 537.918 1191.93 537.323C1197.29 534.944 1200.26 533.755 1199.67 530.186C1199.07 525.429 1183.6 511.751 1176.46 510.561C1175.27 510.561 1174.08 510.561 1173.49 510.561H1172.3H1171.11C1169.92 510.561 1168.73 510.561 1167.54 509.966C1166.94 509.966 1166.35 508.777 1166.35 508.182C1165.16 506.398 1163.97 503.425 1159.8 502.83H1159.21C1154.45 502.83 1146.72 505.803 1140.77 508.182C1139.58 508.777 1137.79 509.372 1136.6 509.372C1136.6 508.182 1136.01 505.804 1136.01 501.641V499.856L1134.22 499.262C1132.44 499.856 1131.25 499.262 1130.06 499.262Z"/>
</mask>
<path d="M1130.06 502.235C1131.25 502.235 1132.44 502.235 1133.03 502.83C1133.63 511.751 1133.63 512.94 1134.22 513.535C1134.22 513.535 1134.22 513.535 1134.82 513.535C1135.41 513.535 1136.6 513.535 1141.36 511.156C1147.31 508.777 1155.04 505.804 1159.21 505.804H1159.8C1163.97 506.398 1163.37 511.156 1166.94 512.345C1168.73 512.94 1169.92 512.94 1171.7 512.94C1172.3 512.94 1172.89 512.94 1173.49 512.94C1174.08 512.94 1175.27 512.94 1175.87 512.94C1182.41 514.129 1196.69 527.213 1196.69 530.186C1196.69 531.376 1194.91 531.971 1190.74 533.755C1181.22 537.918 1180.03 538.512 1178.84 539.702L1218.11 548.622C1218.11 549.217 1218.11 550.406 1217.52 551.001C1217.52 551.001 1209.19 571.816 1203.83 573.005C1203.83 573.005 1203.83 573.005 1203.24 573.005C1201.45 573.005 1199.67 570.626 1197.29 567.653C1197.29 567.653 1188.96 556.948 1184.79 556.948C1184.79 556.948 1172.3 561.111 1174.68 568.248C1177.65 577.168 1188.36 576.573 1193.72 582.521C1196.1 584.899 1190.74 597.388 1187.77 597.983C1187.17 597.983 1186.58 597.388 1185.39 596.794C1180.03 593.225 1176.46 591.441 1166.94 590.846C1179.44 602.741 1179.44 602.741 1180.63 602.741C1181.82 603.335 1181.82 603.335 1182.41 604.525C1181.22 605.119 1178.84 605.714 1176.46 605.714C1165.75 605.714 1147.31 601.551 1144.34 598.578C1150.88 596.199 1150.88 596.199 1152.66 594.415C1142.55 590.252 1138.39 588.468 1134.82 588.468C1132.44 588.468 1130.06 589.062 1126.49 590.252C1119.35 592.631 1114.59 593.82 1112.21 593.82C1110.42 593.82 1109.23 593.225 1109.23 593.225C1108.64 592.631 1108.64 587.278 1111.61 586.089C1118.16 582.521 1125.89 583.115 1133.03 580.736C1156.23 573.6 1158.02 556.948 1158.02 556.948C1158.02 549.217 1150.29 549.812 1146.72 545.649C1143.74 542.675 1142.55 538.512 1140.17 534.944C1140.17 534.944 1134.82 530.186 1132.44 528.997C1131.84 530.186 1130.06 532.565 1121.73 533.16C1111.61 534.349 1112.21 535.539 1112.8 537.323C1110.42 538.512 1099.12 540.891 1090.19 540.891C1086.03 540.891 1082.46 540.296 1080.67 539.107C1074.13 534.349 1109.23 505.209 1121.13 502.235C1121.73 503.425 1126.49 502.235 1130.06 502.235ZM1130.06 499.262C1126.49 499.262 1121.73 499.856 1119.94 500.451C1108.04 503.425 1078.29 527.808 1075.91 537.323C1075.32 539.702 1076.51 541.486 1077.7 542.675C1080.08 544.459 1083.65 545.054 1089 545.054C1097.93 545.054 1110.42 542.675 1112.8 541.486L1115.18 540.296L1114.59 538.512C1115.18 538.512 1117.56 537.918 1121.13 537.323C1127.08 536.728 1130.06 535.539 1131.84 533.755C1133.63 534.944 1136.01 537.323 1136.6 537.918C1137.79 539.107 1138.98 540.891 1139.58 542.675C1140.77 544.459 1141.36 546.243 1143.15 548.028C1144.93 549.812 1147.31 551.001 1149.1 552.191C1152.66 553.975 1153.85 554.569 1153.85 557.543C1153.85 557.543 1152.07 572.411 1130.65 578.358C1128.27 578.952 1125.3 579.547 1122.92 580.142C1118.16 580.736 1113.4 581.331 1109.23 583.71C1106.85 584.899 1105.66 587.278 1105.07 590.252C1105.07 591.441 1105.07 594.415 1106.26 595.604C1107.45 596.793 1109.23 597.388 1111.61 597.388C1115.18 597.388 1119.94 596.199 1127.08 593.82C1130.65 592.631 1132.44 592.036 1134.22 592.036C1136.6 592.036 1139.58 593.225 1144.93 595.604C1144.34 595.604 1143.74 596.199 1142.55 596.199L1137.79 597.983L1141.36 601.551C1145.53 605.119 1165.16 609.282 1175.27 609.282C1178.84 609.282 1181.22 608.688 1182.41 608.093L1184.2 606.904L1183.6 604.525C1183.01 602.146 1181.82 602.146 1180.03 600.956C1179.44 600.956 1178.25 599.172 1174.68 596.199C1177.65 596.794 1179.44 597.983 1182.41 600.362C1183.6 600.956 1184.79 602.146 1186.58 602.146H1187.17H1187.77C1191.93 600.956 1194.91 593.225 1196.1 589.657C1197.29 586.089 1196.69 583.115 1194.91 581.331C1192.53 578.358 1188.96 577.168 1185.98 575.979C1181.22 574.195 1178.25 572.411 1177.06 568.842C1177.06 568.248 1177.06 567.058 1177.06 566.464C1178.25 564.085 1182.41 562.301 1184.79 561.111C1186.58 561.706 1191.34 565.869 1194.91 570.626C1197.29 573.6 1199.67 576.573 1203.24 576.573C1203.83 576.573 1203.83 576.573 1204.43 576.573C1212.16 575.384 1219.9 552.785 1220.49 552.785C1220.49 552.191 1221.09 550.406 1221.09 549.217V546.838L1218.71 546.244L1187.17 539.107C1188.36 538.512 1190.15 537.918 1191.93 537.323C1197.29 534.944 1200.26 533.755 1199.67 530.186C1199.07 525.429 1183.6 511.751 1176.46 510.561C1175.27 510.561 1174.08 510.561 1173.49 510.561H1172.3H1171.11C1169.92 510.561 1168.73 510.561 1167.54 509.966C1166.94 509.966 1166.35 508.777 1166.35 508.182C1165.16 506.398 1163.97 503.425 1159.8 502.83H1159.21C1154.45 502.83 1146.72 505.803 1140.77 508.182C1139.58 508.777 1137.79 509.372 1136.6 509.372C1136.6 508.182 1136.01 505.804 1136.01 501.641V499.856L1134.22 499.262C1132.44 499.856 1131.25 499.262 1130.06 499.262Z" fill="#D1D1D1" stroke="black" stroke-width="2" mask="url(#path-18-inside-1)"/>
<path d="M1061.63 499.262C1061.63 499.262 1061.04 499.857 1060.44 499.857C1058.66 501.046 1056.87 501.641 1056.28 501.641C1056.28 501.641 1060.44 499.856 1061.63 499.262ZM1061.63 496.288H1061.04H1060.44C1053.9 498.667 1053.9 500.451 1053.3 501.046V502.83L1054.49 504.019L1055.09 504.614H1056.28C1058.06 504.614 1060.44 502.83 1062.23 502.235C1063.42 501.641 1064.01 501.046 1064.01 500.451L1065.2 498.667L1063.42 496.883L1062.82 495.694L1061.63 496.288Z" fill="#D1D1D1"/>
<path d="M1277.61 515.913C1278.8 515.913 1279.4 516.508 1279.4 516.508C1279.4 516.508 1279.4 517.103 1279.99 517.698C1280.59 518.292 1281.78 518.887 1282.37 519.482C1282.37 520.076 1282.97 520.076 1282.37 521.266C1281.78 522.455 1280.59 523.05 1280.59 523.05L1274.64 524.239C1274.04 524.239 1274.04 524.239 1273.45 524.239C1272.26 524.239 1271.07 523.645 1270.47 523.645C1266.31 521.266 1274.04 516.508 1276.42 515.913C1277.02 515.913 1277.61 515.913 1277.61 515.913ZM1277.61 512.94C1277.02 512.94 1276.42 512.94 1276.42 512.94C1273.45 513.535 1266.9 516.508 1266.31 520.671C1266.31 521.86 1266.31 524.239 1268.69 526.023C1269.88 526.618 1271.66 527.213 1273.45 527.213C1274.04 527.213 1274.64 527.213 1275.23 527.213L1281.18 526.023H1281.78H1282.37C1282.97 526.023 1285.35 524.834 1285.94 522.455C1286.54 520.076 1285.94 518.887 1285.35 518.292C1284.75 517.103 1284.16 516.508 1283.56 516.508C1283.56 515.913 1282.97 514.724 1282.37 514.724C1280.59 513.535 1279.4 512.94 1277.61 512.94Z" fill="#D1D1D1"/>
<path d="M1144.33 500.451C1149.69 500.451 1156.23 502.235 1156.83 503.425C1156.83 503.425 1148.5 507.588 1143.14 507.588C1141.95 507.588 1140.17 507.587 1139.57 506.398C1138.38 505.209 1136.6 501.64 1141.95 501.046C1141.95 500.451 1143.14 500.451 1144.33 500.451ZM1144.33 497.478C1143.14 497.478 1141.95 497.478 1140.76 497.478C1136.6 498.072 1134.81 500.451 1134.81 502.235C1134.22 504.614 1135.41 507.588 1137.19 508.777C1138.38 509.966 1140.17 510.561 1142.55 510.561C1149.09 510.561 1158.02 506.398 1158.02 506.398H1158.61L1159.21 505.803L1161.59 504.019L1159.8 501.641C1157.42 499.262 1148.5 497.478 1144.33 497.478Z" fill="#D1D1D1"/>
<path d="M1125.89 468.932C1125.29 470.121 1123.51 470.121 1122.91 470.716C1123.51 470.716 1124.1 470.121 1124.7 470.121C1124.7 470.121 1124.7 470.121 1125.29 470.121C1125.29 471.311 1119.94 475.473 1118.15 476.663C1118.15 476.663 1113.99 478.447 1113.39 478.447C1113.39 477.258 1115.18 477.258 1115.18 476.663H1114.58C1113.39 476.663 1111.61 476.663 1109.82 477.258H1109.23C1109.82 476.663 1112.8 475.473 1114.58 474.879C1116.96 473.689 1117.56 473.689 1117.56 473.095C1116.96 473.095 1115.77 473.689 1115.18 473.689H1114.58C1114.58 473.095 1121.13 470.716 1125.89 468.932ZM1125.89 465.958C1125.29 465.958 1125.29 465.958 1124.7 465.958C1119.94 467.742 1113.39 470.716 1112.2 471.311L1106.85 474.879L1098.52 481.42L1109.23 480.231C1109.82 480.231 1110.42 480.231 1110.42 480.231L1111.61 481.42H1113.39C1115.18 481.42 1119.94 479.636 1119.94 479.636C1119.94 479.636 1127.67 474.284 1128.27 471.311C1128.27 471.311 1128.27 471.311 1128.86 470.716L1131.84 467.148L1127.67 465.958H1125.89Z" fill="#D1D1D1"/>
<path d="M1103.87 493.91C1105.66 493.91 1102.09 498.072 1099.71 499.857C1097.33 501.641 1094.35 502.83 1092.57 502.83C1091.97 502.83 1091.38 502.83 1090.78 502.235C1089 501.046 1089.59 501.046 1090.78 499.857C1091.38 499.262 1099.71 494.504 1102.68 493.91C1103.28 493.91 1103.87 493.91 1103.87 493.91ZM1103.87 490.936C1103.28 490.936 1103.28 490.936 1102.68 490.936C1099.11 492.125 1090.19 497.478 1089.59 497.478C1089 498.072 1087.21 499.262 1087.21 501.046C1087.21 502.83 1089 504.019 1089.59 504.614C1090.19 505.209 1091.38 505.209 1092.57 505.209C1095.54 505.209 1098.52 504.019 1101.49 501.641C1108.04 496.288 1106.85 493.91 1106.85 493.315C1106.85 492.125 1105.66 491.531 1103.87 490.936Z" fill="#D1D1D1"/>
<path d="M1143.15 471.905C1143.15 472.5 1142.55 472.5 1142.55 472.5C1139.58 474.879 1138.39 474.879 1136.6 475.473C1132.44 476.663 1125.3 477.852 1123.51 477.852C1124.11 477.852 1125.3 477.258 1127.08 476.663C1130.06 476.068 1133.03 475.473 1135.41 474.284C1137.79 473.689 1140.17 472.5 1142.55 471.905C1141.96 471.905 1142.55 471.905 1143.15 471.905C1142.55 471.905 1142.55 471.905 1143.15 471.905ZM1144.93 468.932H1142.55C1141.96 468.932 1141.96 468.932 1141.36 468.932C1140.77 468.932 1140.77 468.932 1140.77 468.932C1139.58 469.526 1138.39 469.526 1137.2 470.121C1136.01 470.716 1134.82 470.716 1133.63 471.31C1132.44 471.905 1131.25 471.905 1129.46 472.5C1127.68 473.095 1126.49 473.095 1124.7 473.689C1121.73 474.879 1121.13 474.879 1120.54 475.473L1114.59 479.042L1121.73 480.826H1122.32H1122.92C1124.7 480.826 1132.44 479.636 1136.6 478.447C1138.98 477.852 1140.77 477.258 1143.74 474.879C1144.34 474.879 1144.34 474.284 1144.93 473.689L1146.12 471.905L1144.93 470.121V468.932Z" fill="#D1D1D1"/>
<path d="M1134.22 468.337C1134.81 468.337 1134.81 468.932 1134.81 468.932V469.526C1134.81 470.121 1135.41 469.526 1135.41 470.121C1135.41 470.716 1135.41 470.716 1134.22 471.311C1131.84 472.5 1123.51 476.068 1122.32 476.068C1122.91 474.879 1123.51 474.284 1126.48 473.689C1128.86 473.095 1130.05 470.716 1131.84 469.526C1132.43 468.932 1133.03 468.932 1133.03 468.932C1133.62 468.337 1133.62 468.337 1134.22 468.337ZM1134.22 465.364C1133.62 465.364 1133.03 465.364 1132.43 465.364C1131.84 465.364 1131.24 465.958 1130.65 466.553C1130.05 467.148 1128.86 467.742 1128.27 468.337C1127.67 468.932 1126.48 470.121 1125.89 470.121C1122.91 471.311 1121.13 471.905 1119.94 474.284L1118.75 476.663L1120.53 477.852L1121.72 478.447H1122.91C1124.7 478.447 1134.81 473.689 1135.41 473.689C1136.6 473.095 1138.38 472.5 1138.38 470.121C1138.38 469.526 1138.38 468.337 1137.79 467.742V467.148L1137.19 466.553C1136.6 465.958 1136 465.958 1135.41 465.364C1134.81 465.364 1134.81 465.364 1134.22 465.364Z" fill="#D1D1D1"/>
<path d="M1147.91 460.606C1147.91 460.606 1147.91 460.606 1141.96 463.579C1140.17 464.174 1138.98 464.769 1138.39 464.769C1138.39 464.769 1137.79 464.174 1139.58 462.985C1141.36 462.39 1147.31 460.606 1147.91 460.606ZM1147.91 457.632C1147.31 457.632 1146.72 457.632 1146.72 457.632C1143.74 458.822 1140.17 460.011 1138.98 460.606C1138.39 461.201 1136.01 461.795 1136.01 464.174C1136.01 465.364 1136.01 466.553 1137.2 467.148L1137.79 467.742H1138.39L1138.98 468.337H1140.17C1141.36 468.337 1142.55 467.742 1144.93 466.553C1151.48 462.985 1151.48 462.985 1152.07 461.795L1153.86 458.227L1147.91 457.632Z" fill="#D1D1D1"/>
<path d="M1180.63 449.307C1180.63 450.496 1179.44 450.496 1178.25 451.685C1178.25 452.875 1177.06 453.469 1176.46 454.064C1177.06 454.064 1177.06 454.064 1177.65 454.064C1177.65 454.659 1177.65 454.659 1174.08 456.443C1173.49 456.443 1173.49 457.038 1172.89 457.038C1174.68 457.632 1174.68 457.632 1174.68 457.632C1174.68 457.632 1174.08 457.632 1174.08 458.227C1171.7 459.417 1168.73 460.011 1166.35 461.201C1162.18 462.985 1158.61 465.958 1154.45 467.148C1152.66 467.742 1150.88 467.148 1149.09 467.742C1145.52 468.932 1144.93 468.932 1144.93 468.932C1144.33 468.337 1144.33 466.553 1146.12 465.958C1146.71 465.958 1148.5 464.769 1155.04 462.985C1157.42 462.39 1158.61 461.795 1159.21 461.201H1158.61C1158.02 461.201 1156.83 461.201 1155.04 461.795C1154.45 461.795 1150.28 462.985 1149.09 462.985C1149.09 462.985 1151.47 460.011 1156.23 459.417C1157.42 458.822 1160.99 458.227 1162.18 457.632C1161.59 457.632 1160.99 458.227 1160.4 458.227C1160.4 458.227 1160.4 458.227 1159.8 458.227C1160.4 455.848 1175.87 449.901 1180.63 449.307ZM1180.63 446.333H1180.03C1175.87 447.522 1159.8 453.469 1158.02 454.659L1156.23 455.848H1155.64C1149.69 457.038 1146.71 460.606 1146.71 460.606L1144.93 462.985C1144.93 462.985 1144.93 462.985 1144.33 462.985C1142.55 464.174 1141.36 465.958 1141.36 468.337C1141.36 469.527 1141.95 470.716 1143.74 471.311H1144.33H1144.93C1145.52 471.311 1145.52 471.311 1150.28 470.121C1150.88 470.121 1151.47 470.121 1152.07 470.121C1153.26 470.121 1154.45 470.121 1155.64 469.527C1158.02 468.337 1160.4 467.148 1162.78 465.958C1164.56 464.769 1165.75 464.174 1167.54 463.579C1168.73 462.985 1169.32 462.985 1170.51 462.39C1172.3 461.795 1173.49 461.201 1175.27 460.606C1175.27 460.606 1175.87 460.011 1176.46 459.417L1178.25 457.038L1177.65 456.443C1178.84 455.848 1179.44 455.254 1179.44 454.064V452.875C1179.44 452.875 1179.44 452.875 1179.44 452.28C1180.03 451.685 1180.63 451.091 1181.82 450.496L1185.39 445.738L1180.63 446.333Z" fill="#D1D1D1"/>
<path d="M1156.23 481.421C1156.23 481.421 1163.97 482.015 1160.99 484.989C1149.69 496.288 1106.85 500.451 1106.25 500.451C1105.06 500.451 1103.87 500.451 1107.44 496.288C1109.23 493.909 1112.2 493.315 1114.58 491.531C1114.58 491.531 1118.15 486.773 1116.96 486.178C1116.96 486.178 1116.96 486.178 1116.37 486.178C1115.18 486.178 1113.39 486.773 1111.61 487.368C1109.82 487.962 1109.82 487.962 1109.23 487.962C1109.23 487.368 1112.8 483.799 1113.39 483.205C1114.58 482.61 1116.96 482.61 1117.56 482.61H1118.15C1119.34 482.61 1121.13 483.205 1122.32 483.205H1122.91C1124.7 483.205 1125.89 482.015 1127.67 482.015C1128.27 482.015 1131.84 484.394 1124.7 486.178C1123.51 486.773 1122.91 486.773 1122.32 487.368C1121.72 487.962 1123.51 490.341 1125.89 490.341C1126.48 490.341 1127.08 490.341 1127.67 489.747C1133.03 487.962 1152.07 481.421 1156.23 481.421ZM1156.23 478.447C1152.07 478.447 1139.57 482.61 1132.43 484.989C1133.03 484.394 1133.03 483.205 1133.03 482.61C1133.03 480.231 1130.05 478.447 1128.86 478.447H1128.27C1127.08 478.447 1125.29 479.042 1124.7 479.042C1124.1 479.042 1123.51 479.636 1122.91 479.636H1122.32C1121.72 479.636 1121.13 479.636 1120.53 479.636C1119.94 479.636 1118.75 479.636 1118.15 479.636C1117.56 479.636 1117.56 479.636 1116.96 479.636C1116.37 479.636 1113.99 480.231 1112.8 480.231C1111.61 480.826 1106.25 484.989 1106.25 487.962V490.936H1109.23H1109.82C1108.63 491.531 1106.85 492.72 1105.06 494.504C1102.68 496.883 1100.9 499.262 1102.09 501.641C1102.68 502.235 1103.28 504.019 1105.66 504.019H1106.25C1106.85 504.019 1150.88 499.856 1162.78 487.368C1165.16 484.989 1164.56 483.205 1163.97 482.61C1162.78 478.447 1156.23 478.447 1156.23 478.447V481.421V478.447Z" fill="#D1D1D1"/>
<path d="M1038.43 511.751C1026.53 519.482 1025.94 519.482 1025.34 519.482C1025.94 518.887 1036.65 512.345 1038.43 511.751ZM1052.11 501.641L1037.24 508.777L1036.65 509.372C1035.46 509.966 1024.15 516.508 1022.96 517.698L1019.39 522.455H1025.34C1026.53 522.455 1027.13 522.455 1039.62 514.129L1040.21 513.535L1052.11 501.641Z" fill="#D1D1D1"/>
<path d="M1009.87 532.565C1009.87 532.565 1009.87 533.16 1009.87 532.565C1008.09 536.134 1008.09 536.134 1006.9 537.323C1000.95 542.081 993.806 545.649 987.262 549.812C983.692 552.191 980.717 555.164 977.147 557.543H976.552C969.412 562.895 964.057 570.032 955.727 573.6C955.727 573.6 955.727 573.6 955.132 573.6C957.512 568.248 959.892 566.464 962.867 564.085C997.376 536.134 997.376 536.134 1005.11 532.565H1005.71C1005.71 533.755 1005.71 533.755 1003.92 534.944C1005.71 534.944 1007.49 533.16 1009.87 532.565ZM1011.66 529.592H1009.28C1008.68 529.592 1008.09 530.186 1007.49 530.186L1006.3 529.592L1005.11 530.186C1004.52 530.186 1004.52 530.186 1003.92 530.781C995.591 534.349 995.591 534.349 961.082 562.895C958.107 565.274 955.132 567.653 952.753 573.6L951.562 576.574L954.537 577.763L955.727 578.358L957.512 577.763C963.462 574.79 968.222 570.627 972.387 567.058C974.172 565.274 975.957 563.49 977.742 562.301C978.337 562.301 978.932 561.706 979.527 561.706C981.312 560.517 983.097 558.732 984.882 557.543C986.667 556.354 987.856 555.164 989.641 553.975C992.616 552.191 995.591 550.407 998.566 548.622C1002.14 546.244 1005.71 543.865 1009.28 541.486C1011.06 540.297 1011.66 539.702 1013.44 536.134L1014.04 534.944L1013.44 533.755L1011.66 529.592Z" fill="#D1D1D1"/>
<path d="M1071.75 496.288C1068.18 499.856 1064.01 502.83 1059.85 506.398C1062.82 504.614 1065.2 502.235 1068.18 500.451C1068.18 500.451 1069.37 499.856 1071.15 499.856C1071.15 500.451 1070.56 500.451 1068.77 501.641C1068.77 501.641 1058.66 508.777 1056.28 509.966C1053.3 511.751 1049.73 512.345 1046.16 514.129C1046.16 514.129 1040.81 516.508 1030.1 522.455C1027.72 523.645 1024.74 525.429 1024.15 525.429C1022.96 525.429 1022.96 524.239 1024.74 523.645C1029.5 521.266 1038.43 516.508 1041.4 514.724C1038.43 515.913 1036.64 516.508 1036.05 517.103C1033.07 518.887 1033.07 518.887 1032.48 518.887C1034.26 517.698 1036.64 517.103 1037.83 514.724C1027.12 520.671 1025.93 521.266 1025.93 521.266C1025.93 517.698 1050.92 505.803 1051.52 505.803C1053.3 507.588 1049.14 508.777 1047.95 509.966L1047.35 510.561C1056.87 508.182 1058.66 505.209 1058.66 504.019C1058.66 502.83 1071.15 496.288 1071.75 496.288C1071.75 496.288 1071.15 496.288 1071.75 496.288ZM1080.08 492.125L1071.15 493.909H1070.56L1069.96 494.504C1056.28 501.64 1056.28 503.425 1055.68 504.614C1055.68 504.614 1055.68 505.209 1055.09 505.803C1055.09 505.209 1054.49 505.209 1054.49 504.614L1053.3 503.425L1051.52 504.019C1051.52 504.019 1024.15 515.914 1023.55 522.455C1020.58 524.239 1021.17 526.023 1021.17 526.618C1021.17 528.402 1022.96 529.592 1024.15 529.592C1025.93 529.592 1027.72 528.402 1031.88 526.023C1040.81 520.671 1046.16 518.292 1047.35 517.698C1048.54 517.103 1049.73 517.103 1050.33 516.508C1052.71 515.914 1055.09 514.724 1057.47 513.535C1060.44 511.751 1070.56 505.209 1070.56 505.209C1072.34 504.019 1072.94 503.425 1073.53 502.235L1075.91 498.072H1074.13L1080.08 492.125Z" fill="#D1D1D1"/>
<path d="M1027.71 531.376V531.97C1028.31 531.97 1028.9 532.565 1029.5 532.565C1030.09 533.755 1017 549.812 1015.22 551.596C1013.43 553.38 1014.62 556.948 1018.19 558.732C1018.79 561.111 1015.81 564.085 1015.81 564.085C1015.22 564.679 1015.22 564.679 1014.03 564.679H1013.43C1009.27 564.679 1003.91 568.842 1003.32 570.626C1008.08 568.248 1008.67 567.653 1009.27 567.653C1009.27 567.653 1009.27 567.653 1009.27 568.248C1003.32 574.789 1003.32 574.789 997.369 576.574C997.369 576.574 990.824 575.384 990.229 574.195C990.229 573.6 990.229 573.6 991.419 572.411C991.419 572.411 991.419 572.411 990.824 572.411C989.039 573.005 987.849 574.195 984.874 576.574C975.355 584.305 958.695 591.441 956.315 591.441C957.505 589.657 959.29 588.468 960.48 586.089C960.48 586.089 960.48 586.089 960.48 585.494C959.29 585.494 957.505 586.684 956.315 586.684H955.72C952.745 586.089 954.53 578.952 970.595 574.195C972.975 573.6 978.925 571.816 983.089 568.248C982.494 568.248 981.899 568.248 981.304 568.248C980.114 568.248 978.33 567.653 977.14 567.653C976.545 567.653 975.949 567.653 975.354 567.653C971.785 568.248 969.405 570.627 965.835 571.221C965.835 571.221 965.835 571.221 965.24 571.221H964.645C964.645 570.627 964.645 569.437 971.19 565.869C974.76 563.49 974.76 563.49 975.354 562.895C974.76 562.895 974.76 562.301 974.165 562.301C973.57 558.732 1004.51 538.512 1006.89 538.512C1004.51 541.486 1000.34 542.675 997.964 546.244C1001.53 545.054 1004.51 541.486 1008.67 540.296C1008.67 540.296 1008.67 540.296 1008.67 540.891C1008.08 542.081 1006.29 543.27 1005.7 544.459C1008.67 543.865 1011.05 541.486 1013.43 540.891C1013.43 540.891 1014.03 540.891 1014.03 541.486C1013.43 543.27 1010.46 544.459 1011.05 547.433C1017.6 543.865 1021.76 536.728 1027.71 531.376C1027.71 531.376 1027.71 531.971 1027.71 531.376ZM1028.9 526.618L1025.93 528.997C1023.55 531.376 1021.17 533.755 1019.38 536.133C1018.19 537.323 1017 538.512 1016.41 539.702H1015.81L1015.22 539.107L1014.03 537.918L1012.24 538.512C1011.65 538.512 1011.05 539.107 1010.46 539.107L1014.03 535.539L1005.7 536.728C1001.53 537.323 975.949 554.569 971.785 560.516C971.19 561.111 970.595 562.301 970.595 564.085C970 564.679 969.405 564.679 968.81 565.274C962.86 568.842 961.075 570.627 961.075 573.005V574.789H961.67C953.34 578.358 950.365 583.115 950.96 586.089C950.96 587.873 952.15 589.657 953.935 590.252C953.935 590.252 953.935 590.252 953.935 590.847L951.555 595.009H956.315C959.885 595.009 977.139 586.684 986.659 578.952C987.849 578.358 988.444 577.763 989.039 577.168C991.419 578.358 997.369 579.547 997.964 579.547H998.559H999.154C1005.7 577.168 1006.29 576.574 1012.24 570.032C1012.84 569.437 1012.84 569.437 1012.84 568.842L1014.03 567.058H1014.62C1015.22 567.058 1015.22 567.058 1015.81 567.058C1017 567.058 1018.19 567.058 1018.79 565.869C1019.38 565.869 1023.55 561.706 1022.36 557.543V556.354L1021.17 555.759C1019.98 555.164 1019.38 553.975 1019.38 553.38V552.785C1034.26 534.349 1034.26 533.16 1033.66 531.376L1033.07 530.186L1031.88 529.592C1031.28 529.592 1031.28 528.997 1030.69 528.997L1028.9 526.618Z" fill="#D1D1D1"/>
<path d="M1094.35 615.824C1094.95 615.824 1095.54 615.824 1095.54 617.013C1094.95 618.798 1090.19 624.15 1087.81 624.15H1087.21C1086.62 623.555 1086.02 620.582 1087.81 618.798C1089 617.608 1093.76 616.419 1093.76 616.419C1093.76 615.824 1094.35 615.824 1094.35 615.824ZM1094.35 612.851C1093.76 612.851 1093.16 612.851 1093.16 612.851C1089.59 613.445 1087.21 614.635 1086.02 616.419C1083.64 619.987 1083.64 624.15 1086.02 625.934C1086.62 626.529 1087.81 627.123 1088.4 627.123C1092.57 627.123 1097.92 620.582 1099.11 618.203C1099.71 616.419 1099.11 615.229 1098.52 614.635C1097.33 613.445 1096.73 612.851 1094.35 612.851Z" fill="#D1D1D1"/>
<path d="M1069.96 586.683C1071.74 587.278 1071.74 589.062 1072.93 590.252C1074.72 591.441 1077.1 591.441 1079.48 592.631C1080.07 592.631 1080.07 593.225 1080.67 593.225C1082.45 595.009 1083.64 597.388 1085.43 599.172C1086.62 600.362 1087.81 600.956 1089 601.551C1089.59 602.146 1090.19 603.93 1089.59 605.119C1089.59 605.714 1089 605.714 1088.4 606.309C1087.21 606.904 1086.62 606.904 1085.43 606.904C1083.05 606.904 1080.07 606.309 1077.69 606.309C1077.1 606.309 1077.1 606.309 1076.5 606.309C1070.55 606.904 1065.2 611.066 1062.22 614.04C1059.84 615.824 1059.25 616.419 1058.65 617.014C1058.65 617.014 1058.65 617.014 1058.06 614.635C1057.46 612.851 1057.46 612.851 1053.89 612.256L1060.44 601.551C1061.03 600.362 1062.22 599.172 1062.82 597.983C1061.63 596.199 1068.17 587.873 1069.96 586.683ZM1069.96 583.71H1068.77C1066.39 584.899 1062.82 590.252 1059.84 594.415C1059.25 595.604 1058.06 597.388 1057.46 597.983L1050.92 608.688L1048.54 612.851L1053.3 613.445C1053.89 613.445 1054.49 613.445 1055.08 613.445C1055.68 615.824 1055.68 618.203 1058.65 618.203H1059.25C1060.44 618.203 1061.63 617.014 1064.6 614.635C1067.58 612.256 1072.34 608.093 1077.1 607.498H1077.69C1078.88 607.498 1080.07 607.498 1081.26 608.093C1082.45 608.093 1084.24 608.688 1085.43 608.688C1086.62 608.688 1088.4 608.688 1089.59 608.093C1089.59 608.093 1091.38 607.498 1092.57 605.714C1093.76 603.335 1092.57 599.767 1090.78 598.578C1090.19 597.983 1089.59 597.388 1089 597.388C1088.4 596.793 1087.81 596.794 1087.81 596.199C1087.21 595.604 1086.62 595.009 1086.02 593.82C1085.43 592.631 1084.24 590.846 1082.45 589.657C1081.86 589.062 1081.26 589.062 1081.26 588.468C1080.07 587.873 1078.29 587.278 1077.1 587.278C1075.91 587.278 1075.31 586.683 1074.72 586.683C1074.72 586.683 1074.72 586.683 1074.72 586.089C1074.12 585.494 1073.53 584.305 1072.34 583.115L1071.74 582.521L1069.96 583.71Z" fill="#D1D1D1"/>
<path d="M1078.29 612.85C1080.07 612.85 1079.48 613.445 1079.48 614.635C1077.69 617.608 1068.77 622.961 1065.79 622.961C1065.2 622.961 1065.2 622.961 1065.2 622.961C1064.01 622.366 1064.6 618.798 1066.39 617.608C1069.36 615.229 1077.69 613.445 1077.69 613.445C1077.69 612.85 1077.69 612.85 1078.29 612.85ZM1078.29 609.877C1077.69 609.877 1077.1 609.877 1076.5 609.877C1076.5 609.877 1066.98 611.661 1063.41 614.635C1061.63 616.419 1060.44 618.798 1061.03 621.176C1061.03 623.555 1062.22 624.745 1062.82 625.339C1063.41 625.934 1064.6 625.934 1065.2 625.934C1069.36 625.934 1079.48 619.987 1081.86 616.419C1083.05 614.635 1082.45 612.85 1082.45 612.256C1081.26 611.066 1080.67 609.877 1078.29 609.877Z" fill="#D1D1D1"/>
<path d="M1255 705.03H1255.6C1256.19 706.814 1254.41 709.788 1250.24 715.14C1249.65 716.329 1247.86 717.519 1247.27 718.708C1246.67 719.898 1246.67 719.898 1247.86 720.492C1249.65 721.087 1250.84 722.276 1252.03 726.439C1252.62 728.223 1253.22 728.818 1254.41 728.818C1255 728.818 1255.6 728.818 1256.19 728.818C1260.36 727.629 1262.74 727.629 1264.52 727.629C1266.31 727.629 1266.9 728.224 1268.69 730.008C1274.04 735.36 1278.8 746.065 1278.21 752.606C1277.61 756.769 1274.64 761.527 1272.26 762.122C1271.66 762.122 1271.07 762.122 1271.07 760.338C1271.07 758.553 1271.07 756.175 1269.88 754.985C1269.28 753.796 1268.09 753.796 1267.5 753.796C1265.71 753.796 1263.93 754.985 1262.74 754.985C1262.14 754.985 1260.95 754.391 1259.76 754.391C1252.62 752.606 1246.08 751.417 1236.56 750.822C1220.49 749.633 1220.49 749.633 1219.9 749.038C1219.3 749.038 1218.71 748.443 1219.9 747.254C1222.28 743.686 1226.44 741.307 1229.42 737.739C1234.77 731.197 1238.34 723.466 1243.7 716.924C1247.27 710.977 1252.62 705.625 1255 705.03ZM1255 702.057H1254.41C1250.84 703.246 1244.89 709.193 1240.72 713.951C1237.75 717.519 1235.37 721.087 1232.99 725.25C1230.61 728.818 1228.82 731.792 1226.44 735.36C1225.25 736.549 1224.06 738.334 1222.28 739.523C1220.49 741.307 1218.71 743.091 1216.92 745.47C1215.73 746.659 1215.73 747.849 1215.73 749.038C1216.33 750.822 1217.52 751.417 1218.11 751.417C1219.3 752.012 1219.3 752.012 1235.96 753.201C1244.89 753.796 1251.43 754.985 1258.57 756.769H1259.17C1259.76 756.769 1260.95 757.364 1261.55 757.364H1262.14C1263.33 757.364 1264.52 756.769 1265.71 756.769C1266.31 756.769 1266.9 756.175 1267.5 756.175C1267.5 756.175 1267.5 756.175 1268.09 756.175C1268.69 756.769 1268.69 758.553 1268.69 759.743C1268.69 762.716 1271.07 764.501 1272.85 764.501H1273.45C1277.61 763.906 1281.78 757.364 1282.37 752.606C1282.97 744.875 1277.61 733.576 1271.66 727.629C1269.88 725.845 1268.69 724.655 1265.71 724.655C1263.93 724.655 1261.55 725.25 1256.79 726.439H1256.19C1256.19 726.439 1256.19 726.439 1256.19 725.845C1255 721.682 1253.81 719.898 1252.03 718.708C1252.03 718.114 1252.62 718.113 1252.62 717.519L1253.22 716.924C1257.98 710.382 1259.76 706.814 1258.57 703.841L1257.98 702.651L1256.79 702.057C1256.19 702.057 1255.6 702.057 1255 702.057Z" fill="#D1D1D1"/>
<path d="M802.81 774.611C803.405 774.611 802.81 776.395 802.81 776.395V776.99C802.215 779.368 801.025 781.747 799.836 783.531C798.051 787.1 797.456 791.262 795.671 794.831C795.671 794.831 795.671 795.425 795.076 795.425C794.481 794.236 798.051 776.99 801.62 774.016C802.215 774.611 802.215 774.611 802.81 774.611ZM802.81 771.637H802.215C801.621 771.637 801.026 772.232 801.026 772.232C797.456 775.205 792.101 794.236 793.886 797.21L795.671 800.183L798.051 797.804C798.646 797.209 799.241 796.615 799.241 796.02C800.431 793.641 801.025 791.857 801.62 789.478C802.215 787.694 802.81 785.91 803.405 784.126C804 782.937 804 782.342 804.595 781.153C805.19 779.963 805.785 778.774 806.38 776.99V776.395C806.38 775.8 806.975 773.421 806.38 772.232C805.19 772.232 804 771.637 802.81 771.637Z" fill="#D1D1D1"/>
<path d="M1516.2 538.512C1519.17 538.512 1520.96 540.891 1523.34 542.081C1526.91 543.27 1530.48 542.675 1534.64 543.865C1535.24 543.865 1535.83 544.459 1535.83 544.459C1538.21 545.649 1540 548.028 1541.19 549.217V549.812H1540.59C1540 549.812 1540 549.812 1540 550.406C1540.59 552.191 1541.78 553.38 1542.38 554.569C1542.97 556.948 1531.07 565.869 1522.74 567.653C1513.82 570.032 1512.63 570.032 1511.44 570.032C1510.84 570.032 1510.84 570.032 1510.25 570.032C1507.27 570.032 1504.3 568.248 1500.73 568.248C1500.73 568.248 1500.13 568.248 1499.54 568.248C1498.35 568.248 1496.56 568.248 1492.99 568.842C1490.02 568.842 1488.83 569.437 1487.64 569.437C1485.85 569.437 1485.26 569.437 1485.26 568.842C1485.26 565.869 1485.26 564.679 1481.69 563.49C1481.09 563.49 1480.5 563.49 1480.5 563.49C1478.71 563.49 1477.52 564.085 1475.74 564.085C1474.55 564.085 1473.36 563.49 1472.17 562.301C1478.12 556.948 1468.6 553.38 1463.84 553.38C1463.24 553.38 1463.24 553.38 1462.65 553.38C1461.46 553.38 1459.08 553.975 1457.89 553.975C1456.7 553.975 1456.1 553.975 1455.51 553.38C1457.29 550.406 1462.05 551.001 1463.24 547.433C1461.46 545.649 1458.48 546.244 1457.29 543.27C1457.89 542.675 1459.67 542.081 1460.86 542.081C1465.62 542.081 1473.36 545.054 1475.74 549.217C1476.93 551.596 1484.66 558.138 1485.85 558.138C1488.83 555.759 1486.45 552.191 1487.04 549.217C1487.04 549.217 1487.64 548.622 1488.23 548.622C1488.83 548.622 1488.83 548.028 1489.42 548.028C1490.61 548.028 1491.21 548.622 1492.4 548.622C1492.99 548.622 1492.99 548.622 1493.59 548.028C1495.37 546.838 1493.59 544.459 1495.97 543.865C1499.54 542.675 1503.11 542.675 1506.08 542.081C1509.65 540.891 1512.63 539.107 1516.2 538.512ZM1516.2 535.539H1515.6C1513.82 536.134 1512.03 536.728 1510.25 537.323C1508.46 537.918 1506.68 538.512 1505.49 539.107C1504.3 539.702 1503.11 539.702 1501.32 539.702C1498.94 539.702 1497.16 540.296 1494.78 540.891C1492.4 541.486 1491.8 543.865 1491.8 545.054C1491.21 545.054 1490.61 544.459 1489.42 544.459C1488.23 544.459 1487.64 544.459 1486.45 545.054H1485.85L1485.26 545.649L1484.07 546.244V547.433C1483.47 549.217 1484.07 550.407 1484.07 552.191C1484.07 552.191 1484.07 552.191 1484.07 552.785C1481.69 551.001 1478.71 548.028 1478.12 546.838C1475.14 541.486 1466.22 538.512 1460.86 538.512C1458.48 538.512 1456.7 539.107 1455.51 540.296L1453.72 541.486L1454.32 543.27C1454.91 545.649 1456.7 546.838 1458.48 547.433H1457.89C1456.1 548.028 1454.32 549.217 1453.13 551.001L1451.34 553.38L1453.72 555.164C1454.91 555.759 1456.1 556.354 1457.29 556.354C1459.08 556.354 1461.46 555.759 1462.65 555.759C1462.65 555.759 1462.65 555.759 1463.24 555.759C1466.22 555.759 1469.79 557.543 1470.38 558.732C1470.38 558.732 1470.38 559.327 1469.79 559.327L1467.41 561.111L1469.19 563.49C1470.98 565.274 1472.76 566.464 1475.14 566.464C1476.33 566.464 1476.93 566.464 1478.12 566.464C1478.71 566.464 1479.31 566.464 1479.9 566.464H1480.5C1481.69 566.464 1481.69 567.058 1481.69 567.058C1481.69 567.058 1481.69 568.248 1481.69 568.842V570.032L1482.88 570.627C1484.07 571.816 1485.26 571.816 1487.64 571.816C1488.83 571.816 1490.61 571.816 1493.59 571.221C1496.56 570.627 1498.35 570.627 1499.54 570.627H1500.13C1501.32 570.627 1502.51 571.221 1504.3 571.221C1506.08 571.816 1507.87 571.816 1509.65 572.411C1510.25 572.411 1510.25 572.411 1510.84 572.411C1512.63 572.411 1514.41 572.411 1523.34 570.032C1529.88 568.248 1546.54 559.327 1545.35 553.38C1545.35 552.785 1544.76 551.596 1544.76 551.001V549.217C1544.76 548.622 1544.76 548.028 1544.76 547.433V546.838C1544.16 545.649 1541.78 542.081 1538.21 540.891C1537.62 540.891 1537.02 540.296 1536.43 540.296C1534.64 539.702 1532.86 539.702 1531.07 539.702C1529.29 539.702 1527.5 539.702 1525.72 539.107C1525.12 539.107 1524.53 538.512 1523.93 537.918C1520.96 536.728 1519.17 535.539 1516.2 535.539Z" fill="#D1D1D1"/>
<path d="M1183.6 732.981C1188.96 732.981 1203.83 735.955 1202.64 738.334C1202.64 738.334 1200.86 740.712 1196.69 740.712C1194.91 740.712 1191.93 740.118 1188.96 738.334C1187.17 737.739 1179.44 733.576 1183.01 732.386C1182.41 732.981 1183.01 732.981 1183.6 732.981ZM1183.6 730.008C1183.01 730.008 1182.41 730.008 1181.82 730.008C1179.44 731.197 1178.84 732.981 1178.84 733.576C1178.84 735.36 1180.03 737.739 1187.77 741.307C1191.34 743.091 1194.31 743.686 1197.29 743.686C1203.83 743.686 1206.21 739.523 1206.21 739.523C1206.81 738.334 1206.81 737.144 1205.62 735.955C1202.05 731.197 1185.98 730.008 1183.6 730.008Z" fill="#D1D1D1"/>
<path d="M1098.52 506.398C1099.12 506.398 1099.71 506.398 1100.31 506.398C1071.75 523.05 1071.75 523.05 1065.2 532.565C1065.8 533.16 1066.39 533.16 1066.99 533.755C1066.99 536.133 1066.99 536.133 1056.28 553.38C1062.23 553.38 1062.23 553.38 1062.82 553.975C1062.82 553.975 1055.68 563.49 1056.87 567.058C1062.23 562.301 1064.61 555.759 1071.75 552.785C1077.7 559.327 1064.61 563.49 1064.01 570.032C1065.8 571.816 1068.18 572.41 1069.37 572.41C1077.1 572.41 1083.05 557.543 1090.19 553.38C1091.98 544.459 1096.14 542.08 1099.71 542.08C1105.07 542.08 1109.83 547.433 1109.83 547.433C1109.23 549.217 1108.64 551.001 1107.45 552.191C1105.66 554.569 1101.5 553.975 1100.31 556.948C1098.52 559.922 1101.5 563.49 1099.71 566.463C1099.12 567.653 1097.93 568.842 1096.74 570.032C1091.98 574.195 1091.98 574.195 1074.72 580.142C1073.53 579.547 1072.34 578.952 1071.15 578.952C1067.58 578.952 1064.01 582.52 1064.01 582.52C1065.2 582.52 1066.39 583.115 1066.99 583.71C1059.25 595.604 1046.76 589.062 1036.64 592.63C1041.4 595.604 1044.38 596.199 1047.95 596.199C1050.33 596.199 1053.3 595.604 1057.47 595.009C1042 611.066 1042 611.066 1015.22 615.824C1017.6 617.608 1022.36 615.824 1024.15 619.987C1010.46 630.097 978.334 653.885 980.714 667.563C990.828 668.158 990.829 668.158 991.424 672.916C993.208 685.405 993.209 685.405 994.993 686.594C999.158 685.405 1002.73 681.836 1007.49 681.836C1008.08 681.836 1008.68 681.836 1009.27 681.836C1010.46 681.836 1011.65 682.431 1012.84 683.026C1018.79 685.405 1021.77 691.352 1028.31 693.136C1029.5 693.136 1030.1 693.73 1031.29 693.73C1034.26 693.73 1037.24 693.136 1040.21 693.136C1042.59 693.136 1044.97 693.73 1047.35 695.515C1047.35 695.515 1047.35 695.515 1047.95 695.515C1049.14 695.515 1050.33 695.515 1050.92 695.515C1050.92 696.109 1050.92 697.299 1050.92 697.299C1049.73 697.893 1048.54 699.083 1047.35 700.272C1049.14 704.435 1050.33 708.003 1047.35 717.519C1053.3 721.682 1061.04 723.466 1065.2 730.008C1078.89 720.492 1071.15 705.625 1074.13 693.136C1076.51 691.352 1077.1 690.757 1077.7 690.162C1076.51 685.999 1082.46 683.621 1084.84 683.026C1096.74 680.052 1096.74 659.238 1096.74 659.238C1096.74 653.885 1091.38 650.912 1091.38 645.559C1091.38 640.802 1096.74 639.612 1097.93 635.449C1091.38 627.123 1100.9 619.987 1099.71 611.661C1108.04 608.093 1117.56 609.877 1126.48 607.498C1127.08 607.498 1127.67 607.498 1127.67 607.498C1128.27 607.498 1128.86 607.498 1130.65 608.093C1140.17 611.066 1141.36 612.85 1141.36 613.445C1142.55 615.229 1143.14 615.824 1143.74 616.419C1144.93 617.013 1146.12 617.013 1147.31 617.013C1149.09 617.013 1150.28 617.013 1152.07 617.013C1153.26 617.013 1154.45 617.013 1155.64 617.608C1151.47 620.582 1149.09 634.26 1150.28 636.639C1155.64 637.828 1160.4 642.586 1166.35 642.586C1167.54 642.586 1168.73 642.586 1169.92 641.991C1171.11 641.396 1171.11 641.396 1175.27 635.449C1177.06 633.071 1180.63 634.855 1183.01 632.476C1184.79 630.692 1181.82 628.313 1183.01 626.529C1185.98 621.176 1187.77 617.608 1189.55 617.608C1192.53 617.608 1195.5 623.555 1203.83 638.423C1209.19 648.533 1209.19 648.533 1206.81 652.101C1205.02 654.48 1204.43 655.669 1205.62 656.859C1208 659.832 1212.16 659.238 1214.54 662.211C1216.33 664.59 1214.54 666.969 1215.14 668.753C1215.73 668.753 1216.33 669.348 1216.33 669.348C1216.92 669.348 1217.52 669.348 1218.71 668.753C1220.49 668.158 1222.28 668.158 1224.06 668.158C1232.99 668.158 1239.53 674.105 1238.94 675.295C1238.34 675.889 1237.75 676.484 1237.15 676.484C1209.78 678.863 1190.15 680.647 1167.54 683.026C1191.93 680.647 1213.95 678.863 1237.15 676.484C1225.25 681.242 1224.06 681.836 1220.49 685.999C1221.09 686.594 1221.09 687.783 1221.68 688.378C1231.8 681.836 1237.75 681.242 1240.13 680.647C1240.72 680.647 1241.32 680.647 1242.51 680.647C1245.48 681.242 1249.05 681.836 1252.03 682.431C1252.62 683.026 1253.22 684.215 1253.81 685.405C1250.84 692.541 1250.84 692.541 1252.62 697.299C1247.27 706.814 1216.33 722.871 1202.64 722.871C1200.86 722.871 1199.07 722.276 1197.88 721.682C1159.21 733.576 1159.21 733.576 1121.13 772.826C1162.18 747.254 1172.3 740.712 1177.06 740.712C1178.25 740.712 1179.44 741.307 1180.03 742.496C1178.25 750.228 1172.89 752.012 1165.16 753.796C1167.54 756.769 1167.54 756.769 1172.89 758.553C1175.27 765.095 1175.87 768.069 1181.22 770.448C1179.44 766.879 1181.22 762.716 1181.82 762.122C1181.82 762.122 1181.82 762.122 1181.82 763.311C1181.82 765.69 1181.82 767.474 1184.79 768.663C1185.39 769.258 1187.77 769.853 1190.74 769.853C1191.93 769.853 1193.12 769.853 1194.31 769.258C1194.91 769.258 1194.91 769.258 1195.5 769.258C1195.5 769.258 1193.12 772.826 1190.15 773.421C1193.12 774.61 1197.29 775.205 1202.05 776.989C1205.62 771.637 1206.21 763.906 1212.16 760.338C1219.9 779.963 1176.46 805.535 1162.18 805.535C1162.18 801.372 1162.18 801.372 1183.6 786.505C1183.6 785.315 1183.6 784.126 1183.6 783.531C1181.82 783.531 1178.84 782.936 1177.06 782.342C1177.65 781.747 1177.65 780.557 1178.25 779.963C1144.33 799.588 1141.95 800.777 1140.17 800.777C1140.17 800.777 1140.17 800.777 1139.57 800.777C1127.08 812.672 1127.08 812.672 1124.7 834.676C1122.32 834.676 1097.33 848.354 1097.33 848.354C1091.38 854.301 1092.57 862.627 1089 869.763C1088.41 866.195 1085.43 863.816 1084.24 860.843C1082.46 889.389 1082.46 889.389 1080.08 890.578C1080.08 890.578 1080.08 870.953 1079.48 864.411L1075.32 907.825C1075.91 907.825 1077.1 908.419 1078.29 909.014C1078.29 910.203 1078.29 911.393 1077.7 912.582C1077.1 912.582 1075.91 913.177 1074.72 913.177C1074.72 913.772 1074.72 914.961 1074.13 916.15C1074.72 916.745 1075.32 917.935 1075.91 918.529C1062.82 933.397 1039.02 939.344 1035.45 962.538C1031.88 985.136 1066.39 1005.36 1044.38 1027.96C1025.93 1017.25 1037.83 990.489 1018.79 980.379C1017.6 980.379 974.169 983.947 968.814 987.515C968.814 988.705 968.219 989.894 968.219 990.489C970.599 992.273 973.574 993.462 975.954 995.841C975.359 996.436 974.169 997.03 973.574 997.625C973.574 997.625 959.889 994.652 949.18 994.652C944.42 994.652 940.255 995.246 938.47 997.03C934.305 1000 917.051 1017.85 914.671 1026.77C912.291 1033.9 920.621 1036.88 921.216 1043.42C921.216 1053.53 912.886 1061.26 915.861 1071.96C918.241 1080.29 925.975 1096.35 947.99 1108.84C949.775 1110.02 951.56 1110.02 952.75 1110.02C959.294 1110.02 963.459 1102.89 970.004 1102.89H970.599C973.574 1072.56 982.499 1065.42 989.638 1065.42C995.588 1065.42 1000.94 1069.58 1002.13 1070.77C999.753 1083.86 999.753 1083.86 993.803 1098.13C997.373 1105.27 997.373 1105.27 992.613 1120.73C993.803 1120.73 994.398 1120.73 995.588 1120.73C1004.51 1120.73 1012.84 1118.35 1021.77 1118.35C1026.53 1118.35 1031.29 1118.95 1036.05 1121.32C1036.05 1121.32 1043.78 1135 1041.4 1152.84C1039.02 1168.9 1051.52 1170.68 1066.39 1170.68C1069.96 1170.68 1073.53 1170.68 1077.1 1170.68C1086.62 1170.68 1095.55 1171.28 1102.09 1175.44C1105.66 1145.71 1125.29 1136.79 1154.45 1136.79C1172.3 1136.79 1193.72 1139.76 1216.92 1143.33C1218.71 1143.33 1221.68 1144.52 1223.47 1145.11C1235.96 1151.06 1243.7 1163.55 1255.6 1170.68C1270.47 1179.61 1288.91 1176.63 1303.79 1185.55C1315.09 1192.09 1323.42 1203.39 1334.13 1210.53C1340.68 1217.67 1341.27 1229.56 1351.98 1233.13C1369.83 1237.89 1388.28 1240.86 1406.13 1246.21C1418.03 1249.78 1426.36 1260.49 1438.85 1263.46C1439.45 1263.46 1440.04 1263.46 1440.64 1263.46C1443.02 1263.46 1445.4 1262.27 1447.78 1262.27C1448.97 1262.27 1449.56 1262.27 1450.75 1262.86C1456.1 1265.84 1450.16 1271.19 1451.34 1275.95C1451.94 1278.92 1454.32 1280.71 1454.91 1283.68C1454.91 1283.68 1454.91 1284.27 1454.91 1284.87C1454.91 1284.87 1446.59 1311.04 1422.79 1319.36C1422.79 1319.96 1423.38 1321.15 1423.98 1321.74C1426.36 1325.31 1425.17 1327.09 1421.6 1333.04C1418.62 1337.8 1421 1342.55 1421 1347.31C1420.41 1356.23 1421.6 1364.56 1420.41 1373.48C1419.81 1376.45 1419.81 1377.05 1418.03 1377.05C1417.43 1377.05 1416.24 1377.05 1415.65 1377.05C1415.05 1377.05 1414.46 1377.05 1413.86 1377.05C1412.08 1377.05 1409.7 1377.64 1407.32 1380.02C1400.18 1386.56 1400.18 1398.46 1390.06 1402.62C1385.9 1404.4 1375.19 1409.76 1371.02 1418.68C1371.02 1419.27 1358.53 1488.26 1330.56 1488.85L1334.13 1494.2C1337.11 1498.37 1334.13 1506.1 1325.8 1506.1C1324.02 1506.1 1322.83 1506.1 1320.45 1505.5C1319.85 1506.1 1319.26 1506.1 1318.66 1506.69C1319.26 1511.45 1319.26 1511.45 1312.12 1517.99C1321.04 1530.48 1321.04 1530.48 1321.64 1531.67C1318.66 1531.67 1316.88 1531.67 1315.69 1531.67C1313.9 1531.67 1313.31 1531.67 1312.71 1532.27C1323.42 1561.41 1323.42 1561.41 1328.78 1567.35C1325.21 1584.6 1325.21 1584.6 1365.07 1605.41C1365.07 1605.41 1363.29 1605.41 1360.91 1605.41C1349.01 1605.41 1315.09 1600.66 1279.4 1551.3C1245.48 1503.13 1225.85 1415.11 1225.25 1414.51C1221.68 1396.08 1213.95 1381.81 1203.83 1374.67C1190.74 1365.15 1173.49 1362.77 1160.99 1352.07C1160.4 1351.48 1109.23 1300.93 1096.74 1282.49C1096.14 1281.3 1094.95 1280.11 1094.36 1278.92C1090.19 1271.78 1099.71 1234.32 1099.71 1233.72C1109.23 1212.91 1109.23 1212.91 1108.04 1207.56C1105.07 1196.26 1099.12 1175.44 1089.6 1175.44C1086.03 1175.44 1081.86 1178.42 1077.1 1186.15C1076.51 1186.15 1075.91 1186.15 1075.32 1186.15C1038.43 1186.15 1024.15 1144.52 990.234 1139.76C989.044 1139.76 987.259 1139.17 986.069 1139.17C978.334 1138.57 978.334 1138.57 956.32 1125.49C952.75 1123.7 949.18 1123.11 945.61 1123.11C940.85 1123.11 936.685 1124.3 931.925 1124.3C930.14 1124.3 928.355 1124.3 925.975 1123.7C916.456 1121.32 906.341 1120.13 896.821 1117.16C893.846 1116.57 890.871 1114.78 887.897 1113.59C886.707 1113 884.327 1112.4 883.137 1111.21C873.617 1104.67 875.997 1093.37 871.237 1084.45C865.882 1073.75 853.983 1068.4 847.438 1058.29C842.083 1050.55 836.133 1044.01 831.373 1036.28C828.993 1032.71 827.803 1026.77 826.613 1022.01C824.828 1014.87 823.638 1008.92 811.739 1000.6C821.258 1039.25 826.613 1046.99 831.968 1054.12C842.678 1069.58 840.893 1073.15 838.513 1076.13C838.513 1076.13 814.714 1045.2 811.144 1038.66C812.929 1038.66 815.309 1038.66 817.689 1038.66C790.914 983.352 790.914 983.352 789.129 983.352C776.635 961.943 783.18 845.975 801.624 822.782C803.409 823.376 805.194 824.566 806.979 825.755C806.979 820.998 805.789 816.835 804.004 812.672C804.004 813.266 804.004 813.861 804.004 815.05C804.004 815.645 804.004 816.835 803.409 818.024C802.814 819.213 802.219 819.808 801.624 820.403C801.624 820.403 801.624 820.403 801.029 820.403C799.839 820.403 798.054 819.808 796.864 816.835C795.079 811.482 796.864 804.941 796.864 804.941C797.459 804.941 798.054 807.319 798.054 807.914C798.649 809.103 798.649 809.103 798.649 809.698C798.649 809.698 799.244 810.293 799.839 810.293C801.029 810.293 802.219 810.888 802.814 810.888C801.624 806.725 800.434 802.562 801.029 798.399C804.599 779.368 804.599 779.368 808.169 768.663C807.574 768.069 806.979 766.879 806.384 765.69C806.979 763.311 808.169 760.338 808.764 758.553C809.954 750.822 809.954 750.822 821.259 723.466C821.259 724.06 820.663 724.061 820.663 724.655C836.728 697.299 837.918 696.704 874.807 648.533C883.137 639.018 895.036 625.934 903.366 616.419C902.771 617.013 902.176 618.203 901.581 619.392C915.266 605.714 926.57 597.388 926.57 597.388C921.811 602.146 916.456 606.309 911.101 611.066C926.57 597.983 926.57 597.983 934.9 590.252C930.14 596.199 930.14 596.199 928.355 599.767C931.33 596.793 931.33 596.793 933.71 595.604C933.115 596.199 932.52 597.983 931.925 598.577C934.9 596.793 936.685 593.82 940.255 592.63C940.85 593.225 942.04 594.415 942.635 595.009C944.42 595.009 945.61 595.604 946.8 595.604C947.99 595.604 948.585 595.604 949.775 595.009C950.37 595.009 950.965 595.604 950.965 595.604C949.775 600.956 944.42 602.146 941.445 605.119C942.04 605.119 942.635 605.119 943.23 605.119C949.775 605.119 955.13 600.362 961.674 599.172C962.269 602.74 958.699 605.714 960.484 609.877C968.219 595.009 972.384 587.278 985.474 583.71C986.664 585.494 986.664 587.278 987.259 589.062C989.044 589.062 990.828 589.062 992.613 589.062C1004.51 589.062 1008.08 586.683 1008.68 586.089C1018.79 578.358 1021.17 576.573 1023.55 576.573C1024.15 576.573 1024.74 576.573 1025.93 577.168C1018.79 584.899 1018.79 584.899 1022.96 588.468C1027.12 578.952 1037.83 576.573 1042.59 567.653C1042 567.653 1041.4 567.653 1041.4 567.058C1041.4 567.058 1041.4 567.058 1041.4 565.869C1043.78 563.49 1044.38 562.895 1049.73 560.516C1049.73 559.922 1049.73 559.327 1049.14 558.732C1046.76 558.732 1044.38 559.327 1042 559.327C1042 558.732 1041.4 558.138 1041.4 557.543C1041.4 556.948 1072.94 514.129 1095.55 508.777C1096.74 506.993 1097.93 506.398 1098.52 506.398ZM1098.52 503.425C1097.33 503.425 1096.74 503.425 1094.36 504.019C1069.96 509.966 1038.43 553.975 1037.83 554.569L1037.24 555.759L1037.83 556.948L1038.43 558.138V558.732L1039.02 560.516C1038.43 560.516 1038.43 561.111 1037.83 561.706L1037.24 562.3V563.49V564.679V566.463C1035.45 568.842 1033.07 570.626 1030.69 572.41C1030.69 572.41 1030.1 572.411 1030.1 573.005L1025.93 571.816C1024.74 571.816 1024.15 571.221 1022.96 571.221C1019.39 571.221 1017.6 573.005 1006.3 581.331C1006.3 581.331 1003.32 583.71 992.019 583.71C990.829 583.71 989.639 583.71 988.449 583.71C988.449 582.52 987.854 581.331 986.664 580.142L985.474 578.358L983.689 578.952C973.574 581.331 968.814 586.089 964.054 594.415L961.079 595.009C958.104 595.604 955.13 596.793 952.155 597.983C952.75 596.793 953.345 596.199 953.345 595.009L953.94 592.63L952.155 591.441H951.56L950.37 590.846L949.18 590.252L947.99 590.846C946.8 591.441 946.8 591.441 946.205 591.441C945.61 591.441 945.015 591.441 943.825 591.441C943.23 590.846 942.635 590.252 942.04 589.657L941.445 589.062L949.18 579.547L940.85 585.494L934.9 589.062L933.115 587.278C930.14 590.252 928.355 592.036 925.975 593.82L924.785 594.415C924.19 594.415 914.076 602.146 900.986 615.229L900.391 614.635L894.441 621.176L871.832 646.749C834.348 695.515 833.753 696.109 817.094 723.466V724.06C806.384 750.822 806.384 750.822 805.194 758.553C804.599 760.932 803.409 763.311 802.814 765.69L802.219 766.879L802.814 768.069L804.004 769.853C801.029 779.963 800.434 780.558 796.864 798.993C796.269 800.778 796.269 802.562 796.269 803.751H795.674L793.889 803.156L793.294 803.751H792.104L791.509 805.535C791.509 805.535 789.724 812.672 791.509 819.213C792.699 822.187 794.484 823.971 795.674 824.566C776.635 851.327 770.685 964.916 783.775 987.515L784.37 988.705H784.965C786.749 991.083 792.699 1002.98 809.954 1038.07C809.359 1038.07 808.764 1038.07 808.169 1038.07H804.004L805.789 1042.23C809.359 1049.36 833.158 1080.29 833.158 1080.29L835.538 1083.26L837.918 1080.29C840.893 1075.53 842.678 1070.77 831.373 1054.72C827.208 1048.77 821.854 1041.63 814.119 1011.3C818.879 1016.06 819.474 1020.22 820.663 1024.98C821.853 1030.33 823.043 1036.28 826.018 1040.44C828.993 1045.2 831.968 1049.36 835.538 1053.53C837.918 1056.5 840.298 1059.47 842.083 1062.45C845.058 1067.21 849.223 1070.77 853.388 1074.34C858.147 1078.51 862.907 1082.67 865.287 1088.02C866.477 1090.99 867.667 1093.97 868.262 1097.54C869.452 1104.08 871.237 1111.21 877.782 1115.97C878.972 1117.16 880.757 1117.76 882.542 1118.35H883.137C884.327 1118.95 884.922 1118.95 886.112 1119.54C887.897 1120.73 890.276 1121.32 892.061 1121.92C897.416 1123.11 902.771 1124.3 908.126 1125.49C912.291 1126.08 917.051 1127.27 921.216 1128.46C923 1129.06 925.38 1129.06 927.76 1129.06C930.14 1129.06 932.52 1129.06 934.9 1128.46C937.28 1128.46 939.065 1127.87 941.445 1127.87C945.015 1127.87 947.99 1128.46 950.37 1130.24C972.384 1142.73 972.979 1143.33 981.309 1143.92C982.499 1143.92 983.689 1144.52 984.879 1144.52C999.753 1146.9 1011.06 1156.41 1022.96 1167.12C1036.64 1179.01 1050.33 1191.5 1070.56 1191.5C1071.15 1191.5 1071.75 1191.5 1072.34 1191.5H1074.13L1074.72 1190.31C1078.29 1184.36 1081.86 1180.79 1084.84 1180.79C1090.19 1180.79 1096.14 1192.09 1100.31 1211.12C1101.5 1215.29 1101.5 1215.29 1091.98 1234.91C1091.98 1235.51 1081.86 1274.16 1086.62 1282.49L1087.22 1283.08C1087.81 1284.27 1088.41 1285.46 1089 1286.65C1101.5 1305.09 1153.26 1356.23 1153.85 1356.83C1160.99 1362.77 1169.32 1366.34 1177.65 1369.91C1184.79 1372.88 1190.74 1375.26 1196.69 1379.43C1206.21 1385.97 1213.35 1399.65 1216.92 1417.49C1216.92 1418.08 1237.15 1507.29 1271.07 1555.46C1306.76 1605.41 1341.27 1610.77 1354.96 1610.77C1357.34 1610.77 1359.72 1610.77 1360.31 1610.17L1366.86 1607.79L1360.31 1604.23C1322.23 1584.6 1322.23 1584.6 1325.21 1569.73L1325.8 1567.95L1324.61 1566.76C1319.85 1561.41 1319.26 1561.41 1310.33 1536.43C1311.52 1536.43 1313.31 1536.43 1315.69 1536.43H1319.26V1532.86C1319.26 1531.08 1319.26 1531.08 1310.93 1519.78C1315.69 1515.61 1316.88 1514.42 1316.88 1510.26C1318.07 1510.26 1319.26 1510.86 1320.45 1510.86C1325.21 1510.86 1329.37 1508.48 1331.75 1504.91C1333.54 1501.34 1333.54 1497.18 1331.75 1494.2L1330.56 1493.02C1356.74 1485.28 1368.05 1427.6 1368.64 1421.65C1372.21 1413.92 1382.33 1409.16 1385.9 1407.38C1393.04 1404.4 1396.01 1398.46 1398.39 1393.1C1400.18 1389.54 1401.37 1386.56 1404.34 1384.18C1406.13 1382.4 1407.91 1382.4 1409.1 1382.4C1409.7 1382.4 1410.29 1382.4 1410.29 1382.4C1411.48 1382.4 1412.67 1382.4 1413.27 1382.4C1418.03 1382.4 1418.03 1378.83 1418.62 1376.45C1419.22 1371.1 1419.22 1365.15 1419.22 1359.8C1419.22 1356.83 1419.22 1353.26 1419.22 1350.29C1419.22 1348.5 1419.22 1346.72 1418.62 1344.93C1418.03 1341.37 1418.03 1339.58 1419.22 1337.2C1422.79 1331.85 1425.17 1328.28 1422.19 1323.52C1445.4 1313.41 1453.13 1287.84 1453.13 1287.84C1453.13 1287.25 1453.13 1286.65 1453.13 1286.06C1452.54 1284.27 1451.94 1282.49 1451.34 1281.3C1450.75 1280.11 1450.16 1279.52 1450.16 1278.33C1450.16 1277.73 1450.75 1275.95 1450.75 1274.76C1451.94 1271.78 1453.72 1266.43 1447.78 1263.46C1446.59 1262.86 1444.8 1262.27 1443.61 1262.27C1442.42 1262.27 1440.64 1262.27 1439.45 1262.86C1438.26 1262.86 1437.66 1263.46 1436.47 1263.46C1435.88 1263.46 1435.88 1263.46 1435.88 1263.46C1429.93 1262.27 1424.57 1258.7 1419.81 1255.13C1415.05 1251.56 1409.7 1248.59 1403.75 1246.21C1392.44 1242.64 1380.54 1240.27 1369.24 1237.89C1362.69 1236.7 1356.15 1234.91 1349.6 1233.13C1344.25 1231.34 1341.87 1225.99 1339.49 1221.23C1337.7 1217.67 1335.92 1214.1 1333.54 1211.12H1332.94C1328.18 1208.15 1324.02 1203.99 1319.26 1199.83C1313.9 1195.07 1308.55 1189.72 1302 1186.15C1294.27 1181.98 1285.34 1180.2 1277.61 1179.01C1269.28 1177.82 1260.95 1176.04 1253.81 1171.87C1249.05 1168.9 1244.29 1164.74 1240.13 1160.57C1234.77 1155.22 1228.82 1149.87 1221.68 1146.3C1219.3 1145.11 1216.33 1144.52 1214.54 1143.92C1191.34 1140.35 1169.92 1137.38 1152.07 1137.38C1129.46 1137.38 1103.28 1141.54 1097.33 1174.25C1091.38 1171.87 1084.24 1171.28 1074.72 1171.28C1072.94 1171.28 1071.15 1171.28 1069.37 1171.28C1067.58 1171.28 1065.8 1171.28 1064.01 1171.28C1056.28 1171.28 1047.35 1170.68 1043.78 1166.52C1042 1164.14 1041.4 1161.17 1042 1156.41C1044.38 1137.98 1037.24 1122.51 1034.86 1121.92C1030.69 1119.54 1025.34 1118.35 1019.39 1118.35C1014.63 1118.35 1010.46 1118.95 1006.3 1119.54C1002.13 1120.13 998.563 1120.73 994.993 1120.73C998.563 1109.43 998.563 1107.05 995.588 1100.51C1001.54 1086.83 1001.54 1086.24 1003.92 1073.75V1071.96L1002.73 1070.77C1000.94 1069.58 995.588 1064.83 988.449 1064.83C976.549 1064.83 969.409 1077.32 966.434 1102.29C963.459 1102.89 960.484 1104.67 958.104 1105.86C955.725 1107.65 953.345 1108.84 950.965 1108.84C949.775 1108.84 948.585 1108.24 947.395 1107.65C926.57 1095.75 919.431 1080.29 917.051 1072.56C915.861 1067.8 917.051 1063.04 919.431 1058.29C921.216 1054.12 923.001 1049.96 922.406 1045.2C922.406 1041.63 920.026 1038.66 918.241 1036.28C915.861 1033.31 915.266 1032.12 915.861 1029.74C918.241 1021.41 934.9 1004.17 939.065 1001.19C939.66 1000.6 942.04 999.409 947.99 999.409C956.914 999.409 968.814 1001.79 971.194 1002.38L972.384 1002.98L973.574 1001.79C974.169 1001.19 975.359 1000.6 975.954 999.409L978.334 997.625L975.954 995.246C974.169 993.462 972.384 992.273 970.599 991.678C970.004 991.678 970.004 991.083 969.409 991.083C977.739 988.705 1009.27 985.731 1015.82 985.136C1023.55 989.894 1025.34 997.625 1026.53 1006.55C1028.31 1015.47 1030.1 1026.17 1040.21 1032.12L1042 1033.31L1043.78 1031.52C1058.06 1016.66 1050.33 1002.38 1043.19 989.299C1038.43 980.379 1034.26 972.647 1035.45 964.322C1037.83 950.049 1047.95 942.912 1058.66 935.181C1064.61 931.018 1070.56 926.855 1075.32 921.503L1078.89 917.34L1074.13 916.745H1074.72L1076.51 916.15V914.366V912.582V910.798V908.419L1074.13 907.825H1073.53L1074.72 895.93L1076.51 894.741C1079.48 892.957 1079.48 892.362 1081.27 872.737L1082.46 879.279L1086.62 872.737C1088.41 869.763 1089 866.195 1090.19 862.627C1091.38 858.464 1091.98 854.896 1094.95 851.922C1097.93 850.138 1117.56 839.433 1121.13 838.839H1123.51L1124.1 836.46C1126.48 815.645 1126.48 815.051 1137.19 804.941C1139.57 804.941 1142.55 803.156 1171.7 785.91H1172.3C1172.89 785.91 1174.08 786.505 1175.87 787.099C1156.23 800.778 1156.23 801.372 1155.64 806.725V809.698H1158.61C1169.92 809.698 1197.29 796.02 1208 779.963C1212.76 773.421 1213.95 766.285 1211.57 760.932L1210.38 757.364L1207.4 759.148C1202.64 762.122 1200.86 766.879 1199.67 771.042C1199.07 772.232 1198.48 774.016 1197.88 775.205C1196.69 774.611 1195.5 774.61 1194.31 774.016C1194.91 773.421 1195.5 772.232 1195.5 772.232V771.637L1196.1 769.853L1195.5 769.258L1194.91 768.663L1194.31 768.069H1193.72C1193.72 768.069 1193.12 768.069 1192.53 768.069C1192.53 768.069 1191.93 768.069 1191.34 768.069C1190.15 768.069 1188.96 768.069 1187.77 768.069C1184.79 768.069 1183.6 767.474 1183.01 766.879C1181.22 766.285 1181.22 765.69 1181.82 764.5C1181.82 763.906 1181.82 762.122 1180.63 760.932L1178.84 759.743L1177.06 760.932L1176.46 761.527L1175.87 762.122C1175.87 762.716 1175.27 763.906 1174.68 765.69C1174.08 764.5 1172.89 762.122 1172.3 759.148L1171.7 757.959L1170.51 757.364C1169.32 756.769 1168.73 756.769 1168.13 756.175C1173.49 754.39 1178.25 751.417 1179.44 744.28L1180.03 742.496L1178.84 741.307C1177.65 740.117 1176.46 738.928 1173.49 738.928C1169.32 738.928 1163.37 742.496 1137.19 758.553C1158.61 737.144 1163.97 735.36 1194.31 726.439C1195.5 727.034 1197.29 727.629 1199.67 727.629C1214.54 727.629 1246.08 710.977 1252.03 700.272L1252.62 699.083L1252.03 697.893C1250.24 694.325 1250.24 694.325 1253.22 688.378L1253.81 687.189L1253.22 685.999L1252.62 684.81C1252.03 684.215 1252.03 683.621 1251.43 683.026L1250.84 681.836H1249.65L1247.27 681.242C1244.89 680.647 1242.51 680.052 1240.13 679.458H1238.34L1255 672.916L1238.94 674.105C1238.94 674.105 1238.94 673.51 1238.34 673.51C1236.56 670.537 1229.42 666.374 1221.09 666.374C1219.3 666.374 1216.92 666.374 1215.14 666.969C1215.14 665.185 1215.73 663.4 1213.95 661.616C1212.16 659.238 1209.78 658.643 1208 658.048C1206.81 657.453 1206.21 657.453 1205.62 656.859C1206.21 656.264 1206.21 655.669 1206.81 655.075C1210.38 649.722 1209.78 648.533 1203.83 638.423C1194.31 621.771 1191.34 616.419 1187.17 616.419C1183.6 616.419 1181.22 619.987 1178.25 626.529C1177.06 628.313 1177.65 630.692 1178.25 631.881V632.476C1177.65 632.476 1177.06 632.476 1177.06 632.476C1175.27 632.476 1172.89 632.476 1171.11 635.449C1168.73 638.423 1167.54 640.207 1166.94 640.802C1166.35 640.802 1165.16 641.396 1164.56 641.396C1161.59 641.396 1159.21 640.207 1156.83 638.423C1155.04 637.828 1153.26 636.639 1151.47 636.044C1151.47 632.476 1153.85 623.555 1156.23 621.771L1160.4 618.203L1155.04 616.419C1153.85 615.824 1152.07 615.824 1150.88 615.824C1150.28 615.824 1149.09 615.824 1148.5 615.824C1147.9 615.824 1147.31 615.824 1146.12 615.824C1144.93 615.824 1144.33 615.824 1143.74 615.229C1143.74 615.229 1143.14 614.635 1142.55 613.445C1141.36 611.661 1139.57 609.877 1130.05 606.903C1128.86 606.309 1127.67 606.309 1126.48 606.309C1125.89 606.309 1125.29 606.309 1124.7 606.309C1121.13 607.498 1117.56 607.498 1113.39 607.498C1108.04 607.498 1102.69 608.093 1097.33 610.472L1094.95 611.661L1095.55 614.04C1096.14 616.419 1094.95 619.392 1093.76 621.771C1091.98 625.934 1089.6 631.286 1093.17 637.233C1092.57 637.828 1091.98 638.423 1091.38 639.018C1089.6 640.802 1087.22 643.18 1087.22 646.749C1087.22 650.317 1089 653.29 1090.19 655.669C1091.38 657.453 1092.57 659.238 1092.57 660.427C1092.57 660.427 1092.57 678.863 1083.05 681.242C1080.08 681.836 1075.91 683.62 1074.13 686.594C1073.53 687.783 1072.94 688.973 1072.94 690.162C1072.34 690.757 1071.75 690.757 1071.15 691.946L1070.56 692.541V693.73C1069.37 698.488 1069.37 703.246 1069.96 707.409C1070.56 715.14 1070.56 721.682 1065.2 727.034C1062.23 723.466 1058.06 721.682 1054.49 719.303C1052.71 718.708 1051.52 717.519 1050.33 716.924C1052.71 709.193 1051.52 705.625 1050.33 701.462C1050.92 700.867 1051.52 700.272 1052.11 700.272L1053.9 699.083L1053.3 697.299C1053.3 696.704 1053.3 696.109 1053.3 695.515L1052.71 693.73H1050.92C1050.33 693.73 1049.14 693.73 1047.95 693.73C1045.57 691.946 1043.19 691.352 1040.21 691.352C1038.43 691.352 1036.64 691.352 1035.45 691.946C1034.26 691.946 1032.48 692.541 1031.29 692.541C1030.69 692.541 1029.5 692.541 1028.91 692.541C1026.53 691.946 1024.15 690.162 1021.77 687.783C1019.39 685.405 1017.01 683.62 1013.44 682.431C1012.25 681.836 1010.46 681.836 1009.27 681.242C1008.68 681.242 1008.08 681.242 1006.89 681.242C1003.32 681.242 1000.35 683.026 997.968 684.215C997.373 684.81 996.183 684.81 995.588 685.405C994.993 683.62 994.398 680.052 993.803 674.7C992.613 668.753 990.829 668.158 983.094 667.563C984.879 655.669 1015.22 633.07 1025.34 625.339L1027.12 624.15L1026.53 621.771C1025.93 620.582 1025.93 619.987 1025.34 619.392C1043.19 615.824 1045.57 614.04 1059.25 599.172L1065.2 592.63L1062.82 593.225C1065.2 592.036 1066.99 590.252 1068.77 587.278L1070.56 584.899L1069.37 584.305C1069.96 584.305 1069.96 584.305 1070.56 584.305C1071.15 584.305 1071.75 584.305 1072.34 584.899L1073.53 585.494L1074.72 584.899C1092.57 578.358 1092.57 578.358 1097.33 574.195C1098.52 573.005 1099.71 571.221 1100.9 570.032C1102.69 567.653 1102.09 564.679 1101.5 562.895C1101.5 561.706 1100.9 560.516 1101.5 559.922C1102.09 559.327 1102.69 558.732 1103.88 558.138C1105.07 557.543 1106.85 556.948 1108.04 555.759C1109.23 554.569 1109.83 552.785 1109.83 551.596C1109.83 551.001 1110.42 550.406 1110.42 549.812L1111.61 548.028L1109.83 546.243C1108.64 545.054 1103.28 540.296 1097.33 540.296C1093.17 540.296 1087.81 542.675 1085.43 552.785C1082.46 555.164 1079.48 558.732 1077.1 561.706C1074.13 565.869 1070.56 570.626 1067.58 570.626C1066.99 570.626 1066.39 570.626 1065.8 570.032C1066.39 568.842 1068.18 567.653 1069.37 566.463C1071.75 564.085 1074.72 561.111 1074.72 557.543C1074.72 555.759 1074.13 553.38 1072.34 552.191L1071.15 551.001L1069.37 551.596C1067.58 552.19 1066.39 552.785 1065.2 553.975L1062.82 552.785C1062.23 552.785 1062.23 552.785 1060.44 552.191C1068.77 538.512 1068.77 537.918 1068.77 535.539V534.349L1068.18 533.755C1072.94 527.213 1075.32 525.429 1100.31 510.561L1108.04 505.803L1099.12 504.614C1099.71 504.019 1099.12 503.425 1098.52 503.425Z" fill="#D1D1D1"/>
<path opacity="0.7573" d="M979.21 159.453C978.806 159.223 978.565 158.915 978.323 158.453C978.081 157.992 978 157.453 978 156.838C978 156.223 978.081 155.684 978.323 155.223C978.565 154.761 978.806 154.453 979.21 154.223C979.613 153.992 980.016 153.838 980.5 153.838C980.984 153.838 981.387 153.992 981.79 154.223C982.194 154.453 982.435 154.761 982.677 155.223C982.919 155.684 983 156.223 983 156.838C983 157.453 982.919 157.992 982.677 158.453C982.435 158.915 982.194 159.223 981.79 159.453C981.387 159.684 980.984 159.838 980.5 159.838C980.016 159.838 979.532 159.684 979.21 159.453ZM981.629 158.53C981.952 158.146 982.032 157.607 982.032 156.838C982.032 156.146 981.871 155.53 981.629 155.146C981.306 154.838 980.984 154.684 980.5 154.684C980.016 154.684 979.613 154.838 979.29 155.223C978.968 155.607 978.887 156.146 978.887 156.915C978.887 157.607 979.048 158.223 979.29 158.607C979.613 158.992 979.935 159.146 980.5 159.146C980.984 159.069 981.306 158.915 981.629 158.53Z" fill="#00DEF2"/>
<path opacity="0.7573" d="M838.21 358.453C837.806 358.223 837.565 357.915 837.323 357.453C837.081 356.992 837 356.453 837 355.838C837 355.223 837.081 354.684 837.323 354.223C837.565 353.761 837.806 353.453 838.21 353.223C838.613 352.992 839.016 352.838 839.5 352.838C839.984 352.838 840.387 352.992 840.79 353.223C841.194 353.453 841.435 353.761 841.677 354.223C841.919 354.684 842 355.223 842 355.838C842 356.453 841.919 356.992 841.677 357.453C841.435 357.915 841.194 358.223 840.79 358.453C840.387 358.684 839.984 358.838 839.5 358.838C839.016 358.838 838.532 358.684 838.21 358.453ZM840.629 357.53C840.952 357.146 841.032 356.607 841.032 355.838C841.032 355.146 840.871 354.53 840.629 354.146C840.306 353.838 839.984 353.684 839.5 353.684C839.016 353.684 838.613 353.838 838.29 354.223C837.968 354.607 837.887 355.146 837.887 355.915C837.887 356.607 838.048 357.223 838.29 357.607C838.613 357.992 838.935 358.146 839.5 358.146C839.984 358.069 840.306 357.915 840.629 357.53Z" fill="#00DEF2"/>
<path opacity="0.7573" d="M1063.21 462.453C1062.81 462.223 1062.56 461.915 1062.32 461.453C1062.08 460.992 1062 460.453 1062 459.838C1062 459.223 1062.08 458.684 1062.32 458.223C1062.56 457.761 1062.81 457.453 1063.21 457.223C1063.61 456.992 1064.02 456.838 1064.5 456.838C1064.98 456.838 1065.39 456.992 1065.79 457.223C1066.19 457.453 1066.44 457.761 1066.68 458.223C1066.92 458.684 1067 459.223 1067 459.838C1067 460.453 1066.92 460.992 1066.68 461.453C1066.44 461.915 1066.19 462.223 1065.79 462.453C1065.39 462.684 1064.98 462.838 1064.5 462.838C1064.02 462.838 1063.53 462.684 1063.21 462.453ZM1065.63 461.53C1065.95 461.146 1066.03 460.607 1066.03 459.838C1066.03 459.146 1065.87 458.53 1065.63 458.146C1065.31 457.838 1064.98 457.684 1064.5 457.684C1064.02 457.684 1063.61 457.838 1063.29 458.223C1062.97 458.607 1062.89 459.146 1062.89 459.915C1062.89 460.607 1063.05 461.223 1063.29 461.607C1063.61 461.992 1063.94 462.146 1064.5 462.146C1064.98 462.069 1065.31 461.915 1065.63 461.53Z" fill="#00DEF2"/>
<path opacity="0.7573" d="M925.21 247.453C924.806 247.223 924.565 246.915 924.323 246.453C924.081 245.992 924 245.453 924 244.838C924 244.223 924.081 243.684 924.323 243.223C924.565 242.761 924.806 242.453 925.21 242.223C925.613 241.992 926.016 241.838 926.5 241.838C926.984 241.838 927.387 241.992 927.79 242.223C928.194 242.453 928.435 242.761 928.677 243.223C928.919 243.684 929 244.223 929 244.838C929 245.453 928.919 245.992 928.677 246.453C928.435 246.915 928.194 247.223 927.79 247.453C927.387 247.684 926.984 247.838 926.5 247.838C926.016 247.838 925.532 247.684 925.21 247.453ZM927.629 246.53C927.952 246.146 928.032 245.607 928.032 244.838C928.032 244.146 927.871 243.53 927.629 243.146C927.306 242.838 926.984 242.684 926.5 242.684C926.016 242.684 925.613 242.838 925.29 243.223C924.968 243.607 924.887 244.146 924.887 244.915C924.887 245.607 925.048 246.223 925.29 246.607C925.613 246.992 925.935 247.146 926.5 247.146C926.984 247.069 927.306 246.915 927.629 246.53Z" fill="#00DEF2" fill-opacity="0.3"/>
<path opacity="0.7573" d="M779.903 548.005C778.935 547.505 778.355 546.838 777.774 545.838C777.194 544.838 777 543.671 777 542.338C777 541.005 777.194 539.838 777.774 538.838C778.355 537.838 778.935 537.171 779.903 536.671C780.871 536.171 781.839 535.838 783 535.838C784.161 535.838 785.129 536.171 786.097 536.671C787.065 537.171 787.645 537.838 788.226 538.838C788.806 539.838 789 541.005 789 542.338C789 543.671 788.806 544.838 788.226 545.838C787.645 546.838 787.065 547.505 786.097 548.005C785.129 548.505 784.161 548.838 783 548.838C781.839 548.838 780.677 548.505 779.903 548.005ZM785.71 546.005C786.484 545.171 786.677 544.005 786.677 542.338C786.677 540.838 786.29 539.505 785.71 538.671C784.935 538.005 784.161 537.671 783 537.671C781.839 537.671 780.871 538.005 780.097 538.838C779.323 539.671 779.129 540.838 779.129 542.505C779.129 544.005 779.516 545.338 780.097 546.171C780.871 547.005 781.645 547.338 783 547.338C784.161 547.171 784.935 546.838 785.71 546.005Z" fill="#00DEF2"/>
<path opacity="0.7573" d="M1451.21 373.906C1450.81 373.698 1450.56 373.42 1450.32 373.003C1450.08 372.587 1450 372.101 1450 371.545C1450 370.99 1450.08 370.504 1450.32 370.088C1450.56 369.671 1450.81 369.393 1451.21 369.185C1451.61 368.977 1452.02 368.838 1452.5 368.838C1452.98 368.838 1453.39 368.977 1453.79 369.185C1454.19 369.393 1454.44 369.671 1454.68 370.088C1454.92 370.504 1455 370.99 1455 371.545C1455 372.101 1454.92 372.587 1454.68 373.003C1454.44 373.42 1454.19 373.698 1453.79 373.906C1453.39 374.114 1452.98 374.253 1452.5 374.253C1452.02 374.253 1451.53 374.114 1451.21 373.906ZM1453.63 373.073C1453.95 372.726 1454.03 372.24 1454.03 371.545C1454.03 370.921 1453.87 370.365 1453.63 370.018C1453.31 369.74 1452.98 369.602 1452.5 369.602C1452.02 369.602 1451.61 369.74 1451.29 370.088C1450.97 370.435 1450.89 370.921 1450.89 371.615C1450.89 372.24 1451.05 372.795 1451.29 373.142C1451.61 373.489 1451.94 373.628 1452.5 373.628C1452.98 373.559 1453.31 373.42 1453.63 373.073Z" fill="#00DEF2"/>
</g>
</g>
<defs>
<radialGradient id="paint0_radial" cx="0" cy="0" r="1" gradientUnits="userSpaceOnUse" gradientTransform="translate(1347.74 1033.07) scale(995.763 995.165)">
<stop offset="0.4554"/>
<stop offset="0.4981" stop-color="#000203"/>
<stop offset="0.526" stop-color="#00070B"/>
<stop offset="0.5498" stop-color="#000F1A"/>
<stop offset="0.5712" stop-color="#001C30"/>
<stop offset="0.5909" stop-color="#002B4B"/>
<stop offset="0.6089" stop-color="#003E6B"/>
<stop offset="0.6296" stop-color="#00375F"/>
<stop offset="0.7005" stop-color="#00233D"/>
<stop offset="0.7728" stop-color="#001422"/>
<stop offset="0.846" stop-color="#00090F"/>
<stop offset="0.921" stop-color="#000204"/>
<stop offset="1"/>
</radialGradient>
<clipPath id="clip0">
<rect width="1577" height="994" fill="white"/>
</clipPath>
<clipPath id="clip1">
<rect width="1667" height="909" fill="white" transform="translate(514 84.8379)"/>
</clipPath>
</defs>
</svg>
