<svg width="1920" height="1189" viewBox="0 149 1920 1189" fill="none" xmlns="http://www.w3.org/2000/svg">
<g clip-path="url(#clip0_2_1941)">
<path d="M650.757 577.487H613.393C613.393 577.487 617.193 568.176 646.113 571.35C646.113 571.35 660.468 554.845 681.578 554.845C681.578 554.845 682.211 541.936 696.565 539.185C710.92 536.434 713.664 549.343 713.664 549.343C713.664 549.343 724.219 543.629 738.574 549.343C752.928 555.056 749.973 571.562 749.973 571.562C749.973 571.562 791.137 570.292 798.103 577.699H776.993" stroke="#CBE9FF" stroke-width="2" stroke-miterlimit="10" stroke-linecap="round" stroke-linejoin="round"/>
<path d="M657.091 577.487H663.423" stroke="#CBE9FF" stroke-width="2" stroke-miterlimit="10" stroke-linecap="round" stroke-linejoin="round"/>
<path d="M697.621 577.487H754.617" stroke="#CBE9FF" stroke-width="2" stroke-miterlimit="10" stroke-linecap="round" stroke-linejoin="round"/>
<path d="M1209.48 790.798H1155.01C1155.01 790.798 1158.18 782.968 1182.88 785.507C1182.88 785.507 1195.12 771.329 1213.06 771.329C1213.06 771.329 1213.7 760.326 1225.94 757.998C1238.19 755.67 1240.51 766.674 1240.51 766.674C1240.51 766.674 1249.58 761.807 1261.83 766.674C1274.07 771.541 1271.54 785.507 1271.54 785.507C1271.54 785.507 1306.58 784.449 1312.7 790.798H1299.61" stroke="#CBE9FF" stroke-width="2" stroke-miterlimit="10" stroke-linecap="round" stroke-linejoin="round"/>
<path d="M1222.35 790.586H1230.16" stroke="#CBE9FF" stroke-width="2" stroke-miterlimit="10" stroke-linecap="round" stroke-linejoin="round"/>
<path d="M964.447 417.509H909.984C909.984 417.509 913.151 409.679 937.849 412.218C937.849 412.218 950.093 398.04 968.036 398.04C968.036 398.04 968.669 387.037 980.913 384.709C993.156 382.381 995.478 393.385 995.478 393.385C995.478 393.385 1004.56 388.518 1016.8 393.385C1029.04 398.252 1026.51 412.218 1026.51 412.218C1026.51 412.218 1061.55 411.16 1067.67 417.509H1054.59" stroke="url(#paint0_linear_2_1941)" stroke-miterlimit="10" stroke-linecap="round" stroke-linejoin="round"/>
<path d="M977.113 417.297H984.923" stroke="url(#paint1_linear_2_1941)" stroke-miterlimit="10" stroke-linecap="round" stroke-linejoin="round"/>
<path d="M812.246 885.381H676.299C686.432 874.589 745.539 876.493 745.539 876.493C745.539 876.493 741.317 852.793 761.794 844.752C782.27 836.71 797.469 844.752 797.469 844.752C797.469 844.752 801.48 826.341 822.167 830.362C842.855 834.383 843.91 852.793 843.91 852.793C874.097 852.793 894.784 876.705 894.784 876.705C936.371 872.261 941.859 885.593 941.859 885.593H926.66" stroke="url(#paint2_linear_2_1941)" stroke-miterlimit="10" stroke-linecap="round" stroke-linejoin="round"/>
<path d="M944.709 885.381H939.01" stroke="url(#paint3_linear_2_1941)" stroke-miterlimit="10" stroke-linecap="round" stroke-linejoin="round"/>
<path d="M865.126 885.381H884.969" stroke="url(#paint4_linear_2_1941)" stroke-miterlimit="10" stroke-linecap="round" stroke-linejoin="round"/>
<path d="M1274.55 558.442H1289.54" stroke="#CBE9FF" stroke-miterlimit="10" stroke-linecap="round" stroke-linejoin="round"/>
</g>
<path d="M1549.47 678.102H1386.92C1386.92 678.102 1393.68 661.385 1445.82 667.099C1445.82 667.099 1471.78 637.261 1509.78 637.261C1509.78 637.261 1511.05 613.984 1537.01 609.117C1562.98 604.038 1567.83 627.316 1567.83 627.316C1567.83 627.316 1587.04 617.158 1612.59 627.316C1638.34 637.473 1633.06 667.099 1633.06 667.099C1633.06 667.099 1707.16 664.771 1719.82 678.314H1682.25" stroke="#CBE9FF" stroke-miterlimit="10" stroke-linecap="round" stroke-linejoin="round"/>
<path d="M-209.246 780.586C-103.632 728.746 76.1392 687.127 148.614 745.056C227.786 808.337 273.027 929.28 314.723 961.396C336.988 981.917 400.431 1012.46 476.089 970.469" stroke="url(#paint5_linear_2_1941)" stroke-width="3" stroke-dasharray="10 10"/>
<path d="M1976.42 258.823L1977.15 257.51L1974.52 256.061L1973.79 257.374L1976.42 258.823ZM1398.52 359.403L1398.96 360.838L1398.52 359.403ZM1174.7 557.417C1174.36 558.172 1174.7 559.06 1175.45 559.4C1176.21 559.741 1177.1 559.404 1177.44 558.649L1174.7 557.417ZM1973.79 257.374C1972.99 258.834 1972.15 260.27 1971.28 261.682L1973.84 263.252C1974.73 261.8 1975.59 260.324 1976.42 258.823L1973.79 257.374ZM1965.72 269.872C1963.74 272.519 1961.64 275.073 1959.42 277.538L1961.65 279.543C1963.93 277.013 1966.08 274.39 1968.12 271.671L1965.72 269.872ZM1952.49 284.625C1950.08 286.886 1947.57 289.064 1944.96 291.162L1946.83 293.502C1949.51 291.357 1952.08 289.127 1954.54 286.81L1952.49 284.625ZM1937.01 297.081C1934.31 298.948 1931.52 300.744 1928.64 302.472L1930.18 305.044C1933.12 303.285 1935.96 301.454 1938.72 299.548L1937.01 297.081ZM1919.9 307.372C1917.01 308.888 1914.04 310.344 1910.99 311.743L1912.25 314.468C1915.33 313.049 1918.35 311.571 1921.29 310.03L1919.9 307.372ZM1901.79 315.716C1898.74 316.95 1895.63 318.132 1892.46 319.266L1893.48 322.091C1896.68 320.944 1899.83 319.747 1902.91 318.497L1901.79 315.716ZM1882.99 322.458C1879.83 323.458 1876.62 324.415 1873.36 325.33L1874.17 328.218C1877.46 327.295 1880.7 326.328 1883.89 325.318L1882.99 322.458ZM1863.72 327.883C1860.49 328.689 1857.22 329.457 1853.9 330.19L1854.55 333.119C1857.89 332.381 1861.19 331.606 1864.45 330.794L1863.72 327.883ZM1844.15 332.223C1840.87 332.866 1837.56 333.478 1834.21 334.059L1834.73 337.015C1838.1 336.43 1841.43 335.814 1844.73 335.167L1844.15 332.223ZM1824.39 335.667C1821.08 336.175 1817.75 336.656 1814.39 337.111L1814.79 340.084C1818.17 339.626 1821.52 339.143 1824.84 338.632L1824.39 335.667ZM1804.49 338.369C1801.17 338.765 1797.82 339.137 1794.45 339.488L1794.77 342.472C1798.15 342.12 1801.51 341.745 1804.85 341.348L1804.49 338.369ZM1784.52 340.456C1781.18 340.758 1777.83 341.04 1774.46 341.304L1774.7 344.295C1778.08 344.03 1781.44 343.747 1784.79 343.443L1784.52 340.456ZM1764.48 342.03C1761.15 342.254 1757.8 342.461 1754.43 342.653L1754.6 345.648C1757.98 345.456 1761.34 345.248 1764.68 345.023L1764.48 342.03ZM1744.41 343.177C1741.08 343.337 1737.72 343.482 1734.36 343.615L1734.48 346.613C1737.85 346.48 1741.21 346.334 1744.56 346.174L1744.41 343.177ZM1724.32 343.972C1720.98 344.078 1717.63 344.173 1714.27 344.257L1714.35 347.256C1717.71 347.172 1721.07 347.077 1724.42 346.97L1724.32 343.972ZM1704.22 344.476C1700.87 344.539 1697.52 344.593 1694.17 344.638L1694.21 347.637C1697.57 347.592 1700.92 347.539 1704.27 347.476L1704.22 344.476ZM1684.11 344.747C1680.76 344.776 1677.41 344.797 1674.06 344.812L1674.07 347.812C1677.43 347.797 1680.78 347.776 1684.13 347.747L1684.11 344.747ZM1664 344.837C1660.64 344.839 1657.29 344.836 1653.94 344.828L1653.93 347.828C1657.28 347.836 1660.64 347.839 1664 347.837L1664 344.837ZM1643.89 344.792C1640.52 344.776 1637.17 344.756 1633.81 344.734L1633.79 347.734C1637.15 347.756 1640.51 347.776 1643.87 347.792L1643.89 344.792ZM1623.76 344.659C1620.4 344.633 1617.04 344.604 1613.69 344.575L1613.66 347.575C1617.02 347.604 1620.37 347.633 1623.74 347.659L1623.76 344.659ZM1603.63 344.486C1600.27 344.456 1596.91 344.427 1593.57 344.399L1593.54 347.399C1596.89 347.427 1600.24 347.456 1603.61 347.486L1603.63 344.486ZM1583.5 344.32C1580.13 344.295 1576.78 344.274 1573.45 344.255L1573.43 347.255C1576.76 347.274 1580.11 347.295 1583.48 347.32L1583.5 344.32ZM1563.36 344.213C1560 344.203 1556.65 344.198 1553.32 344.199L1553.32 347.199C1556.65 347.198 1559.99 347.203 1563.35 347.213L1563.36 344.213ZM1543.22 344.222C1539.85 344.237 1536.51 344.26 1533.19 344.291L1533.22 347.291C1536.53 347.26 1539.87 347.237 1543.23 347.222L1543.22 344.222ZM1523.07 344.417C1519.7 344.469 1516.36 344.532 1513.05 344.607L1513.12 347.606C1516.42 347.532 1519.76 347.469 1523.12 347.417L1523.07 344.417ZM1502.93 344.878C1499.55 344.983 1496.2 345.103 1492.89 345.238L1493.02 348.236C1496.32 348.101 1499.65 347.981 1503.02 347.877L1502.93 344.878ZM1482.79 345.71C1479.4 345.888 1476.05 346.086 1472.74 346.305L1472.94 349.299C1476.23 349.081 1479.57 348.884 1482.95 348.706L1482.79 345.71ZM1462.69 347.049C1459.27 347.329 1455.91 347.636 1452.6 347.97L1452.9 350.955C1456.19 350.623 1459.53 350.318 1462.93 350.039L1462.69 347.049ZM1442.67 349.082C1439.23 349.507 1435.85 349.966 1432.55 350.464L1433 353.43C1436.27 352.937 1439.62 352.481 1443.03 352.06L1442.67 349.082ZM1422.61 352.12C1419.23 352.739 1415.94 353.405 1412.75 354.121L1413.4 357.048C1416.56 356.342 1419.81 355.683 1423.15 355.071L1422.61 352.12ZM1402.83 356.588C1401.22 357.032 1399.63 357.493 1398.08 357.969L1398.96 360.838C1400.49 360.37 1402.04 359.917 1403.63 359.48L1402.83 356.588ZM1398.08 357.969C1396.4 358.483 1394.74 359.001 1393.08 359.524L1393.99 362.384C1395.63 361.864 1397.29 361.349 1398.96 360.838L1398.08 357.969ZM1383.26 362.736C1379.96 363.853 1376.71 364.988 1373.51 366.142L1374.53 368.964C1377.7 367.817 1380.94 366.689 1384.22 365.578L1383.26 362.736ZM1363.78 369.774C1360.51 371.036 1357.3 372.318 1354.14 373.62L1355.29 376.393C1358.42 375.1 1361.61 373.827 1364.86 372.573L1363.78 369.774ZM1344.61 377.694C1341.41 379.11 1338.27 380.549 1335.19 382.008L1336.47 384.719C1339.53 383.271 1342.65 381.844 1345.83 380.438L1344.61 377.694ZM1325.89 386.575C1322.76 388.162 1319.71 389.773 1316.71 391.407L1318.15 394.04C1321.12 392.421 1324.15 390.823 1327.25 389.249L1325.89 386.575ZM1307.69 396.515C1304.67 398.287 1301.72 400.085 1298.83 401.908L1300.43 404.444C1303.29 402.639 1306.21 400.858 1309.21 399.102L1307.69 396.515ZM1290.15 407.593C1287.25 409.561 1284.43 411.556 1281.67 413.577L1283.44 415.997C1286.17 413.997 1288.97 412.023 1291.83 410.074L1290.15 407.593ZM1273.41 419.861C1270.66 422.028 1267.99 424.223 1265.38 426.446L1267.33 428.729C1269.91 426.531 1272.55 424.359 1275.27 422.216L1273.41 419.861ZM1257.61 433.326C1255.05 435.688 1252.55 438.078 1250.11 440.496L1252.22 442.625C1254.63 440.233 1257.1 437.869 1259.64 435.534L1257.61 433.326ZM1242.89 447.945C1240.51 450.492 1238.2 453.067 1235.94 455.67L1238.21 457.634C1240.44 455.058 1242.73 452.511 1245.08 449.992L1242.89 447.945ZM1229.29 463.643C1227.12 466.349 1225 469.083 1222.93 471.844L1225.34 473.641C1227.38 470.907 1229.48 468.201 1231.63 465.522L1229.29 463.643ZM1216.86 480.256C1214.88 483.098 1212.95 485.965 1211.07 488.859L1213.58 490.496C1215.45 487.628 1217.36 484.786 1219.32 481.972L1216.86 480.256ZM1205.54 497.631C1203.74 500.579 1201.98 503.552 1200.26 506.55L1202.86 508.044C1204.57 505.069 1206.31 502.119 1208.1 499.194L1205.54 497.631ZM1195.2 515.596C1193.56 518.626 1191.94 521.678 1190.36 524.753L1193.02 526.128C1194.6 523.071 1196.2 520.038 1197.84 517.028L1195.2 515.596ZM1185.7 534.001C1184.18 537.087 1182.68 540.194 1181.2 543.32L1183.91 544.603C1185.39 541.49 1186.88 538.397 1188.39 535.327L1185.7 534.001ZM1176.84 552.701C1176.13 554.268 1175.41 555.84 1174.7 557.417L1177.44 558.649C1178.15 557.077 1178.86 555.51 1179.57 553.948L1176.84 552.701Z" fill="url(#paint6_linear_2_1941)"/>
<path opacity="0.5" d="M522.578 825.306C522.578 825.306 532.296 816.426 538.988 817.525C540.088 817.708 534.404 828.602 534.404 828.602L522.578 825.306Z" fill="white" stroke="url(#paint7_linear_2_1941)" stroke-width="2" stroke-miterlimit="10"/>
<path d="M522.578 825.306C522.578 825.306 532.296 816.426 538.988 817.525C540.088 817.708 534.404 828.602 534.404 828.602L522.578 825.306Z" fill="white" stroke="url(#paint8_linear_2_1941)" stroke-width="2" stroke-miterlimit="10" stroke-linecap="round" stroke-linejoin="round"/>
<path d="M611.23 863.847C611.23 863.847 611.597 892.958 612.697 897.81C613.797 902.662 617.005 908.063 617.005 908.063C617.005 908.063 613.888 971.778 614.897 974.707C615.905 977.637 620.306 997.868 620.306 997.868L625.348 1075.13H623.515C623.515 1075.13 616.639 1002.26 616.639 1000.06C616.639 997.868 611.23 978.918 611.23 978.918C611.23 978.918 610.496 915.661 611.23 912.091C611.963 908.52 607.013 899 607.013 899C607.013 899 607.104 869.797 605.546 866.868C605.546 866.776 608.663 864.213 611.23 863.847Z" fill="white" stroke="url(#paint9_linear_2_1941)" stroke-width="2" stroke-miterlimit="10" stroke-linecap="round" stroke-linejoin="round"/>
<path opacity="0.3" d="M557.507 945.321C557.507 945.962 557.599 947.61 557.691 949.715C552.465 968.94 545.131 990.27 541.189 993.474C537.155 996.769 517.628 1058.47 517.628 1058.47H504.61C504.61 1058.47 509.835 1041.9 512.861 1020.94C515.886 999.973 525.696 985.601 527.071 982.305C528.538 979.01 532.296 928.935 532.296 928.935C531.471 925.09 531.563 921.153 532.113 917.4C532.846 922.344 535.78 928.569 545.864 930.125C545.864 930.125 543.664 924.449 547.515 918.59C547.515 918.59 545.589 928.843 553.84 933.695C554.207 933.878 554.115 935.343 554.115 935.343C554.115 935.343 557.416 942.85 557.507 945.321Z" fill="white" stroke="url(#paint10_linear_2_1941)" stroke-width="2" stroke-miterlimit="10"/>
<path opacity="0.3" d="M581.16 902.021C577.768 904.035 570.525 906.415 555.124 905.774C555.124 905.774 551.365 908.612 548.798 913.281L547.331 912.091C547.331 912.091 540.272 916.119 532.571 914.105C534.588 904.95 538.897 897.81 538.897 897.81H579.877C580.427 899.091 580.793 900.556 581.16 902.021Z" fill="white" stroke="url(#paint11_linear_2_1941)" stroke-width="2" stroke-miterlimit="10"/>
<path d="M538.897 897.81C538.897 897.81 529.087 914.38 532.204 928.935C532.204 928.935 528.445 979.102 526.979 982.306C525.512 985.601 515.702 999.974 512.769 1020.94C509.835 1041.9 504.518 1058.47 504.518 1058.47H517.628C517.628 1058.47 537.155 996.678 541.189 993.474C545.222 990.178 552.556 968.665 557.782 949.35C557.782 949.35 564.841 983.587 567.591 990.087C570.433 996.587 568.05 1015.44 572.084 1027.53C576.026 1039.43 575.751 1058.56 575.751 1058.56C575.751 1058.56 589.411 1061.95 589.227 1058.56C588.402 1035.22 592.986 1015.08 587.21 994.298C584.46 984.594 589.961 928.02 579.968 897.81H538.897V897.81Z" fill="white" stroke="url(#paint12_linear_2_1941)" stroke-width="2" stroke-miterlimit="10" stroke-linecap="round" stroke-linejoin="round"/>
<path d="M549.99 910.718C549.99 910.718 543.206 923.625 550.54 931.315C550.54 931.315 559.891 940.012 569.884 937.998" fill="white"/>
<path d="M549.99 910.718C549.99 910.718 543.206 923.625 550.54 931.315C550.54 931.315 559.891 940.012 569.884 937.998" stroke="url(#paint13_linear_2_1941)" stroke-width="2" stroke-miterlimit="10" stroke-linecap="round" stroke-linejoin="round"/>
<path d="M557.782 949.349C557.782 949.349 556.866 942.3 555.124 939.279C553.382 936.258 553.932 935.435 553.932 935.435C553.932 935.435 545.956 937.906 540.822 935.984" fill="white"/>
<path d="M557.782 949.349C557.782 949.349 556.866 942.3 555.124 939.279C553.382 936.258 553.932 935.435 553.932 935.435C553.932 935.435 545.956 937.906 540.822 935.984" stroke="url(#paint14_linear_2_1941)" stroke-width="2" stroke-miterlimit="10" stroke-linecap="round" stroke-linejoin="round"/>
<path d="M532.205 928.935C532.205 928.935 537.522 934.519 545.773 933.695Z" fill="white"/>
<path d="M532.205 928.935C532.205 928.935 537.522 934.519 545.773 933.695" stroke="url(#paint15_linear_2_1941)" stroke-width="2" stroke-miterlimit="10" stroke-linecap="round" stroke-linejoin="round"/>
<path d="M549.99 821.095C550.723 820.821 587.302 818.074 589.135 814.321C589.135 814.321 586.935 810.659 585.102 803.519C581.435 789.513 574.192 779.168 574.192 779.168L583.36 777.52C588.86 792.991 601.879 806.631 601.604 821.004C601.604 821.004 581.801 834.461 561.632 836.658C555.857 837.207 549.99 821.095 549.99 821.095Z" fill="white" stroke="url(#paint16_linear_2_1941)" stroke-width="2" stroke-miterlimit="10" stroke-linecap="round" stroke-linejoin="round"/>
<path d="M562.182 810.934C560.624 810.751 559.524 811.117 558.607 811.666C554.848 813.955 555.582 820.638 555.582 820.638L538.988 817.525C542.563 812.307 541.647 800.223 541.647 800.223C557.14 785.668 560.899 799.033 561.816 806.631C562.091 808.737 562.091 810.476 562.182 810.934Z" fill="white" stroke="url(#paint17_linear_2_1941)" stroke-width="2" stroke-miterlimit="10" stroke-linecap="round" stroke-linejoin="round"/>
<path d="M562.182 810.934C560.624 810.751 559.523 811.117 558.607 811.666C556.59 808.462 556.315 805.166 556.131 804.434L561.907 806.631C562.09 808.737 562.09 810.476 562.182 810.934Z" fill="white" stroke="url(#paint18_linear_2_1941)" stroke-width="2" stroke-miterlimit="10"/>
<path d="M533.029 775.415C533.029 775.415 531.654 767.084 545.497 765.894C559.34 764.704 572.083 768.457 572.083 778.527C572.083 788.597 563.649 809.469 547.056 800.223C530.462 790.977 533.029 775.415 533.029 775.415Z" fill="white" stroke="url(#paint19_linear_2_1941)" stroke-width="2" stroke-miterlimit="10"/>
<path d="M541.097 801.322C539.63 799.491 535.871 792.899 535.321 790.428C531.562 775.048 539.997 773.858 546.322 770.746C558.24 764.795 569.15 776.879 568.233 787.498C567.316 798.117 572.358 796.927 572.083 798.392C571.9 799.674 568.691 800.864 568.691 800.864C568.691 800.864 568.6 802.237 568.783 803.61L567.958 804.343C567.5 806.356 566.583 811.483 565.941 811.666C564.566 812.032 557.14 809.469 555.857 806.723" fill="white"/>
<path d="M541.097 801.322C539.63 799.491 535.871 792.899 535.321 790.428C531.562 775.048 539.997 773.858 546.322 770.746C558.24 764.795 569.15 776.879 568.233 787.498C567.316 798.117 572.358 796.927 572.083 798.392C571.9 799.674 568.691 800.864 568.691 800.864C568.691 800.864 568.6 802.237 568.783 803.61L567.958 804.343C567.5 806.356 566.583 811.483 565.941 811.666C564.566 812.032 557.14 809.469 555.857 806.723" stroke="url(#paint20_linear_2_1941)" stroke-width="2" stroke-miterlimit="10" stroke-linecap="round" stroke-linejoin="round"/>
<path d="M567.073 792.048C567.183 791.246 566.906 790.547 566.454 790.485C566.003 790.423 565.548 791.023 565.438 791.824C565.328 792.626 565.605 793.326 566.056 793.387C566.508 793.449 566.963 792.849 567.073 792.048Z" fill="white" stroke="url(#paint21_linear_2_1941)" stroke-width="2" stroke-miterlimit="10"/>
<path d="M567.591 785.942C567.591 785.942 565.574 785.576 563.557 787.682Z" fill="white"/>
<path d="M567.591 785.942C567.591 785.942 565.574 785.576 563.557 787.682" stroke="url(#paint22_linear_2_1941)" stroke-width="2" stroke-miterlimit="10" stroke-linecap="round" stroke-linejoin="round"/>
<path d="M563.466 770.837C557.966 766.626 527.254 762.324 532.388 786.492C531.746 789.513 533.763 794.547 540.639 802.786C540.639 802.786 543.939 800.223 547.514 802.42C547.514 802.42 549.715 795.738 553.382 794.273C554.207 793.907 554.849 793.357 555.49 792.717C565.3 790.245 566.583 780.999 566.4 777.703C567.042 776.788 568.05 774.316 563.466 770.837Z" fill="white" stroke="url(#paint23_linear_2_1941)" stroke-width="2" stroke-miterlimit="10"/>
<path d="M538.897 771.478C538.897 771.478 530.921 762.507 521.111 767.542C511.302 772.577 513.96 786.491 519.369 794.09C524.778 801.596 518.178 807.73 520.286 811.849C522.395 815.969 526.795 814.321 526.795 814.321C526.795 814.321 524.503 813.131 524.137 810.201C523.77 807.272 529.729 805.807 529.729 797.477C529.729 789.055 527.804 781.548 534.771 785.027C541.83 788.414 538.897 771.478 538.897 771.478Z" fill="white" stroke="url(#paint24_linear_2_1941)" stroke-width="2" stroke-miterlimit="10"/>
<path d="M567.958 804.434C567.958 804.434 564.933 804.617 563.557 803.336Z" fill="white"/>
<path d="M567.958 804.434C567.958 804.434 564.933 804.617 563.557 803.336" stroke="url(#paint25_linear_2_1941)" stroke-width="2" stroke-miterlimit="10" stroke-linecap="round" stroke-linejoin="round"/>
<g opacity="0.2">
<g opacity="0.2">
<path d="M538.896 771.478C538.896 771.478 543.663 777.52 537.979 782.555Z" fill="white"/>
<path d="M538.896 771.478C538.896 771.478 543.663 777.52 537.979 782.555" stroke="url(#paint26_linear_2_1941)" stroke-width="2" stroke-miterlimit="10" stroke-linecap="round" stroke-linejoin="round"/>
</g>
<g opacity="0.2">
<path d="M563.466 770.838C563.466 770.838 570.8 778.802 556.132 787.773Z" fill="white"/>
<path d="M563.466 770.838C563.466 770.838 570.8 778.802 556.132 787.773" stroke="url(#paint27_linear_2_1941)" stroke-width="2" stroke-miterlimit="10" stroke-linecap="round" stroke-linejoin="round"/>
</g>
<g opacity="0.2">
<path d="M560.715 769.373C560.715 769.373 563.557 772.119 557.048 777.52C550.539 782.921 545.68 784.294 540.822 784.02" fill="white"/>
<path d="M560.715 769.373C560.715 769.373 563.557 772.119 557.048 777.52C550.539 782.921 545.68 784.294 540.822 784.02" stroke="url(#paint28_linear_2_1941)" stroke-width="2" stroke-miterlimit="10" stroke-linecap="round" stroke-linejoin="round"/>
</g>
<g opacity="0.2">
<path d="M536.787 776.239C536.787 776.239 532.57 769.373 525.878 774.042C519.185 778.71 520.652 785.21 524.228 792.717C527.895 800.132 525.419 805.075 525.419 805.075" fill="white"/>
<path d="M536.787 776.239C536.787 776.239 532.57 769.373 525.878 774.042C519.185 778.71 520.652 785.21 524.228 792.717C527.895 800.132 525.419 805.075 525.419 805.075" stroke="url(#paint29_linear_2_1941)" stroke-width="2" stroke-miterlimit="10" stroke-linecap="round" stroke-linejoin="round"/>
</g>
<g opacity="0.2">
<path d="M524.045 768.274C524.045 768.274 515.794 768.549 516.435 779.26C517.077 790.062 520.928 789.97 521.753 795.097" fill="white"/>
<path d="M524.045 768.274C524.045 768.274 515.794 768.549 516.435 779.26C517.077 790.062 520.928 789.97 521.753 795.097" stroke="url(#paint30_linear_2_1941)" stroke-width="2" stroke-miterlimit="10" stroke-linecap="round" stroke-linejoin="round"/>
</g>
<g opacity="0.2">
<path d="M546.413 792.717C546.413 792.717 538.162 794.548 535.045 787.773Z" fill="white"/>
<path d="M546.413 792.717C546.413 792.717 538.162 794.548 535.045 787.773" stroke="url(#paint31_linear_2_1941)" stroke-width="2" stroke-miterlimit="10" stroke-linecap="round" stroke-linejoin="round"/>
</g>
</g>
<path d="M554.39 793.723C554.39 793.723 553.015 788.78 549.44 790.428C545.864 792.076 548.981 796.836 550.815 799.124C552.557 801.413 554.574 799.491 554.849 798.484" fill="white"/>
<path d="M554.39 793.723C554.39 793.723 553.015 788.78 549.44 790.428C545.864 792.076 548.981 796.836 550.815 799.124C552.557 801.413 554.574 799.491 554.849 798.484" stroke="url(#paint32_linear_2_1941)" stroke-width="2" stroke-miterlimit="10" stroke-linecap="round" stroke-linejoin="round"/>
<path d="M537.796 814.87L537.43 817.708C523.312 830.891 532.663 861.924 541.555 881.789L535.871 899.64C535.871 899.64 560.074 907.696 582.168 901.38L580.059 880.416L577.676 863.938C577.676 863.938 579.693 858.354 580.059 847.46C580.334 836.749 559.799 808.828 537.796 814.87Z" fill="white" stroke="url(#paint33_linear_2_1941)" stroke-width="2" stroke-miterlimit="10"/>
<path d="M578.134 782.006C578.134 782.006 574.467 783.928 572.908 783.471C572.908 783.471 565.024 783.928 564.749 780.633C564.749 780.633 568.783 780.175 571.533 776.33C572.817 774.499 584.276 774.499 583.543 778.344C583.268 779.809 582.351 780.633 581.434 781.182" fill="white"/>
<path d="M578.134 782.006C578.134 782.006 574.467 783.928 572.908 783.471C572.908 783.471 565.024 783.928 564.749 780.633C564.749 780.633 568.783 780.175 571.533 776.33C572.817 774.499 584.276 774.499 583.543 778.344C583.268 779.809 582.351 780.633 581.434 781.182" stroke="url(#paint34_linear_2_1941)" stroke-width="2" stroke-miterlimit="10" stroke-linecap="round" stroke-linejoin="round"/>
<path d="M571.533 776.33C573.183 776.055 572.358 776.879 573.55 776.788C574.742 776.696 574.834 775.964 575.659 777.062C576.484 778.161 577.401 777.062 578.317 777.429" fill="white"/>
<path d="M571.533 776.33C573.183 776.055 572.358 776.879 573.55 776.788C574.742 776.696 574.834 775.964 575.659 777.062C576.484 778.161 577.401 777.062 578.317 777.429" stroke="url(#paint35_linear_2_1941)" stroke-width="2" stroke-miterlimit="10" stroke-linecap="round" stroke-linejoin="round"/>
<path d="M572.908 783.47C573 782.555 576.209 780.816 577.034 779.717Z" fill="white"/>
<path d="M572.908 783.47C573 782.555 576.209 780.816 577.034 779.717" stroke="url(#paint36_linear_2_1941)" stroke-width="2" stroke-miterlimit="10" stroke-linecap="round" stroke-linejoin="round"/>
<path d="M570.158 783.379C569.149 782.189 571.441 781.64 573.641 779.443Z" fill="white"/>
<path d="M570.158 783.379C569.149 782.189 571.441 781.64 573.641 779.443" stroke="url(#paint37_linear_2_1941)" stroke-width="2" stroke-miterlimit="10" stroke-linecap="round" stroke-linejoin="round"/>
<path d="M567.5 782.921C566.216 781.64 566.766 781.273 568.691 780.358C570.617 779.443 571.442 778.252 571.442 778.252" fill="white"/>
<path d="M567.5 782.921C566.216 781.64 566.766 781.273 568.691 780.358C570.617 779.443 571.442 778.252 571.442 778.252" stroke="url(#paint38_linear_2_1941)" stroke-width="2" stroke-miterlimit="10" stroke-linecap="round" stroke-linejoin="round"/>
<path d="M570.708 1051.06C570.708 1051.06 578.867 1048.4 585.468 1050.78L587.485 1058.56L591.886 1051.06C591.886 1051.06 590.419 1060.48 591.886 1063.32C593.352 1066.25 602.153 1067.53 603.62 1069.46C605.087 1071.38 605.545 1075.13 605.545 1075.13H571.35L574.009 1063.32L570.708 1051.06Z" fill="white" stroke="url(#paint39_linear_2_1941)" stroke-width="2" stroke-miterlimit="10" stroke-linecap="round" stroke-linejoin="round"/>
<path opacity="0.3" d="M502.592 1051.06C502.592 1051.06 509.01 1048.4 515.519 1050.78L514.877 1058.56L522.853 1051.06C522.853 1051.06 517.811 1060.48 519.278 1063.32C520.744 1066.16 529.545 1067.53 531.012 1069.46C532.479 1071.38 532.937 1075.13 532.937 1075.13H498.742L502.317 1063.32L502.592 1051.06Z" fill="white" stroke="url(#paint40_linear_2_1941)" stroke-width="2" stroke-miterlimit="10"/>
<path d="M502.592 1051.06C502.592 1051.06 509.01 1048.4 515.519 1050.78L514.877 1058.56L522.853 1051.06C522.853 1051.06 517.811 1060.48 519.278 1063.32C520.744 1066.16 529.545 1067.53 531.012 1069.46C532.479 1071.38 532.937 1075.13 532.937 1075.13H498.742L502.317 1063.32L502.592 1051.06Z" fill="white" stroke="url(#paint41_linear_2_1941)" stroke-width="2" stroke-miterlimit="10" stroke-linecap="round" stroke-linejoin="round"/>
<path d="M571.35 875.29C571.35 875.29 576.3 868.699 577.217 865.037L578.226 868.241C578.226 868.241 575.567 875.564 571.35 879.409V875.29Z" fill="white" stroke="url(#paint42_linear_2_1941)" stroke-width="2" stroke-miterlimit="10" stroke-linecap="round" stroke-linejoin="round"/>
<path d="M551.732 878.494C551.732 878.494 558.607 881.057 563.558 879.501C568.417 877.853 572.084 873.917 572.084 873.917L573.642 876.846C573.642 876.846 562.641 896.071 551.732 893.141" fill="white"/>
<path d="M551.732 878.494C551.732 878.494 558.607 881.057 563.558 879.501C568.417 877.853 572.084 873.917 572.084 873.917L573.642 876.846C573.642 876.846 562.641 896.071 551.732 893.141" stroke="url(#paint43_linear_2_1941)" stroke-width="2" stroke-miterlimit="10" stroke-linecap="round" stroke-linejoin="round"/>
<path opacity="0.3" d="M552.465 903.76C548.889 913.189 514.052 910.992 507.268 905.682C505.801 904.492 504.426 902.204 503.143 899.366C501.217 892.866 499.476 885.359 498.375 880.324C497.642 877.212 497.275 875.015 497.184 874.832C497.184 874.923 497.367 875.198 497.917 875.564C499.567 876.754 504.701 878.951 520.836 879.958C520.836 879.958 509.102 883.162 499.934 879.226C499.934 879.226 503.051 898.176 506.443 901.929C509.835 905.682 525.145 908.795 528.812 906.781C532.387 904.675 530.004 885.451 530.737 883.528C531.471 881.515 534.404 879.958 534.588 879.317C534.771 878.677 535.413 869.431 535.413 869.431C535.413 869.431 512.769 864.762 506.535 864.945C500.301 865.128 509.193 860.642 515.519 861.375C521.845 862.107 534.404 864.762 534.679 864.945C534.954 865.128 532.112 837.298 528.812 833.179C525.512 829.059 532.938 829.243 534.679 835.834C536.33 842.242 540.638 865.494 540.913 867.142C540.822 865.86 539.997 852.22 539.172 847.094C538.255 841.784 538.346 834.735 539.355 834.003C540.272 833.271 544.947 831.44 545.406 830.433C545.497 830.158 545.864 829.883 546.322 829.517C551.64 841.235 555.948 894.788 552.465 903.76Z" fill="white" stroke="url(#paint44_linear_2_1941)" stroke-width="2" stroke-miterlimit="10"/>
<path d="M552.465 903.76C548.889 913.189 514.052 910.992 507.268 905.682C505.801 904.492 504.426 902.204 503.142 899.366C500.851 893.965 499.2 886.549 498.375 880.324C498.192 878.585 498.009 877.029 497.917 875.564C497.733 872.36 498.009 869.888 498.65 869.064C501.401 865.586 504.426 862.199 504.426 862.199C504.426 862.199 499.109 833.637 504.426 830.89C504.426 830.89 511.027 826.771 518.727 825.398C526.428 824.025 539.446 820.18 545.314 828.144C545.589 828.51 545.864 828.968 546.047 829.517C551.639 841.235 555.948 894.788 552.465 903.76Z" fill="white" stroke="url(#paint45_linear_2_1941)" stroke-width="2" stroke-miterlimit="10" stroke-linecap="round" stroke-linejoin="round"/>
<path d="M534.313 825.123C534.313 825.123 530.921 822.011 525.787 821.278C520.745 820.546 516.344 827.412 516.344 827.412H518.728C518.728 827.412 522.028 821.095 528.537 826.68" fill="white"/>
<path d="M534.313 825.123C534.313 825.123 530.921 822.011 525.787 821.278C520.745 820.546 516.344 827.412 516.344 827.412H518.728C518.728 827.412 522.028 821.095 528.537 826.68" stroke="url(#paint46_linear_2_1941)" stroke-width="2" stroke-miterlimit="10" stroke-linecap="round" stroke-linejoin="round"/>
<path d="M510.202 830.067C510.202 830.067 523.587 828.968 527.987 832.447C532.296 835.926 534.588 863.938 534.588 863.938C534.588 863.938 514.511 858.354 508.735 861.284" fill="white"/>
<path d="M510.202 830.067C510.202 830.067 523.587 828.968 527.987 832.447C532.296 835.926 534.588 863.938 534.588 863.938C534.588 863.938 514.511 858.354 508.735 861.284" stroke="url(#paint47_linear_2_1941)" stroke-width="2" stroke-miterlimit="10" stroke-linecap="round" stroke-linejoin="round"/>
<path d="M506.076 854.875C506.076 854.875 502.409 842.059 504.609 838.764C506.81 835.468 520.561 836.017 523.128 838.764C525.695 841.51 525.878 856.889 525.878 856.889C525.878 856.889 514.052 854.235 508.826 855.058" fill="white"/>
<path d="M506.076 854.875C506.076 854.875 502.409 842.059 504.609 838.764C506.81 835.468 520.561 836.017 523.128 838.764C525.695 841.51 525.878 856.889 525.878 856.889C525.878 856.889 514.052 854.235 508.826 855.058" stroke="url(#paint48_linear_2_1941)" stroke-width="2" stroke-miterlimit="10" stroke-linecap="round" stroke-linejoin="round"/>
<path d="M499.567 876.754C500.301 877.67 525.787 882.156 530.187 879.318Z" fill="white"/>
<path d="M499.567 876.754C500.301 877.67 525.787 882.156 530.187 879.318" stroke="url(#paint49_linear_2_1941)" stroke-width="2" stroke-miterlimit="10" stroke-linecap="round" stroke-linejoin="round"/>
<path d="M500.667 871.811C502.501 870.346 520.836 874.008 524.595 874.191C528.446 874.374 535.138 870.163 535.505 869.522C535.505 869.522 540.547 896.894 538.988 902.112C537.43 907.33 533.304 908.246 533.304 908.246" fill="white"/>
<path d="M500.667 871.811C502.501 870.346 520.836 874.008 524.595 874.191C528.446 874.374 535.138 870.163 535.505 869.522C535.505 869.522 540.547 896.894 538.988 902.112C537.43 907.33 533.304 908.246 533.304 908.246" stroke="url(#paint50_linear_2_1941)" stroke-width="2" stroke-miterlimit="10" stroke-linecap="round" stroke-linejoin="round"/>
<path d="M505.343 900.281C505.343 900.281 506.443 906.415 528.904 908.246Z" fill="white"/>
<path d="M505.343 900.281C505.343 900.281 506.443 906.415 528.904 908.246" stroke="url(#paint51_linear_2_1941)" stroke-width="2" stroke-miterlimit="10" stroke-linecap="round" stroke-linejoin="round"/>
<path d="M541.83 877.487C542.747 877.121 549.256 876.48 551.64 874.923C551.64 874.923 552.006 879.775 551.64 884.169C551.64 884.169 544.581 886.916 543.297 886.367C542.014 885.817 541.555 881.881 541.555 881.881" fill="white"/>
<path d="M541.83 877.487C542.747 877.121 549.256 876.48 551.64 874.923C551.64 874.923 552.006 879.775 551.64 884.169C551.64 884.169 544.581 886.916 543.297 886.367C542.014 885.817 541.555 881.881 541.555 881.881" stroke="url(#paint52_linear_2_1941)" stroke-width="2" stroke-miterlimit="10" stroke-linecap="round" stroke-linejoin="round"/>
<path d="M550.54 884.536C550.54 884.536 551.09 896.162 550.54 897.81C549.99 899.366 543.572 901.746 542.839 901.563C542.106 901.38 540.822 890.12 540.822 890.12" fill="white"/>
<path d="M550.54 884.536C550.54 884.536 551.09 896.162 550.54 897.81C549.99 899.366 543.572 901.746 542.839 901.563C542.106 901.38 540.822 890.12 540.822 890.12" stroke="url(#paint53_linear_2_1941)" stroke-width="2" stroke-miterlimit="10" stroke-linecap="round" stroke-linejoin="round"/>
<path d="M527.071 828.602C527.071 828.602 533.671 828.602 536.055 832.905C538.438 837.207 541.097 862.382 541.555 863.847" fill="white"/>
<path d="M527.071 828.602C527.071 828.602 533.671 828.602 536.055 832.905C538.438 837.207 541.097 862.382 541.555 863.847" stroke="url(#paint54_linear_2_1941)" stroke-width="2" stroke-miterlimit="10" stroke-linecap="round" stroke-linejoin="round"/>
<path d="M538.988 825.49C538.988 825.49 553.656 817.434 561.357 819.905C569.058 822.377 572.175 830.158 572.175 830.158C572.175 830.158 569.516 822.926 562.274 823.384C554.94 823.842 544.489 831.074 544.489 831.074" fill="white"/>
<path d="M538.988 825.49C538.988 825.49 553.656 817.434 561.357 819.905C569.058 822.377 572.175 830.158 572.175 830.158C572.175 830.158 569.516 822.926 562.274 823.384C554.94 823.842 544.489 831.074 544.489 831.074" stroke="url(#paint55_linear_2_1941)" stroke-width="2" stroke-miterlimit="10" stroke-linecap="round" stroke-linejoin="round"/>
<path d="M562.183 823.384C562.183 823.384 570.434 822.743 573.001 826.588C575.568 830.433 573.001 840.503 573.001 840.503C573.001 840.503 575.201 843.066 571.442 844.897C567.683 846.728 557.599 847.735 555.215 844.073C552.74 840.503 554.023 824.94 562.183 823.384Z" fill="white" stroke="url(#paint56_linear_2_1941)" stroke-width="2" stroke-miterlimit="10"/>
<path d="M572.359 841.235C572.359 841.235 563.649 872.726 566.491 875.839C566.491 875.839 570.25 875.839 577.401 877.67C593.811 881.789 603.07 878.768 603.07 878.768L601.329 887.831C584.918 887.374 569.058 890.395 555.765 884.993C555.765 884.993 550.356 861.741 555.582 842.151C555.582 842.151 557.14 840.228 561.632 839.587C568.05 838.763 572.359 841.235 572.359 841.235Z" fill="white" stroke="url(#paint57_linear_2_1941)" stroke-width="2" stroke-miterlimit="10" stroke-linecap="round" stroke-linejoin="round"/>
<path d="M600.503 887.923C603.62 889.937 608.112 886.733 612.33 887.19C616.547 887.557 614.53 875.656 614.53 875.656C614.53 875.656 609.304 873.184 607.746 872.635C606.187 872.086 603.895 875.564 599.128 879.958" fill="white"/>
<path d="M600.503 887.923C603.62 889.937 608.112 886.733 612.33 887.19C616.547 887.557 614.53 875.656 614.53 875.656C614.53 875.656 609.304 873.184 607.746 872.635C606.187 872.086 603.895 875.564 599.128 879.958" stroke="url(#paint58_linear_2_1941)" stroke-width="2" stroke-miterlimit="10" stroke-linecap="round" stroke-linejoin="round"/>
<path d="M539.538 817.617C539.538 817.617 546.139 816.884 553.29 818.624Z" fill="white"/>
<path d="M539.538 817.617C539.538 817.617 546.139 816.884 553.29 818.624" stroke="url(#paint59_linear_2_1941)" stroke-width="2" stroke-miterlimit="10" stroke-linecap="round" stroke-linejoin="round"/>
<path d="M554.848 843.524C554.848 843.524 553.473 841.418 554.848 840.503C554.848 840.503 550.722 837.39 551.364 834.095" fill="white"/>
<path d="M554.848 843.524C554.848 843.524 553.473 841.418 554.848 840.503C554.848 840.503 550.722 837.39 551.364 834.095" stroke="url(#paint60_linear_2_1941)" stroke-width="2" stroke-miterlimit="10" stroke-linecap="round" stroke-linejoin="round"/>
<path d="M574.009 836.475L573.642 840.503C573.642 840.503 575.659 841.784 572.084 843.524" fill="white"/>
<path d="M574.009 836.475L573.642 840.503C573.642 840.503 575.659 841.784 572.084 843.524" stroke="url(#paint61_linear_2_1941)" stroke-width="2" stroke-miterlimit="10" stroke-linecap="round" stroke-linejoin="round"/>
<path d="M575.75 865.037C575.75 865.037 571.441 868.332 568.875 867.783Z" fill="white"/>
<path d="M575.75 865.037C575.75 865.037 571.441 868.332 568.875 867.783" stroke="url(#paint62_linear_2_1941)" stroke-width="2" stroke-miterlimit="10" stroke-linecap="round" stroke-linejoin="round"/>
<path d="M557.782 896.711C557.782 896.711 568.141 902.753 579.143 900.281Z" fill="white"/>
<path d="M557.782 896.711C557.782 896.711 568.141 902.753 579.143 900.281" stroke="url(#paint63_linear_2_1941)" stroke-width="2" stroke-miterlimit="10" stroke-linecap="round" stroke-linejoin="round"/>
<path d="M608.937 876.754C608.937 876.754 613.063 877.304 614.713 877.944Z" fill="white"/>
<path d="M608.937 876.754C608.937 876.754 613.063 877.304 614.713 877.944" stroke="url(#paint64_linear_2_1941)" stroke-width="2" stroke-miterlimit="10" stroke-linecap="round" stroke-linejoin="round"/>
<path d="M608.937 880.508C608.937 880.508 613.613 880.508 614.896 880.599Z" fill="white"/>
<path d="M608.937 880.508C608.937 880.508 613.613 880.508 614.896 880.599" stroke="url(#paint65_linear_2_1941)" stroke-width="2" stroke-miterlimit="10" stroke-linecap="round" stroke-linejoin="round"/>
<path d="M608.937 883.62C608.937 883.62 614.805 883.437 614.713 884.078Z" fill="white"/>
<path d="M608.937 883.62C608.937 883.62 614.805 883.437 614.713 884.078" stroke="url(#paint66_linear_2_1941)" stroke-width="2" stroke-miterlimit="10" stroke-linecap="round" stroke-linejoin="round"/>
<path d="M501.676 1071.01C501.676 1071.01 510.935 1070.1 515.794 1072.11Z" fill="white"/>
<path d="M501.676 1071.01C501.676 1071.01 510.935 1070.1 515.794 1072.11" stroke="url(#paint67_linear_2_1941)" stroke-width="2" stroke-miterlimit="10" stroke-linecap="round" stroke-linejoin="round"/>
<path d="M503.876 1062.41C503.876 1062.41 508.918 1061.22 511.669 1062.41Z" fill="white"/>
<path d="M503.876 1062.41C503.876 1062.41 508.918 1061.22 511.669 1062.41" stroke="url(#paint68_linear_2_1941)" stroke-width="2" stroke-miterlimit="10" stroke-linecap="round" stroke-linejoin="round"/>
<path d="M519.369 1063.32C519.369 1063.32 520.653 1065.61 520.286 1067.26Z" fill="white"/>
<path d="M519.369 1063.32C519.369 1063.32 520.653 1065.61 520.286 1067.26" stroke="url(#paint69_linear_2_1941)" stroke-width="2" stroke-miterlimit="10" stroke-linecap="round" stroke-linejoin="round"/>
<path d="M531.012 1069.46C531.012 1069.46 526.887 1069.82 524.32 1069.46Z" fill="white"/>
<path d="M531.012 1069.46C531.012 1069.46 526.887 1069.82 524.32 1069.46" stroke="url(#paint70_linear_2_1941)" stroke-width="2" stroke-miterlimit="10" stroke-linecap="round" stroke-linejoin="round"/>
<path d="M591.885 1063.32C591.885 1063.32 595.278 1067.26 595.278 1068.36Z" fill="white"/>
<path d="M591.885 1063.32C591.885 1063.32 595.278 1067.26 595.278 1068.36" stroke="url(#paint71_linear_2_1941)" stroke-width="2" stroke-miterlimit="10" stroke-linecap="round" stroke-linejoin="round"/>
<path d="M603.62 1069.46C603.62 1069.46 600.412 1070 598.761 1069.64Z" fill="white"/>
<path d="M603.62 1069.46C603.62 1069.46 600.412 1070 598.761 1069.64" stroke="url(#paint72_linear_2_1941)" stroke-width="2" stroke-miterlimit="10" stroke-linecap="round" stroke-linejoin="round"/>
<path d="M573.734 1072.11C573.734 1072.11 584.093 1070.46 590.236 1072.11Z" fill="white"/>
<path d="M573.734 1072.11C573.734 1072.11 584.093 1070.46 590.236 1072.11" stroke="url(#paint73_linear_2_1941)" stroke-width="2" stroke-miterlimit="10" stroke-linecap="round" stroke-linejoin="round"/>
<path d="M576.209 1063.32C576.209 1063.32 581.251 1063.51 583.452 1062.22Z" fill="white"/>
<path d="M576.209 1063.32C576.209 1063.32 581.251 1063.51 583.452 1062.22" stroke="url(#paint74_linear_2_1941)" stroke-width="2" stroke-miterlimit="10" stroke-linecap="round" stroke-linejoin="round"/>
<path d="M553.748 943.948C553.748 943.948 548.156 977.545 540.913 985.509C540.913 985.509 531.47 1011.51 527.712 1018.47C523.953 1025.33 519.369 1047.58 519.369 1047.58" fill="white"/>
<path d="M553.748 943.948C553.748 943.948 548.156 977.545 540.913 985.509C540.913 985.509 531.47 1011.51 527.712 1018.47C523.953 1025.33 519.369 1047.58 519.369 1047.58" stroke="url(#paint75_linear_2_1941)" stroke-width="2" stroke-miterlimit="10" stroke-linecap="round" stroke-linejoin="round"/>
<path d="M527.071 982.397C527.071 982.397 530.554 977.362 534.405 982.397Z" fill="white"/>
<path d="M527.071 982.397C527.071 982.397 530.554 977.362 534.405 982.397" stroke="url(#paint76_linear_2_1941)" stroke-width="2" stroke-miterlimit="10" stroke-linecap="round" stroke-linejoin="round"/>
<path d="M570.983 987.615C570.983 987.615 572.634 978.735 579.876 985.967Z" fill="white"/>
<path d="M570.983 987.615C570.983 987.615 572.634 978.735 579.876 985.967" stroke="url(#paint77_linear_2_1941)" stroke-width="2" stroke-miterlimit="10" stroke-linecap="round" stroke-linejoin="round"/>
<path d="M579.876 905.225C579.876 905.225 584.185 923.625 583.451 933.787C583.451 933.787 585.835 971.778 585.101 982.397" fill="white"/>
<path d="M579.876 905.225C579.876 905.225 584.185 923.625 583.451 933.787C583.451 933.787 585.835 971.778 585.101 982.397" stroke="url(#paint78_linear_2_1941)" stroke-width="2" stroke-miterlimit="10" stroke-linecap="round" stroke-linejoin="round"/>
<path d="M589.136 814.321C589.136 814.321 593.628 816.61 596.287 814.596Z" fill="white"/>
<path d="M589.136 814.321C589.136 814.321 593.628 816.61 596.287 814.596" stroke="url(#paint79_linear_2_1941)" stroke-width="2" stroke-miterlimit="10" stroke-linecap="round" stroke-linejoin="round"/>
<defs>
<linearGradient id="paint0_linear_2_1941" x1="818.387" y1="417.509" x2="1194.69" y2="187.002" gradientUnits="userSpaceOnUse">
<stop stop-color="#5EC7F7"/>
<stop offset="1" stop-color="#1F356C"/>
</linearGradient>
<linearGradient id="paint1_linear_2_1941" x1="972.576" y1="418.297" x2="985.328" y2="405.481" gradientUnits="userSpaceOnUse">
<stop stop-color="#5EC7F7"/>
<stop offset="1" stop-color="#1F356C"/>
</linearGradient>
<linearGradient id="paint2_linear_2_1941" x1="522.043" y1="885.593" x2="1155.92" y2="497.476" gradientUnits="userSpaceOnUse">
<stop stop-color="#5EC7F7"/>
<stop offset="1" stop-color="#1F356C"/>
</linearGradient>
<linearGradient id="paint3_linear_2_1941" x1="935.699" y1="886.381" x2="947.862" y2="877.461" gradientUnits="userSpaceOnUse">
<stop stop-color="#5EC7F7"/>
<stop offset="1" stop-color="#1F356C"/>
</linearGradient>
<linearGradient id="paint4_linear_2_1941" x1="853.6" y1="886.381" x2="862.261" y2="864.267" gradientUnits="userSpaceOnUse">
<stop stop-color="#5EC7F7"/>
<stop offset="1" stop-color="#1F356C"/>
</linearGradient>
<linearGradient id="paint5_linear_2_1941" x1="-409.569" y1="441.518" x2="862.263" y2="1458.09" gradientUnits="userSpaceOnUse">
<stop stop-color="#5EC7F7"/>
<stop offset="1" stop-color="#1F356C"/>
</linearGradient>
<linearGradient id="paint6_linear_2_1941" x1="2195.96" y1="-167.085" x2="718.749" y2="1153.06" gradientUnits="userSpaceOnUse">
<stop stop-color="#5EC7F7"/>
<stop offset="1" stop-color="#1F356C"/>
</linearGradient>
<linearGradient id="paint7_linear_2_1941" x1="512.964" y1="828.602" x2="565.377" y2="818.61" gradientUnits="userSpaceOnUse">
<stop stop-color="#5EC7F7"/>
<stop offset="1" stop-color="#1F356C"/>
</linearGradient>
<linearGradient id="paint8_linear_2_1941" x1="512.964" y1="828.602" x2="565.377" y2="818.61" gradientUnits="userSpaceOnUse">
<stop stop-color="#5EC7F7"/>
<stop offset="1" stop-color="#1F356C"/>
</linearGradient>
<linearGradient id="paint9_linear_2_1941" x1="594.043" y1="1075.13" x2="659.021" y2="1074.35" gradientUnits="userSpaceOnUse">
<stop stop-color="#5EC7F7"/>
<stop offset="1" stop-color="#1F356C"/>
</linearGradient>
<linearGradient id="paint10_linear_2_1941" x1="473.777" y1="1058.47" x2="647.57" y2="1050.06" gradientUnits="userSpaceOnUse">
<stop stop-color="#5EC7F7"/>
<stop offset="1" stop-color="#1F356C"/>
</linearGradient>
<linearGradient id="paint11_linear_2_1941" x1="504.347" y1="914.669" x2="644.529" y2="862.685" gradientUnits="userSpaceOnUse">
<stop stop-color="#5EC7F7"/>
<stop offset="1" stop-color="#1F356C"/>
</linearGradient>
<linearGradient id="paint12_linear_2_1941" x1="454.76" y1="1060.07" x2="734.588" y2="1041.06" gradientUnits="userSpaceOnUse">
<stop stop-color="#5EC7F7"/>
<stop offset="1" stop-color="#1F356C"/>
</linearGradient>
<linearGradient id="paint13_linear_2_1941" x1="533.915" y1="938.301" x2="607.752" y2="930.464" gradientUnits="userSpaceOnUse">
<stop stop-color="#5EC7F7"/>
<stop offset="1" stop-color="#1F356C"/>
</linearGradient>
<linearGradient id="paint14_linear_2_1941" x1="530.971" y1="949.349" x2="585.294" y2="940.83" gradientUnits="userSpaceOnUse">
<stop stop-color="#5EC7F7"/>
<stop offset="1" stop-color="#1F356C"/>
</linearGradient>
<linearGradient id="paint15_linear_2_1941" x1="524.323" y1="933.778" x2="563.731" y2="919.573" gradientUnits="userSpaceOnUse">
<stop stop-color="#5EC7F7"/>
<stop offset="1" stop-color="#1F356C"/>
</linearGradient>
<linearGradient id="paint16_linear_2_1941" x1="520.006" y1="836.672" x2="687.298" y2="817.889" gradientUnits="userSpaceOnUse">
<stop stop-color="#5EC7F7"/>
<stop offset="1" stop-color="#1F356C"/>
</linearGradient>
<linearGradient id="paint17_linear_2_1941" x1="525.515" y1="820.638" x2="600.709" y2="812.3" gradientUnits="userSpaceOnUse">
<stop stop-color="#5EC7F7"/>
<stop offset="1" stop-color="#1F356C"/>
</linearGradient>
<linearGradient id="paint18_linear_2_1941" x1="552.617" y1="811.666" x2="572.246" y2="809.553" gradientUnits="userSpaceOnUse">
<stop stop-color="#5EC7F7"/>
<stop offset="1" stop-color="#1F356C"/>
</linearGradient>
<linearGradient id="paint19_linear_2_1941" x1="510.117" y1="802.53" x2="636.39" y2="785.247" gradientUnits="userSpaceOnUse">
<stop stop-color="#5EC7F7"/>
<stop offset="1" stop-color="#1F356C"/>
</linearGradient>
<linearGradient id="paint20_linear_2_1941" x1="512.49" y1="811.702" x2="634.636" y2="797.769" gradientUnits="userSpaceOnUse">
<stop stop-color="#5EC7F7"/>
<stop offset="1" stop-color="#1F356C"/>
</linearGradient>
<linearGradient id="paint21_linear_2_1941" x1="566.643" y1="795.185" x2="565.812" y2="785.85" gradientUnits="userSpaceOnUse">
<stop stop-color="#5EC7F7"/>
<stop offset="1" stop-color="#1F356C"/>
</linearGradient>
<linearGradient id="paint22_linear_2_1941" x1="561.214" y1="787.682" x2="573.397" y2="784.097" gradientUnits="userSpaceOnUse">
<stop stop-color="#5EC7F7"/>
<stop offset="1" stop-color="#1F356C"/>
</linearGradient>
<linearGradient id="paint23_linear_2_1941" x1="511.392" y1="802.787" x2="624.886" y2="788.213" gradientUnits="userSpaceOnUse">
<stop stop-color="#5EC7F7"/>
<stop offset="1" stop-color="#1F356C"/>
</linearGradient>
<linearGradient id="paint24_linear_2_1941" x1="500.022" y1="814.647" x2="581.622" y2="809.256" gradientUnits="userSpaceOnUse">
<stop stop-color="#5EC7F7"/>
<stop offset="1" stop-color="#1F356C"/>
</linearGradient>
<linearGradient id="paint25_linear_2_1941" x1="561.001" y1="804.443" x2="572.451" y2="798.59" gradientUnits="userSpaceOnUse">
<stop stop-color="#5EC7F7"/>
<stop offset="1" stop-color="#1F356C"/>
</linearGradient>
<linearGradient id="paint26_linear_2_1941" x1="536.36" y1="782.555" x2="545.5" y2="782.259" gradientUnits="userSpaceOnUse">
<stop stop-color="#5EC7F7"/>
<stop offset="1" stop-color="#1F356C"/>
</linearGradient>
<linearGradient id="paint27_linear_2_1941" x1="550.806" y1="787.773" x2="580.748" y2="785.688" gradientUnits="userSpaceOnUse">
<stop stop-color="#5EC7F7"/>
<stop offset="1" stop-color="#1F356C"/>
</linearGradient>
<linearGradient id="paint28_linear_2_1941" x1="528.907" y1="784.053" x2="594.114" y2="772.33" gradientUnits="userSpaceOnUse">
<stop stop-color="#5EC7F7"/>
<stop offset="1" stop-color="#1F356C"/>
</linearGradient>
<linearGradient id="paint29_linear_2_1941" x1="512.149" y1="805.076" x2="563.105" y2="801.947" gradientUnits="userSpaceOnUse">
<stop stop-color="#5EC7F7"/>
<stop offset="1" stop-color="#1F356C"/>
</linearGradient>
<linearGradient id="paint30_linear_2_1941" x1="511.959" y1="795.097" x2="537.014" y2="794.178" gradientUnits="userSpaceOnUse">
<stop stop-color="#5EC7F7"/>
<stop offset="1" stop-color="#1F356C"/>
</linearGradient>
<linearGradient id="paint31_linear_2_1941" x1="528.442" y1="792.942" x2="562.983" y2="783.168" gradientUnits="userSpaceOnUse">
<stop stop-color="#5EC7F7"/>
<stop offset="1" stop-color="#1F356C"/>
</linearGradient>
<linearGradient id="paint32_linear_2_1941" x1="543.705" y1="800.2" x2="566.654" y2="798.141" gradientUnits="userSpaceOnUse">
<stop stop-color="#5EC7F7"/>
<stop offset="1" stop-color="#1F356C"/>
</linearGradient>
<linearGradient id="paint33_linear_2_1941" x1="499.99" y1="903.799" x2="669.645" y2="891.159" gradientUnits="userSpaceOnUse">
<stop stop-color="#5EC7F7"/>
<stop offset="1" stop-color="#1F356C"/>
</linearGradient>
<linearGradient id="paint34_linear_2_1941" x1="553.813" y1="783.541" x2="610.857" y2="767.092" gradientUnits="userSpaceOnUse">
<stop stop-color="#5EC7F7"/>
<stop offset="1" stop-color="#1F356C"/>
</linearGradient>
<linearGradient id="paint35_linear_2_1941" x1="567.592" y1="777.565" x2="582.877" y2="767.237" gradientUnits="userSpaceOnUse">
<stop stop-color="#5EC7F7"/>
<stop offset="1" stop-color="#1F356C"/>
</linearGradient>
<linearGradient id="paint36_linear_2_1941" x1="570.512" y1="783.471" x2="583.785" y2="781.593" gradientUnits="userSpaceOnUse">
<stop stop-color="#5EC7F7"/>
<stop offset="1" stop-color="#1F356C"/>
</linearGradient>
<linearGradient id="paint37_linear_2_1941" x1="567.747" y1="783.379" x2="579.804" y2="781.909" gradientUnits="userSpaceOnUse">
<stop stop-color="#5EC7F7"/>
<stop offset="1" stop-color="#1F356C"/>
</linearGradient>
<linearGradient id="paint38_linear_2_1941" x1="564.111" y1="782.921" x2="579.084" y2="781.008" gradientUnits="userSpaceOnUse">
<stop stop-color="#5EC7F7"/>
<stop offset="1" stop-color="#1F356C"/>
</linearGradient>
<linearGradient id="paint39_linear_2_1941" x1="550.472" y1="1075.13" x2="661.333" y2="1055.52" gradientUnits="userSpaceOnUse">
<stop stop-color="#5EC7F7"/>
<stop offset="1" stop-color="#1F356C"/>
</linearGradient>
<linearGradient id="paint40_linear_2_1941" x1="478.879" y1="1075.13" x2="587.818" y2="1056.22" gradientUnits="userSpaceOnUse">
<stop stop-color="#5EC7F7"/>
<stop offset="1" stop-color="#1F356C"/>
</linearGradient>
<linearGradient id="paint41_linear_2_1941" x1="478.879" y1="1075.13" x2="587.818" y2="1056.22" gradientUnits="userSpaceOnUse">
<stop stop-color="#5EC7F7"/>
<stop offset="1" stop-color="#1F356C"/>
</linearGradient>
<linearGradient id="paint42_linear_2_1941" x1="567.356" y1="879.409" x2="589.836" y2="878.026" gradientUnits="userSpaceOnUse">
<stop stop-color="#5EC7F7"/>
<stop offset="1" stop-color="#1F356C"/>
</linearGradient>
<linearGradient id="paint43_linear_2_1941" x1="539.004" y1="893.445" x2="609.443" y2="883.276" gradientUnits="userSpaceOnUse">
<stop stop-color="#5EC7F7"/>
<stop offset="1" stop-color="#1F356C"/>
</linearGradient>
<linearGradient id="paint44_linear_2_1941" x1="464.342" y1="910.249" x2="648.396" y2="893.664" gradientUnits="userSpaceOnUse">
<stop stop-color="#5EC7F7"/>
<stop offset="1" stop-color="#1F356C"/>
</linearGradient>
<linearGradient id="paint45_linear_2_1941" x1="465.415" y1="910.25" x2="647.484" y2="895.208" gradientUnits="userSpaceOnUse">
<stop stop-color="#5EC7F7"/>
<stop offset="1" stop-color="#1F356C"/>
</linearGradient>
<linearGradient id="paint46_linear_2_1941" x1="505.907" y1="827.412" x2="557.653" y2="808.079" gradientUnits="userSpaceOnUse">
<stop stop-color="#5EC7F7"/>
<stop offset="1" stop-color="#1F356C"/>
</linearGradient>
<linearGradient id="paint47_linear_2_1941" x1="493.718" y1="863.939" x2="577.759" y2="855.725" gradientUnits="userSpaceOnUse">
<stop stop-color="#5EC7F7"/>
<stop offset="1" stop-color="#1F356C"/>
</linearGradient>
<linearGradient id="paint48_linear_2_1941" x1="491.143" y1="856.89" x2="561.892" y2="847.083" gradientUnits="userSpaceOnUse">
<stop stop-color="#5EC7F7"/>
<stop offset="1" stop-color="#1F356C"/>
</linearGradient>
<linearGradient id="paint49_linear_2_1941" x1="481.781" y1="880.246" x2="525.992" y2="830.366" gradientUnits="userSpaceOnUse">
<stop stop-color="#5EC7F7"/>
<stop offset="1" stop-color="#1F356C"/>
</linearGradient>
<linearGradient id="paint50_linear_2_1941" x1="478.234" y1="908.246" x2="602.924" y2="892.246" gradientUnits="userSpaceOnUse">
<stop stop-color="#5EC7F7"/>
<stop offset="1" stop-color="#1F356C"/>
</linearGradient>
<linearGradient id="paint51_linear_2_1941" x1="491.657" y1="908.246" x2="559.194" y2="882.539" gradientUnits="userSpaceOnUse">
<stop stop-color="#5EC7F7"/>
<stop offset="1" stop-color="#1F356C"/>
</linearGradient>
<linearGradient id="paint52_linear_2_1941" x1="535.603" y1="886.439" x2="568.798" y2="882.639" gradientUnits="userSpaceOnUse">
<stop stop-color="#5EC7F7"/>
<stop offset="1" stop-color="#1F356C"/>
</linearGradient>
<linearGradient id="paint53_linear_2_1941" x1="535.035" y1="901.573" x2="567.545" y2="899.127" gradientUnits="userSpaceOnUse">
<stop stop-color="#5EC7F7"/>
<stop offset="1" stop-color="#1F356C"/>
</linearGradient>
<linearGradient id="paint54_linear_2_1941" x1="518.657" y1="863.847" x2="566.061" y2="861.341" gradientUnits="userSpaceOnUse">
<stop stop-color="#5EC7F7"/>
<stop offset="1" stop-color="#1F356C"/>
</linearGradient>
<linearGradient id="paint55_linear_2_1941" x1="519.711" y1="831.074" x2="615.704" y2="795.858" gradientUnits="userSpaceOnUse">
<stop stop-color="#5EC7F7"/>
<stop offset="1" stop-color="#1F356C"/>
</linearGradient>
<linearGradient id="paint56_linear_2_1941" x1="542.436" y1="846.546" x2="607.45" y2="839.315" gradientUnits="userSpaceOnUse">
<stop stop-color="#5EC7F7"/>
<stop offset="1" stop-color="#1F356C"/>
</linearGradient>
<linearGradient id="paint57_linear_2_1941" x1="524.399" y1="888.267" x2="684.957" y2="867.221" gradientUnits="userSpaceOnUse">
<stop stop-color="#5EC7F7"/>
<stop offset="1" stop-color="#1F356C"/>
</linearGradient>
<linearGradient id="paint58_linear_2_1941" x1="589.902" y1="888.594" x2="641.194" y2="882.049" gradientUnits="userSpaceOnUse">
<stop stop-color="#5EC7F7"/>
<stop offset="1" stop-color="#1F356C"/>
</linearGradient>
<linearGradient id="paint59_linear_2_1941" x1="531.55" y1="818.624" x2="545.117" y2="797.93" gradientUnits="userSpaceOnUse">
<stop stop-color="#5EC7F7"/>
<stop offset="1" stop-color="#1F356C"/>
</linearGradient>
<linearGradient id="paint60_linear_2_1941" x1="549.233" y1="843.524" x2="560.861" y2="842.961" gradientUnits="userSpaceOnUse">
<stop stop-color="#5EC7F7"/>
<stop offset="1" stop-color="#1F356C"/>
</linearGradient>
<linearGradient id="paint61_linear_2_1941" x1="570.849" y1="843.524" x2="577.814" y2="843.254" gradientUnits="userSpaceOnUse">
<stop stop-color="#5EC7F7"/>
<stop offset="1" stop-color="#1F356C"/>
</linearGradient>
<linearGradient id="paint62_linear_2_1941" x1="564.881" y1="867.845" x2="585.408" y2="861.378" gradientUnits="userSpaceOnUse">
<stop stop-color="#5EC7F7"/>
<stop offset="1" stop-color="#1F356C"/>
</linearGradient>
<linearGradient id="paint63_linear_2_1941" x1="545.374" y1="900.875" x2="594.204" y2="868.647" gradientUnits="userSpaceOnUse">
<stop stop-color="#5EC7F7"/>
<stop offset="1" stop-color="#1F356C"/>
</linearGradient>
<linearGradient id="paint64_linear_2_1941" x1="605.582" y1="877.944" x2="619.219" y2="869.429" gradientUnits="userSpaceOnUse">
<stop stop-color="#5EC7F7"/>
<stop offset="1" stop-color="#1F356C"/>
</linearGradient>
<linearGradient id="paint65_linear_2_1941" x1="605.476" y1="880.599" x2="605.751" y2="878.297" gradientUnits="userSpaceOnUse">
<stop stop-color="#5EC7F7"/>
<stop offset="1" stop-color="#1F356C"/>
</linearGradient>
<linearGradient id="paint66_linear_2_1941" x1="605.582" y1="884.078" x2="611.193" y2="875.424" gradientUnits="userSpaceOnUse">
<stop stop-color="#5EC7F7"/>
<stop offset="1" stop-color="#1F356C"/>
</linearGradient>
<linearGradient id="paint67_linear_2_1941" x1="493.475" y1="1072.11" x2="509.265" y2="1050.15" gradientUnits="userSpaceOnUse">
<stop stop-color="#5EC7F7"/>
<stop offset="1" stop-color="#1F356C"/>
</linearGradient>
<linearGradient id="paint68_linear_2_1941" x1="499.35" y1="1062.41" x2="504.917" y2="1051.85" gradientUnits="userSpaceOnUse">
<stop stop-color="#5EC7F7"/>
<stop offset="1" stop-color="#1F356C"/>
</linearGradient>
<linearGradient id="paint69_linear_2_1941" x1="518.798" y1="1067.26" x2="522.02" y2="1067.16" gradientUnits="userSpaceOnUse">
<stop stop-color="#5EC7F7"/>
<stop offset="1" stop-color="#1F356C"/>
</linearGradient>
<linearGradient id="paint70_linear_2_1941" x1="520.433" y1="1069.62" x2="521.19" y2="1065.61" gradientUnits="userSpaceOnUse">
<stop stop-color="#5EC7F7"/>
<stop offset="1" stop-color="#1F356C"/>
</linearGradient>
<linearGradient id="paint71_linear_2_1941" x1="589.915" y1="1068.36" x2="600.964" y2="1067.4" gradientUnits="userSpaceOnUse">
<stop stop-color="#5EC7F7"/>
<stop offset="1" stop-color="#1F356C"/>
</linearGradient>
<linearGradient id="paint72_linear_2_1941" x1="595.939" y1="1069.76" x2="599.069" y2="1063.43" gradientUnits="userSpaceOnUse">
<stop stop-color="#5EC7F7"/>
<stop offset="1" stop-color="#1F356C"/>
</linearGradient>
<linearGradient id="paint73_linear_2_1941" x1="564.148" y1="1072.11" x2="569.907" y2="1055.42" gradientUnits="userSpaceOnUse">
<stop stop-color="#5EC7F7"/>
<stop offset="1" stop-color="#1F356C"/>
</linearGradient>
<linearGradient id="paint74_linear_2_1941" x1="572.002" y1="1063.33" x2="585.919" y2="1051.62" gradientUnits="userSpaceOnUse">
<stop stop-color="#5EC7F7"/>
<stop offset="1" stop-color="#1F356C"/>
</linearGradient>
<linearGradient id="paint75_linear_2_1941" x1="499.399" y1="1047.58" x2="612.019" y2="1042.77" gradientUnits="userSpaceOnUse">
<stop stop-color="#5EC7F7"/>
<stop offset="1" stop-color="#1F356C"/>
</linearGradient>
<linearGradient id="paint76_linear_2_1941" x1="522.81" y1="982.397" x2="543.245" y2="973.779" gradientUnits="userSpaceOnUse">
<stop stop-color="#5EC7F7"/>
<stop offset="1" stop-color="#1F356C"/>
</linearGradient>
<linearGradient id="paint77_linear_2_1941" x1="565.818" y1="987.615" x2="593.218" y2="980.623" gradientUnits="userSpaceOnUse">
<stop stop-color="#5EC7F7"/>
<stop offset="1" stop-color="#1F356C"/>
</linearGradient>
<linearGradient id="paint78_linear_2_1941" x1="576.759" y1="982.398" x2="594.367" y2="982.24" gradientUnits="userSpaceOnUse">
<stop stop-color="#5EC7F7"/>
<stop offset="1" stop-color="#1F356C"/>
</linearGradient>
<linearGradient id="paint79_linear_2_1941" x1="584.982" y1="815.425" x2="598.827" y2="803.883" gradientUnits="userSpaceOnUse">
<stop stop-color="#5EC7F7"/>
<stop offset="1" stop-color="#1F356C"/>
</linearGradient>
<clipPath id="clip0_2_1941">
<rect width="818" height="503" fill="white" transform="translate(612.338 383.439)"/>
</clipPath>
</defs>
</svg>
