<svg width="1456" height="700" viewBox="0 0 1456 700" fill="none" xmlns="http://www.w3.org/2000/svg">
<ellipse rx="41.2293" ry="41.2293" transform="matrix(0.999931 0.0117487 -0.0117535 0.999931 499.934 246.404)" fill="#00A3FF" fill-opacity="0.6"/>
<ellipse rx="41.2293" ry="41.2293" transform="matrix(0.999931 0.0117487 -0.0117535 0.999931 771.145 124.366)" fill="#00A3FF" fill-opacity="0.6"/>
<ellipse rx="41.2293" ry="41.2293" transform="matrix(0.999931 0.0117487 -0.0117535 0.999931 857.527 311.998)" fill="#00A3FF" fill-opacity="0.6"/>
<ellipse rx="41.2293" ry="41.2293" transform="matrix(0.999931 0.0117487 -0.0117535 0.999931 1100.2 150.714)" fill="#00A3FF" fill-opacity="0.6"/>
<ellipse rx="41.2293" ry="41.2293" transform="matrix(0.999931 0.0117487 -0.0117535 0.999931 1110.39 377.113)" fill="#00A3FF" fill-opacity="0.6"/>
<ellipse rx="41.2293" ry="41.2293" transform="matrix(0.999931 0.0117487 -0.0117535 0.999931 1276.72 260.737)" fill="#00A3FF" fill-opacity="0.6"/>
<ellipse rx="41.2293" ry="41.2293" transform="matrix(0.999931 0.0117487 -0.0117535 0.999931 1356.06 171.885)" fill="#00A3FF" fill-opacity="0.6"/>
<ellipse rx="41.2293" ry="41.2293" transform="matrix(0.999931 0.0117487 -0.0117535 0.999931 1401.61 278.407)" fill="#00A3FF" fill-opacity="0.6"/>
<ellipse rx="41.2293" ry="41.2293" transform="matrix(0.999931 0.0117487 -0.0117535 0.999931 953.199 523.188)" fill="#00A3FF" fill-opacity="0.6"/>
<ellipse rx="41.2293" ry="41.2293" transform="matrix(0.999931 0.0117487 -0.0117535 0.999931 1338.02 564.899)" fill="#00A3FF" fill-opacity="0.6"/>
<ellipse rx="41.2293" ry="41.2293" transform="matrix(0.999931 0.0117487 -0.0117535 0.999931 835.832 613.618)" fill="#00A3FF" fill-opacity="0.6"/>
<ellipse rx="41.2293" ry="41.2293" transform="matrix(0.999931 0.0117487 -0.0117535 0.999931 774.121 533.384)" fill="#00A3FF" fill-opacity="0.6"/>
<ellipse rx="41.2293" ry="41.2293" transform="matrix(0.999931 0.0117487 -0.0117535 0.999931 508.473 524.705)" fill="#00A3FF" fill-opacity="0.6"/>
<ellipse rx="41.2293" ry="41.2293" transform="matrix(0.999931 0.0117487 -0.0117535 0.999931 425.965 452.998)" fill="#00A3FF" fill-opacity="0.6"/>
<ellipse rx="41.2293" ry="41.2293" transform="matrix(0.999931 0.0117487 -0.0117535 0.999931 268.012 534.9)" fill="#00A3FF" fill-opacity="0.6"/>
<ellipse rx="41.2293" ry="41.2293" transform="matrix(0.999931 0.0117487 -0.0117535 0.999931 154.277 549.431)" fill="#00A3FF" fill-opacity="0.6"/>
<ellipse rx="41.2293" ry="41.2293" transform="matrix(0.999931 0.0117487 -0.0117535 0.999931 59.1369 346.559)" fill="#00A3FF" fill-opacity="0.6"/>
<ellipse rx="41.2293" ry="41.2293" transform="matrix(0.999931 0.0117487 -0.0117535 0.999931 298.371 371.567)" fill="#00A3FF" fill-opacity="0.6"/>
<ellipse rx="41.2293" ry="41.2293" transform="matrix(0.999931 0.0117487 -0.0117535 0.999931 353.942 281.682)" fill="#00A3FF" fill-opacity="0.6"/>
<ellipse rx="41.2293" ry="41.2293" transform="matrix(0.999931 0.0117487 -0.0117535 0.999931 229.145 97.4343)" fill="#00A3FF" fill-opacity="0.6"/>
</svg>
