<svg width="36" height="39" viewBox="0 0 36 39" fill="none" xmlns="http://www.w3.org/2000/svg">
<g clip-path="url(#clip0_2_1173)">
<path d="M5.07923 38.9049C4.72409 38.8161 4.40249 38.6284 4.15291 38.3644C3.90332 38.1004 3.73633 37.7712 3.67191 37.4162C3.59451 36.98 3.77042 36.6684 4.12225 36.613C4.47408 36.5576 4.69925 36.7654 4.78369 37.2016C4.79804 37.3713 4.88014 37.5285 5.01202 37.6388C5.14389 37.7491 5.31481 37.8036 5.48735 37.7901H32.9301C33.697 37.7901 33.873 37.617 33.873 36.8485C33.873 27.5793 33.873 18.3055 33.873 9.02703C33.873 8.66004 33.7956 8.54926 33.4015 8.55618C31.7831 8.55618 30.1647 8.55618 28.5392 8.55618C28.3598 8.58022 28.1771 8.56312 28.0054 8.5062C27.8338 8.44928 27.6779 8.35409 27.5498 8.22807C27.4217 8.10204 27.325 7.94859 27.2671 7.77969C27.2093 7.6108 27.1919 7.43103 27.2163 7.25443C27.2163 5.62725 27.2163 3.99313 27.2163 2.35902C27.2163 2.07513 27.1389 2.01281 26.8575 2.01281H5.58586C4.99479 2.01281 4.78369 2.24131 4.78369 2.87834V21.3244C4.78369 21.449 4.78369 21.5737 4.78369 21.6983C4.78187 21.8428 4.72271 21.9809 4.61886 22.0831C4.515 22.1853 4.37466 22.2435 4.2278 22.2453C4.08189 22.2438 3.94198 22.188 3.83622 22.0891C3.73046 21.9902 3.66673 21.8555 3.65784 21.7122C3.65784 21.5114 3.74931 21.2344 3.59451 21.1098C3.4397 20.9851 3.13009 21.0682 2.89085 21.0682C2.67777 21.0508 2.4636 21.0508 2.25052 21.0682C1.94489 21.0835 1.65598 21.2102 1.4401 21.4236C1.22422 21.637 1.09684 21.9219 1.08279 22.2227C1.06873 22.5236 1.16901 22.8187 1.36407 23.0508C1.55914 23.2828 1.83501 23.435 2.13793 23.4778C2.33568 23.5089 2.53582 23.5228 2.73604 23.5194H20.8904C21.3706 23.4815 21.849 23.6115 22.2415 23.8864C22.4649 24.0525 22.6451 24.2684 22.7675 24.5164C22.8898 24.7643 22.9506 25.0372 22.9451 25.3127C22.9451 28.0824 22.9451 30.8036 22.9451 33.5456C22.9543 33.7859 22.9124 34.0254 22.8223 34.2489C22.7321 34.4724 22.5957 34.675 22.4216 34.8437C22.2474 35.0124 22.0395 35.1436 21.811 35.2289C21.5826 35.3142 21.3385 35.3517 21.0945 35.339C14.8882 35.339 8.68196 35.339 2.47569 35.339C2.15094 35.3506 1.82724 35.2962 1.52479 35.1793C1.22235 35.0623 0.947662 34.8852 0.717877 34.6591C0.488091 34.433 0.308142 34.1627 0.189265 33.8651C0.0703873 33.5675 0.0151345 33.2489 0.0269555 32.9294C0.0269555 29.4026 0.0269555 25.8828 0.0269555 22.37C0.0155289 22.0567 0.0687568 21.7443 0.183424 21.4519C0.298091 21.1594 0.471817 20.8928 0.694109 20.6682C0.916402 20.4437 1.18265 20.2658 1.47676 20.1453C1.77088 20.0248 2.08676 19.9643 2.40532 19.9673C2.72901 19.9673 3.05973 19.9673 3.38341 19.9673C3.5734 19.9673 3.67191 19.9119 3.6508 19.7111C3.6439 19.6142 3.6439 19.5171 3.6508 19.4202V2.93373C3.6508 1.59736 4.34039 0.904942 5.71956 0.904942C13.0235 0.904942 20.3252 0.904942 27.6245 0.904942C27.9486 0.8924 28.2717 0.947628 28.5725 1.06698C28.8733 1.18634 29.1449 1.36711 29.3695 1.59736C31.0067 3.2407 32.6486 4.86789 34.2952 6.47892C34.5246 6.69018 34.706 6.94689 34.8273 7.23214C34.9485 7.51739 35.007 7.8247 34.9988 8.1338C34.9988 17.6569 34.9988 27.1777 34.9988 36.6961C35.0639 37.1703 34.9542 37.6517 34.6896 38.0532C34.4249 38.4546 34.0229 38.7494 33.5563 38.8842L5.07923 38.9049ZM1.15985 24.2741V32.687C1.15985 33.788 1.60315 34.2242 2.7079 34.2242H20.8342C21.6082 34.2242 21.7982 34.0442 21.7982 33.2894V25.6105C21.7982 24.7934 21.6363 24.6342 20.806 24.6342H2.90492C2.30009 24.6827 1.69393 24.5576 1.15985 24.2741ZM33.5282 7.44831L28.3915 2.36595C28.3915 2.36595 28.3915 2.36595 28.3915 2.41442C28.3915 4.01391 28.3915 5.60647 28.3915 7.19904C28.3915 7.47601 28.5392 7.45523 28.7292 7.45523H33.5845L33.5282 7.44831Z" fill="#BF272D"/>
<path d="M23.5084 15.8338C24.1987 15.8056 24.8898 15.8685 25.5631 16.0207L25.7109 16.0554C26.6538 16.3323 27.076 16.9209 26.879 17.6618C26.8335 17.8712 26.7446 18.0692 26.6179 18.2434C26.4911 18.4175 26.3293 18.564 26.1424 18.6739C25.9555 18.7837 25.7477 18.8544 25.5318 18.8816C25.3159 18.9088 25.0966 18.8919 24.8876 18.832C23.9375 18.5295 23.079 17.9988 22.3896 17.2879C22.287 17.1849 22.1599 17.1088 22.0198 17.0665C21.8797 17.0242 21.7311 17.017 21.5874 17.0455C20.0675 17.2194 18.5624 17.5017 17.084 17.8903C16.9873 17.9129 16.8965 17.9554 16.8176 18.0151C16.7388 18.0748 16.6737 18.1502 16.6267 18.2365C16.1782 19.0653 15.6352 19.8412 15.0082 20.5492C14.737 20.8592 14.4162 21.1235 14.0583 21.3316C13.8005 21.5019 13.4906 21.5792 13.1815 21.5501C12.8723 21.5211 12.5829 21.3876 12.3625 21.1723C12.1069 20.9462 11.938 20.6405 11.8842 20.3064C11.8304 19.9724 11.8949 19.6303 12.0669 19.3374C12.3466 18.8717 12.7442 18.4852 13.2209 18.2157C13.992 17.7496 14.8225 17.3864 15.6908 17.1355C15.7966 17.105 15.8943 17.052 15.977 16.9802C16.0596 16.9084 16.1253 16.8196 16.1693 16.7201C16.9086 15.2757 17.5412 13.7809 18.0621 12.2471C18.1001 12.1444 18.1147 12.0347 18.105 11.9259C18.0953 11.817 18.0614 11.7116 18.0058 11.617C17.522 10.7917 17.1886 9.88947 17.0207 8.95114C16.9588 8.72946 16.9475 8.49703 16.9876 8.27055C17.0277 8.04406 17.1183 7.82912 17.2528 7.64115C17.3874 7.45318 17.5625 7.29683 17.7657 7.18333C17.9689 7.06983 18.195 7.00199 18.428 6.98466C18.5861 6.95788 18.748 6.96209 18.9044 6.99706C19.0608 7.03203 19.2086 7.09707 19.3394 7.18844C19.4701 7.2798 19.5813 7.3957 19.6664 7.52947C19.7515 7.66323 19.8089 7.81223 19.8353 7.9679C19.9731 8.86278 19.9156 9.77629 19.6665 10.6476C19.6537 10.7467 19.6301 10.8442 19.5961 10.9384C19.4611 11.2245 19.4184 11.5445 19.4738 11.8552C19.5291 12.1659 19.6799 12.4525 19.9057 12.6764C20.5933 13.6363 21.3308 14.5608 22.1152 15.446C22.2054 15.5856 22.3361 15.6953 22.4905 15.7607C22.6449 15.8262 22.8157 15.8444 22.9807 15.813C23.1569 15.8061 23.3334 15.813 23.5084 15.8338ZM18.9276 13.2164C18.5054 14.4005 18.034 15.4945 17.5203 16.6301C18.7165 16.3531 19.8705 16.1454 21.0949 15.9792C20.3137 15.1044 19.5898 14.1816 18.9276 13.2164ZM15.0223 18.6242C14.3533 18.8364 13.7388 19.1883 13.2209 19.6559C13.0239 19.8567 12.8761 20.0852 13.1224 20.3484C13.3687 20.6115 13.5446 20.3484 13.7065 20.2376C14.247 19.7886 14.6939 19.2407 15.0223 18.6242ZM18.611 10.3152C18.7668 9.70452 18.8309 9.07464 18.801 8.44567C18.801 8.31411 18.801 8.15485 18.5899 8.15485C18.5081 8.14088 18.424 8.15363 18.3503 8.19114C18.2766 8.22864 18.2174 8.28886 18.1817 8.36258C18.1513 8.44237 18.1346 8.52663 18.1325 8.61185C18.1676 9.19778 18.3308 9.76934 18.611 10.2875V10.3152ZM23.7406 16.9763C24.0145 17.2199 24.3197 17.4271 24.6484 17.5925C24.8731 17.7267 25.1314 17.7963 25.3942 17.7933C25.4899 17.7871 25.5801 17.7473 25.6485 17.6813C25.7169 17.6152 25.759 17.5272 25.7672 17.4333C25.8094 17.2463 25.6194 17.2325 25.5068 17.1909C24.9364 17.012 24.3391 16.9301 23.7406 16.9486V16.9763Z" fill="#BF272D"/>
<path d="M9.93484 29.3984C9.93484 28.7059 9.93484 28.0135 9.93484 27.3211C9.93484 26.781 10.1178 26.6287 10.6385 26.6287H11.7644C12.2846 26.6037 12.7982 26.7521 13.2221 27.0499C13.646 27.3477 13.9555 27.7775 14.1005 28.2697C14.2513 28.7099 14.3121 29.1752 14.2795 29.6386C14.2469 30.102 14.1215 30.5546 13.9105 30.9701C13.7248 31.3662 13.4268 31.7011 13.0523 31.9345C12.6778 32.1679 12.2428 32.2898 11.7995 32.2857H10.6807C10.153 32.2857 9.94188 32.0988 9.93484 31.5933C9.92077 30.8594 9.93484 30.1254 9.93484 29.3984ZM11.0677 29.3984C11.0677 29.89 11.0677 30.3816 11.0677 30.8801C11.0677 30.9771 11.0255 31.1363 11.1874 31.1433C11.4402 31.1933 11.701 31.1895 11.9522 31.1321C12.2034 31.0748 12.4393 30.9653 12.6439 30.8109C12.9136 30.478 13.0862 30.0792 13.1432 29.6572C13.2002 29.2351 13.1395 28.8058 12.9676 28.4151C12.6932 27.7919 12.264 27.5911 11.307 27.6465C11.1029 27.6465 11.0537 27.7365 11.0537 27.9166C11.0677 28.4428 11.0677 28.9344 11.0677 29.4261V29.3984Z" fill="#BF272D"/>
<path d="M4.85442 29.4122C4.85442 28.6574 4.85442 27.9027 4.85442 27.1549C4.85442 26.6979 5.05144 26.504 5.5229 26.4971C5.99435 26.4902 6.40247 26.4971 6.83874 26.4971C7.33416 26.5078 7.80606 26.7072 8.15515 27.0533C8.50424 27.3994 8.7033 27.8652 8.71047 28.3528C8.71483 28.8464 8.52564 29.3226 8.18226 29.6824C7.83889 30.0422 7.36776 30.2579 6.86689 30.2846C6.58542 30.2846 6.20545 30.16 6.03657 30.3539C5.86769 30.5478 5.99435 30.9217 5.98731 31.2125C5.98028 31.5033 5.98731 31.6072 5.98731 31.808C5.98047 31.9509 5.9197 32.0861 5.8169 32.1873C5.7141 32.2884 5.57665 32.3482 5.43142 32.355C5.3551 32.356 5.27936 32.3417 5.20883 32.313C5.13829 32.2842 5.07442 32.2417 5.02111 32.188C4.9678 32.1342 4.92615 32.0703 4.89871 32.0003C4.87126 31.9302 4.85859 31.8553 4.86146 31.7803C4.84738 30.9978 4.85442 30.2085 4.85442 29.4122ZM5.98731 28.4013C5.98731 29.2529 6.0436 29.3083 6.86689 29.1629C6.96494 29.1477 7.05993 29.1173 7.14835 29.0729C7.27307 29.0128 7.37888 28.9205 7.45447 28.8059C7.53007 28.6913 7.57262 28.5586 7.57758 28.422C7.59078 28.2792 7.55861 28.1359 7.4855 28.0119C7.4124 27.8879 7.30197 27.7892 7.16946 27.7296C7.00059 27.6461 6.81636 27.597 6.62776 27.5851C6.43917 27.5732 6.25007 27.5988 6.07175 27.6604C5.86065 27.7296 6.02249 28.1104 5.98731 28.3528C5.98587 28.3689 5.98587 28.3851 5.98731 28.4013Z" fill="#BF272D"/>
<path d="M15.5078 29.4192V27.2173C15.5078 26.6841 15.6978 26.4902 16.2115 26.4902H17.9003C18.3084 26.4902 18.5617 26.7049 18.6039 27.0372C18.6015 27.1174 18.5822 27.1962 18.5474 27.2687C18.5125 27.3412 18.4628 27.4058 18.4013 27.4584C18.3399 27.5111 18.268 27.5507 18.1902 27.5747C18.1125 27.5988 18.0305 27.6067 17.9495 27.5981C17.5977 27.5981 17.2458 27.5981 16.894 27.5981C16.7181 27.5981 16.6618 27.6466 16.6477 27.8266C16.5914 28.796 16.5844 28.796 17.5695 28.796C17.7189 28.7752 17.8705 28.7752 18.0199 28.796C18.152 28.8197 18.2697 28.8928 18.3483 28.9999C18.427 29.107 18.4606 29.2398 18.4421 29.3707C18.4402 29.5036 18.3853 29.6304 18.2892 29.7237C18.193 29.817 18.0634 29.8693 17.9284 29.8692C17.5906 29.8692 17.2247 29.8692 16.9081 29.8692C16.7111 29.8692 16.6477 29.9246 16.6548 30.1185C16.6548 30.5755 16.6548 31.0325 16.6548 31.5034C16.6548 31.9742 16.4578 32.2996 16.0848 32.2927C15.7119 32.2858 15.5078 32.0642 15.5078 31.531V29.4192Z" fill="#BF272D"/>
</g>
<defs>
<clipPath id="clip0_2_1173">
<rect width="35" height="38" fill="white" transform="translate(0.0273438 0.905273)"/>
</clipPath>
</defs>
</svg>
