<svg width="23" height="24" viewBox="0 0 23 24" fill="none" xmlns="http://www.w3.org/2000/svg">
<path d="M11.0357 3.47729C9.49157 3.6577 8.02754 4.29027 6.81211 5.30219C5.59668 6.31411 4.67926 7.66425 4.16542 9.19723C3.65159 10.7302 3.56223 12.3837 3.90763 13.9674C4.25302 15.5512 5.01914 17.0008 6.11781 18.1494C7.21648 19.298 8.60304 20.0989 10.1179 20.46C11.6328 20.8211 13.2144 20.7277 14.6807 20.1905C16.147 19.6533 17.4385 18.6942 18.4064 17.4235C19.3743 16.1528 19.9794 14.6222 20.152 13.0079H11.0357V3.47729Z" stroke="white" stroke-width="1.5" stroke-linecap="round" stroke-linejoin="round"/>
<path d="M19.7328 9.17462H14.7021V3.91528C15.8621 4.34551 16.9156 5.04088 17.7859 5.95072C18.6562 6.86057 19.3213 7.96196 19.7328 9.17462V9.17462Z" stroke="white" stroke-width="1.5" stroke-linecap="round" stroke-linejoin="round"/>
</svg>
