<svg width="18" height="19" viewBox="0 0 18 19" fill="none" xmlns="http://www.w3.org/2000/svg">
<path d="M14.484 15.6528C13.8434 14.8048 13.0148 14.1171 12.0632 13.6438C11.1117 13.1706 10.0632 12.9248 9.00046 12.9258C7.93772 12.9248 6.88927 13.1706 5.93771 13.6438C4.98615 14.1171 4.15747 14.8048 3.51696 15.6528M14.483 15.6528C15.7329 14.5411 16.6153 13.0757 17.0132 11.4509C17.4111 9.82616 17.3057 8.11884 16.711 6.55536C16.1162 4.99188 15.0603 3.64613 13.6832 2.69658C12.306 1.74702 10.6728 1.23853 9 1.23853C7.32723 1.23853 5.69398 1.74702 4.31685 2.69658C2.93971 3.64613 1.88376 4.99188 1.28903 6.55536C0.694305 8.11884 0.588899 9.82616 0.986794 11.4509C1.38469 13.0757 2.26708 14.5411 3.51696 15.6528M14.483 15.6528C12.9742 16.9987 11.0223 17.7411 9.00046 17.7383C6.97832 17.7414 5.02601 16.9989 3.51696 15.6528M11.7505 7.42575C11.7505 8.1551 11.4607 8.85457 10.945 9.3703C10.4293 9.88602 9.72981 10.1758 9.00046 10.1758C8.27111 10.1758 7.57164 9.88602 7.05592 9.3703C6.54019 8.85457 6.25046 8.1551 6.25046 7.42575C6.25046 6.69641 6.54019 5.99694 7.05592 5.48121C7.57164 4.96549 8.27111 4.67575 9.00046 4.67575C9.72981 4.67575 10.4293 4.96549 10.945 5.48121C11.4607 5.99694 11.7505 6.69641 11.7505 7.42575V7.42575Z" stroke="#858585" stroke-width="1.5" stroke-linecap="round" stroke-linejoin="round"/>
</svg>
