<svg width="23" height="23" viewBox="0 0 23 23" fill="none" xmlns="http://www.w3.org/2000/svg">
<path d="M6.13775 22.508C4.88086 22.2383 3.72884 21.6107 2.82067 20.7009C1.9125 19.7911 1.28697 18.638 1.01953 17.3806" stroke="url(#paint0_linear_128_1085)" stroke-miterlimit="10"/>
<path d="M6.61643 19.3121C6.04217 19.156 5.51857 18.8528 5.09738 18.4324C4.67619 18.012 4.37199 17.489 4.21484 16.915" stroke="url(#paint1_linear_128_1085)" stroke-miterlimit="10"/>
<path d="M6.38035 20.9055C5.46386 20.6936 4.62529 20.2287 3.96014 19.5635C3.295 18.8984 2.83002 18.0598 2.61816 17.1433" stroke="url(#paint2_linear_128_1085)" stroke-miterlimit="10"/>
<path d="M8.28355 17.1295L6.16504 17.3578L6.39333 15.2393" stroke="url(#paint3_linear_128_1085)" stroke-miterlimit="10"/>
<path d="M8.66211 12.491L11.0454 14.8743" stroke="#4D4D4D" stroke-miterlimit="10"/>
<path d="M14.3291 6.82495L16.7124 9.20371" stroke="url(#paint4_linear_128_1085)" stroke-miterlimit="10"/>
<path d="M11.022 14.8786C12.0037 16.5908 11.9945 18.5312 10.8622 19.6498L3.88574 12.6277C5.02262 11.4999 6.95393 11.4999 8.66153 12.4907" stroke="url(#paint5_linear_128_1085)" stroke-miterlimit="10"/>
<path d="M16.7342 9.26709C16.9051 9.66219 16.953 10.0996 16.8715 10.5223C16.7901 10.9451 16.5831 11.3334 16.2776 11.6367L15.2503 12.6458L15.958 13.3763L17.0218 12.317C17.0754 12.2623 17.1393 12.2189 17.2099 12.1893C17.2805 12.1596 17.3562 12.1443 17.4328 12.1443C17.5093 12.1443 17.5851 12.1596 17.6556 12.1893C17.7262 12.2189 17.7901 12.2623 17.8437 12.317L22.0716 16.8965C22.1779 17.0078 22.2372 17.1558 22.2372 17.3097C22.2372 17.4636 22.1779 17.6116 22.0716 17.7229L19.5147 20.2614C19.404 20.3688 19.2558 20.4289 19.1015 20.4289C18.9473 20.4289 18.7991 20.3688 18.6883 20.2614L14.1226 16.0153C14.013 15.9057 13.9515 15.7571 13.9515 15.6021C13.9515 15.4471 14.013 15.2985 14.1226 15.1889L15.2184 14.0977L14.5015 13.3763L13.4332 14.4355C13.1242 14.7415 12.7295 14.9464 12.3014 15.0231C11.8734 15.0997 11.4321 15.0445 11.0361 14.8647" stroke="#4D4D4D" stroke-miterlimit="10"/>
<path d="M14.3242 6.82022L14.3562 4.87064L14.8538 4.36841L19.1913 8.72871L18.6891 9.22637L16.7395 9.24464" stroke="url(#paint6_linear_128_1085)" stroke-miterlimit="10"/>
<path d="M8.66257 12.4908C8.48685 12.0921 8.43642 11.6493 8.51796 11.2213C8.59949 10.7932 8.80914 10.4 9.11914 10.0938L10.1738 9.04368L9.44788 8.35425L8.36579 9.43177C8.31223 9.48643 8.2483 9.52986 8.17774 9.55951C8.10718 9.58916 8.03141 9.60444 7.95487 9.60444C7.87834 9.60444 7.80257 9.58916 7.73201 9.55951C7.66145 9.52986 7.59752 9.48643 7.54396 9.43177L3.31606 4.81122C3.20973 4.69993 3.15039 4.55194 3.15039 4.39802C3.15039 4.2441 3.20973 4.0961 3.31606 3.98481L5.87289 1.44625C5.98363 1.33886 6.13183 1.27881 6.28609 1.27881C6.44035 1.27881 6.58855 1.33886 6.69929 1.44625L11.265 5.69697C11.3197 5.75054 11.3631 5.81447 11.3928 5.88503C11.4224 5.95559 11.4377 6.03136 11.4377 6.10789C11.4377 6.18443 11.4224 6.26019 11.3928 6.33075C11.3631 6.40131 11.3197 6.46525 11.265 6.51881L10.1875 7.59176L10.8952 8.29946L11.9362 7.25846C12.2402 6.9526 12.6294 6.74544 13.0529 6.664C13.4764 6.58256 13.9146 6.63061 14.3104 6.80189" stroke="#4D4D4D" stroke-miterlimit="10"/>
<path d="M4.59961 2.71558L8.77728 6.89324" stroke="#4D4D4D" stroke-miterlimit="10"/>
<path d="M16.6523 14.7737L20.83 18.9514" stroke="#4D4D4D" stroke-miterlimit="10"/>
<path d="M11.3926 12.5137L12.1277 13.2488" stroke="#4D4D4D" stroke-miterlimit="10"/>
<path d="M12.0781 11.8242L12.8178 12.5593" stroke="#4D4D4D" stroke-miterlimit="10"/>
<path d="M12.7666 11.1394L13.5017 11.8745" stroke="#4D4D4D" stroke-miterlimit="10"/>
<defs>
<linearGradient id="paint0_linear_128_1085" x1="-1.95351" y1="22.508" x2="14.5709" y2="20.3857" gradientUnits="userSpaceOnUse">
<stop stop-color="#5EC7F7"/>
<stop offset="1" stop-color="#1F356C"/>
</linearGradient>
<linearGradient id="paint1_linear_128_1085" x1="2.81982" y1="19.3121" x2="10.5725" y2="18.3127" gradientUnits="userSpaceOnUse">
<stop stop-color="#5EC7F7"/>
<stop offset="1" stop-color="#1F356C"/>
</linearGradient>
<linearGradient id="paint2_linear_128_1085" x1="0.432808" y1="20.9055" x2="12.5785" y2="19.3428" gradientUnits="userSpaceOnUse">
<stop stop-color="#5EC7F7"/>
<stop offset="1" stop-color="#1F356C"/>
</linearGradient>
<linearGradient id="paint3_linear_128_1085" x1="4.93445" y1="17.3578" x2="11.7738" y2="16.4778" gradientUnits="userSpaceOnUse">
<stop stop-color="#5EC7F7"/>
<stop offset="1" stop-color="#1F356C"/>
</linearGradient>
<linearGradient id="paint4_linear_128_1085" x1="12.9447" y1="9.20374" x2="20.6384" y2="8.2119" gradientUnits="userSpaceOnUse">
<stop stop-color="#5EC7F7"/>
<stop offset="1" stop-color="#1F356C"/>
</linearGradient>
<linearGradient id="paint5_linear_128_1085" x1="-0.674338" y1="19.6499" x2="24.6732" y2="16.4032" gradientUnits="userSpaceOnUse">
<stop stop-color="#5EC7F7"/>
<stop offset="1" stop-color="#1F356C"/>
</linearGradient>
<linearGradient id="paint6_linear_128_1085" x1="11.497" y1="9.24469" x2="27.2107" y2="7.22664" gradientUnits="userSpaceOnUse">
<stop stop-color="#5EC7F7"/>
<stop offset="1" stop-color="#1F356C"/>
</linearGradient>
</defs>
</svg>
