<svg width="62" height="51" viewBox="0 0 62 51" fill="none" xmlns="http://www.w3.org/2000/svg">
<path d="M60.9323 9.07621C60.8917 8.76231 60.7807 8.46165 60.6075 8.19671C60.4343 7.93176 60.2035 7.70939 59.9323 7.54621C59.7446 7.42455 59.5306 7.34931 59.308 7.32671C59.0854 7.3041 58.8607 7.33478 58.6523 7.41621C58.2423 7.58621 58.1123 7.52621 58.0923 7.49621C58.0723 7.46621 58.0923 6.80621 58.0923 6.49621C58.1379 6.31952 58.1647 6.13852 58.1723 5.95621C58.2063 5.24933 58.2797 4.5449 58.3923 3.84621C58.4623 3.28621 58.5223 2.84621 58.5223 2.58621C58.545 2.21812 58.487 1.84952 58.3523 1.50621C58.3039 1.39197 58.2232 1.29429 58.1203 1.22505C58.0173 1.1558 57.8964 1.11799 57.7723 1.11621C57.4515 1.18275 57.1559 1.338 56.919 1.56429C56.6821 1.79058 56.5135 2.07882 56.4323 2.39621C56.3567 3.13595 56.1102 3.84801 55.7123 4.47621C55.5623 4.75621 55.5023 4.85621 55.5023 4.94621C55.4863 5.14791 55.4238 5.34316 55.3197 5.51666C55.2156 5.69016 55.0728 5.83718 54.9023 5.94621C54.7373 6.07475 54.5311 6.13874 54.3223 6.12621C54.2916 6.10958 54.2572 6.10087 54.2223 6.10087C54.1874 6.10087 54.153 6.10958 54.1223 6.12621L53.7423 6.45621C53.1023 7.10621 53.0623 7.12621 52.7423 7.27621C52.6023 7.33621 52.4123 7.42621 52.1323 7.57621C51.8523 7.72621 51.7823 7.97621 51.5323 8.45621C51.3901 8.77 51.2158 9.06825 51.0123 9.34621C51.0123 9.34621 51.0123 9.34621 50.9123 9.10621C50.8123 8.86621 50.6923 8.45621 50.3823 8.43621C50.0723 8.41621 49.8023 8.74621 49.5323 9.43621C49.5276 9.46603 49.5276 9.49639 49.5323 9.52621C49.523 9.87298 49.4299 10.2123 49.261 10.5153C49.0921 10.8183 48.8524 11.0759 48.5623 11.2662C48.1 11.6174 47.7521 12.0976 47.5623 12.6462C47.276 13.0234 46.9396 13.3599 46.5623 13.6462C45.9584 14.1018 45.4631 14.6859 45.1123 15.3562V15.4262L45.0223 15.5762C44.3576 15.8044 43.783 16.2388 43.3823 16.8162C43.2323 17.0162 43.1523 17.1262 42.9823 17.1662H42.8923C42.4324 17.276 42.0078 17.5005 41.658 17.8188C41.3083 18.137 41.0449 18.5387 40.8923 18.9862C40.7223 19.3662 40.6023 19.6462 40.2723 19.7662C39.6478 19.9287 39.1103 20.3265 38.7723 20.8762C38.6901 21.1358 38.6601 21.409 38.6841 21.6802C38.7082 21.9514 38.7857 22.2152 38.9123 22.4562C39.1723 23.1462 39.2823 23.5162 38.6723 23.8362C38.0339 24.2292 37.4491 24.7031 36.9323 25.2462C36.1723 25.9762 35.3823 26.7262 34.9323 26.5762C34.6523 26.4962 34.4323 26.1162 34.2823 25.4362C34.2526 25.3281 34.1941 25.2302 34.1131 25.1527C34.0321 25.0752 33.9316 25.0211 33.8223 24.9962C33.6155 24.961 33.4031 24.9792 33.2053 25.0492C33.0075 25.1193 32.8309 25.2387 32.6923 25.3962C32.5062 25.6033 32.3837 25.8596 32.3394 26.1344C32.295 26.4093 32.3308 26.6911 32.4423 26.9462C32.467 27.0092 32.4745 27.0776 32.464 27.1444C32.4534 27.2112 32.4252 27.2739 32.3823 27.3262C31.8423 28.1062 29.2323 28.5462 28.8823 28.5562C28.8368 28.5417 28.7879 28.5417 28.7423 28.5562C27.1823 29.6762 26.4223 28.8862 25.7423 28.1962C25.2923 27.7362 24.7423 27.1962 24.1623 27.7662C23.0723 28.7662 22.3223 28.1062 21.6623 27.5462C21.3123 27.2362 21.0123 26.9762 20.6623 27.0462C20.5617 27.0707 20.4683 27.1188 20.39 27.1866C20.3118 27.2545 20.2508 27.3401 20.2123 27.4362C20.1106 27.6739 19.9759 27.896 19.8123 28.0962L19.7023 28.0162C19.4786 27.8558 19.2165 27.7574 18.9425 27.7311C18.6685 27.7048 18.3925 27.7514 18.1423 27.8662C18.0029 27.9125 17.8586 27.9427 17.7123 27.9562C16.7755 27.9576 15.8597 27.679 15.0823 27.1562C14.5223 26.8462 14.0823 26.6262 13.8123 26.7462C13.7445 26.7721 13.6838 26.8137 13.6351 26.8676C13.5864 26.9215 13.5512 26.9861 13.5323 27.0562C13.4123 27.3862 13.2823 27.5962 13.1423 27.6562C13.0023 27.7162 12.9023 27.6562 12.7223 27.5962C12.6386 27.554 12.5461 27.532 12.4523 27.532C12.3585 27.532 12.2661 27.554 12.1823 27.5962C12.0323 27.6962 11.9623 27.8962 11.9523 28.2562C11.8923 29.7362 11.2423 29.7362 10.4123 29.7362C10.0986 29.7271 9.78525 29.7641 9.48232 29.8462C9.11612 29.9338 8.73505 29.9388 8.36666 29.861C7.99828 29.7832 7.65181 29.6244 7.35232 29.3962C6.97232 29.1662 6.66232 28.9862 6.35232 29.1262C6.04232 29.2662 6.06232 29.5662 6.04232 29.8362C6.02873 30.1289 5.97489 30.4183 5.88232 30.6962C5.50232 30.5462 4.59232 27.8262 4.67232 27.3662C5.22232 25.6162 5.20232 25.2262 4.94232 25.0862C4.68232 24.9462 4.32232 25.2862 3.82232 25.8462C3.64503 26.0516 3.45463 26.2454 3.25232 26.4262C3.35232 25.4262 3.32232 25.1962 3.09232 25.1362C2.86232 25.0762 2.72232 25.3362 2.47232 25.9162C2.47232 25.9662 2.42232 26.0262 2.39232 26.0862C2.39232 24.9462 2.24232 23.6462 1.67232 23.4162C1.58017 23.3777 1.47815 23.3695 1.38106 23.3929C1.28396 23.4163 1.19684 23.47 1.13232 23.5462C1.01905 23.6836 0.944496 23.8487 0.916368 24.0245C0.888241 24.2003 0.907555 24.3804 0.972317 24.5462C1.23306 25.2902 1.33857 26.0798 1.28232 26.8662C1.28232 27.7062 1.28232 28.4462 1.73232 28.8662L13.3523 45.3562C13.3872 45.3996 13.4372 45.4282 13.4923 45.4362L17.6923 46.0162L44.6323 49.6462L44.8923 49.7362H45.0023C45.2704 49.6996 45.5283 49.6089 45.7604 49.4696C45.9924 49.3304 46.1938 49.1455 46.3523 48.9262C46.8723 48.1162 46.6023 46.9262 46.3523 45.9262C46.1354 45.3311 46.0836 44.6884 46.2023 44.0662C46.2823 43.8562 47.6723 40.9162 47.7423 40.7862C48.2611 39.9434 48.6742 39.0399 48.9723 38.0962C49.0823 37.7862 49.2123 37.4262 49.2323 37.3962C50.0023 36.8562 50.3723 36.3962 50.4123 36.0162C50.4143 35.8574 50.3803 35.7002 50.3127 35.5564C50.2452 35.4126 50.1459 35.286 50.0223 35.1862C49.9023 35.0562 49.7823 34.9262 49.7823 34.8162C49.8248 34.6833 49.909 34.5676 50.0223 34.4862C50.1626 34.3707 50.2962 34.2471 50.4223 34.1162C50.6018 33.9678 50.7434 33.7789 50.8355 33.5651C50.9277 33.3512 50.9677 33.1186 50.9523 32.8862C50.8523 32.3162 50.2123 31.9862 49.7023 31.7262C49.4823 31.6162 49.1223 31.4262 49.1023 31.3362C49.0823 31.2462 49.1723 31.0962 50.4623 30.6362C52.7223 29.8162 53.1023 30.2662 53.3323 30.5262C53.4019 30.6476 53.515 30.7378 53.6488 30.7787C53.7825 30.8196 53.9268 30.808 54.0523 30.7462C54.239 30.6817 54.4293 30.6282 54.6223 30.5862C55.6223 30.3062 56.4723 30.0462 56.5423 29.5862C56.5495 29.4916 56.5321 29.3968 56.4918 29.311C56.4515 29.2251 56.3896 29.1511 56.3123 29.0962C56.6323 28.3962 56.6123 27.8562 56.2523 27.4862C56.034 27.3092 55.7785 27.1839 55.5048 27.1198C55.2311 27.0557 54.9465 27.0545 54.6723 27.1162C54.4849 27.2294 54.2831 27.3169 54.0723 27.3762C54.0639 27.2797 54.0639 27.1827 54.0723 27.0862C54.221 26.5988 54.1781 26.073 53.9523 25.6162C53.6129 25.1026 53.4515 24.4916 53.4931 23.8774C53.5347 23.2631 53.7768 22.6795 54.1823 22.2162C54.3123 22.0262 54.3823 21.9362 54.3323 21.8162C54.2148 21.3753 54.0328 20.9541 53.7923 20.5662C53.787 20.5097 53.787 20.4528 53.7923 20.3962C53.7923 20.1962 53.7923 19.8362 53.7923 19.1362C53.7501 18.6083 53.8914 18.082 54.1923 17.6462C54.4061 17.4082 54.6739 17.2249 54.9732 17.1118C55.2725 16.9987 55.5945 16.9591 55.9123 16.9962C56.0915 17.1848 56.2492 17.3927 56.3823 17.6162C56.6823 18.1762 56.3823 18.3662 56.0423 18.6162C55.7023 18.8662 55.5223 18.9662 55.6223 19.3062C55.9123 20.1862 56.2823 20.6562 56.7623 20.7562C57.4723 20.9062 58.1123 20.1862 58.5423 19.7062C58.6155 19.6103 58.6993 19.5231 58.7923 19.4462C59.4186 18.9477 59.9388 18.3289 60.3223 17.6262C61.6623 15.1862 61.3723 12.1862 60.9323 9.07621Z" stroke="#333333" stroke-width="0.75" stroke-miterlimit="10"/>
</svg>
