<svg width="50" height="50" viewBox="0 0 50 50" fill="none" xmlns="http://www.w3.org/2000/svg">
<path d="M20.6054 40.8045C9.45038 40.8045 0.375 31.7356 0.375 20.5897C0.375 9.44388 9.45038 0.375 20.6054 0.375C31.7605 0.375 40.8359 9.44388 40.8359 20.5897C40.8359 31.7356 31.7605 40.8045 20.6054 40.8045ZM20.6054 3.52827C11.1906 3.52827 3.53125 11.1814 3.53125 20.5897C3.53125 29.9981 11.1906 37.6512 20.6054 37.6512C30.0203 37.6512 37.6797 29.9981 37.6797 20.5897C37.6797 11.1814 30.0203 3.52827 20.6054 3.52827ZM49.1629 46.9336C49.779 47.5492 49.779 48.5474 49.1629 49.1632L49.1629 49.1632C48.8546 49.4712 48.4515 49.625 48.0469 49.625C47.6423 49.625 47.239 49.4711 46.9308 49.1632L38.1906 40.4296C37.5745 39.814 37.5745 38.8158 38.1906 38.2001C38.8069 37.5842 39.8063 37.5842 40.4227 38.2001L49.1629 46.9336Z" fill="#00BBC2" stroke="white" stroke-width="0.75"/>
</svg>
