<svg width="52" height="10" viewBox="0 0 52 10" fill="none" xmlns="http://www.w3.org/2000/svg">
<path d="M4.52449 1.46348C4.67449 1.00298 5.32599 1.00298 5.47549 1.46348L6.01049 3.10948C6.04317 3.20972 6.10671 3.29707 6.19202 3.35903C6.27733 3.42099 6.38005 3.4544 6.48549 3.45448H8.21649C8.70099 3.45448 8.90199 4.07448 8.51049 4.35948L7.11049 5.37648C7.025 5.43849 6.96135 5.52598 6.92865 5.6264C6.89596 5.72683 6.8959 5.83502 6.92849 5.93548L7.46349 7.58148C7.61349 8.04198 7.08599 8.42548 6.69349 8.14048L5.29349 7.12348C5.20809 7.06148 5.10527 7.02809 4.99974 7.02809C4.89421 7.02809 4.79138 7.06148 4.70599 7.12348L3.30599 8.14048C2.91399 8.42548 2.38699 8.04198 2.53649 7.58148L3.07149 5.93548C3.10407 5.83502 3.10402 5.72683 3.07132 5.6264C3.03863 5.52598 2.97497 5.43849 2.88949 5.37648L1.48999 4.35998C1.09849 4.07498 1.29999 3.45498 1.78399 3.45498H3.51449C3.62001 3.45501 3.72284 3.42165 3.80825 3.35968C3.89366 3.29771 3.95727 3.2103 3.98999 3.10998L4.52499 1.46398L4.52449 1.46348Z" fill="#B96400"/>
<path d="M15.5245 1.46348C15.6745 1.00298 16.326 1.00298 16.4755 1.46348L17.0105 3.10948C17.0432 3.20972 17.1067 3.29707 17.192 3.35903C17.2773 3.42099 17.38 3.4544 17.4855 3.45448H19.2165C19.701 3.45448 19.902 4.07448 19.5105 4.35948L18.1105 5.37648C18.025 5.43849 17.9613 5.52598 17.9287 5.6264C17.896 5.72683 17.8959 5.83502 17.9285 5.93548L18.4635 7.58148C18.6135 8.04198 18.086 8.42548 17.6935 8.14048L16.2935 7.12348C16.2081 7.06148 16.1053 7.02809 15.9997 7.02809C15.8942 7.02809 15.7914 7.06148 15.706 7.12348L14.306 8.14048C13.914 8.42548 13.387 8.04198 13.5365 7.58148L14.0715 5.93548C14.1041 5.83502 14.104 5.72683 14.0713 5.6264C14.0386 5.52598 13.975 5.43849 13.8895 5.37648L12.49 4.35998C12.0985 4.07498 12.3 3.45498 12.784 3.45498H14.5145C14.62 3.45501 14.7228 3.42165 14.8082 3.35968C14.8937 3.29771 14.9573 3.2103 14.99 3.10998L15.525 1.46398L15.5245 1.46348Z" fill="#B96400"/>
<path d="M26.5245 1.46348C26.6745 1.00298 27.326 1.00298 27.4755 1.46348L28.0105 3.10948C28.0432 3.20972 28.1067 3.29707 28.192 3.35903C28.2773 3.42099 28.38 3.4544 28.4855 3.45448H30.2165C30.701 3.45448 30.902 4.07448 30.5105 4.35948L29.1105 5.37648C29.025 5.43849 28.9613 5.52598 28.9287 5.6264C28.896 5.72683 28.8959 5.83502 28.9285 5.93548L29.4635 7.58148C29.6135 8.04198 29.086 8.42548 28.6935 8.14048L27.2935 7.12348C27.2081 7.06148 27.1053 7.02809 26.9997 7.02809C26.8942 7.02809 26.7914 7.06148 26.706 7.12348L25.306 8.14048C24.914 8.42548 24.387 8.04198 24.5365 7.58148L25.0715 5.93548C25.1041 5.83502 25.104 5.72683 25.0713 5.6264C25.0386 5.52598 24.975 5.43849 24.8895 5.37648L23.49 4.35998C23.0985 4.07498 23.3 3.45498 23.784 3.45498H25.5145C25.62 3.45501 25.7228 3.42165 25.8082 3.35968C25.8937 3.29771 25.9573 3.2103 25.99 3.10998L26.525 1.46398L26.5245 1.46348Z" fill="#B96400"/>
<path d="M37.5245 1.46348C37.6745 1.00298 38.326 1.00298 38.4755 1.46348L39.0105 3.10948C39.0432 3.20972 39.1067 3.29707 39.192 3.35903C39.2773 3.42099 39.38 3.4544 39.4855 3.45448H41.2165C41.701 3.45448 41.902 4.07448 41.5105 4.35948L40.1105 5.37648C40.025 5.43849 39.9613 5.52598 39.9287 5.6264C39.896 5.72683 39.8959 5.83502 39.9285 5.93548L40.4635 7.58148C40.6135 8.04198 40.086 8.42548 39.6935 8.14048L38.2935 7.12348C38.2081 7.06148 38.1053 7.02809 37.9997 7.02809C37.8942 7.02809 37.7914 7.06148 37.706 7.12348L36.306 8.14048C35.914 8.42548 35.387 8.04198 35.5365 7.58148L36.0715 5.93548C36.1041 5.83502 36.104 5.72683 36.0713 5.6264C36.0386 5.52598 35.975 5.43849 35.8895 5.37648L34.49 4.35998C34.0985 4.07498 34.3 3.45498 34.784 3.45498H36.5145C36.62 3.45501 36.7228 3.42165 36.8082 3.35968C36.8937 3.29771 36.9573 3.2103 36.99 3.10998L37.525 1.46398L37.5245 1.46348Z" fill="#B96400"/>
<path fill-rule="evenodd" clip-rule="evenodd" d="M47.7002 0.999756C47.5056 1.00601 47.3142 1.12104 47.2413 1.34486L46.7068 2.99136C46.6741 3.09169 46.6105 3.17909 46.525 3.24106C46.4396 3.30303 46.3368 3.33639 46.2313 3.33636H44.5008C44.0168 3.33636 43.8153 3.95636 44.2068 4.24136L45.6063 5.25786C45.6918 5.31988 45.7554 5.40737 45.7881 5.50779C45.8208 5.60821 45.8209 5.71641 45.7883 5.81686L45.2533 7.46286C45.1038 7.92336 45.6308 8.30686 46.0228 8.02186L47.4228 7.00486C47.5038 6.94607 47.6004 6.913 47.7002 6.90974L47.7002 0.999756Z" fill="#B96400"/>
<path fill-rule="evenodd" clip-rule="evenodd" d="M47.6992 0.999756C47.8938 1.00601 48.0852 1.12104 48.1581 1.34486L48.6926 2.99136C48.7253 3.09169 48.789 3.17909 48.8744 3.24106C48.9598 3.30303 49.0626 3.33639 49.1681 3.33636H50.8986C51.3826 3.33636 51.5841 3.95636 51.1926 4.24136L49.7931 5.25786C49.7076 5.31988 49.644 5.40737 49.6113 5.50779C49.5786 5.60821 49.5785 5.71641 49.6111 5.81686L50.1461 7.46286C50.2956 7.92336 49.7686 8.30686 49.3766 8.02186L47.9766 7.00486C47.8956 6.94607 47.799 6.913 47.6992 6.90974L47.6992 0.999756Z" fill="#E3D4C2"/>
</svg>
