<svg width="10" height="10" viewBox="0 0 10 10" fill="none" xmlns="http://www.w3.org/2000/svg">
<path d="M4.99982 0C2.24287 0 0 2.24299 0 4.99994C0 7.75702 2.24287 10 4.99982 10C7.75677 10 9.99976 7.75702 9.99976 4.99994C9.99976 2.24299 7.75665 0 4.99982 0ZM4.99982 9.27712C2.64154 9.27712 0.722762 7.35835 0.722762 4.99994C0.722762 2.64153 2.64141 0.722883 4.99982 0.722883C7.35823 0.722883 9.27688 2.64153 9.27688 4.99994C9.27688 7.35835 7.35823 9.27712 4.99982 9.27712Z" fill="#B96400"/>
<path d="M6.44635 5.46017C6.44443 5.46017 6.44274 5.46017 6.44081 5.46017L5.36107 5.47631V2.65056C5.36107 2.45093 5.19926 2.28912 4.99962 2.28912C4.79999 2.28912 4.63818 2.45093 4.63818 2.65056V5.8433C4.63818 5.84402 4.63842 5.84474 4.63842 5.84547C4.63842 5.84667 4.63818 5.84775 4.63818 5.84872C4.63842 5.86342 4.6412 5.87727 4.64312 5.89137C4.64433 5.90016 4.64445 5.9092 4.64614 5.91787C4.64939 5.93342 4.65481 5.94787 4.65999 5.96245C4.66264 5.97004 4.66433 5.97799 4.66746 5.98522C4.67373 6.00004 4.68216 6.01354 4.69023 6.02739C4.69397 6.03354 4.69674 6.04028 4.70071 6.04631C4.70987 6.05968 4.72083 6.07161 4.73168 6.08378C4.73625 6.08884 4.73999 6.09462 4.74481 6.09956C4.7565 6.11113 4.76963 6.12088 4.78276 6.13088C4.78806 6.13486 4.79276 6.13968 4.79818 6.14341C4.8124 6.15305 4.82794 6.16064 4.84348 6.16811C4.8489 6.17064 4.85372 6.17426 4.85926 6.17655C4.87734 6.18414 4.89661 6.18944 4.91613 6.19414C4.91975 6.19498 4.92312 6.19667 4.92685 6.19739C4.95023 6.20209 4.97444 6.20474 4.99926 6.20474C5.00107 6.20474 5.003 6.20474 5.00481 6.20474L6.45153 6.18305C6.65105 6.18004 6.81045 6.01571 6.80755 5.81619C6.80478 5.61848 6.64346 5.46017 6.44635 5.46017Z" fill="#B96400"/>
</svg>
