<svg width="11" height="10" viewBox="0 0 11 10" fill="none" xmlns="http://www.w3.org/2000/svg">
<g clip-path="url(#clip0_30_2)">
<path d="M9.34815 6.3924C9.34815 6.9691 8.8834 7.43668 8.3102 7.43668H1.5338L2.90042 6.06173L2.41118 5.5695L0.45396 7.53866C0.318895 7.67463 0.318895 7.89491 0.45396 8.03088L2.41118 10L2.90042 9.50781L1.5338 8.13286H8.3102C9.26512 8.13167 10.0389 7.35314 10.0401 6.3924V5.00003H9.34815V6.3924Z" fill="#1F2633"/>
<path d="M1.04454 3.60764C1.04454 3.03085 1.5092 2.56336 2.08248 2.56336H8.85888L7.49227 3.93831L7.98151 4.43053L9.93872 2.46138C10.0738 2.3254 10.0738 2.10513 9.93872 1.96915L7.98151 0L7.49227 0.492225L8.85888 1.86717H2.08248C1.12757 1.86828 0.353668 2.6469 0.35257 3.60764V5H1.04454V3.60764Z" fill="#1F2633"/>
</g>
<defs>
<clipPath id="clip0_30_2">
<rect width="9.93939" height="10" fill="white" transform="translate(0.230469)"/>
</clipPath>
</defs>
</svg>
