<svg width="46" height="48" viewBox="0 0 46 48" fill="none" xmlns="http://www.w3.org/2000/svg">
<mask id="path-1-inside-1_266:2" fill="white">
<path fill-rule="evenodd" clip-rule="evenodd" d="M24.2111 0.50196L32.7826 9.07342C33.4243 9.73778 33.4243 10.791 32.7828 11.4553C32.1251 12.1364 31.0398 12.1552 30.3588 11.4975L24.7136 5.85228V34.2857C24.7136 35.2325 23.9461 36 22.9992 36C22.0524 36 21.2849 35.2325 21.2849 34.2857V5.85218L15.6397 11.4974C14.9753 12.1391 13.9221 12.1391 13.2578 11.4974C12.5767 10.8397 12.5579 9.75445 13.2156 9.07342L21.7871 0.50196C22.4565 -0.16732 23.5418 -0.16732 24.2111 0.50196ZM31.5722 15.4283H40.1437C42.984 15.4283 45.2866 17.7308 45.2866 20.5712V42.857C45.2866 45.6973 42.984 47.9999 40.1437 47.9999H5.85774C3.0174 47.9999 0.714846 45.6973 0.714846 42.857V20.5711C0.714846 17.7307 3.0174 15.4282 5.85774 15.4282H14.4292C15.376 15.4282 16.1435 16.1957 16.1435 17.1425C16.1435 18.0893 15.376 18.8568 14.4292 18.8568H5.85774C4.91093 18.8568 4.14341 19.6243 4.14341 20.5712V42.8572C4.14341 43.804 4.91093 44.5715 5.85774 44.5715H40.1437C41.0905 44.5715 41.858 43.804 41.858 42.8572V20.5713C41.858 19.6244 41.0905 18.8569 40.1437 18.8569H31.5722C30.6254 18.8569 29.8579 18.0894 29.8579 17.1426C29.8579 16.1958 30.6254 15.4283 31.5722 15.4283Z"/>
</mask>
<path fill-rule="evenodd" clip-rule="evenodd" d="M24.2111 0.50196L32.7826 9.07342C33.4243 9.73778 33.4243 10.791 32.7828 11.4553C32.1251 12.1364 31.0398 12.1552 30.3588 11.4975L24.7136 5.85228V34.2857C24.7136 35.2325 23.9461 36 22.9992 36C22.0524 36 21.2849 35.2325 21.2849 34.2857V5.85218L15.6397 11.4974C14.9753 12.1391 13.9221 12.1391 13.2578 11.4974C12.5767 10.8397 12.5579 9.75445 13.2156 9.07342L21.7871 0.50196C22.4565 -0.16732 23.5418 -0.16732 24.2111 0.50196ZM31.5722 15.4283H40.1437C42.984 15.4283 45.2866 17.7308 45.2866 20.5712V42.857C45.2866 45.6973 42.984 47.9999 40.1437 47.9999H5.85774C3.0174 47.9999 0.714846 45.6973 0.714846 42.857V20.5711C0.714846 17.7307 3.0174 15.4282 5.85774 15.4282H14.4292C15.376 15.4282 16.1435 16.1957 16.1435 17.1425C16.1435 18.0893 15.376 18.8568 14.4292 18.8568H5.85774C4.91093 18.8568 4.14341 19.6243 4.14341 20.5712V42.8572C4.14341 43.804 4.91093 44.5715 5.85774 44.5715H40.1437C41.0905 44.5715 41.858 43.804 41.858 42.8572V20.5713C41.858 19.6244 41.0905 18.8569 40.1437 18.8569H31.5722C30.6254 18.8569 29.8579 18.0894 29.8579 17.1426C29.8579 16.1958 30.6254 15.4283 31.5722 15.4283Z" fill="#00BBC2"/>
<path d="M32.7826 9.07342L33.2142 8.65653L33.2069 8.64916L32.7826 9.07342ZM24.2111 0.50196L24.6354 0.0776958L24.6354 0.0776639L24.2111 0.50196ZM32.7828 11.4553L33.2144 11.8721L33.2144 11.8721L32.7828 11.4553ZM30.3588 11.4975L29.9345 11.9218L29.942 11.9291L30.3588 11.4975ZM24.7136 5.85228L25.1378 5.42802L24.1136 4.40375V5.85228H24.7136ZM21.2849 5.85218H21.8849V4.40365L20.8606 5.42792L21.2849 5.85218ZM15.6397 11.4974L16.0566 11.9291L16.0639 11.9217L15.6397 11.4974ZM13.2578 11.4974L13.6746 11.0658L13.6746 11.0658L13.2578 11.4974ZM13.2156 9.07342L12.7913 8.64909L12.784 8.65661L13.2156 9.07342ZM21.7871 0.50196L21.3629 0.0776639L21.3629 0.0776932L21.7871 0.50196ZM33.2069 8.64916L24.6354 0.0776958L23.7869 0.926224L32.3583 9.49769L33.2069 8.64916ZM33.2144 11.8721C34.0804 10.9752 34.0804 9.55345 33.2142 8.65659L32.351 9.49025C32.7681 9.9221 32.7681 10.6067 32.3512 11.0386L33.2144 11.8721ZM29.942 11.9291C30.8614 12.817 32.3264 12.7915 33.2144 11.8721L32.3512 11.0385C31.9237 11.4812 31.2183 11.4935 30.7756 11.0659L29.942 11.9291ZM24.2893 6.27654L29.9345 11.9218L30.7831 11.0732L25.1378 5.42802L24.2893 6.27654ZM25.3136 34.2857V5.85228H24.1136V34.2857H25.3136ZM22.9992 36.6C24.2774 36.6 25.3136 35.5639 25.3136 34.2857H24.1136C24.1136 34.9011 23.6147 35.4 22.9992 35.4V36.6ZM20.6849 34.2857C20.6849 35.5639 21.7211 36.6 22.9992 36.6V35.4C22.3838 35.4 21.8849 34.9011 21.8849 34.2857H20.6849ZM20.6849 5.85218V34.2857H21.8849V5.85218H20.6849ZM16.0639 11.9217L21.7092 6.27644L20.8606 5.42792L15.2154 11.0731L16.0639 11.9217ZM12.8409 11.929C13.7378 12.7952 15.1596 12.7952 16.0565 11.929L15.2228 11.0658C14.791 11.4829 14.1064 11.4829 13.6746 11.0658L12.8409 11.929ZM12.784 8.65661C11.8961 9.57599 11.9216 11.0411 12.841 11.929L13.6746 11.0658C13.2319 10.6383 13.2196 9.93291 13.6472 9.49024L12.784 8.65661ZM21.3629 0.0776932L12.7913 8.64915L13.6398 9.49769L22.2114 0.926226L21.3629 0.0776932ZM24.6354 0.0776639C23.7317 -0.825888 22.2666 -0.825888 21.3629 0.0776639L22.2114 0.926256C22.6464 0.491248 23.3518 0.491248 23.7869 0.926256L24.6354 0.0776639ZM40.1437 14.8283H31.5722V16.0283H40.1437V14.8283ZM45.8866 20.5712C45.8866 17.3994 43.3154 14.8283 40.1437 14.8283V16.0283C42.6527 16.0283 44.6866 18.0622 44.6866 20.5712H45.8866ZM45.8866 42.857V20.5712H44.6866V42.857H45.8866ZM40.1437 48.5999C43.3154 48.5999 45.8866 46.0287 45.8866 42.857H44.6866C44.6866 45.366 42.6527 47.3999 40.1437 47.3999V48.5999ZM5.85774 48.5999H40.1437V47.3999H5.85774V48.5999ZM0.114846 42.857C0.114846 46.0287 2.68603 48.5999 5.85774 48.5999V47.3999C3.34877 47.3999 1.31485 45.366 1.31485 42.857H0.114846ZM0.114846 20.5711V42.857H1.31485V20.5711H0.114846ZM5.85774 14.8282C2.68603 14.8282 0.114846 17.3993 0.114846 20.5711H1.31485C1.31485 18.0621 3.34877 16.0282 5.85774 16.0282V14.8282ZM14.4292 14.8282H5.85774V16.0282H14.4292V14.8282ZM16.7435 17.1425C16.7435 15.8643 15.7074 14.8282 14.4292 14.8282V16.0282C15.0446 16.0282 15.5435 16.527 15.5435 17.1425H16.7435ZM14.4292 19.4568C15.7074 19.4568 16.7435 18.4207 16.7435 17.1425H15.5435C15.5435 17.7579 15.0446 18.2568 14.4292 18.2568V19.4568ZM5.85774 19.4568H14.4292V18.2568H5.85774V19.4568ZM4.74341 20.5712C4.74341 19.9557 5.2423 19.4568 5.85774 19.4568V18.2568C4.57956 18.2568 3.54341 19.293 3.54341 20.5712H4.74341ZM4.74341 42.8572V20.5712H3.54341V42.8572H4.74341ZM5.85774 43.9715C5.2423 43.9715 4.74341 43.4726 4.74341 42.8572H3.54341C3.54341 44.1354 4.57956 45.1715 5.85774 45.1715V43.9715ZM40.1437 43.9715H5.85774V45.1715H40.1437V43.9715ZM41.258 42.8572C41.258 43.4726 40.7591 43.9715 40.1437 43.9715V45.1715C41.4219 45.1715 42.458 44.1354 42.458 42.8572H41.258ZM41.258 20.5713V42.8572H42.458V20.5713H41.258ZM40.1437 19.4569C40.7591 19.4569 41.258 19.9558 41.258 20.5713H42.458C42.458 19.2931 41.4219 18.2569 40.1437 18.2569V19.4569ZM31.5722 19.4569H40.1437V18.2569H31.5722V19.4569ZM29.2579 17.1426C29.2579 18.4208 30.294 19.4569 31.5722 19.4569V18.2569C30.9568 18.2569 30.4579 17.758 30.4579 17.1426H29.2579ZM31.5722 14.8283C30.294 14.8283 29.2579 15.8644 29.2579 17.1426H30.4579C30.4579 16.5271 30.9568 16.0283 31.5722 16.0283V14.8283Z" fill="white" mask="url(#path-1-inside-1_266:2)"/>
</svg>
