<svg width="1942" height="1247" viewBox="0 0 1942 1247" fill="none" xmlns="http://www.w3.org/2000/svg">
<path d="M1941.23 0.646484H1936.82C1938.39 7.14789 1939.81 13.797 1941.23 20.2984V0.646484Z" fill="white"/>
<path d="M1941.23 586.807C1921.53 676.792 1892.53 764.857 1853.92 850.261C1788.04 996.247 1697.58 1129.23 1584.1 1246.4H1592.61C1704.67 1129.67 1794.34 997.577 1859.75 852.626C1894.58 775.347 1921.69 696.001 1941.23 615.029V586.807V586.807Z" fill="white"/>
<path d="M1941.23 198.939C1936.66 131.709 1927.52 65.365 1913.81 0.646484H1905.77C1924.53 89.1543 1934.93 180.322 1936.35 273.262C1937.61 349.063 1934.14 416.736 1926.1 479.977C1915.23 562.87 1895.68 645.025 1867.63 724.371C1839.89 802.979 1803.8 879.075 1760.46 950.443C1706.88 1038.66 1642.42 1123.62 1563.46 1210.5C1552.27 1222.76 1541.08 1234.58 1529.73 1246.26H1540.45C1550.22 1236.06 1559.83 1225.72 1569.45 1215.23C1648.72 1128.05 1713.34 1042.64 1767.24 954.137C1810.89 882.326 1847.14 805.787 1875.04 726.735C1903.25 646.945 1922.95 564.2 1933.82 480.864C1936.98 456.779 1939.34 432.251 1941.07 406.689V198.939H1941.23Z" fill="white"/>
<path d="M1489.7 1246.26C1511.77 1223.5 1533.51 1199.56 1554.79 1174.3C1611.37 1107.36 1684.34 1017.38 1747.54 914.833C1834.85 772.984 1889.54 610.892 1905.93 446.141C1913.02 373.739 1911.92 302.666 1909.87 242.676C1907.03 159.635 1898.05 78.6634 1883.24 0.646484H1875.2C1890.17 78.6634 1899.15 159.783 1901.99 242.972C1904.04 302.666 1905.14 373.443 1898.05 445.55C1881.82 609.267 1827.45 770.177 1740.76 911.139C1677.72 1013.24 1604.91 1102.93 1548.64 1169.72C1525.79 1196.76 1502.62 1222.17 1478.98 1246.26H1489.7Z" fill="white"/>
<path d="M1442.89 1246.26C1476.3 1212.42 1508.61 1175.33 1541.07 1133.81L1552.42 1119.18C1612.15 1042.64 1674.09 963.444 1728.78 876.119C1816.25 736.043 1868.1 575.429 1878.98 411.711C1883.23 344.629 1879.76 277.398 1876.45 212.384C1872.67 139.096 1864.79 68.4667 1853.13 0.792969H1843.52C1855.34 68.6145 1863.22 139.391 1867 212.827C1870.31 277.694 1873.77 344.629 1869.52 411.268C1858.8 573.36 1807.27 732.644 1720.58 871.538C1666.05 958.421 1604.43 1037.47 1544.7 1113.86L1533.35 1128.49C1499.31 1172.23 1465.11 1211.09 1429.96 1246.26H1442.89Z" fill="white"/>
<path d="M1396.87 1246.26C1441.31 1202.96 1483.24 1153.17 1526.42 1092.73C1545.33 1066.29 1565.35 1039.39 1584.57 1013.39C1626.18 957.388 1669.21 899.318 1709.08 836.668C1752.58 767.96 1786.94 693.046 1811.05 614.291C1835.01 536.421 1848.4 456.484 1850.92 376.989C1852.5 323.796 1848.56 271.637 1844.46 216.523C1843.67 204.998 1842.73 193.472 1841.94 181.799C1837.37 117.82 1830.75 57.6815 1821.61 0.646484H1812C1821.14 57.8293 1827.91 118.263 1832.48 182.39C1833.27 194.063 1834.22 205.589 1835.01 217.114C1839.1 272.08 1843.04 324.091 1841.47 376.694C1838.95 455.449 1825.55 534.648 1801.91 611.779C1777.95 689.943 1743.91 763.971 1700.89 832.088C1661.17 894.442 1618.3 952.364 1576.69 1008.22C1557.31 1034.22 1537.45 1061.11 1518.38 1087.71C1473.31 1150.51 1429.97 1201.78 1383.47 1246.11H1396.87V1246.26Z" fill="white"/>
<path d="M1352.58 1246.26C1423.66 1181.54 1472.99 1112.68 1512.55 1052.1C1538.56 1012.21 1566.29 974.084 1595.45 933.746C1626.81 890.453 1659.28 845.829 1690.17 797.955C1777.01 662.756 1824.45 500.959 1823.98 342.414C1823.66 297.643 1819.09 254.201 1814.2 208.1C1812.31 189.631 1810.26 170.57 1808.53 151.361C1803.64 97.281 1797.81 47.4862 1790.88 0.646484H1779.69C1786.62 47.6339 1792.61 97.8721 1797.5 152.247C1799.23 171.604 1801.28 190.665 1803.17 209.135C1808.06 254.94 1812.63 298.234 1812.94 342.414C1813.42 499.038 1766.45 658.914 1680.71 792.636C1649.98 840.214 1617.67 884.838 1586.31 927.983C1557 968.469 1529.26 1006.74 1503.09 1046.78C1462.43 1108.99 1411.21 1180.36 1336.51 1246.26H1352.58Z" fill="white"/>
<path d="M1305.93 1246.26C1309.4 1243.3 1313.02 1240.49 1316.49 1237.54C1395.45 1170.9 1446.04 1098.79 1497.89 1011.17C1526.89 962.115 1559.99 916.014 1594.97 867.253C1619.88 832.677 1645.57 796.772 1670.47 758.798C1714.12 691.715 1747.22 617.983 1768.81 539.671C1790.09 462.541 1799.23 384.524 1795.92 307.837C1794.19 268.68 1788.83 230.854 1783.15 190.959C1780 168.352 1776.53 145.006 1774.01 121.069C1769.44 79.6964 1764.56 39.6536 1758.88 0.792969H1747.69C1753.37 39.9492 1758.25 80.4352 1762.98 122.103C1765.66 146.04 1768.97 169.534 1772.28 192.289C1777.95 232.036 1783.31 269.567 1784.89 308.28C1788.04 383.933 1779.06 460.915 1758.09 537.159C1736.82 614.437 1704.04 687.282 1661.01 753.479C1636.11 791.305 1610.58 827.063 1585.83 861.638C1550.69 910.547 1517.59 956.795 1488.28 1006.29C1436.9 1093.03 1386.78 1164.4 1309.08 1230C1302.46 1235.62 1295.69 1241.08 1288.91 1246.4H1305.93V1246.26Z" fill="white"/>
<path d="M1255.66 1246.26C1276.62 1231.33 1296.79 1215.37 1316.02 1198.23C1396.87 1126.42 1443.05 1046.19 1483.39 970.094C1513.02 914.241 1549.74 862.968 1588.51 808.74C1609 780.223 1630.12 750.671 1650.77 719.494C1737.61 587.988 1780.48 425.305 1768.02 273.113C1765.19 237.947 1759.04 204.257 1752.42 168.5C1747.85 143.381 1743.12 117.375 1739.5 90.6306C1735.4 59.8967 1731.46 30.0493 1727.21 0.792969H1716.02C1720.27 30.4926 1724.37 60.7832 1728.47 91.9604C1732.09 119 1736.82 145.154 1741.39 170.421C1747.85 205.883 1754 239.424 1756.84 274.148C1768.97 424.271 1726.89 584.737 1641.15 714.322C1620.51 745.352 1599.39 774.756 1579.06 803.273C1539.97 857.796 1503.09 909.364 1473.15 965.808C1433.28 1041.02 1387.57 1120.51 1308.14 1191.14C1285.44 1211.24 1261.64 1229.71 1236.74 1246.7H1255.66V1246.26Z" fill="white"/>
<path d="M1196.87 1246.26C1239.27 1221.58 1278.83 1192.32 1315.08 1158.49C1389.46 1089.04 1428.39 1013.24 1468.11 928.722C1496.79 867.698 1536.04 813.027 1577.64 755.105C1594.98 731.02 1612.79 706.049 1630.6 679.896C1674.41 614.586 1706.25 542.036 1725 464.315C1743.28 389.106 1748.33 311.089 1739.5 238.391C1735.56 206.18 1728.63 175.593 1721.38 143.234C1715.39 116.49 1709.08 88.8587 1704.67 60.1934C1701.68 41.2803 1698.84 22.2193 1696 3.60167C1695.85 2.56735 1695.69 1.6808 1695.53 0.646484H1685.92C1686.07 1.97632 1686.39 3.45389 1686.55 4.78372C1689.38 23.2536 1692.22 42.4624 1695.21 61.3755C1699.79 90.4841 1705.93 118.263 1712.08 145.007C1719.33 177.219 1726.26 207.657 1730.05 239.425C1738.71 310.941 1733.83 388.071 1715.7 462.246C1697.11 538.933 1665.74 610.597 1622.4 675.02C1604.75 701.173 1586.94 725.997 1569.6 750.081C1527.84 808.298 1488.28 863.265 1459.28 925.176C1419.88 1008.96 1381.43 1083.87 1308.3 1152.28C1268.74 1189.22 1225.24 1220.69 1178.43 1246.4H1196.87V1246.26Z" fill="white"/>
<path d="M268.588 1246.26C257.871 1244.93 247.154 1243.45 236.594 1241.97C159.526 1231.04 78.3606 1217.74 1.13489 1194.54V1203.85C67.8011 1223.65 137.147 1236.21 204.128 1246.26H268.588Z" fill="white"/>
<path d="M1122.96 1246.26C1137.93 1240.05 1152.75 1233.11 1167.4 1225.57C1221.78 1197.64 1271.26 1161.74 1314.6 1119.04C1388.36 1046.49 1419.88 969.208 1453.45 887.497C1479.93 822.926 1520.59 766.63 1563.62 706.935C1579.06 685.658 1594.98 663.641 1610.74 640.443C1697.74 513.223 1735.41 349.949 1711.45 203.667C1706.56 173.82 1699 145.745 1690.8 115.898C1683.24 88.267 1675.52 59.7495 1670.16 29.6066C1668.42 20.0023 1666.69 10.2502 1665.11 0.498047H1655.5C1657.23 10.6934 1658.97 20.8888 1660.86 31.0842C1666.38 61.5226 1674.1 90.3357 1681.66 118.114C1689.7 147.666 1697.27 175.74 1702.15 204.997C1725.79 349.21 1688.6 510.267 1602.86 635.715C1587.1 658.765 1571.18 680.782 1555.9 702.059C1512.55 762.049 1471.58 818.789 1444.63 884.394C1411.53 965.366 1380.17 1041.76 1307.67 1112.98C1264.96 1154.94 1216.1 1190.26 1162.67 1217.74C1141.87 1228.53 1120.44 1237.98 1098.53 1246.11H1122.96V1246.26Z" fill="white"/>
<path d="M306.255 1204.88C328.477 1207.25 351.33 1209.76 374.182 1212.86C430.762 1220.4 492.7 1231.48 562.834 1246.4H603.81C596.718 1244.78 589.469 1243.01 582.219 1241.53C504.678 1224.54 437.066 1212.27 375.443 1204.14C352.591 1201.04 329.58 1198.53 307.358 1196.17C290.652 1194.39 273.316 1192.47 256.452 1190.4C167.249 1179.32 80.2518 1166.47 1.13489 1142.09V1151.39C83.7191 1176.51 171.819 1188.78 255.192 1199.12C272.055 1201.19 289.549 1202.96 306.255 1204.88Z" fill="white"/>
<path d="M275.364 1146.52C289.076 1148 303.26 1149.33 316.814 1150.51C341.242 1152.72 366.459 1155.09 391.518 1158.34C452.668 1166.32 518.231 1179.03 591.832 1197.5C612.163 1202.52 632.178 1208.28 651.406 1213.75C682.454 1222.61 711.768 1230.89 742.816 1237.1C761.886 1240.94 780.798 1243.89 799.868 1246.26H977.33C982.058 1245.67 986.786 1245.07 991.514 1244.34C1054.08 1235.17 1114.13 1215.82 1169.92 1186.71C1223.51 1158.78 1271.73 1122.73 1313.5 1079.44C1380.95 1009.25 1406.96 934.927 1434.54 856.32L1438 846.42C1461.96 778.303 1503.88 720.677 1548.48 659.652C1562.2 640.887 1576.38 621.382 1590.56 600.992C1678.19 474.657 1712.71 313.304 1682.76 169.239C1676.93 141.46 1668.58 115.307 1659.75 87.5282C1650.77 59.7495 1641.63 31.0842 1635.32 0.498047H1627.29V0.645815C1633.75 31.9708 1643.05 61.2271 1652.19 89.5968C1661.01 117.08 1669.37 143.086 1675.04 170.569C1689.22 239.129 1688.75 314.191 1673.46 387.627C1657.86 462.689 1626.81 535.091 1583.95 596.854C1569.76 617.245 1555.73 636.602 1542.02 655.367C1497.26 716.835 1454.87 774.904 1430.6 844.056L1427.13 853.955C1399.86 931.824 1374.02 1005.56 1307.67 1074.41C1266.53 1117.11 1218.94 1152.72 1166.14 1180.21C1111.14 1208.87 1052.03 1227.93 990.411 1236.95C910.033 1248.62 827.449 1246.26 744.55 1229.71C713.817 1223.65 684.66 1215.37 653.77 1206.51C634.385 1201.04 614.369 1195.28 593.881 1190.26C519.965 1171.79 454.244 1158.93 392.621 1150.95C367.405 1147.7 342.03 1145.34 317.602 1142.97C304.048 1141.64 289.864 1140.46 276.152 1138.98C196.878 1130.56 98.2179 1120.22 11.0632 1093.47C7.75351 1092.44 4.28623 1091.4 0.976562 1090.22V1098.05C3.49822 1098.79 6.01987 1099.68 8.54153 1100.42C96.6419 1127.75 195.774 1138.1 275.364 1146.52Z" fill="white"/>
<path d="M1654.86 134.664C1648.25 108.511 1639.1 83.9827 1629.49 58.1248C1622.56 39.5072 1615.46 20.4462 1609.32 0.646484H1601.12C1607.43 21.3328 1614.83 41.1325 1621.93 60.489C1631.54 86.1991 1640.52 110.579 1647.14 136.289C1664.16 203.224 1665.74 277.252 1651.71 350.393C1637.37 425.011 1607.27 496.674 1564.24 557.699C1551.48 575.873 1538.55 593.309 1526.26 610.153C1478.35 675.167 1437.06 731.316 1415.78 803.422C1413.89 809.776 1412 816.278 1410.26 822.631C1388.67 897.545 1368.18 968.322 1307.03 1035.4C1225.87 1124.21 1115.07 1181.69 994.979 1197.2C915.389 1207.4 833.908 1202.82 752.742 1183.31C724.058 1176.37 696.793 1167.5 668.109 1158.19C648.094 1151.69 627.29 1144.89 606.013 1138.84C535.092 1118.74 470.947 1105.29 410.112 1097.61C383.005 1094.21 355.897 1092.14 329.577 1090.08C318.545 1089.19 307.197 1088.3 296.165 1087.42L286.551 1086.53C201.13 1079.29 112.872 1071.61 31.7065 1048.11C21.3047 1045.01 11.0605 1041.76 1.28906 1038.36V1046.19C90.9654 1077.22 191.832 1085.94 285.921 1093.92L295.535 1094.8C306.567 1095.69 318.072 1096.58 329.104 1097.46C355.266 1099.53 382.374 1101.6 409.167 1105C469.529 1112.53 533.201 1125.98 603.807 1145.93C624.926 1151.99 645.73 1158.64 665.588 1165.14C694.587 1174.59 721.852 1183.46 750.851 1190.4C804.751 1203.26 858.652 1209.76 912.237 1209.76C940.448 1209.76 968.344 1207.99 996.082 1204.44C1118.07 1188.78 1230.6 1130.41 1313.02 1040.13C1375.43 971.72 1395.92 900.205 1417.83 824.552C1419.72 818.198 1421.45 811.697 1423.35 805.343C1444.15 734.419 1485.13 678.714 1532.56 614.291C1545.01 597.446 1557.78 580.01 1570.7 561.836C1614.2 500.073 1644.94 427.375 1659.43 351.722C1673.78 277.547 1672.04 202.633 1654.86 134.664Z" fill="white"/>
<path d="M1626.18 100.235C1618.78 75.4114 1608.37 51.3267 1598.45 28.1285C1594.66 19.1151 1590.72 9.95404 1586.94 0.792969H1580.16C1584.26 10.8406 1588.52 20.5927 1592.61 30.3448C1603.02 54.5774 1612.79 77.48 1620.2 101.86C1639.9 167.318 1643.68 240.311 1631.07 313.156C1618.15 387.479 1588.52 458.699 1545.49 518.837C1533.67 535.386 1521.85 551.344 1510.35 566.563C1461.65 631.873 1419.57 688.169 1402.07 762.935C1400.02 771.801 1397.97 780.962 1395.93 789.68C1379.53 862.377 1363.93 930.937 1307.19 996.838C1229.02 1087.41 1119.8 1144.75 999.868 1158.04C922.012 1166.76 839.428 1159.67 760.784 1137.5C733.676 1129.82 708.144 1120.36 681.194 1110.32C660.705 1102.78 639.587 1094.8 617.68 1087.86C549.437 1066.14 487.184 1051.95 427.295 1044.71C398.768 1041.17 370.242 1039.54 342.662 1037.92C333.678 1037.32 324.695 1036.88 315.869 1036.29C308.146 1035.85 300.266 1035.26 292.386 1034.81C195.302 1028.61 90.3384 1021.96 1.13489 986.347V992.848C90.6536 1027.87 195.145 1034.52 291.913 1040.72C299.793 1041.17 307.674 1041.76 315.396 1042.2C324.222 1042.79 333.205 1043.38 342.189 1043.83C369.769 1045.45 398.138 1047.08 426.349 1050.62C485.765 1057.86 547.546 1071.9 615.473 1093.47C637.222 1100.42 658.341 1108.25 678.672 1115.78C705.78 1125.83 731.469 1135.44 758.735 1143.12C816.102 1159.23 875.676 1167.5 933.99 1167.5C956.369 1167.5 978.592 1166.32 1000.34 1163.81C1121.85 1150.21 1232.49 1092.29 1311.77 1000.53C1369.45 933.597 1385.21 864.298 1401.76 790.862C1403.81 782.144 1405.85 773.131 1407.9 764.117C1425.24 690.533 1466.85 634.68 1515.23 569.962C1526.74 554.595 1538.56 538.784 1550.38 522.088C1594.03 461.211 1623.98 389.252 1636.9 314.043C1649.98 240.311 1646.2 166.431 1626.18 100.235Z" fill="white"/>
<path d="M1598.13 65.5128C1590.25 43.2011 1579.85 21.4805 1569.76 0.646484H1562.83C1573.86 23.1059 1584.1 44.531 1592.14 67.4336C1614.68 131.266 1620.51 203.224 1609.32 275.626C1597.82 349.506 1568.97 419.987 1525.63 479.534C1514.44 494.901 1503.41 509.529 1492.69 523.714C1443.36 588.876 1400.81 645.172 1387.1 722.303C1385.21 733.237 1383.32 744.467 1381.58 755.253C1370.08 826.03 1359.2 892.965 1306.41 957.831C1231.23 1050.03 1123.9 1107.07 1004.28 1118.15C927.055 1125.39 845.574 1115.93 768.821 1090.96C743.132 1082.54 719.019 1072.49 693.644 1061.85C672.998 1053.14 651.722 1044.27 629.5 1036.29C564.567 1013.24 502.314 998.021 444.631 991.225C415.002 987.678 385.372 986.496 356.688 985.462C349.596 985.166 342.662 984.871 335.727 984.575C324.38 984.132 313.032 983.689 301.527 983.245C200.188 979.256 90.0232 974.971 1.13489 932.86V939.509C90.496 980.734 200.346 985.019 301.212 989.008C312.717 989.451 324.222 989.895 335.412 990.338C342.346 990.634 349.438 990.929 356.373 991.225C384.899 992.407 414.371 993.441 443.685 996.987C501.053 1003.78 562.676 1018.71 627.136 1041.61C649.2 1049.44 670.319 1058.31 690.965 1067.02C715.394 1077.37 740.768 1087.86 766.772 1096.43C827.45 1116.08 890.964 1126.28 953.06 1126.28C970.554 1126.28 987.732 1125.54 1004.91 1123.91C1126.27 1112.53 1235.17 1054.76 1311.45 961.229C1365.19 895.181 1376.7 824.404 1387.89 755.992C1389.62 745.205 1391.51 734.123 1393.4 723.189C1406.96 647.389 1449.04 591.683 1497.89 527.113C1508.61 512.928 1519.64 498.3 1530.83 482.933C1574.65 422.795 1603.8 351.427 1615.47 276.661C1626.97 203.224 1620.98 130.231 1598.13 65.5128Z" fill="white"/>
<path d="M1570.23 30.9371C1566.14 20.594 1561.25 10.5464 1556.37 0.646484H1549.43C1554.79 11.2851 1559.99 21.9238 1564.4 33.0058C1589.62 95.0646 1597.66 166.137 1587.73 238.243C1577.64 311.68 1549.43 381.57 1506.09 440.23C1495.53 454.563 1484.97 468.304 1474.73 481.603C1424.92 546.469 1382.06 602.322 1372.44 681.521C1370.87 694.228 1369.61 707.083 1368.34 719.495C1361.73 785.839 1354.95 854.547 1305.78 918.527C1270.95 963.741 1228.08 1000.68 1178.43 1028.02C1126.42 1056.68 1069.37 1073.53 1008.85 1078.11C932.256 1083.87 852.036 1072.2 776.859 1044.42C752.431 1035.26 729.578 1024.62 705.465 1013.24C684.819 1003.49 663.542 993.589 641.32 984.723C578.752 959.9 518.389 944.089 461.81 937.736C431.392 934.189 400.817 933.746 371.345 933.155C365.987 933.007 360.786 933.007 355.585 932.86C341.558 932.564 327.689 932.416 313.032 932.269C206.177 930.643 88.7624 929.166 1.13489 877.007V884.099C89.708 935.076 206.492 936.554 312.875 937.883C327.532 938.031 341.558 938.179 355.427 938.474C360.628 938.622 365.987 938.622 371.345 938.77C400.66 939.361 431.077 939.804 461.179 943.35C517.129 949.704 577.018 965.367 638.956 989.895C661.021 998.612 682.297 1008.66 702.785 1018.26C725.953 1029.2 749.909 1040.43 774.653 1049.59C838.009 1073.08 904.991 1085.2 970.396 1085.2C983.477 1085.2 996.558 1084.76 1009.48 1083.72C1070.95 1079.14 1128.79 1062 1181.74 1032.89C1232.18 1005.11 1275.67 967.731 1310.98 921.778C1361.09 856.468 1368.03 787.021 1374.65 719.791C1375.91 707.379 1377.17 694.524 1378.75 681.964C1388.2 604.391 1430.76 548.981 1479.93 484.854C1490.17 471.555 1500.57 457.814 1511.29 443.481C1555.1 384.082 1583.79 313.305 1594.03 238.834C1603.96 165.989 1595.77 94.0303 1570.23 30.9371Z" fill="white"/>
<path d="M1543.44 0.646484H1538.24C1565.35 60.6367 1575.27 129.936 1566.92 200.86C1558.25 274.001 1530.67 343.3 1487.17 401.37C1476.93 414.963 1466.84 427.966 1457.07 440.526C1407.11 504.653 1363.93 560.063 1358.57 640.887C1357.62 654.924 1357.15 669.257 1356.68 683.146C1354.31 748.604 1351.95 816.13 1305.93 879.814C1272.68 925.767 1231.07 963.003 1181.9 990.338C1130.52 1019 1073.94 1035.26 1013.73 1038.8C937.611 1043.24 858.494 1029.2 784.893 998.317C761.41 988.417 738.716 976.596 716.809 965.071C696.478 954.432 675.359 943.351 653.137 933.598C592.932 907.15 534.461 890.748 479.3 884.838C454.084 882.03 428.867 881.587 404.281 881.587C398.45 881.587 392.618 881.587 386.945 881.587C383.162 881.587 379.38 881.587 375.597 881.587C359.679 881.587 343.604 881.883 326.583 882.178C212.32 883.951 85.9221 886.02 1.28906 817.903V823.813C87.0253 890.305 212.95 888.384 326.74 886.611C343.761 886.315 359.837 886.02 375.755 886.02C379.537 886.02 383.32 886.02 387.102 886.02C417.047 885.872 448.095 885.724 478.985 889.123C533.673 895.033 591.672 911.287 651.403 937.588C673.468 947.192 694.429 958.274 714.76 968.913C736.824 980.438 759.519 992.407 783.317 1002.31C848.723 1029.64 918.383 1043.97 986.626 1043.97C995.924 1043.97 1005.22 1043.68 1014.36 1043.24C1075.36 1039.69 1132.72 1023.29 1184.73 994.18C1234.38 966.401 1276.62 928.722 1310.19 882.326C1356.84 817.607 1359.36 749.343 1361.72 683.294C1362.19 669.405 1362.67 655.072 1363.61 641.183C1368.81 561.688 1409.63 509.382 1461.17 443.185C1470.94 430.626 1481.03 417.623 1491.27 404.029C1535.24 345.369 1563.14 275.479 1571.81 201.599C1580 130.379 1570.23 61.08 1543.44 0.646484Z" fill="white"/>
<path d="M1530.52 0.646484H1525.47C1544.07 50.7369 1550.85 106.294 1545.02 163.477C1537.77 236.027 1510.82 304.735 1467.32 362.066C1457.55 374.773 1447.93 386.889 1438.64 398.562C1386 464.906 1344.39 517.213 1343.6 599.958C1343.44 615.177 1343.92 630.692 1344.23 645.763C1345.96 710.334 1347.86 777.121 1304.99 840.51C1239.9 936.406 1135.25 994.18 1017.99 998.76C942.342 1001.72 864.486 985.462 792.776 951.625C770.239 940.986 748.647 928.427 727.686 916.163C707.67 904.49 686.867 892.374 664.802 881.735C606.804 853.661 550.067 836.52 496.324 831.053C479.303 829.28 462.124 828.689 445.261 828.689C430.761 828.689 416.419 829.133 402.235 829.576L395.143 829.724C377.649 830.167 359.997 831.053 341.242 831.94C217.051 837.703 78.0446 844.056 0.976562 748.899V756.139C79.9359 848.341 218.154 841.988 341.558 836.225C360.312 835.338 377.964 834.6 395.458 834.009L402.55 833.861C433.125 832.974 464.646 832.088 496.009 835.338C549.279 840.806 605.386 857.798 662.911 885.577C684.818 896.215 705.464 908.184 725.48 919.857C746.441 932.121 768.348 944.828 791.043 955.467C857.867 986.939 930.049 1003.34 1000.97 1003.34C1006.8 1003.34 1012.79 1003.19 1018.62 1003.05C1137.61 998.465 1243.52 939.952 1309.56 842.874C1353.21 778.451 1351.32 710.925 1349.43 645.615C1348.96 630.544 1348.64 615.029 1348.8 599.958C1349.59 518.543 1390.72 466.679 1442.89 401.074C1452.19 389.401 1461.8 377.285 1471.57 364.43C1515.55 306.508 1542.65 237.061 1550.06 163.625C1555.58 106.59 1548.96 50.8846 1530.52 0.646484Z" fill="white"/>
<path d="M1516.49 0.646484H1511.61C1541.87 106.738 1519.33 230.412 1447.93 322.762C1438.32 335.026 1429.02 346.699 1419.88 358.076C1367.08 423.386 1325.48 474.954 1329.26 559.324C1330.05 575.43 1331.47 592.127 1333.04 608.232C1338.87 672.212 1345.02 738.408 1304.99 801.502C1243.05 899.17 1140.29 956.501 1023.19 958.865C948.016 960.49 871.421 941.873 801.445 905.081C779.696 893.703 759.05 880.405 738.877 867.402C719.176 854.695 698.845 841.692 677.254 830.167C621.462 800.319 566.616 782.588 514.134 777.565C501.053 776.235 488.13 775.791 475.048 775.791C455.978 775.791 437.066 776.826 418.626 777.86L415.317 778.008C396.877 779.042 377.807 780.52 357.791 782.145C224.617 792.636 73.6325 804.457 9.96068 675.315C6.96621 669.257 4.12935 663.199 1.13489 656.993V667.927C2.55332 671.03 4.12935 674.133 5.54778 677.088C34.5468 736.044 84.0343 771.359 156.689 785.248C219.888 797.364 290.18 791.75 358.107 786.43C378.122 784.805 397.035 783.327 415.632 782.293L418.942 782.145C449.832 780.52 481.825 778.747 513.661 781.849C565.355 786.873 619.571 804.457 674.89 834.009C696.324 845.534 716.655 858.537 736.197 871.096C756.371 884.099 777.174 897.397 799.081 908.922C867.008 944.532 941.397 963.298 1014.53 963.298C1017.36 963.298 1020.36 963.298 1023.19 963.15C1142.03 960.786 1246.2 902.569 1309.09 803.57C1349.91 739.147 1343.76 672.36 1337.77 607.641C1336.35 591.536 1334.78 574.987 1333.99 558.881C1330.36 476.136 1371.5 425.159 1423.66 360.44C1432.8 349.211 1442.26 337.39 1451.87 325.126C1523.58 232.185 1546.59 107.624 1516.49 0.646484Z" fill="white"/>
<path d="M1497.42 0.646484H1494.27C1501.99 32.7102 1504.99 66.3994 1502.94 100.532C1498.53 171.308 1472.36 240.755 1429.18 295.869C1419.72 307.838 1410.42 319.215 1401.44 330.15C1348.8 394.277 1307.19 445.106 1315.55 530.363C1317.28 547.356 1319.96 564.939 1322.64 581.931C1332.57 645.616 1342.66 711.368 1305.3 774.609C1277.25 821.892 1238.01 861.196 1191.83 888.088C1142.66 916.754 1087.65 931.382 1028.08 931.53H1027.45C952.902 931.53 877.568 910.696 809.483 871.096C788.522 858.832 768.506 844.795 749.278 831.201C730.051 817.607 710.35 803.57 689.074 791.158C635.489 759.686 582.692 741.364 531.786 736.635C521.541 735.601 511.297 735.305 501.053 735.305C478.989 735.305 457.082 737.079 435.805 738.852C416.578 740.477 396.72 742.693 375.758 745.058C310.038 752.445 242.268 760.129 181.748 749.934C112.876 738.408 66.8555 704.867 41.0086 647.389C37.0685 638.523 33.1284 629.362 29.3459 620.496C20.3625 600.844 11.8519 580.749 1.13489 561.541V568.042C10.4335 585.477 18.1561 603.652 25.721 621.531C29.5035 630.396 33.286 639.557 37.3837 648.423C63.7035 706.788 110.512 740.92 180.488 752.741C241.48 762.936 309.565 755.253 375.443 747.865C396.404 745.501 416.262 743.284 435.49 741.659C466.695 739.147 498.847 736.34 530.998 739.443C581.431 744.171 633.755 762.345 686.867 793.523C707.986 805.934 727.687 819.824 746.914 833.417C766.3 847.159 786.315 861.196 807.434 873.46C875.992 913.355 951.956 934.337 1027.13 934.337H1027.76C1087.97 934.189 1143.6 919.561 1193.25 890.453C1240.06 863.117 1279.61 823.518 1307.82 775.791C1345.81 711.664 1335.56 645.32 1325.63 581.193C1322.95 564.2 1320.28 546.765 1318.54 529.772C1310.19 445.55 1351.48 395.311 1403.81 331.627C1412.79 320.693 1422.09 309.316 1431.54 297.347C1475.2 241.79 1501.52 171.752 1505.93 100.532C1507.98 66.5471 1504.99 32.7102 1497.42 0.646484Z" fill="white"/>
<path d="M1476.62 0.646484H1473.47C1494.59 94.4736 1472.68 199.235 1409.32 278.729C1399.87 290.402 1390.72 301.484 1381.74 312.123C1328.94 375.216 1287.34 425.159 1300.58 511.746C1303.25 529.477 1307.35 547.799 1311.13 565.53C1324.85 628.771 1339.19 694.228 1304.36 757.617C1277.88 805.491 1239.9 845.091 1194.35 872.131C1145.97 900.796 1091.44 914.833 1032.18 913.799C938.56 912.321 863.541 876.416 817.048 846.716C796.717 833.713 777.489 818.789 758.892 804.309C740.295 789.829 721.067 774.905 700.421 761.607C649.043 728.509 597.979 709.595 548.649 705.163C540.454 704.424 532.258 704.128 524.063 704.128C499.477 704.128 475.364 706.788 455.033 709.152C435.49 711.368 415.002 714.471 393.252 717.574C332.417 726.588 263.387 736.931 204.916 728.509C138.25 718.904 94.4361 686.545 71.2684 629.362C67.8011 620.644 64.3339 611.779 61.0242 603.061C49.2039 572.031 37.0685 539.82 15.6344 512.189C11.2215 506.574 6.3358 501.107 1.13489 495.788V500.221C5.39018 504.653 9.33027 509.234 13.1127 513.962C34.3892 541.298 46.3671 573.214 58.1873 604.095C61.497 612.813 64.8067 621.679 68.4316 630.396C92.0721 688.614 136.674 721.712 204.601 731.464C263.702 739.886 332.89 729.691 394.04 720.53C415.79 717.279 436.12 714.324 455.663 712.107C482.613 709.004 516.183 705.31 548.492 708.118C597.349 712.403 647.939 731.168 698.845 763.971C719.334 777.269 738.561 792.045 757.159 806.525C775.756 821.006 794.983 835.929 815.472 849.08C882.611 892.078 957.63 915.572 1032.33 916.754C1034.54 916.754 1036.75 916.754 1038.95 916.754C1096.32 916.754 1149.12 902.569 1196.24 874.642C1242.26 847.307 1280.72 807.264 1307.35 758.947C1342.81 694.672 1328.31 628.771 1314.44 564.939C1310.66 547.208 1306.56 528.886 1303.88 511.302C1290.8 426.045 1332.1 376.546 1384.42 314.044C1393.4 303.405 1402.54 292.323 1412 280.502C1475.52 200.565 1497.74 95.0646 1476.62 0.646484Z" fill="white"/>
<path d="M1455.5 0.646484H1453.92C1458.65 23.1059 1460.7 46.4518 1460.23 70.0933C1458.81 140.131 1433.91 208.248 1390.41 262.033C1381.11 273.558 1371.81 284.344 1362.99 294.835C1310.35 356.746 1268.74 405.655 1286.86 492.98C1290.65 511.302 1295.69 529.477 1301.21 548.685C1318.86 611.779 1337.3 677.088 1304.67 740.92C1252.66 842.726 1152.43 900.944 1036.9 896.659C943.919 893.408 870.16 854.695 824.77 822.779C805.07 808.89 786.63 793.227 768.821 778.008C750.697 762.641 732.1 746.831 711.926 732.646C662.912 697.922 613.739 678.418 565.986 674.429C559.366 673.838 552.905 673.69 546.285 673.69C522.802 673.69 499.162 676.793 475.206 680.191C455.506 682.999 434.702 686.988 412.637 691.125C353.379 702.207 286.082 714.767 229.187 708.118C164.254 700.582 122.49 669.109 101.686 611.779C98.5338 603.209 95.697 594.343 92.7025 585.921C82.4583 555.039 71.7412 523.271 51.0952 496.231C38.1717 479.534 21.6233 464.906 1.13489 452.199V453.972C20.9929 466.531 37.2261 480.864 49.6767 497.117C70.1652 523.862 80.8822 555.63 91.1265 586.364C93.9633 594.934 96.9578 603.8 100.11 612.37C121.229 670.291 163.309 702.06 229.029 709.743C286.082 716.392 353.536 703.833 412.953 692.751C435.017 688.613 455.821 684.772 475.521 681.964C506.096 677.532 536.041 673.69 565.986 676.202C613.424 680.043 662.281 699.548 711.138 734.123C731.154 748.308 749.751 764.118 767.876 779.338C785.842 794.557 804.282 810.219 823.982 824.109C869.53 856.173 943.446 895.033 1036.9 898.284C1041 898.432 1044.94 898.579 1049.04 898.579C1160.15 898.579 1255.66 840.658 1306.09 741.807C1338.87 677.532 1320.43 612.074 1302.78 548.538C1297.42 529.329 1292.22 511.155 1288.44 492.833C1280.24 452.938 1283.71 418.805 1299.63 385.412C1314.13 354.825 1337.45 327.49 1364.25 295.869C1373.07 285.379 1382.37 274.592 1391.67 263.067C1435.48 208.987 1460.39 140.574 1461.96 70.2411C1462.28 46.4519 1460.07 23.1059 1455.5 0.646484Z" fill="white"/>
<path d="M1434.85 0.646484H1433.12C1436.74 19.2641 1438.63 38.3251 1438.63 57.6816C1438.63 127.276 1414.52 194.802 1370.71 247.848C1361.41 259.225 1352.11 269.716 1343.28 280.059C1288.59 343.3 1249.19 388.958 1272.05 477.318C1276.93 496.083 1283.39 514.996 1290.17 534.796C1311.76 597.742 1334.14 662.903 1303.88 726.883C1280.71 776.087 1244.94 816.425 1200.81 843.465C1154.47 871.835 1099.31 885.133 1041.31 881.735C968.974 877.745 894.901 849.08 832.647 801.206C813.42 786.282 795.453 769.733 778.116 753.628C760.78 737.522 742.813 720.973 723.586 706.049C676.777 669.7 629.496 649.457 583.161 645.911C577.802 645.468 572.602 645.32 567.243 645.32C542.499 645.32 518.071 649.31 494.903 653.447C475.36 656.993 454.399 661.721 432.177 666.745C374.336 679.896 308.773 694.672 253.612 689.943C190.413 684.476 150.855 654.038 132.573 596.707C129.893 588.285 127.372 579.419 124.85 570.997C116.024 540.411 106.883 508.79 87.0253 482.637C68.1129 457.666 39.2715 437.718 1.28906 423.09V424.715C38.7987 439.196 67.1673 458.996 85.7645 483.524C105.465 509.529 114.606 541.002 123.432 571.44C125.953 579.863 128.475 588.728 131.154 597.15C149.752 654.924 189.783 685.806 253.612 691.421C309.089 696.297 374.809 681.373 432.807 668.223C455.029 663.199 475.991 658.471 495.533 654.924C523.587 649.901 553.532 645.172 583.319 647.389C629.339 650.787 676.305 670.882 722.955 707.083C742.183 722.007 760.15 738.556 777.328 754.662C794.665 770.768 812.632 787.317 831.859 802.24C894.27 850.41 968.659 879.075 1041.31 883.212C1047.15 883.508 1052.98 883.656 1058.65 883.656C1110.66 883.656 1159.83 870.357 1201.75 844.647C1246.2 817.459 1282.13 776.826 1305.46 727.326C1335.88 662.756 1313.5 597.446 1291.75 534.205C1284.97 514.258 1278.51 495.492 1273.62 476.727C1250.93 389.105 1290.17 343.743 1344.54 280.798C1353.37 270.603 1362.67 259.964 1371.97 248.586C1430.44 177.81 1451.4 85.4603 1434.85 0.646484Z" fill="white"/>
<path d="M1418.62 43.9399C1418.31 29.3118 1416.89 14.8314 1414.37 0.646484H1412.79C1415.31 14.8314 1416.73 29.3118 1417.04 43.9399C1418.46 112.943 1394.98 179.878 1351.17 232.333C1341.87 243.415 1332.57 253.906 1323.74 263.953C1269.05 326.012 1229.65 370.931 1257.39 460.178C1263.38 479.534 1271.26 498.891 1279.61 519.281C1305.15 582.079 1331.47 647.093 1303.57 711.368C1281.98 761.163 1247.46 801.797 1203.96 828.985C1158.42 857.355 1103.89 869.914 1046.05 865.629C973.863 860.162 901.051 829.133 840.846 778.303C822.091 762.345 804.597 744.762 787.734 727.77C771.185 711.073 754.007 693.785 735.725 678.123C690.965 640.148 645.575 619.167 600.658 616.212C596.403 615.916 592.305 615.768 588.05 615.768C562.361 615.768 537.144 620.792 514.922 625.52C495.695 629.658 474.733 635.272 452.669 641.183C371.345 663.051 279.147 687.727 218.785 655.368C191.52 640.74 173.553 616.359 163.624 580.454C161.26 572.031 159.211 563.166 157.005 554.744C149.597 524.453 142.032 493.276 122.962 467.713C99.0066 435.65 58.0297 413.338 1.13489 401.665V403.143C57.3993 414.816 97.9034 436.832 121.702 468.452C140.614 493.867 148.179 524.896 155.586 555.039C157.635 563.461 159.842 572.327 162.206 580.749C172.135 616.507 190.889 642.069 218.155 656.55C278.99 689.205 371.661 664.381 453.299 642.513C475.364 636.602 496.325 630.987 515.553 626.85C541.242 621.235 571.187 615.473 600.816 617.541C645.418 620.644 690.492 641.331 734.937 679.157C753.219 694.819 770.397 711.959 786.946 728.656C803.809 745.796 821.303 763.38 840.216 779.338C900.578 830.315 973.706 861.492 1046.2 866.959C1053.77 867.55 1061.18 867.846 1068.58 867.846C1118.39 867.846 1165.19 854.99 1205.23 830.167C1249.04 802.979 1283.55 762.05 1305.3 711.959C1333.36 647.093 1307.04 581.931 1281.51 518.69C1273.15 498.3 1265.43 478.943 1259.44 459.734C1231.86 371.227 1271.1 326.603 1325.48 264.84C1334.3 254.792 1343.44 244.301 1352.9 233.22C1396.4 180.617 1420.04 113.387 1418.62 43.9399Z" fill="white"/>
<path d="M1941.23 728.508C1926.1 774.313 1908.61 819.528 1888.59 864.003C1825.55 1003.93 1740.29 1132.19 1634.38 1246.4H1642.73C1747.38 1132.63 1831.7 1005.11 1894.42 866.219C1911.92 827.359 1927.52 787.907 1941.39 748.16V728.508H1941.23Z" fill="white"/>
<path d="M1941.23 839.918C1935.87 852.773 1930.36 865.48 1924.68 878.188C1864.32 1011.91 1784.26 1135.29 1685.76 1246.26H1691.9C1789.46 1135.58 1869.05 1012.8 1928.94 879.813C1933.19 870.504 1937.13 861.195 1941.07 851.887V839.918H1941.23Z" fill="white"/>
<path d="M1941.23 934.631C1886.55 1046.34 1818.15 1150.65 1736.66 1246.4H1742.65C1821.14 1153.61 1887.65 1052.99 1941.23 945.27V934.631Z" fill="white"/>
<path d="M1941.23 1022.4C1897.42 1101.16 1846.51 1175.92 1788.99 1246.4H1792.93C1848.72 1177.84 1898.36 1105.15 1941.23 1028.75V1022.4Z" fill="white"/>
<path d="M1941.23 1022.4C1897.42 1101.16 1846.51 1175.92 1788.99 1246.4H1792.93C1848.72 1177.84 1898.36 1105.15 1941.23 1028.75V1022.4Z" fill="white"/>
<path d="M1941.23 1102.49C1922.16 1133.22 1901.99 1163.51 1880.71 1193.06C1867.79 1211.09 1854.39 1228.82 1840.52 1246.41H1844.46C1857.86 1229.41 1870.78 1212.13 1883.39 1194.69C1903.72 1166.47 1922.95 1137.8 1941.23 1108.4V1102.49Z" fill="white"/>
<path d="M1941.23 1179.03C1932.88 1191.14 1924.53 1203.26 1915.86 1215.23C1908.29 1225.72 1900.73 1236.06 1892.85 1246.26H1896.63C1904.04 1236.5 1911.29 1226.75 1918.38 1216.85C1926.1 1206.21 1933.67 1195.28 1941.07 1184.49V1179.03H1941.23Z" fill="white"/>
</svg>
