<svg width="37" height="39" viewBox="0 0 37 39" fill="none" xmlns="http://www.w3.org/2000/svg">
<g clip-path="url(#clip0_2_1179)">
<path d="M22.6176 0.883789H23.0517C23.2105 0.959004 23.3415 1.08141 23.4261 1.2338C23.5107 1.38618 23.5448 1.56088 23.5234 1.73333C23.5234 2.35344 23.5234 2.97354 23.5234 3.62465C23.5234 3.99671 23.6367 4.06492 23.9889 4.06492C27.3732 4.06492 30.7637 4.06492 34.1479 4.06492C34.4117 4.04831 34.6765 4.06919 34.9342 4.12694C35.3885 4.24451 35.785 4.51878 36.0516 4.89995C36.3182 5.28112 36.4373 5.74391 36.3873 6.20429C36.3873 15.295 36.3873 24.3857 36.3873 33.4889C36.4165 33.7933 36.3771 34.1003 36.272 34.3879C36.1669 34.6756 35.9987 34.9368 35.7794 35.153C35.5601 35.3692 35.2951 35.535 35.0033 35.6386C34.7115 35.7422 34.4001 35.781 34.0913 35.7523C30.6945 35.7027 27.2914 35.7523 23.8946 35.7523C23.5989 35.7523 23.4983 35.8267 23.5109 36.1243C23.5109 36.8312 23.5109 37.5382 23.5109 38.2389C23.5257 38.3431 23.5134 38.4493 23.4752 38.5475C23.4369 38.6457 23.3739 38.7328 23.2921 38.8004C23.2103 38.868 23.1124 38.9139 23.0076 38.934C22.9028 38.954 22.7946 38.9474 22.6931 38.9148C22.4037 38.8776 22.1207 38.828 21.8376 38.7846L12.358 37.3645C9.03034 36.8809 5.70901 36.391 2.38767 35.9259C2.10904 35.922 1.83425 35.8612 1.58059 35.7475C1.32693 35.6338 1.09989 35.4695 0.91377 35.2651C0.727648 35.0606 0.586468 34.8204 0.499115 34.5595C0.411761 34.2987 0.380124 34.0228 0.406196 33.7493V6.04926C0.406196 4.72844 1.03524 4.03392 2.38767 3.84789C5.02336 3.48203 7.64645 3.09136 10.2758 2.7069C13.6161 2.22321 16.9751 1.74573 20.3216 1.24965C21.093 1.16804 21.8594 1.04591 22.6176 0.883789V0.883789ZM22.2465 19.8838C22.2465 14.1499 22.2465 8.40979 22.2465 2.66349C22.2465 2.33483 22.171 2.24802 21.8313 2.29763C19.4284 2.66349 17.0066 3.00455 14.5911 3.36421L2.5701 5.1067C1.83412 5.22452 1.66428 5.36714 1.66428 6.11747V33.7493C1.66428 34.3322 1.85299 34.5555 2.40026 34.6299L9.53987 35.6716L21.7936 37.47C22.2717 37.5382 22.2717 37.5444 22.2717 37.0793L22.2465 19.8838ZM35.1104 19.8838V6.18568C35.1104 5.56558 34.9028 5.32994 34.3052 5.32374C30.8266 5.32374 27.3858 5.32374 23.8757 5.32374C23.5801 5.32374 23.5234 5.42295 23.5297 5.6896C23.5297 6.50194 23.5297 7.32047 23.5297 8.13901C23.5297 8.41186 23.6052 8.49247 23.8883 8.49247C25.5175 8.49247 27.153 8.49247 28.7822 8.49247H31.116C31.3087 8.47618 31.5028 8.50184 31.6844 8.56762C31.866 8.63341 32.0307 8.73772 32.1669 8.87317C32.3031 9.00863 32.4075 9.17193 32.4726 9.35152C32.5378 9.53112 32.5621 9.72263 32.5439 9.91251C32.5439 10.2598 32.5439 10.607 32.5439 10.9481C32.5525 11.1226 32.5247 11.2969 32.4623 11.4604C32.3999 11.6239 32.3041 11.773 32.1808 11.8985C32.0576 12.0241 31.9096 12.1233 31.7459 12.1903C31.5822 12.2572 31.4064 12.2903 31.2292 12.2875H23.8946C23.6241 12.2875 23.5172 12.3433 23.5297 12.6348C23.5297 13.2115 23.5297 13.7944 23.5297 14.3773C23.5297 14.7245 23.5989 14.8361 23.9764 14.8361C26.3604 14.8361 28.7445 14.8361 31.1285 14.8361C31.3179 14.8181 31.5089 14.8414 31.688 14.9044C31.8672 14.9673 32.0301 15.0684 32.1652 15.2004C32.3003 15.3323 32.4042 15.492 32.4697 15.6681C32.5351 15.8441 32.5605 16.0322 32.5439 16.219C32.5439 16.5042 32.5439 16.7895 32.5439 17.0747C32.5439 18.1599 32.0658 18.6374 30.965 18.6374H23.8883C23.6052 18.6374 23.5172 18.7056 23.5297 18.9846C23.5297 19.6047 23.5297 20.1752 23.5297 20.7643C23.5297 21.093 23.6052 21.1798 23.9386 21.1798C26.3353 21.1798 28.7319 21.1798 31.1285 21.1798C31.3145 21.1634 31.5019 21.1867 31.6779 21.2483C31.8538 21.3099 32.0142 21.4083 32.148 21.5367C32.2819 21.6651 32.386 21.8204 32.4532 21.9922C32.5204 22.1639 32.5492 22.3479 32.5376 22.5316C32.5376 22.9099 32.5376 23.2944 32.5376 23.6788C32.545 23.9647 32.452 24.2442 32.2743 24.4703C32.0967 24.6963 31.8452 24.8548 31.5626 24.919C31.3553 24.9571 31.1442 24.9717 30.9335 24.9624C28.5872 24.9624 26.2409 24.9624 23.8946 24.9624C23.5801 24.9624 23.492 25.0493 23.5046 25.3531C23.5297 25.9484 23.5297 26.5437 23.5046 27.139C23.5046 27.4367 23.5926 27.5421 23.8883 27.5049C23.9762 27.4987 24.0645 27.4987 24.1525 27.5049H30.9147C32.0721 27.5049 32.5439 27.9638 32.5439 29.0923C32.5439 29.4024 32.5439 29.7124 32.5439 30.0163C32.5498 30.1828 32.5216 30.3487 32.4611 30.5042C32.4005 30.6598 32.3088 30.8017 32.1913 30.9215C32.0739 31.0413 31.9332 31.1365 31.7776 31.2015C31.6221 31.2666 31.4548 31.3 31.2858 31.2999C31.1537 31.2999 31.0153 31.2999 30.8769 31.2999C28.5558 31.2999 26.2346 31.2999 23.9134 31.2999C23.6178 31.2999 23.5234 31.3743 23.5297 31.672C23.5297 32.4595 23.5297 33.2532 23.5297 34.047C23.5297 34.3942 23.6304 34.4686 23.9701 34.4686C27.3543 34.4686 30.7448 34.4686 34.1291 34.4686C34.9405 34.4686 35.1104 34.295 35.1104 33.4827V19.8838ZM29.644 11.0225H30.3171C31.2858 11.0225 31.2732 11.0225 31.2669 10.0613C31.2669 9.81949 31.1852 9.73888 30.9398 9.74508C30.3108 9.74508 29.6377 9.74508 28.9898 9.74508C28.0148 9.74508 28.0211 9.74508 28.0337 10.7186C28.0337 10.9419 28.0903 11.0287 28.3293 11.0163C28.7634 11.0101 29.2037 11.0225 29.644 11.0225ZM29.644 30.0225H30.3234C31.3173 30.0225 31.311 30.0225 31.2795 29.0427C31.2795 28.8195 31.204 28.7451 30.9776 28.7513C30.3485 28.7513 29.6755 28.7513 29.0213 28.7513C28.0211 28.7513 28.0274 28.7513 28.0525 29.7496C28.0525 29.9605 28.1154 30.0349 28.3293 30.0287C28.7508 30.0287 29.1911 30.0287 29.6251 30.0287L29.644 30.0225ZM25.1527 11.0225H25.7817C26.7882 11.0225 26.7819 11.0225 26.7567 10.0241C26.7567 9.81329 26.6875 9.74508 26.4736 9.74508C25.8132 9.74508 25.1464 9.74508 24.4859 9.74508C23.4668 9.74508 23.4731 9.74508 23.5234 10.7621C23.5234 10.9543 23.5989 11.0225 23.7876 11.0163C24.2468 11.0163 24.6997 11.0225 25.1527 11.0225ZM25.1527 30.0225H25.7817C26.7819 30.0225 26.7756 30.0225 26.7504 29.0241C26.7504 28.8133 26.6749 28.7451 26.4674 28.7513C25.8069 28.7513 25.1401 28.7513 24.4733 28.7513C23.4542 28.7513 23.4605 28.7513 23.5172 29.7745C23.5172 29.9667 23.5989 30.0287 23.7876 30.0225C24.2468 30.0287 24.6997 30.0287 25.1527 30.0287V30.0225ZM25.1527 17.36H25.832C26.807 17.36 26.8007 17.36 26.7882 16.3864C26.7882 16.157 26.7316 16.0825 26.4925 16.0887C25.8635 16.0887 25.1652 16.0887 24.4985 16.0887C23.5172 16.0887 23.5234 16.0887 23.5549 17.0809C23.5549 17.2856 23.6178 17.36 23.838 17.3538C24.2468 17.3476 24.6872 17.36 25.1275 17.36H25.1527ZM29.6566 17.36H30.3297C31.3173 17.36 31.311 17.36 31.2858 16.3802C31.2858 16.1508 31.2103 16.0825 30.9839 16.0887C30.3548 16.0887 29.6818 16.0887 29.0275 16.0887C27.9959 16.0887 27.9959 16.0887 28.0588 17.1181C28.0588 17.2918 28.1154 17.36 28.2979 17.3538C28.713 17.3538 29.1785 17.36 29.6314 17.36H29.6566ZM25.1904 22.4138H24.4922C23.5046 22.4138 23.5109 22.4138 23.5297 23.3936C23.5297 23.623 23.6052 23.6912 23.8317 23.685C24.4607 23.685 25.1401 23.685 25.788 23.685C26.7945 23.685 26.7882 23.685 26.763 22.6929C26.763 22.4882 26.7001 22.4138 26.4862 22.42C26.0459 22.4262 25.6056 22.4138 25.1652 22.4138H25.1904ZM29.6943 22.4138H28.9898C28.0148 22.4138 28.0274 22.4138 28.0337 23.3874C28.0337 23.6416 28.128 23.6912 28.3608 23.685C28.9898 23.685 29.6629 23.685 30.3171 23.685C31.2795 23.685 31.2732 23.685 31.2669 22.7363C31.2669 22.4634 31.16 22.4076 30.9147 22.42C30.4995 22.4262 30.0843 22.4138 29.6692 22.4138H29.6943Z" fill="#22B373"/>
<path d="M7.49553 14.1912C7.62228 14.2016 7.74492 14.2406 7.85399 14.3051C7.96306 14.3696 8.05563 14.4579 8.12457 14.5633C9.25055 15.9089 10.3828 17.2484 11.4899 18.6064C11.7101 18.873 11.8045 18.8358 11.9995 18.6064C13.2575 17.0499 14.5785 15.5059 15.8681 13.9618C15.97 13.8046 16.1197 13.6831 16.2958 13.6146C16.4312 13.5622 16.5808 13.5578 16.7191 13.6019C16.8575 13.6461 16.976 13.7361 17.0546 13.8567C17.1332 13.9773 17.167 14.121 17.1502 14.2634C17.1334 14.4058 17.0671 14.5381 16.9626 14.6377C16.4405 15.2578 15.8995 15.9213 15.3648 16.56C14.5156 17.5832 13.6664 18.6064 12.7983 19.6172C12.7552 19.6502 12.7203 19.6925 12.6963 19.7409C12.6723 19.7892 12.6599 19.8424 12.6599 19.8962C12.6599 19.95 12.6723 20.0032 12.6963 20.0515C12.7203 20.0999 12.7552 20.1422 12.7983 20.1753C14.1319 21.7503 15.4466 23.3378 16.7739 24.9253C16.8793 25.0451 16.974 25.1738 17.0569 25.3097C17.1346 25.4331 17.1622 25.5808 17.1342 25.7233C17.1062 25.8659 17.0247 25.9927 16.906 26.0787C16.8012 26.1706 16.6657 26.2214 16.5254 26.2214C16.3851 26.2214 16.2497 26.1706 16.1448 26.0787C16.0332 25.9998 15.9355 25.9034 15.8555 25.7934C14.5597 24.2473 13.268 22.7011 11.9806 21.155C11.7793 20.907 11.6912 20.9256 11.5025 21.155C10.4017 22.4944 9.2883 23.8153 8.18118 25.1423C8.09284 25.247 7.99608 25.3444 7.89182 25.4337C7.78555 25.5327 7.64489 25.5879 7.49867 25.5879C7.35246 25.5879 7.21179 25.5327 7.10552 25.4337C6.98901 25.3461 6.9097 25.2188 6.88296 25.0767C6.85623 24.9347 6.88399 24.7879 6.96084 24.6648C7.03594 24.5362 7.12449 24.4156 7.22504 24.3052C8.38248 22.9161 9.53362 21.5333 10.6973 20.1567C10.8672 19.9582 10.8798 19.8466 10.6973 19.6358C9.52733 18.2653 8.38248 16.8763 7.22504 15.4873C7.11612 15.3679 7.02116 15.2369 6.94197 15.0966C6.89249 15.0024 6.86832 14.8974 6.87179 14.7914C6.87525 14.6854 6.90623 14.582 6.96175 14.4912C7.01728 14.4004 7.09551 14.3251 7.18896 14.2726C7.28241 14.2201 7.38796 14.1921 7.49553 14.1912Z" fill="#22B373"/>
</g>
<defs>
<clipPath id="clip0_2_1179">
<rect width="36" height="38" fill="white" transform="translate(0.40625 0.883789)"/>
</clipPath>
</defs>
</svg>
