<svg width="13" height="15" viewBox="0 0 13 15" fill="none" xmlns="http://www.w3.org/2000/svg">
<path opacity="0.7573" d="M3.14516 13.5148C2.09678 12.9594 1.46773 12.2188 0.838697 11.108C0.209665 9.99722 0 8.70128 0 7.22021C0 5.73915 0.209665 4.44321 0.838697 3.33241C1.46773 2.2216 2.09678 1.48107 3.14516 0.925669C4.19355 0.370267 5.24192 0 6.49998 0C7.75805 0 8.80645 0.370267 9.85484 0.925669C10.9032 1.48107 11.5323 2.2216 12.1613 3.33241C12.7903 4.44321 13 5.73915 13 7.22021C13 8.70128 12.7903 9.99722 12.1613 11.108C11.5323 12.2188 10.9032 12.9594 9.85484 13.5148C8.80645 14.0702 7.75805 14.4404 6.49998 14.4404C5.24192 14.4404 3.98387 14.0702 3.14516 13.5148ZM9.43549 11.2932C10.2742 10.3675 10.4839 9.07155 10.4839 7.22021C10.4839 5.55401 10.0645 4.07294 9.43549 3.14727C8.59678 2.40674 7.75805 2.03647 6.49998 2.03647C5.24192 2.03647 4.19353 2.40674 3.35482 3.33241C2.51611 4.25808 2.30643 5.55401 2.30643 7.40535C2.30643 9.07155 2.72579 10.5526 3.35482 11.4783C4.19353 12.404 5.03224 12.7742 6.49998 12.7742C7.75805 12.5891 8.59678 12.2188 9.43549 11.2932Z" fill="#00DEF2"/>
</svg>
