<svg width="8" height="8" viewBox="0 0 8 8" fill="none" xmlns="http://www.w3.org/2000/svg">
<path opacity="0.7573" d="M1.93548 7.48718C1.29032 7.17949 0.903218 6.76923 0.516121 6.15385C0.129024 5.53846 0 4.82051 0 4C0 3.17949 0.129024 2.46154 0.516121 1.84615C0.903218 1.23077 1.29032 0.820513 1.93548 0.512821C2.58065 0.205128 3.2258 0 3.99999 0C4.77418 0 5.41935 0.205128 6.06452 0.512821C6.70968 0.820513 7.09678 1.23077 7.48388 1.84615C7.87098 2.46154 8 3.17949 8 4C8 4.82051 7.87098 5.53846 7.48388 6.15385C7.09678 6.76923 6.70968 7.17949 6.06452 7.48718C5.41935 7.79487 4.77418 8 3.99999 8C3.2258 8 2.45161 7.79487 1.93548 7.48718ZM5.80645 6.25641C6.32258 5.74359 6.45162 5.02564 6.45162 4C6.45162 3.07692 6.19355 2.25641 5.80645 1.74359C5.29033 1.33333 4.77418 1.12821 3.99999 1.12821C3.2258 1.12821 2.58063 1.33333 2.06451 1.84615C1.54838 2.35897 1.41934 3.07692 1.41934 4.10256C1.41934 5.02564 1.67741 5.84615 2.06451 6.35897C2.58063 6.8718 3.09676 7.07692 3.99999 7.07692C4.77418 6.97436 5.29033 6.76923 5.80645 6.25641Z" fill="#00375F"/>
</svg>
