<svg width="9" height="10" viewBox="0 0 9 10" fill="none" xmlns="http://www.w3.org/2000/svg">
<path opacity="0.7573" d="M2.17742 9.35897C1.45161 8.97436 1.01612 8.46154 0.580637 7.69231C0.145152 6.92308 0 6.02564 0 5C0 3.97436 0.145152 3.07692 0.580637 2.30769C1.01612 1.53846 1.45161 1.02564 2.17742 0.641026C2.90323 0.25641 3.62902 0 4.49999 0C5.37096 0 6.09677 0.25641 6.82258 0.641026C7.54839 1.02564 7.98388 1.53846 8.41936 2.30769C8.85485 3.07692 9 3.97436 9 5C9 6.02564 8.85485 6.92308 8.41936 7.69231C7.98388 8.46154 7.54839 8.97436 6.82258 9.35897C6.09677 9.74359 5.37096 10 4.49999 10C3.62902 10 2.75807 9.74359 2.17742 9.35897ZM6.53226 7.82051C7.11291 7.17949 7.25807 6.28205 7.25807 5C7.25807 3.84615 6.96775 2.82051 6.53226 2.17949C5.95162 1.66667 5.37096 1.41026 4.49999 1.41026C3.62902 1.41026 2.90321 1.66667 2.32257 2.30769C1.74192 2.94872 1.59676 3.84615 1.59676 5.12821C1.59676 6.28205 1.88708 7.30769 2.32257 7.94872C2.90321 8.58974 3.48386 8.84615 4.49999 8.84615C5.37096 8.71795 5.95162 8.46154 6.53226 7.82051Z" fill="white"/>
</svg>
