<svg width="24" height="19" viewBox="0 0 24 19" fill="none" xmlns="http://www.w3.org/2000/svg">
<path d="M23.2977 12.5944H21.8437V11.6498C21.8437 9.96671 20.4745 8.5978 18.7916 8.5978H13.1412V5.9449H14.5773C14.8377 5.9449 15.0491 5.73353 15.0491 5.4731V0.857537C15.0491 0.597106 14.8377 0.385742 14.5773 0.385742H9.96175C9.70132 0.385742 9.48995 0.597106 9.48995 0.857537V5.4731C9.48995 5.73353 9.70132 5.9449 9.96175 5.9449H11.3977V8.59756H5.74767C4.06455 8.59756 2.69563 9.96671 2.69563 11.6496V12.5941H1.24133C0.980895 12.5941 0.769531 12.8055 0.769531 13.0659V17.6817C0.769531 17.9422 0.980895 18.1535 1.24133 18.1535H5.8569C6.11733 18.1535 6.32869 17.9422 6.32869 17.6817V13.0662C6.32869 12.8057 6.11733 12.5944 5.8569 12.5944H4.43939V11.6498C4.43939 10.9285 5.02606 10.3418 5.74744 10.3418H11.3974V12.5944H9.96151C9.70108 12.5944 9.48972 12.8057 9.48972 13.0662V17.6817C9.48972 17.9422 9.70108 18.1535 9.96151 18.1535H14.5771C14.8375 18.1535 15.0489 17.9422 15.0489 17.6817V13.0662C15.0489 12.8057 14.8375 12.5944 14.5771 12.5944H13.1412V10.3418H18.7912C19.5125 10.3418 20.0992 10.9285 20.0992 11.6498V12.5944H18.6815C18.421 12.5944 18.2097 12.8057 18.2097 13.0662V17.6817C18.2097 17.9422 18.421 18.1535 18.6815 18.1535H23.2977C23.5582 18.1535 23.7695 17.9422 23.7695 17.6817V13.0662C23.7695 12.8055 23.5582 12.5944 23.2977 12.5944Z" fill="url(#paint0_linear_222_111)"/>
<defs>
<linearGradient id="paint0_linear_222_111" x1="0.769531" y1="10.8963" x2="31.3357" y2="18.2767" gradientUnits="userSpaceOnUse">
<stop stop-color="#E66433"/>
<stop offset="1" stop-color="#94368C"/>
</linearGradient>
</defs>
</svg>
