<svg width="25" height="25" viewBox="0 0 25 25" fill="none" xmlns="http://www.w3.org/2000/svg">
<path d="M18.3718 16.8396L14.1288 21.0826C13.9433 21.2683 13.7229 21.4157 13.4804 21.5162C13.2379 21.6167 12.9779 21.6685 12.7153 21.6685C12.4528 21.6685 12.1928 21.6167 11.9503 21.5162C11.7078 21.4157 11.4874 21.2683 11.3018 21.0826L7.05785 16.8396C5.93907 15.7207 5.17718 14.2953 4.86853 12.7434C4.55989 11.1916 4.71834 9.58308 5.32385 8.1213C5.92936 6.65951 6.95474 5.41011 8.27033 4.53108C9.58591 3.65204 11.1326 3.18286 12.7148 3.18286C14.2971 3.18286 15.8438 3.65204 17.1594 4.53108C18.475 5.41011 19.5003 6.65951 20.1058 8.1213C20.7114 9.58308 20.8698 11.1916 20.5612 12.7434C20.2525 14.2953 19.4906 15.7207 18.3718 16.8396V16.8396Z" stroke="url(#paint0_linear_222_98)" stroke-width="2" stroke-linecap="round" stroke-linejoin="round"/>
<path d="M15.7148 11.1826C15.7148 11.9783 15.3988 12.7413 14.8362 13.3039C14.2736 13.8665 13.5105 14.1826 12.7148 14.1826C11.9192 14.1826 11.1561 13.8665 10.5935 13.3039C10.0309 12.7413 9.71484 11.9783 9.71484 11.1826C9.71484 10.387 10.0309 9.62391 10.5935 9.0613C11.1561 8.49869 11.9192 8.18262 12.7148 8.18262C13.5105 8.18262 14.2736 8.49869 14.8362 9.0613C15.3988 9.62391 15.7148 10.387 15.7148 11.1826V11.1826Z" stroke="url(#paint1_linear_222_98)" stroke-width="2" stroke-linecap="round" stroke-linejoin="round"/>
<defs>
<linearGradient id="paint0_linear_222_98" x1="4.71484" y1="14.118" x2="26.6463" y2="17.6588" gradientUnits="userSpaceOnUse">
<stop stop-color="#E66433"/>
<stop offset="1" stop-color="#94368C"/>
</linearGradient>
<linearGradient id="paint1_linear_222_98" x1="9.71484" y1="11.7319" x2="17.8698" y2="13.253" gradientUnits="userSpaceOnUse">
<stop stop-color="#E66433"/>
<stop offset="1" stop-color="#94368C"/>
</linearGradient>
</defs>
</svg>
