<svg width="22" height="20" viewBox="0 0 22 20" fill="none" xmlns="http://www.w3.org/2000/svg">
<path d="M14.2343 4.39916C14.6807 3.02873 16.6195 3.02873 17.0644 4.39916L18.6565 9.29756C18.7538 9.59588 18.9429 9.85582 19.1968 10.0402C19.4506 10.2246 19.7563 10.324 20.0701 10.3243H25.2215C26.6633 10.3243 27.2615 12.1694 26.0964 13.0175L21.9301 16.044C21.6757 16.2286 21.4862 16.489 21.3889 16.7878C21.2916 17.0866 21.2915 17.4086 21.3884 17.7076L22.9806 22.606C23.427 23.9764 21.8572 25.1177 20.6891 24.2696L16.5228 21.243C16.2686 21.0585 15.9626 20.9591 15.6486 20.9591C15.3345 20.9591 15.0285 21.0585 14.7744 21.243L10.6081 24.2696C9.4415 25.1177 7.87318 23.9764 8.31808 22.606L9.91022 17.7076C10.0072 17.4086 10.007 17.0866 9.90972 16.7878C9.81242 16.489 9.62299 16.2286 9.36859 16.044L5.20376 13.019C4.03867 12.1708 4.63833 10.3258 6.07869 10.3258H11.2286C11.5426 10.3258 11.8486 10.2266 12.1028 10.0421C12.357 9.85772 12.5463 9.59761 12.6436 9.29905L14.2358 4.40064L14.2343 4.39916Z" fill="#FF8A00"/>
<path d="M46.9696 4.39916C47.416 3.02873 49.3548 3.02873 49.7997 4.39916L51.3919 9.29756C51.4891 9.59588 51.6782 9.85582 51.9321 10.0402C52.186 10.2246 52.4917 10.324 52.8054 10.3243H57.9568C59.3987 10.3243 59.9968 12.1694 58.8317 13.0175L54.6654 16.044C54.411 16.2286 54.2216 16.489 54.1243 16.7878C54.027 17.0866 54.0268 17.4086 54.1238 17.7076L55.7159 22.606C56.1623 23.9764 54.5925 25.1177 53.4244 24.2696L49.2581 21.243C49.004 21.0585 48.698 20.9591 48.3839 20.9591C48.0699 20.9591 47.7639 21.0585 47.5098 21.243L43.3434 24.2696C42.1769 25.1177 40.6085 23.9764 41.0534 22.606L42.6456 17.7076C42.7425 17.4086 42.7424 17.0866 42.6451 16.7878C42.5478 16.489 42.3583 16.2286 42.1039 16.044L37.9391 13.019C36.774 12.1708 37.3737 10.3258 38.814 10.3258H43.9639C44.2779 10.3258 44.584 10.2266 44.8381 10.0421C45.0923 9.85772 45.2816 9.59761 45.379 9.29905L46.9711 4.40064L46.9696 4.39916Z" fill="#FF8A00"/>
<path d="M79.705 4.39916C80.1514 3.02873 82.0902 3.02873 82.5351 4.39916L84.1272 9.29756C84.2245 9.59588 84.4136 9.85582 84.6675 10.0402C84.9213 10.2246 85.227 10.324 85.5408 10.3243H90.6922C92.134 10.3243 92.7322 12.1694 91.5671 13.0175L87.4008 16.044C87.1464 16.2286 86.9569 16.489 86.8596 16.7878C86.7623 17.0866 86.7622 17.4086 86.8591 17.7076L88.4513 22.606C88.8977 23.9764 87.3279 25.1177 86.1598 24.2696L81.9935 21.243C81.7393 21.0585 81.4333 20.9591 81.1193 20.9591C80.8052 20.9591 80.4992 21.0585 80.2451 21.243L76.0788 24.2696C74.9122 25.1177 73.3439 23.9764 73.7888 22.606L75.3809 17.7076C75.4779 17.4086 75.4777 17.0866 75.3804 16.7878C75.2831 16.489 75.0937 16.2286 74.8393 16.044L70.6745 13.019C69.5094 12.1708 70.109 10.3258 71.5494 10.3258H76.6993C77.0133 10.3258 77.3193 10.2266 77.5735 10.0421C77.8277 9.85772 78.017 9.59761 78.1143 9.29905L79.7065 4.40064L79.705 4.39916Z" fill="#FF8A00"/>
<path d="M112.44 4.39916C112.887 3.02873 114.826 3.02873 115.27 4.39916L116.863 9.29756C116.96 9.59588 117.149 9.85582 117.403 10.0402C117.657 10.2246 117.962 10.324 118.276 10.3243H123.428C124.869 10.3243 125.468 12.1694 124.302 13.0175L120.136 16.044C119.882 16.2286 119.692 16.489 119.595 16.7878C119.498 17.0866 119.498 17.4086 119.594 17.7076L121.187 22.606C121.633 23.9764 120.063 25.1177 118.895 24.2696L114.729 21.243C114.475 21.0585 114.169 20.9591 113.855 20.9591C113.541 20.9591 113.235 21.0585 112.98 21.243L108.814 24.2696C107.648 25.1177 106.079 23.9764 106.524 22.606L108.116 17.7076C108.213 17.4086 108.213 17.0866 108.116 16.7878C108.018 16.489 107.829 16.2286 107.575 16.044L103.41 13.019C102.245 12.1708 102.844 10.3258 104.285 10.3258H109.435C109.749 10.3258 110.055 10.2266 110.309 10.0421C110.563 9.85772 110.752 9.59761 110.85 9.29905L112.442 4.40064L112.44 4.39916Z" fill="#FF8A00"/>
<path fill-rule="evenodd" clip-rule="evenodd" d="M142.721 3.02148C142.142 3.04113 141.574 3.38344 141.358 4.0484L139.767 8.9483C139.67 9.24686 139.48 9.50697 139.226 9.69139C138.972 9.87581 138.666 9.97508 138.352 9.975H133.202C131.762 9.975 131.162 11.8201 132.327 12.6682L136.492 15.6933C136.747 15.8778 136.936 16.1382 137.033 16.4371C137.131 16.7359 137.131 17.0579 137.034 17.3568L135.442 22.2552C134.997 23.6257 136.565 24.7669 137.732 23.9188L141.898 20.8923C142.138 20.7179 142.425 20.6195 142.721 20.6093L142.721 3.02148Z" fill="#FF8A00"/>
<path fill-rule="evenodd" clip-rule="evenodd" d="M142.72 3.02124C143.298 3.04089 143.866 3.38319 144.083 4.04816L145.673 8.94806C145.771 9.24662 145.96 9.50673 146.214 9.69115C146.468 9.87557 146.774 9.97484 147.088 9.97476H152.238C153.679 9.97476 154.278 11.8198 153.113 12.668L148.948 15.693C148.694 15.8776 148.504 16.138 148.407 16.4368C148.31 16.7357 148.31 17.0576 148.407 17.3566L149.999 22.255C150.444 23.6254 148.875 24.7667 147.709 23.9186L143.542 20.892C143.302 20.7176 143.016 20.6193 142.72 20.609L142.72 3.02124Z" fill="#F7FAFC"/>
<path d="M176.256 21.5839V18.4039H170.116V16.4439L176.956 7.62394H178.456V16.4039H180.216V18.4039H178.456V21.5839H176.256ZM172.356 16.4039H176.496V10.9839L172.356 16.4039ZM182.425 20.9839L182.905 18.9239H182.185V16.4839H184.165V18.9239L183.465 20.9839H182.425ZM192.389 9.40394H185.509V7.38395H195.869L188.769 21.5839H186.269L192.389 9.40394Z" fill="#202020"/>
</svg>
