<svg width="18" height="18" viewBox="0 0 18 18" fill="none" xmlns="http://www.w3.org/2000/svg">
<path d="M9.03339 0.765625C4.34656 0.765625 0.533691 4.5787 0.533691 9.26552C0.533691 13.9526 4.34656 17.7656 9.03339 17.7656C13.7202 17.7656 17.5333 13.9526 17.5333 9.26552C17.5333 4.5787 13.72 0.765625 9.03339 0.765625ZM9.03339 16.5367C5.0243 16.5367 1.76239 13.2748 1.76239 9.26552C1.76239 5.25623 5.0241 1.99453 9.03339 1.99453C13.0427 1.99453 16.3044 5.25623 16.3044 9.26552C16.3044 13.2748 13.0427 16.5367 9.03339 16.5367Z" fill="url(#paint0_linear_0_1)"/>
<path d="M11.4928 10.048C11.4896 10.048 11.4867 10.048 11.4834 10.048L9.64785 10.0755V5.27168C9.64785 4.9323 9.37278 4.65723 9.0334 4.65723C8.69401 4.65723 8.41895 4.9323 8.41895 5.27168V10.6993C8.41895 10.7006 8.41935 10.7018 8.41935 10.703C8.41935 10.7051 8.41895 10.7069 8.41895 10.7085C8.41935 10.7335 8.42407 10.7571 8.42734 10.781C8.42939 10.796 8.4296 10.8114 8.43246 10.8261C8.43799 10.8525 8.44721 10.8771 8.45602 10.9019C8.46052 10.9148 8.46339 10.9283 8.46872 10.9406C8.47937 10.9658 8.4937 10.9887 8.50743 11.0123C8.51378 11.0227 8.51849 11.0342 8.52525 11.0444C8.54081 11.0672 8.55945 11.0875 8.57788 11.1081C8.58567 11.1167 8.59202 11.1266 8.60021 11.135C8.62007 11.1546 8.6424 11.1712 8.66473 11.1882C8.67374 11.195 8.68172 11.2032 8.69094 11.2095C8.71511 11.2259 8.74153 11.2388 8.76795 11.2515C8.77717 11.2558 8.78536 11.262 8.79478 11.2658C8.82551 11.2787 8.85828 11.2878 8.89146 11.2957C8.8976 11.2972 8.90334 11.3001 8.90969 11.3013C8.94942 11.3093 8.99059 11.3138 9.03278 11.3138C9.03585 11.3138 9.03913 11.3138 9.0422 11.3138L11.5016 11.2769C11.8408 11.2718 12.1118 10.9924 12.1069 10.6532C12.1022 10.3171 11.8279 10.048 11.4928 10.048Z" fill="url(#paint1_linear_0_1)"/>
<defs>
<linearGradient id="paint0_linear_0_1" x1="0.533692" y1="10.822" x2="23.6388" y2="15.1316" gradientUnits="userSpaceOnUse">
<stop stop-color="#E66433"/>
<stop offset="1" stop-color="#94368C"/>
</linearGradient>
<linearGradient id="paint1_linear_0_1" x1="8.41895" y1="8.5949" x2="13.5511" y2="9.12528" gradientUnits="userSpaceOnUse">
<stop stop-color="#E66433"/>
<stop offset="1" stop-color="#94368C"/>
</linearGradient>
</defs>
</svg>
