<svg width="72" height="73" viewBox="0 0 72 73" fill="none" xmlns="http://www.w3.org/2000/svg">
<g clip-path="url(#clip0_244_337)">
<path d="M21.9371 14.446C20.5961 14.446 19.5093 15.548 19.5093 16.9076V56.3027C19.5093 57.6623 20.5961 58.7643 21.9371 58.7643H49.8635C51.2045 58.7643 52.2914 57.6623 52.2914 56.3027V25.8485L40.5859 14.446H21.9371V14.446Z" fill="#1F51FF"/>
<path d="M52.2912 25.8485H43.014C41.673 25.8485 40.5862 24.7459 40.5862 23.3863V14.446L52.2912 25.8485Z" fill="white"/>
<path d="M40.1018 41.8619C40.1018 43.4313 38.8472 44.7033 37.3005 44.7033H16.8442C15.2963 44.7033 14.043 43.4313 14.043 41.8619V33.1815C14.043 31.6121 15.2965 30.3401 16.8442 30.3401H37.3005C38.8472 30.3401 40.1018 31.6121 40.1018 33.1815V41.8619Z" fill="white"/>
<path d="M17.112 34.4C17.24 34.4 17.352 34.448 17.448 34.544C17.5493 34.6347 17.6 34.7493 17.6 34.888V39.512C17.6 39.6507 17.5493 39.768 17.448 39.864C17.3467 39.9547 17.2293 40 17.096 40C16.9467 40 16.8267 39.9547 16.736 39.864C16.6453 39.768 16.6 39.6507 16.6 39.512V34.888C16.6 34.7493 16.648 34.6347 16.744 34.544C16.84 34.448 16.9627 34.4 17.112 34.4ZM20.656 34.4C20.8053 34.4 20.9253 34.448 21.016 34.544C21.1067 34.6347 21.152 34.7493 21.152 34.888V39.512C21.152 39.6507 21.104 39.768 21.008 39.864C20.9173 39.9547 20.7947 40 20.64 40C20.512 40 20.3973 39.9547 20.296 39.864C20.2 39.768 20.152 39.6507 20.152 39.512V34.888C20.152 34.7493 20.2027 34.6347 20.304 34.544C20.4053 34.448 20.5227 34.4 20.656 34.4ZM17.088 36.728H20.656V37.648H17.088V36.728ZM24.246 40C24.0967 40 23.974 39.9547 23.878 39.864C23.782 39.768 23.734 39.6507 23.734 39.512V34.872H24.774V39.512C24.774 39.6507 24.7233 39.768 24.622 39.864C24.526 39.9547 24.4007 40 24.246 40ZM22.478 35.32C22.3393 35.32 22.222 35.2773 22.126 35.192C22.0353 35.1067 21.99 34.9947 21.99 34.856C21.99 34.7173 22.0353 34.608 22.126 34.528C22.222 34.4427 22.3393 34.4 22.478 34.4H26.03C26.1687 34.4 26.2833 34.4427 26.374 34.528C26.47 34.6133 26.518 34.7253 26.518 34.864C26.518 35.0027 26.47 35.1147 26.374 35.2C26.2833 35.28 26.1687 35.32 26.03 35.32H22.478ZM27.8618 34.392C27.9365 34.392 28.0138 34.4133 28.0938 34.456C28.1791 34.4933 28.2431 34.544 28.2858 34.608L30.2298 37.6L29.8298 37.584L31.8218 34.608C31.9231 34.464 32.0538 34.392 32.2138 34.392C32.3418 34.392 32.4565 34.4373 32.5578 34.528C32.6591 34.6187 32.7098 34.736 32.7098 34.88V39.512C32.7098 39.6507 32.6645 39.768 32.5738 39.864C32.4831 39.9547 32.3631 40 32.2138 40C32.0645 40 31.9418 39.9547 31.8458 39.864C31.7551 39.768 31.7098 39.6507 31.7098 39.512V35.744L32.0218 35.816L30.3898 38.304C30.3418 38.3627 30.2805 38.4133 30.2058 38.456C30.1365 38.4987 30.0645 38.5173 29.9898 38.512C29.9205 38.5173 29.8485 38.4987 29.7738 38.456C29.7045 38.4133 29.6458 38.3627 29.5978 38.304L28.0698 35.888L28.2778 35.464V39.512C28.2778 39.6507 28.2351 39.768 28.1498 39.864C28.0645 39.9547 27.9525 40 27.8138 40C27.6805 40 27.5711 39.9547 27.4858 39.864C27.4005 39.768 27.3578 39.6507 27.3578 39.512V34.88C27.3578 34.7467 27.4058 34.632 27.5018 34.536C27.6031 34.44 27.7231 34.392 27.8618 34.392ZM37.0005 39.064C37.1392 39.064 37.2538 39.1093 37.3445 39.2C37.4405 39.2853 37.4885 39.3973 37.4885 39.536C37.4885 39.6693 37.4405 39.7813 37.3445 39.872C37.2538 39.9573 37.1392 40 37.0005 40H34.4005C34.2618 40 34.1445 39.9547 34.0485 39.864C33.9578 39.768 33.9125 39.6507 33.9125 39.512V34.888C33.9125 34.7493 33.9605 34.6347 34.0565 34.544C34.1525 34.448 34.2752 34.4 34.4245 34.4C34.5525 34.4 34.6645 34.448 34.7605 34.544C34.8618 34.6347 34.9125 34.7493 34.9125 34.888V39.2L34.7365 39.064H37.0005Z" fill="black"/>
</g>
<defs>
<clipPath id="clip0_244_337">
<rect width="72" height="73" fill="white"/>
</clipPath>
</defs>
</svg>
