<svg width="72" height="74" viewBox="0 0 72 74" fill="none" xmlns="http://www.w3.org/2000/svg">
<path d="M21.9369 15.1628C20.5959 15.1628 19.509 16.2648 19.509 17.6244V57.0195C19.509 58.3791 20.5959 59.4811 21.9369 59.4811H49.8633C51.2043 59.4811 52.2911 58.3791 52.2911 57.0195V26.5653L40.5856 15.1628H21.9369Z" fill="#6E14FF"/>
<path d="M52.2915 26.565H43.0143C41.6733 26.565 40.5864 25.4625 40.5864 24.1029V15.1626L52.2915 26.565Z" fill="white"/>
<path d="M40.102 42.5782C40.102 44.1476 38.8475 45.4196 37.3008 45.4196H16.8445C15.2966 45.4196 14.0432 44.1476 14.0432 42.5782V33.8978C14.0432 32.3284 15.2967 31.0564 16.8445 31.0564H37.3008C38.8475 31.0564 40.102 32.3284 40.102 33.8978V42.5782Z" fill="white"/>
<path d="M17.9763 41.318C17.6723 41.318 17.3896 41.2567 17.1283 41.134C16.8669 41.0114 16.6536 40.8354 16.4883 40.606C16.4243 40.51 16.3923 40.4167 16.3923 40.326C16.3923 40.1927 16.4429 40.0807 16.5443 39.99C16.6509 39.8994 16.7549 39.854 16.8563 39.854C16.9363 39.854 17.0136 39.878 17.0883 39.926C17.1683 39.974 17.2403 40.03 17.3043 40.094C17.4109 40.19 17.5149 40.2594 17.6163 40.302C17.7229 40.3394 17.8429 40.358 17.9763 40.358C18.1363 40.358 18.2856 40.318 18.4243 40.238C18.5629 40.158 18.6749 40.0514 18.7603 39.918C18.8456 39.7847 18.8883 39.6407 18.8883 39.486V36.126C18.8883 35.9874 18.9389 35.8727 19.0403 35.782C19.1416 35.686 19.2589 35.638 19.3923 35.638C19.5416 35.638 19.6616 35.686 19.7523 35.782C19.8429 35.8727 19.8883 35.9874 19.8883 36.126V39.486C19.8883 39.8114 19.8029 40.1127 19.6323 40.39C19.4616 40.6674 19.2323 40.8914 18.9443 41.062C18.6563 41.2327 18.3336 41.318 17.9763 41.318ZM22.8863 41.318C22.513 41.318 22.177 41.2727 21.8783 41.182C21.5797 41.086 21.2943 40.9207 21.0223 40.686C20.953 40.6274 20.8997 40.5607 20.8623 40.486C20.825 40.4114 20.8063 40.3367 20.8063 40.262C20.8063 40.1394 20.849 40.0327 20.9343 39.942C21.025 39.846 21.137 39.798 21.2703 39.798C21.3717 39.798 21.4623 39.83 21.5423 39.894C21.745 40.0594 21.945 40.1847 22.1423 40.27C22.345 40.3554 22.593 40.398 22.8863 40.398C23.0837 40.398 23.265 40.3687 23.4303 40.31C23.5957 40.246 23.729 40.1634 23.8303 40.062C23.9317 39.9554 23.9823 39.8354 23.9823 39.702C23.9823 39.542 23.9343 39.406 23.8383 39.294C23.7423 39.182 23.5957 39.0887 23.3983 39.014C23.201 38.934 22.9503 38.8727 22.6463 38.83C22.3583 38.7874 22.105 38.7234 21.8863 38.638C21.6677 38.5474 21.4837 38.4354 21.3343 38.302C21.1903 38.1634 21.081 38.0034 21.0063 37.822C20.9317 37.6354 20.8943 37.4274 20.8943 37.198C20.8943 36.8514 20.9823 36.5554 21.1583 36.31C21.3397 36.0647 21.5823 35.878 21.8863 35.75C22.1903 35.622 22.5263 35.558 22.8943 35.558C23.241 35.558 23.561 35.6114 23.8543 35.718C24.153 35.8194 24.3957 35.95 24.5823 36.11C24.737 36.2327 24.8143 36.374 24.8143 36.534C24.8143 36.6514 24.769 36.758 24.6783 36.854C24.5877 36.95 24.481 36.998 24.3583 36.998C24.2783 36.998 24.2063 36.974 24.1423 36.926C24.057 36.8514 23.9423 36.782 23.7983 36.718C23.6543 36.6487 23.5023 36.5927 23.3423 36.55C23.1823 36.502 23.033 36.478 22.8943 36.478C22.665 36.478 22.4703 36.5074 22.3103 36.566C22.1557 36.6247 22.0383 36.7047 21.9583 36.806C21.8783 36.9074 21.8383 37.0247 21.8383 37.158C21.8383 37.318 21.8837 37.4514 21.9743 37.558C22.0703 37.6594 22.2063 37.742 22.3823 37.806C22.5583 37.8647 22.769 37.918 23.0143 37.966C23.3343 38.0247 23.6143 38.094 23.8543 38.174C24.0997 38.254 24.3023 38.358 24.4623 38.486C24.6223 38.6087 24.7423 38.766 24.8223 38.958C24.9023 39.1447 24.9423 39.374 24.9423 39.646C24.9423 39.9927 24.8463 40.2914 24.6543 40.542C24.4623 40.7927 24.209 40.9847 23.8943 41.118C23.585 41.2514 23.249 41.318 22.8863 41.318ZM31.0118 38.438C31.0118 38.838 30.9451 39.2114 30.8118 39.558C30.6784 39.9047 30.4891 40.2114 30.2438 40.478C30.0038 40.7394 29.7158 40.9447 29.3798 41.094C29.0491 41.2434 28.6864 41.318 28.2918 41.318C27.8971 41.318 27.5344 41.2434 27.2038 41.094C26.8731 40.9447 26.5851 40.7394 26.3398 40.478C26.0998 40.2114 25.9131 39.9047 25.7798 39.558C25.6464 39.2114 25.5798 38.838 25.5798 38.438C25.5798 38.038 25.6464 37.6647 25.7798 37.318C25.9131 36.9714 26.0998 36.6674 26.3398 36.406C26.5851 36.1394 26.8731 35.9314 27.2038 35.782C27.5344 35.6327 27.8971 35.558 28.2918 35.558C28.6864 35.558 29.0491 35.6327 29.3798 35.782C29.7158 35.9314 30.0038 36.1394 30.2438 36.406C30.4891 36.6674 30.6784 36.9714 30.8118 37.318C30.9451 37.6647 31.0118 38.038 31.0118 38.438ZM29.9718 38.438C29.9718 38.0807 29.8998 37.758 29.7558 37.47C29.6118 37.1767 29.4144 36.9447 29.1638 36.774C28.9131 36.6034 28.6224 36.518 28.2918 36.518C27.9611 36.518 27.6704 36.6034 27.4198 36.774C27.1691 36.9447 26.9718 37.174 26.8278 37.462C26.6891 37.75 26.6198 38.0754 26.6198 38.438C26.6198 38.7954 26.6891 39.1207 26.8278 39.414C26.9718 39.702 27.1691 39.9314 27.4198 40.102C27.6704 40.2727 27.9611 40.358 28.2918 40.358C28.6224 40.358 28.9131 40.2727 29.1638 40.102C29.4144 39.9314 29.6118 39.702 29.7558 39.414C29.8998 39.1207 29.9718 38.7954 29.9718 38.438ZM36.1781 35.638C36.3061 35.638 36.4101 35.6807 36.4901 35.766C36.5701 35.8514 36.6101 35.958 36.6101 36.086V40.75C36.6101 40.8887 36.5621 41.006 36.4661 41.102C36.3754 41.1927 36.2607 41.238 36.1221 41.238C36.0527 41.238 35.9807 41.2274 35.9061 41.206C35.8367 41.1794 35.7834 41.1447 35.7461 41.102L32.6021 37.11L32.8101 36.982V40.79C32.8101 40.918 32.7674 41.0247 32.6821 41.11C32.6021 41.1954 32.4954 41.238 32.3621 41.238C32.2341 41.238 32.1301 41.1954 32.0501 41.11C31.9701 41.0247 31.9301 40.918 31.9301 40.79V36.126C31.9301 35.9874 31.9754 35.8727 32.0661 35.782C32.1621 35.686 32.2794 35.638 32.4181 35.638C32.4927 35.638 32.5701 35.654 32.6501 35.686C32.7301 35.7127 32.7887 35.7554 32.8261 35.814L35.8741 39.702L35.7381 39.798V36.086C35.7381 35.958 35.7781 35.8514 35.8581 35.766C35.9381 35.6807 36.0447 35.638 36.1781 35.638Z" fill="#202020"/>
</svg>
