<svg width="72" height="74" viewBox="0 0 72 74" fill="none" xmlns="http://www.w3.org/2000/svg">
<path d="M21.9371 14.4812C20.5961 14.4812 19.5093 15.5831 19.5093 16.9428V56.3379C19.5093 57.6975 20.5961 58.7994 21.9371 58.7994H49.8635C51.2045 58.7994 52.2914 57.6975 52.2914 56.3379V25.8836L40.5859 14.4812H21.9371V14.4812Z" fill="#FF8A00"/>
<path d="M52.2915 25.8836H43.0143C41.6733 25.8836 40.5864 24.7811 40.5864 23.4215V14.4812L52.2915 25.8836Z" fill="white"/>
<path d="M40.102 41.8968C40.102 43.4662 38.8475 44.7382 37.3008 44.7382H16.8445C15.2966 44.7382 14.0432 43.4662 14.0432 41.8968V33.2164C14.0432 31.647 15.2967 30.375 16.8445 30.375H37.3008C38.8475 30.375 40.102 31.647 40.102 33.2164V41.8968Z" fill="white"/>
<path d="M21.9843 34.9566C22.2616 34.9566 22.5203 35.0366 22.7603 35.1966C23.0056 35.3566 23.2029 35.5726 23.3523 35.8446C23.5016 36.1166 23.5763 36.4206 23.5763 36.7566C23.5763 37.0873 23.5016 37.3886 23.3523 37.6606C23.2029 37.9326 23.0056 38.1513 22.7603 38.3166C22.5203 38.4766 22.2616 38.5566 21.9843 38.5566H20.5123L20.5923 38.4126V40.0686C20.5923 40.2073 20.5496 40.3246 20.4643 40.4206C20.3789 40.5113 20.2669 40.5566 20.1283 40.5566C19.9949 40.5566 19.8856 40.5113 19.8003 40.4206C19.7149 40.3246 19.6723 40.2073 19.6723 40.0686V35.4446C19.6723 35.306 19.7176 35.1913 19.8083 35.1006C19.9043 35.0046 20.0216 34.9566 20.1603 34.9566H21.9843ZM21.9843 37.6446C22.0856 37.6446 22.1843 37.602 22.2803 37.5166C22.3763 37.4313 22.4563 37.322 22.5203 37.1886C22.5843 37.05 22.6163 36.906 22.6163 36.7566C22.6163 36.602 22.5843 36.458 22.5203 36.3246C22.4563 36.1913 22.3763 36.0846 22.2803 36.0046C22.1843 35.9193 22.0856 35.8766 21.9843 35.8766H20.4963L20.5923 35.7326V37.7726L20.5043 37.6446H21.9843ZM26.8926 34.9566C27.2766 34.9566 27.6179 35.0286 27.9166 35.1726C28.2152 35.3166 28.4659 35.5193 28.6686 35.7806C28.8766 36.0366 29.0312 36.3353 29.1326 36.6766C29.2392 37.0126 29.2926 37.3726 29.2926 37.7566C29.2926 38.274 29.1992 38.746 29.0126 39.1726C28.8259 39.594 28.5539 39.93 28.1966 40.1806C27.8446 40.4313 27.4099 40.5566 26.8926 40.5566H24.9806C24.8419 40.5566 24.7246 40.5113 24.6286 40.4206C24.5379 40.3246 24.4926 40.2073 24.4926 40.0686V35.4446C24.4926 35.306 24.5379 35.1913 24.6286 35.1006C24.7246 35.0046 24.8419 34.9566 24.9806 34.9566H26.8926ZM26.8126 39.6366C27.1486 39.6366 27.4232 39.5513 27.6366 39.3806C27.8499 39.2046 28.0046 38.9753 28.1006 38.6926C28.2019 38.4046 28.2526 38.0926 28.2526 37.7566C28.2526 37.506 28.2232 37.2686 28.1646 37.0446C28.1112 36.8153 28.0259 36.6153 27.9086 36.4446C27.7912 36.2686 27.6419 36.13 27.4606 36.0286C27.2792 35.9273 27.0632 35.8766 26.8126 35.8766H25.4126L25.4926 35.8046V39.7246L25.4446 39.6366H26.8126ZM30.7153 40.5566C30.566 40.5566 30.4433 40.5113 30.3473 40.4206C30.2567 40.3246 30.2113 40.2073 30.2113 40.0686V35.4446C30.2113 35.306 30.2567 35.1913 30.3473 35.1006C30.4433 35.0046 30.5607 34.9566 30.6993 34.9566H33.2993C33.438 34.9566 33.5527 35.002 33.6433 35.0926C33.7393 35.178 33.7873 35.29 33.7873 35.4286C33.7873 35.546 33.7393 35.65 33.6433 35.7406C33.5527 35.8313 33.438 35.8766 33.2993 35.8766H31.1393L31.2113 35.7806V37.3886L31.1553 37.2846H32.9393C33.078 37.2846 33.1927 37.33 33.2833 37.4206C33.3793 37.506 33.4273 37.618 33.4273 37.7566C33.4273 37.874 33.3793 37.978 33.2833 38.0686C33.1927 38.1593 33.078 38.2046 32.9393 38.2046H31.1393L31.2113 38.1326V40.0686C31.2113 40.2073 31.1607 40.3246 31.0593 40.4206C30.9633 40.5113 30.8487 40.5566 30.7153 40.5566Z" fill="#202020"/>
</svg>
