<svg width="72" height="74" viewBox="0 0 72 74" fill="none" xmlns="http://www.w3.org/2000/svg">
<path d="M29.4278 8C28.0868 8 27 9.10194 27 10.4616V49.8567C27 51.2163 28.0868 52.3182 29.4278 52.3182H57.3542C58.6952 52.3182 59.7821 51.2163 59.7821 49.8567V19.4024L48.0766 8H29.4278Z" fill="#E74C3C"/>
<path d="M52.2915 25.8836H43.0143C41.6733 25.8836 40.5864 24.7811 40.5864 23.4215V14.4812L52.2915 25.8836Z" fill="white"/>
<path d="M40.102 41.8968C40.102 43.4662 38.8475 44.7382 37.3008 44.7382H16.8445C15.2966 44.7382 14.0432 43.4662 14.0432 41.8968V33.2164C14.0432 31.647 15.2967 30.375 16.8445 30.375H37.3008C38.8475 30.375 40.102 31.647 40.102 33.2164V41.8968Z" fill="white"/>
<path d="M23.9203 34.9566C24.0483 34.9566 24.1523 34.9993 24.2323 35.0846C24.3123 35.17 24.3523 35.2766 24.3523 35.4046V40.0686C24.3523 40.2073 24.3043 40.3246 24.2083 40.4206C24.1176 40.5113 24.0029 40.5566 23.8643 40.5566C23.7949 40.5566 23.7229 40.546 23.6483 40.5246C23.5789 40.498 23.5256 40.4633 23.4883 40.4206L20.3443 36.4286L20.5523 36.3006V40.1086C20.5523 40.2366 20.5096 40.3433 20.4243 40.4286C20.3443 40.514 20.2376 40.5566 20.1043 40.5566C19.9763 40.5566 19.8723 40.514 19.7923 40.4286C19.7123 40.3433 19.6723 40.2366 19.6723 40.1086V35.4446C19.6723 35.306 19.7176 35.1913 19.8083 35.1006C19.9043 35.0046 20.0216 34.9566 20.1603 34.9566C20.2349 34.9566 20.3123 34.9726 20.3923 35.0046C20.4723 35.0313 20.5309 35.074 20.5683 35.1326L23.6163 39.0206L23.4803 39.1166V35.4046C23.4803 35.2766 23.5203 35.17 23.6003 35.0846C23.6803 34.9993 23.7869 34.9566 23.9203 34.9566ZM25.6271 41.6286C25.5364 41.6286 25.4431 41.5913 25.3471 41.5166C25.2511 41.442 25.2031 41.346 25.2031 41.2286C25.2031 41.1646 25.2191 41.1006 25.2511 41.0366L28.4991 34.3886C28.5364 34.314 28.5871 34.2553 28.6511 34.2126C28.7151 34.17 28.7817 34.1486 28.8511 34.1486C28.9417 34.1486 29.0324 34.186 29.1231 34.2606C29.2191 34.33 29.2671 34.426 29.2671 34.5486C29.2671 34.6126 29.2511 34.6766 29.2191 34.7406L25.9791 41.3886C25.9417 41.4633 25.8911 41.522 25.8271 41.5646C25.7684 41.6073 25.7017 41.6286 25.6271 41.6286ZM32.158 36.2126L30.43 40.2766C30.3926 40.378 30.334 40.458 30.254 40.5166C30.1793 40.57 30.0966 40.5966 30.006 40.5966C29.862 40.5966 29.7553 40.5566 29.686 40.4766C29.6166 40.3966 29.582 40.298 29.582 40.1806C29.582 40.1326 29.59 40.082 29.606 40.0286L31.598 35.2446C31.6406 35.138 31.7046 35.0553 31.79 34.9966C31.8806 34.938 31.9766 34.914 32.078 34.9246C32.174 34.9246 32.262 34.954 32.342 35.0126C32.4273 35.066 32.4886 35.1433 32.526 35.2446L34.494 39.9326C34.5206 40.002 34.534 40.066 34.534 40.1246C34.534 40.2686 34.486 40.3833 34.39 40.4686C34.2993 40.554 34.198 40.5966 34.086 40.5966C33.99 40.5966 33.902 40.5673 33.822 40.5086C33.7473 40.45 33.6886 40.37 33.646 40.2686L31.926 36.2606L32.158 36.2126ZM30.678 39.3006L31.118 38.3806H33.278L33.43 39.3006H30.678Z" fill="#202020"/>
</svg>
