<svg width="46" height="45" viewBox="0 0 46 45" fill="none" xmlns="http://www.w3.org/2000/svg">
<path d="M15.4277 0C14.0867 0 12.9999 1.10194 12.9999 2.46157V41.8567C12.9999 43.2163 14.0867 44.3182 15.4277 44.3182H43.3541C44.6951 44.3182 45.782 43.2163 45.782 41.8567V11.4024L34.0765 0H15.4277Z" fill="#2ECC71"/>
<path d="M38.2912 17.8837H29.014C27.673 17.8837 26.5861 16.7811 26.5861 15.4215V6.48125L38.2912 17.8837Z" fill="white"/>
<path d="M26.1018 33.8969C26.1018 35.4663 24.8472 36.7383 23.3005 36.7383H2.84424C1.29632 36.7383 0.0429688 35.4663 0.0429688 33.8969V25.2165C0.0429688 23.6471 1.29647 22.3751 2.84424 22.3751H23.3005C24.8472 22.3751 26.1018 23.6471 26.1018 25.2165V33.8969Z" fill="white"/>
<path d="M10.4319 26.392C10.5545 26.392 10.6585 26.44 10.7439 26.536C10.8345 26.632 10.8799 26.7333 10.8799 26.84C10.8799 26.9413 10.8452 27.0373 10.7759 27.128L9.16786 29.248L8.62386 28.504L10.0399 26.624C10.1519 26.4693 10.2825 26.392 10.4319 26.392ZM6.86386 26.376C7.01853 26.376 7.1492 26.4453 7.25586 26.584L10.7759 31.264C10.8399 31.3493 10.8719 31.448 10.8719 31.56C10.8719 31.7093 10.8185 31.8267 10.7119 31.912C10.6052 31.9973 10.4985 32.04 10.3919 32.04C10.2372 32.04 10.1065 31.9707 9.99986 31.832L6.47986 27.152C6.41053 27.0667 6.37586 26.9707 6.37586 26.864C6.37586 26.7253 6.42653 26.6107 6.52786 26.52C6.63453 26.424 6.74653 26.376 6.86386 26.376ZM6.79186 32.04C6.67453 32.04 6.5732 31.9973 6.48786 31.912C6.40253 31.8213 6.35986 31.7227 6.35986 31.616C6.35986 31.4987 6.39986 31.3893 6.47986 31.288L8.10386 29.088L8.63186 29.864L7.19186 31.816C7.0852 31.9653 6.95186 32.04 6.79186 32.04Z" fill="#202020"/>
<path d="M14.93 31.064C15.0687 31.064 15.1834 31.1093 15.274 31.2C15.37 31.2853 15.4181 31.3973 15.4181 31.536C15.4181 31.6693 15.37 31.7813 15.274 31.872C15.1834 31.9573 15.0687 32 14.93 32H12.3301C12.1914 32 12.0741 31.9547 11.9781 31.864C11.8874 31.768 11.8421 31.6507 11.8421 31.512V26.888C11.8421 26.7493 11.8901 26.6347 11.9861 26.544C12.0821 26.448 12.2047 26.4 12.3541 26.4C12.4821 26.4 12.5941 26.448 12.6901 26.544C12.7914 26.6347 12.8421 26.7493 12.8421 26.888V31.2L12.666 31.064H14.93Z" fill="#202020"/>
<path d="M18.1342 32.08C17.7609 32.08 17.4249 32.0347 17.1262 31.944C16.8276 31.848 16.5422 31.6827 16.2702 31.448C16.2009 31.3893 16.1476 31.3227 16.1102 31.248C16.0729 31.1733 16.0542 31.0987 16.0542 31.024C16.0542 30.9013 16.0969 30.7947 16.1822 30.704C16.2729 30.608 16.3849 30.56 16.5182 30.56C16.6196 30.56 16.7102 30.592 16.7902 30.656C16.9929 30.8213 17.1929 30.9467 17.3902 31.032C17.5929 31.1173 17.8409 31.16 18.1342 31.16C18.3316 31.16 18.5129 31.1307 18.6782 31.072C18.8436 31.008 18.9769 30.9253 19.0782 30.824C19.1796 30.7173 19.2302 30.5973 19.2302 30.464C19.2302 30.304 19.1822 30.168 19.0862 30.056C18.9902 29.944 18.8436 29.8507 18.6462 29.776C18.4489 29.696 18.1982 29.6347 17.8942 29.592C17.6062 29.5493 17.3529 29.4853 17.1342 29.4C16.9156 29.3093 16.7316 29.1973 16.5822 29.064C16.4382 28.9253 16.3289 28.7653 16.2542 28.584C16.1796 28.3973 16.1422 28.1893 16.1422 27.96C16.1422 27.6133 16.2302 27.3173 16.4062 27.072C16.5876 26.8267 16.8302 26.64 17.1342 26.512C17.4382 26.384 17.7742 26.32 18.1422 26.32C18.4889 26.32 18.8089 26.3733 19.1022 26.48C19.4009 26.5813 19.6436 26.712 19.8302 26.872C19.9849 26.9947 20.0622 27.136 20.0622 27.296C20.0622 27.4133 20.0169 27.52 19.9262 27.616C19.8356 27.712 19.7289 27.76 19.6062 27.76C19.5262 27.76 19.4542 27.736 19.3902 27.688C19.3049 27.6133 19.1902 27.544 19.0462 27.48C18.9022 27.4107 18.7502 27.3547 18.5902 27.312C18.4302 27.264 18.2809 27.24 18.1422 27.24C17.9129 27.24 17.7182 27.2693 17.5582 27.328C17.4036 27.3867 17.2862 27.4667 17.2062 27.568C17.1262 27.6693 17.0862 27.7867 17.0862 27.92C17.0862 28.08 17.1316 28.2133 17.2222 28.32C17.3182 28.4213 17.4542 28.504 17.6302 28.568C17.8062 28.6267 18.0169 28.68 18.2622 28.728C18.5822 28.7867 18.8622 28.856 19.1022 28.936C19.3476 29.016 19.5502 29.12 19.7102 29.248C19.8702 29.3707 19.9902 29.528 20.0702 29.72C20.1502 29.9067 20.1902 30.136 20.1902 30.408C20.1902 30.7547 20.0942 31.0533 19.9022 31.304C19.7102 31.5547 19.4569 31.7467 19.1422 31.88C18.8329 32.0133 18.4969 32.08 18.1342 32.08Z" fill="#202020"/>
</svg>
