<svg width="64" height="64" viewBox="0 0 64 64" fill="none" xmlns="http://www.w3.org/2000/svg">
<path d="M20.0322 34.6181L21.3067 32.7311L20.234 31.0528C20.1328 30.8896 20.0567 30.7502 20.0072 30.6332C19.956 30.5161 19.9311 30.4044 19.9311 30.2966C19.9311 30.1865 19.9794 30.0875 20.0772 29.9992C20.1738 29.9111 20.2926 29.8672 20.4325 29.8672C20.5928 29.8672 20.7178 29.9151 20.8078 30.0112C20.8965 30.1075 21.0203 30.2849 21.1785 30.5449L22.0335 31.9477L22.9464 30.5449C23.0214 30.4268 23.0857 30.3259 23.139 30.2418C23.1919 30.1577 23.2431 30.0879 23.2925 30.0331C23.342 29.9784 23.397 29.9368 23.4579 29.9092C23.5182 29.8815 23.5887 29.8678 23.6694 29.8678C23.8143 29.8678 23.9331 29.9115 24.0252 29.9998C24.1166 30.0879 24.1628 30.1923 24.1628 30.3128C24.1628 30.4885 24.0627 30.7278 23.8638 31.0298L22.7405 32.7317L23.9491 34.6187C24.0577 34.7842 24.1367 34.9212 24.1861 35.0303C24.2356 35.1392 24.2599 35.2424 24.2599 35.3397C24.2599 35.432 24.2377 35.5155 24.194 35.5922C24.1502 35.6689 24.0876 35.7288 24.0075 35.7732C23.9273 35.8175 23.8365 35.84 23.7353 35.84C23.6267 35.84 23.534 35.8169 23.4596 35.7709C23.3851 35.7248 23.3237 35.6677 23.2771 35.5997C23.2305 35.5317 23.144 35.3986 23.0167 35.202L22.014 33.6027L20.9494 35.2493C20.8664 35.3807 20.8078 35.4724 20.7721 35.5254C20.7374 35.5779 20.6954 35.6292 20.6458 35.6792C20.5963 35.7294 20.5384 35.7686 20.4708 35.7974C20.4032 35.8262 20.3242 35.8407 20.2338 35.8407C20.0941 35.8407 19.978 35.7974 19.8859 35.7103C19.7945 35.6239 19.7483 35.4976 19.7483 35.3322C19.7486 35.1369 19.8429 34.8994 20.0322 34.6181Z" fill="#202020"/>
<path d="M26.1801 30.5757V34.7795H28.5192C28.7056 34.7795 28.8489 34.8255 28.9484 34.9172C29.0485 35.0095 29.0985 35.1247 29.0985 35.2642C29.0985 35.4059 29.049 35.5207 28.9507 35.6089C28.8524 35.697 28.7085 35.7409 28.5192 35.7409H25.7333C25.482 35.7409 25.3013 35.6844 25.1916 35.5715C25.0813 35.4586 25.0261 35.2758 25.0261 35.0239V30.5757C25.0261 30.3394 25.0784 30.1618 25.1835 30.0437C25.288 29.9255 25.4263 29.8662 25.5973 29.8662C25.7713 29.8662 25.9117 29.925 26.0186 30.0413C26.126 30.1589 26.1801 30.3371 26.1801 30.5757Z" fill="#202020"/>
<path d="M33.8814 34.0072C33.8814 34.3566 33.7927 34.6706 33.6154 34.949C33.4375 35.2273 33.1777 35.4453 32.8361 35.6032C32.4944 35.761 32.0891 35.8394 31.6196 35.8394C31.0574 35.8394 30.5936 35.7316 30.2286 35.5161C29.9695 35.361 29.7591 35.1542 29.5977 34.8954C29.4358 34.6366 29.3545 34.3854 29.3545 34.1409C29.3545 33.9992 29.4034 33.8775 29.5 33.7767C29.5979 33.6758 29.7212 33.6251 29.8712 33.6251C29.9929 33.6251 30.0963 33.6642 30.1805 33.7432C30.264 33.8222 30.3362 33.9385 30.3959 34.0936C30.4687 34.2776 30.5471 34.4308 30.6312 34.5547C30.7148 34.678 30.8336 34.78 30.9866 34.8601C31.1396 34.9402 31.3401 34.9799 31.5891 34.9799C31.9314 34.9799 32.2092 34.8992 32.4224 34.7378C32.6367 34.5764 32.7429 34.3748 32.7429 34.1332C32.7429 33.9413 32.6849 33.7857 32.5696 33.6664C32.4547 33.5465 32.3052 33.4555 32.1234 33.3927C31.9403 33.3298 31.6965 33.2623 31.3907 33.1915C30.9814 33.0946 30.6391 32.9806 30.3623 32.8509C30.0872 32.7206 29.8678 32.5438 29.7063 32.3189C29.5444 32.0942 29.4631 31.8152 29.4631 31.4814C29.4631 31.1638 29.5483 30.8809 29.7196 30.6343C29.8906 30.3877 30.1379 30.1974 30.462 30.0648C30.786 29.9322 31.1663 29.866 31.6046 29.866C31.9542 29.866 32.2566 29.9097 32.5125 29.998C32.7671 30.0861 32.9792 30.2025 33.1475 30.3484C33.3158 30.4943 33.4392 30.6475 33.5164 30.8071C33.5937 30.9667 33.6329 31.1235 33.6329 31.2757C33.6329 31.4151 33.5846 31.5401 33.4867 31.652C33.3901 31.7638 33.2684 31.8197 33.1235 31.8197C32.9916 31.8197 32.8911 31.7863 32.8228 31.7194C32.754 31.6526 32.6796 31.5424 32.5989 31.3903C32.4948 31.1725 32.371 31.0024 32.2259 30.8803C32.081 30.7581 31.848 30.697 31.5268 30.697C31.2289 30.697 30.989 30.7632 30.8055 30.8958C30.6236 31.0284 30.532 31.188 30.532 31.3747C30.532 31.4905 30.5633 31.5902 30.6253 31.6744C30.6873 31.7585 30.7731 31.8306 30.8818 31.8912C30.9904 31.9517 31.1007 31.999 31.212 32.0329C31.3234 32.0669 31.5077 32.117 31.764 32.1827C32.0851 32.2588 32.3756 32.3429 32.6366 32.4352C32.8964 32.5275 33.1186 32.6387 33.3005 32.7701C33.4835 32.9015 33.6256 33.0675 33.728 33.2687C33.8308 33.4695 33.8814 33.7163 33.8814 34.0072Z" fill="#202020"/>
</svg>
