<svg width="72" height="74" viewBox="0 0 72 74" fill="none" xmlns="http://www.w3.org/2000/svg">
<path d="M29.4278 8C28.0868 8 27 9.10194 27 10.4616V49.8567C27 51.2163 28.0868 52.3182 29.4278 52.3182H57.3542C58.6952 52.3182 59.7821 51.2163 59.7821 49.8567V19.4024L48.0766 8H29.4278Z" fill="#2ECC71"/>
<path d="M52.2915 25.8836H43.0143C41.6733 25.8836 40.5864 24.7811 40.5864 23.4215V14.4812L52.2915 25.8836Z" fill="white"/>
<path d="M40.102 41.8968C40.102 43.4662 38.8475 44.7382 37.3008 44.7382H16.8445C15.2966 44.7382 14.0432 43.4662 14.0432 41.8968V33.2164C14.0432 31.647 15.2967 30.375 16.8445 30.375H37.3008C38.8475 30.375 40.102 31.647 40.102 33.2164V41.8968Z" fill="white"/>
<path d="M24.384 34.4C24.5013 34.4 24.616 34.4427 24.728 34.528C24.8453 34.6133 24.904 34.728 24.904 34.872C24.904 34.9733 24.8667 35.0747 24.792 35.176L21.728 39.112L21.632 39.08H24.304C24.4427 39.08 24.5573 39.1227 24.648 39.208C24.744 39.288 24.792 39.3973 24.792 39.536C24.792 39.6693 24.744 39.7813 24.648 39.872C24.5573 39.9573 24.4427 40 24.304 40H20.792C20.6533 40 20.5333 39.952 20.432 39.856C20.3307 39.7547 20.28 39.6453 20.28 39.528C20.28 39.4267 20.3173 39.3253 20.392 39.224L23.464 35.272L23.536 35.32H21.112C20.9733 35.32 20.856 35.2773 20.76 35.192C20.6693 35.1067 20.624 34.9947 20.624 34.856C20.624 34.7173 20.6693 34.608 20.76 34.528C20.856 34.4427 20.9733 34.4 21.112 34.4H24.384ZM26.7875 39.512C26.7875 39.6507 26.7368 39.768 26.6355 39.864C26.5342 39.9547 26.4168 40 26.2835 40C26.1342 40 26.0142 39.9547 25.9235 39.864C25.8328 39.768 25.7875 39.6507 25.7875 39.512V34.888C25.7875 34.7493 25.8355 34.6347 25.9315 34.544C26.0275 34.448 26.1502 34.4 26.2995 34.4C26.4275 34.4 26.5395 34.448 26.6355 34.544C26.7368 34.6347 26.7875 34.7493 26.7875 34.888V39.512ZM30.3026 34.4C30.58 34.4 30.8386 34.48 31.0786 34.64C31.324 34.8 31.5213 35.016 31.6706 35.288C31.82 35.56 31.8946 35.864 31.8946 36.2C31.8946 36.5307 31.82 36.832 31.6706 37.104C31.5213 37.376 31.324 37.5947 31.0786 37.76C30.8386 37.92 30.58 38 30.3026 38H28.8306L28.9106 37.856V39.512C28.9106 39.6507 28.868 39.768 28.7826 39.864C28.6973 39.9547 28.5853 40 28.4466 40C28.3133 40 28.204 39.9547 28.1186 39.864C28.0333 39.768 27.9906 39.6507 27.9906 39.512V34.888C27.9906 34.7493 28.036 34.6347 28.1266 34.544C28.2226 34.448 28.34 34.4 28.4786 34.4H30.3026ZM30.3026 37.088C30.404 37.088 30.5026 37.0453 30.5986 36.96C30.6946 36.8747 30.7746 36.7653 30.8386 36.632C30.9026 36.4933 30.9346 36.3493 30.9346 36.2C30.9346 36.0453 30.9026 35.9013 30.8386 35.768C30.7746 35.6347 30.6946 35.528 30.5986 35.448C30.5026 35.3627 30.404 35.32 30.3026 35.32H28.8146L28.9106 35.176V37.216L28.8226 37.088H30.3026Z" fill="#202020"/>
</svg>
